<svg xmlns:xlink="http://www.w3.org/1999/xlink" width="614.4" height="460.8" viewBox="0 0 460.8 345.6" xmlns="http://www.w3.org/2000/svg"><defs><style>*{stroke-linejoin:round;stroke-linecap:butt}</style></defs><g id="figure_1"><path d="M0 345.6h460.8V0H0z" style="fill:#fff" id="patch_1"/><g id="axes_1"><path d="M57.6 307.584h357.12V41.472H57.6z" style="fill:#fff" id="patch_2"/><g id="matplotlib.axis_1"><g id="xtick_1"><g id="line2d_1"><defs><path id="me57c060fca" d="M0 0v3.5" style="stroke:#000;stroke-width:.8"/></defs><use xlink:href="#me57c060fca" x="57.6" y="307.584" style="stroke:#000;stroke-width:.8"/></g><g transform="matrix(.1 0 0 -.1 55.11 321.502)" id="text_1"><defs><path id="CMR17-30" d="M2688 2038c0 392-6 1061-275 1575-237 450-615 611-947 611-308 0-698-142-941-604-256-483-282-1081-282-1582 0-367 7-926 205-1415 275-662 768-751 1018-751 294 0 742 121 1004 732 192 444 218 964 218 1434zM1466-26c-410 0-653 354-743 842-70 380-70 933-70 1293 0 495 0 906 83 1298 122 547 480 714 730 714 262 0 601-174 723-701 83-366 89-797 89-1311 0-418 0-933-76-1312-135-701-512-823-736-823z" transform="scale(.01563)"/></defs><use xlink:href="#CMR17-30" transform="scale(.99626)"/></g></g><g id="xtick_2"><use xlink:href="#me57c060fca" x="129.024" y="307.584" style="stroke:#000;stroke-width:.8" id="line2d_2"/><g transform="matrix(.1 0 0 -.1 126.533 321.502)" id="text_2"><defs><path id="CMR17-31" d="M1702 4083c0 134-6 141-96 141-249-297-627-391-985-404-19 0-51 0-58-12-6-13-6-26-6-160 198 0 531 38 787 191V467c0-224-13-301-563-301H589V0c307 6 627 12 934 12s627-6 935-12v166h-192c-551 0-564 70-564 301v3616z" transform="scale(.01563)"/></defs><use xlink:href="#CMR17-31" transform="scale(.99626)"/></g></g><g id="xtick_3"><use xlink:href="#me57c060fca" x="200.448" y="307.584" style="stroke:#000;stroke-width:.8" id="line2d_3"/><g transform="matrix(.1 0 0 -.1 197.957 321.502)" id="text_3"><defs><path id="CMR17-32" d="M2669 990h-115c-64-453-116-530-141-568-32-51-493-51-583-51H602c230 249 678 702 1222 1225 390 370 845 804 845 1437 0 755-602 1191-1274 1191-704 0-1133-621-1133-1197 0-250 186-282 263-282 64 0 256 38 256 262 0 199-167 257-256 257-39 0-77-7-103-20 122 544 493 813 884 813 556 0 921-441 921-1024 0-556-326-1035-691-1450L262 147V0h2253l154 990z" transform="scale(.01563)"/></defs><use xlink:href="#CMR17-32" transform="scale(.99626)"/></g></g><g id="xtick_4"><use xlink:href="#me57c060fca" x="271.872" y="307.584" style="stroke:#000;stroke-width:.8" id="line2d_4"/><g transform="matrix(.1 0 0 -.1 269.381 321.502)" id="text_4"><defs><path id="CMR17-33" d="M1414 2176c570 0 820-503 820-1082 0-772-410-1069-781-1069-339 0-890 168-1063 666 32-13 64-13 96-13 154 0 269 102 269 269 0 185-141 269-269 269-108 0-275-52-275-289 0-592 576-1055 1255-1055 710 0 1254 560 1254 1215 0 631-512 1089-1120 1159 486 101 954 530 954 1107 0 503-506 871-1082 871-582 0-1094-362-1094-877 0-224 166-263 249-263 135 0 250 83 250 250 0 166-115 250-250 250-25 0-57 0-83-13 186 428 691 505 915 505s647-110 647-729c0-180-26-496-244-773-192-245-409-258-620-277-32 0-180-13-205-13-45-6-71-12-71-57s7-51 135-51h313z" transform="scale(.01563)"/></defs><use xlink:href="#CMR17-33" transform="scale(.99626)"/></g></g><g id="xtick_5"><use xlink:href="#me57c060fca" x="343.296" y="307.584" style="stroke:#000;stroke-width:.8" id="line2d_5"/><g transform="matrix(.1 0 0 -.1 340.805 321.502)" id="text_5"><defs><path id="CMR17-34" d="M2150 4147c0 134-6 141-121 141L128 1254v-166h1651V460c0-230-13-294-461-294h-121V0c205 12 550 12 768 12 217 0 563 0 768-12v166h-122c-448 0-461 64-461 294v628h653v166h-653v2893zm-352-424V1254H256l1542 2469z" transform="scale(.01563)"/></defs><use xlink:href="#CMR17-34" transform="scale(.99626)"/></g></g><g id="xtick_6"><use xlink:href="#me57c060fca" x="414.72" y="307.584" style="stroke:#000;stroke-width:.8" id="line2d_6"/><g transform="matrix(.1 0 0 -.1 412.23 321.502)" id="text_6"><defs><path id="CMR17-35" d="M730 3750c64-26 326-109 595-109 595 0 921 320 1107 499 0 51 0 84-38 84-7 0-20 0-71-26-224-96-486-166-806-166-192 0-480 23-794 159-70 33-83 33-89 33-32 0-39-7-39-134V2231c0-118 0-151 64-151 32 0 45 13 77 59 205 296 486 421 806 421 224 0 704-145 704-1267 0-206 0-577-192-871-160-263-409-397-684-397-423 0-852 294-967 787 26-6 77-19 103-19 83 0 243 45 243 243 0 173-122 244-243 244-148 0-244-90-244-269 0-557 442-1139 1120-1139 660 0 1287 569 1287 1395 0 787-499 1395-1120 1395-327 0-602-122-819-358v1446z" transform="scale(.01563)"/></defs><use xlink:href="#CMR17-35" transform="scale(.99626)"/></g></g><g transform="matrix(.1 0 0 -.1 205.713 334.912)" id="text_7"><defs><path id="CMSSBX10-55" d="M4301 4110c0 203-45 306-307 306h-256c-244 0-308-84-308-306V1455c0-621-185-1033-966-1033-742 0-941 374-941 1027v2661c0 203-45 306-307 306H890c-231 0-308-71-308-306V1474C582 134 1645-128 2458-128c729 0 1843 217 1843 1596v2642z" transform="scale(.01563)"/><path id="CMSSBX10-53" d="M1728 2843c-141 32-538 180-538 546 0 546 544 559 762 559 358 0 678-83 992-392 102-96 109-103 134-103 39 0 71 20 90 116l96 558c13 52 13 64 13 84 0 51-7 57-167 140-454 224-832 257-1158 257-570 0-1562-135-1562-1334 0-457 237-752 359-880 326-335 627-399 1126-514 359-84 499-116 640-245 64-64 199-199 199-443 0-604-551-623-762-623-538 0-1005 219-1325 508-77 77-89 77-115 77-38 0-70-20-90-116l-96-558c-12-52-12-64-12-84 0-134 665-364 697-377 429-135 775-147 941-147 960 0 1562 428 1562 1423 0 720-532 1259-1172 1407l-614 141z" transform="scale(.01563)"/><path id="CMSSBX10-65" d="M2758 1388c148 0 308 7 308 295 0 837-384 1389-1338 1389-1024 0-1530-578-1530-1562C198 448 806-64 1811-64c243 0 608 32 1031 243 140 70 185 89 185 166 0 45-19 233-25 285-26 201-32 207-90 207-26 0-38 0-109-65-377-330-761-376-966-376-723 0-800 577-819 992h1740zm-1734 340c19 396 147 883 704 883 512 0 608-377 627-883H1024z" transform="scale(.01563)"/><path id="CMSSBX10-6e" d="M3200 2085c0 660-282 923-934 923-672 0-960-487-1044-660h-6v320c0 205-45 307-307 307H691c-230 0-307-70-307-307V307C384 76 454 0 691 0h256c243 0 307 83 307 307v1418c0 559 372 822 704 822 308 0 372-148 372-475V307c0-205 44-307 307-307h256c243 0 307 83 307 307v1778z" transform="scale(.01563)"/><path id="CMSSBX10-73" d="M2534 914c0 363-192 589-307 693-256 233-480 272-749 324-352 64-608 116-608 369 0 265 212 317 461 317 429 0 659-162 826-304 64-65 77-65 102-65 64 0 77 58 83 84 13 52 77 413 77 445 0 102-339 192-409 218-256 70-461 77-628 77-288 0-1145 0-1145-921 0-318 141-512 313-667 224-207 474-253 839-324 185-32 512-91 512-376 0-304-250-349-499-349-282 0-640 84-941 447-32 32-51 51-90 51-64 0-77-58-83-97-13-90-90-459-90-523 0-115 474-262 480-269 352-108 615-108 724-108 326 0 1132 25 1132 978z" transform="scale(.01563)"/><path id="CMSSBX10-6f" d="M3315 1458c0 1062-512 1614-1555 1614-1069 0-1562-572-1562-1614C198 403 749-64 1754-64c1004 0 1561 460 1561 1522zM1760 435c-691 0-691 583-691 1101 0 498 0 1075 685 1075 691 0 691-570 691-1075 0-512 0-1101-685-1101z" transform="scale(.01563)"/><path id="CMSSBX10-72" d="M1242 1456c0 601 505 848 908 873 116 6 128 6 128 173v301c0 128 0 173-115 173-179 0-646-65-947-754h-6v414c0 205-45 308-308 308H698c-231 0-308-71-308-308V305C390 76 461 0 698 0h236c244 0 308 83 308 305v1151z" transform="scale(.01563)"/><path id="CMSSBX10-28" d="M2054 4800c-115 0-128 0-243-103-768-646-1261-1740-1261-3097 0-775 160-2112 1229-3079 135-121 147-121 275-121h116c102 0 172 0 172 83 0 19 0 32-76 115-404 493-845 1280-845 3002 0 1881 531 2624 883 3046 26 32 38 45 38 70 0 84-70 84-172 84h-116z" transform="scale(.01563)"/><path id="CMSSBX10-56" d="M4480 4128c26 77 32 83 32 115 0 173-160 173-250 173h-249c-135 0-320 0-423-281l-864-2360-332-980c-7 19-77 242-173 503L1184 4141c-102 275-282 275-416 275H422c-89 0-249 0-249-173 0-32 6-38 32-115L1638 267C1734 0 1920 0 2048 0h589c134 0 313 0 416 280l1427 3848z" transform="scale(.01563)"/><path id="CMSSBX10-29" d="M563 4800c-102 0-173 0-173-84 0-19 0-32 77-115 397-492 845-1280 845-3001 0-1876-531-2618-883-3047-39-45-39-57-39-70 0-83 71-83 173-83h115c116 0 128 0 244 102 768 646 1260 1741 1260 3098 0 774-160 2112-1228 3078-135 122-148 122-276 122H563z" transform="scale(.01563)"/></defs><use xlink:href="#CMSSBX10-55" transform="scale(.99626)"/><use xlink:href="#CMSSBX10-53" transform="matrix(.99626 0 0 .99626 115.556 0)"/><use xlink:href="#CMSSBX10-65" transform="matrix(.99626 0 0 .99626 176.44 0)"/><use xlink:href="#CMSSBX10-6e" transform="matrix(.99626 0 0 .99626 227.36 0)"/><use xlink:href="#CMSSBX10-73" transform="matrix(.99626 0 0 .99626 283.262 0)"/><use xlink:href="#CMSSBX10-6f" transform="matrix(.99626 0 0 .99626 325.271 0)"/><use xlink:href="#CMSSBX10-72" transform="matrix(.99626 0 0 .99626 377.022 0)"/><use xlink:href="#CMSSBX10-28" transform="matrix(.99626 0 0 .99626 450.635 0)"/><use xlink:href="#CMSSBX10-56" transform="matrix(.99626 0 0 .99626 493.253 0)"/><use xlink:href="#CMSSBX10-29" transform="matrix(.99626 0 0 .99626 566.313 0)"/><path d="M82.679 0h32.877v.399H82.68V0z"/></g></g><g id="matplotlib.axis_2"><g id="ytick_1"><g id="line2d_7"><defs><path id="md3aa11eaa4" d="M0 0h-3.5" style="stroke:#000;stroke-width:.8"/></defs><use xlink:href="#md3aa11eaa4" x="57.6" y="307.584" style="stroke:#000;stroke-width:.8"/></g><use xlink:href="#CMR17-30" transform="matrix(.09963 0 0 -.09963 45.619 311.043)" id="text_8"/></g><g id="ytick_2"><use xlink:href="#md3aa11eaa4" x="57.6" y="263.232" style="stroke:#000;stroke-width:.8" id="line2d_8"/><g transform="matrix(.1 0 0 -.1 30.675 266.691)" id="text_9"><use xlink:href="#CMR17-35" transform="scale(.99626)"/><use xlink:href="#CMR17-30" transform="matrix(.99626 0 0 .99626 45.69 0)"/><use xlink:href="#CMR17-30" transform="matrix(.99626 0 0 .99626 91.381 0)"/><use xlink:href="#CMR17-30" transform="matrix(.99626 0 0 .99626 137.071 0)"/></g></g><g id="ytick_3"><use xlink:href="#md3aa11eaa4" x="57.6" y="218.88" style="stroke:#000;stroke-width:.8" id="line2d_9"/><g transform="matrix(.1 0 0 -.1 25.693 222.34)" id="text_10"><use xlink:href="#CMR17-31" transform="scale(.99626)"/><use xlink:href="#CMR17-30" transform="matrix(.99626 0 0 .99626 45.69 0)"/><use xlink:href="#CMR17-30" transform="matrix(.99626 0 0 .99626 91.381 0)"/><use xlink:href="#CMR17-30" transform="matrix(.99626 0 0 .99626 137.071 0)"/><use xlink:href="#CMR17-30" transform="matrix(.99626 0 0 .99626 182.762 0)"/></g></g><g id="ytick_4"><use xlink:href="#md3aa11eaa4" x="57.6" y="174.528" style="stroke:#000;stroke-width:.8" id="line2d_10"/><g transform="matrix(.1 0 0 -.1 25.693 177.987)" id="text_11"><use xlink:href="#CMR17-31" transform="scale(.99626)"/><use xlink:href="#CMR17-35" transform="matrix(.99626 0 0 .99626 45.69 0)"/><use xlink:href="#CMR17-30" transform="matrix(.99626 0 0 .99626 91.381 0)"/><use xlink:href="#CMR17-30" transform="matrix(.99626 0 0 .99626 137.071 0)"/><use xlink:href="#CMR17-30" transform="matrix(.99626 0 0 .99626 182.762 0)"/></g></g><g id="ytick_5"><use xlink:href="#md3aa11eaa4" x="57.6" y="130.176" style="stroke:#000;stroke-width:.8" id="line2d_11"/><g transform="matrix(.1 0 0 -.1 25.693 133.635)" id="text_12"><use xlink:href="#CMR17-32" transform="scale(.99626)"/><use xlink:href="#CMR17-30" transform="matrix(.99626 0 0 .99626 45.69 0)"/><use xlink:href="#CMR17-30" transform="matrix(.99626 0 0 .99626 91.381 0)"/><use xlink:href="#CMR17-30" transform="matrix(.99626 0 0 .99626 137.071 0)"/><use xlink:href="#CMR17-30" transform="matrix(.99626 0 0 .99626 182.762 0)"/></g></g><g id="ytick_6"><use xlink:href="#md3aa11eaa4" x="57.6" y="85.824" style="stroke:#000;stroke-width:.8" id="line2d_12"/><g transform="matrix(.1 0 0 -.1 25.693 89.283)" id="text_13"><use xlink:href="#CMR17-32" transform="scale(.99626)"/><use xlink:href="#CMR17-35" transform="matrix(.99626 0 0 .99626 45.69 0)"/><use xlink:href="#CMR17-30" transform="matrix(.99626 0 0 .99626 91.381 0)"/><use xlink:href="#CMR17-30" transform="matrix(.99626 0 0 .99626 137.071 0)"/><use xlink:href="#CMR17-30" transform="matrix(.99626 0 0 .99626 182.762 0)"/></g></g><g id="ytick_7"><use xlink:href="#md3aa11eaa4" x="57.6" y="41.472" style="stroke:#000;stroke-width:.8" id="line2d_13"/><g transform="matrix(.1 0 0 -.1 25.693 44.931)" id="text_14"><use xlink:href="#CMR17-33" transform="scale(.99626)"/><use xlink:href="#CMR17-30" transform="matrix(.99626 0 0 .99626 45.69 0)"/><use xlink:href="#CMR17-30" transform="matrix(.99626 0 0 .99626 91.381 0)"/><use xlink:href="#CMR17-30" transform="matrix(.99626 0 0 .99626 137.071 0)"/><use xlink:href="#CMR17-30" transform="matrix(.99626 0 0 .99626 182.762 0)"/></g></g><g transform="matrix(0 -.1 -.1 0 19.203 204.615)" id="text_15"><defs><path id="CMSSBX10-52" d="M3091 2028c403 96 1011 339 1011 1130 0 1258-1388 1258-1676 1258H890c-231 0-308-71-308-308V305C582 76 653 0 890 0h307c243 0 307 83 307 305v1666h710L3264 153C3354 0 3424 0 3565 0h377c128 0 237 0 237 191L3091 2028zm-1587 404v1433h832c742 0 877-293 877-714 0-375-90-719-877-719h-832z" transform="scale(.01563)"/><path id="CMR17-a" d="M4038 935h-115c-57-295-77-372-109-474-32-97-51-148-422-148h-518c70 372 224 648 492 1077 333 545 608 987 608 1519 0 866-819 1571-1836 1571-1044 0-1844-712-1844-1571 0-532 282-987 596-1493 281-455 435-731 505-1103H877c-365 0-384 51-416 141-39 103-51 186-115 481H230L416 0h966c135 0 141 6 141 102 0 455-237 1051-345 1326-205 500-397 988-397 1488 0 955 685 1461 1350 1461 698 0 1357-525 1357-1461 0-494-173-936-410-1520-102-262-332-846-332-1294 0-102 6-102 140-102h967l185 935z" transform="scale(.01563)"/></defs><use xlink:href="#CMSSBX10-52" transform="scale(.99626)"/><use xlink:href="#CMSSBX10-53" transform="matrix(.99626 0 0 .99626 109.468 0)"/><use xlink:href="#CMSSBX10-65" transform="matrix(.99626 0 0 .99626 170.351 0)"/><use xlink:href="#CMSSBX10-6e" transform="matrix(.99626 0 0 .99626 221.272 0)"/><use xlink:href="#CMSSBX10-73" transform="matrix(.99626 0 0 .99626 277.173 0)"/><use xlink:href="#CMSSBX10-6f" transform="matrix(.99626 0 0 .99626 319.183 0)"/><use xlink:href="#CMSSBX10-72" transform="matrix(.99626 0 0 .99626 370.933 0)"/><use xlink:href="#CMSSBX10-28" transform="matrix(.99626 0 0 .99626 444.547 0)"/><use xlink:href="#CMR17-a" transform="matrix(.99626 0 0 .99626 487.165 0)"/><use xlink:href="#CMSSBX10-29" transform="matrix(.99626 0 0 .99626 553.675 0)"/><path d="M76.59 0h32.878v.399H76.59V0z"/></g></g><path d="m71.885 306.845 7.142-.393 7.143-.41 7.142-.43 7.142-.447 7.143-.469 7.142-.491 7.143-.515 7.142-.541 7.142-.569 7.143-.598 7.142-.631 7.143-.666 7.142-.704 7.142-.746 7.143-.79 7.142-.84 7.143-.894 7.142-.954 7.142-1.02 7.143-1.092 7.142-1.174 7.143-1.263 7.142-1.365 7.142-1.478 7.143-1.607 7.142-1.753 7.143-1.92 7.142-2.112 7.142-2.335 7.143-2.593 7.142-2.899 7.143-3.261 7.142-3.696 7.142-4.224 7.143-4.874 7.142-5.686 7.143-6.72 7.142-8.064 7.142-9.856 7.143-12.32 7.142-15.84 7.143-21.12 7.142-29.568 7.142-44.352 7.143-73.92" clip-path="url(#pd1777d8f9f)" style="fill:none;stroke:#0d468e;stroke-width:1.5;stroke-linecap:square" id="line2d_14"/><path d="M57.6 307.584V41.472" style="fill:none;stroke:#000;stroke-width:.8;stroke-linejoin:miter;stroke-linecap:square" id="patch_3"/><path d="M414.72 307.584V41.472" style="fill:none;stroke:#000;stroke-width:.8;stroke-linejoin:miter;stroke-linecap:square" id="patch_4"/><path d="M57.6 307.584h357.12" style="fill:none;stroke:#000;stroke-width:.8;stroke-linejoin:miter;stroke-linecap:square" id="patch_5"/><path d="M57.6 41.472h357.12" style="fill:none;stroke:#000;stroke-width:.8;stroke-linejoin:miter;stroke-linecap:square" id="patch_6"/><g transform="matrix(.12 0 0 -.12 200.004 35.472)" id="text_16"><defs><path id="CMSS17-4b" d="m2234 2665 1593 1751h-614L1101 2106v2310H563V0h538v1431l774 846L3315 0h595L2234 2665z" transform="scale(.01563)"/><path id="CMSS17-65" d="M2502 1375c0 212-12 626-217 972-224 366-589 469-864 469-666 0-1229-632-1229-1453C192 579 774-64 1510-64c288 0 640 83 960 313 0 26-12 165-19 172 0 12-19 208-19 234-307-247-659-329-915-329-410 0-851 341-871 1049h1856zM698 1728c83 358 364 697 723 697 96 0 544-13 659-697H698z" transform="scale(.01563)"/><path id="CMSS17-6e" d="M2618 1878c0 405-96 938-820 938-409 0-678-212-857-430v397H474V0h486v1556c0 406 154 869 589 869 563 0 582-380 582-599V0h487v1878z" transform="scale(.01563)"/><path id="CMSS17-6c" d="M947 4416H474V0h473v4416z" transform="scale(.01563)"/><path id="CMSS17-69" d="M979 4224H442v-538h537v538zm-32-1472H474V0h473v2752z" transform="scale(.01563)"/><path id="CMSS17-4e" d="m1466 4179-116 237H563V0h499v3925l7 6c45-114 70-172 333-738L2771 236 2886 0h788v4416h-500V490l-6-6c-45 114-70 171-333 738L1466 4179z" transform="scale(.01563)"/><path id="CMSS17-54" d="M2317 3987h531c77 0 154-7 230-7h800v416H218v-416h800c76 0 153 7 230 7h531V0h538v3987z" transform="scale(.01563)"/><path id="CMSS17-43" d="M3501 705c-429-289-627-373-1146-373-896 0-1421 972-1421 1859 0 946 538 1879 1447 1879 409 0 678-116 1005-322l89 507c-307 154-697 225-1088 225-1229 0-1990-1137-1990-2289C397 924 1299-77 2323-77c551 0 743 45 1216 345l-38 437z" transform="scale(.01563)"/></defs><use xlink:href="#CMSS17-4b" transform="scale(.99626)"/><use xlink:href="#CMSS17-65" transform="matrix(.99626 0 0 .99626 64.82 0)"/><use xlink:href="#CMSS17-6e" transform="matrix(.99626 0 0 .99626 106.46 0)"/><use xlink:href="#CMSS17-6e" transform="matrix(.99626 0 0 .99626 154.664 0)"/><use xlink:href="#CMSS17-6c" transform="matrix(.99626 0 0 .99626 202.869 0)"/><use xlink:href="#CMSS17-69" transform="matrix(.99626 0 0 .99626 225.05 0)"/><use xlink:href="#CMSS17-6e" transform="matrix(.99626 0 0 .99626 247.23 0)"/><use xlink:href="#CMSS17-69" transform="matrix(.99626 0 0 .99626 295.435 0)"/><use xlink:href="#CMSS17-65" transform="matrix(.99626 0 0 .99626 317.616 0)"/><use xlink:href="#CMSS17-4e" transform="matrix(.99626 0 0 .99626 390.484 0)"/><use xlink:href="#CMSS17-54" transform="matrix(.99626 0 0 .99626 456.546 0)"/><use xlink:href="#CMSS17-43" transform="matrix(.99626 0 0 .99626 520.365 0)"/></g><g id="legend_1"><path d="M64.6 63.41h52.202q2 0 2-2V48.471q0-2-2-2H64.6q-2 0-2 2v12.937q0 2 2 2z" style="fill:#fff;opacity:.8;stroke:#ccc;stroke-linejoin:miter" id="patch_7"/><path d="M66.6 53.972h20" style="fill:none;stroke:#0d468e;stroke-width:1.5;stroke-linecap:square" id="line2d_15"/><g transform="matrix(.1 0 0 -.1 94.6 57.472)" id="text_17"><use xlink:href="#CMSS17-4e" transform="scale(.99626)"/><use xlink:href="#CMSS17-54" transform="matrix(.99626 0 0 .99626 66.062 0)"/><use xlink:href="#CMSS17-43" transform="matrix(.99626 0 0 .99626 129.881 0)"/></g></g></g></g><defs><clipPath id="pd1777d8f9f"><path d="M57.6 41.472h357.12v266.112H57.6z"/></clipPath></defs></svg>