<svg xmlns:xlink="http://www.w3.org/1999/xlink" width="944.882" height="665.197" viewBox="0 0 708.661 498.898" xmlns="http://www.w3.org/2000/svg"><defs><style>*{stroke-linejoin:round;stroke-linecap:butt}</style></defs><g id="figure_1"><path d="M0 498.898h708.661V0H0z" style="fill:#fff" id="patch_1"/><g id="axes_1"><path d="M44.493 458.28H697.86V25.101H44.493z" style="fill:#fff" id="patch_2"/><g id="matplotlib.axis_1"><g id="xtick_1"><g id="line2d_1"><defs><path id="m0a204cb041" d="M0 0v3.5" style="stroke:#000;stroke-width:.8"/></defs><use xlink:href="#m0a204cb041" x="74.191" y="458.279" style="stroke:#000;stroke-width:.8"/></g><g transform="matrix(.1 0 0 -.1 71.7 472.198)" id="text_1"><defs><path id="CMR17-30" d="M2688 2038c0 392-6 1061-275 1575-237 450-615 611-947 611-308 0-698-142-941-604-256-483-282-1081-282-1582 0-367 7-926 205-1415 275-662 768-751 1018-751 294 0 742 121 1004 732 192 444 218 964 218 1434zM1466-26c-410 0-653 354-743 842-70 380-70 933-70 1293 0 495 0 906 83 1298 122 547 480 714 730 714 262 0 601-174 723-701 83-366 89-797 89-1311 0-418 0-933-76-1312-135-701-512-823-736-823z" transform="scale(.01563)"/></defs><use xlink:href="#CMR17-30" transform="scale(.99626)"/></g></g><g id="xtick_2"><use xlink:href="#m0a204cb041" x="192.986" y="458.279" style="stroke:#000;stroke-width:.8" id="line2d_2"/><g transform="matrix(.1 0 0 -.1 190.495 472.198)" id="text_2"><defs><path id="CMR17-32" d="M2669 990h-115c-64-453-116-530-141-568-32-51-493-51-583-51H602c230 249 678 702 1222 1225 390 370 845 804 845 1437 0 755-602 1191-1274 1191-704 0-1133-621-1133-1197 0-250 186-282 263-282 64 0 256 38 256 262 0 199-167 257-256 257-39 0-77-7-103-20 122 544 493 813 884 813 556 0 921-441 921-1024 0-556-326-1035-691-1450L262 147V0h2253l154 990z" transform="scale(.01563)"/></defs><use xlink:href="#CMR17-32" transform="scale(.99626)"/></g></g><g id="xtick_3"><use xlink:href="#m0a204cb041" x="311.78" y="458.279" style="stroke:#000;stroke-width:.8" id="line2d_3"/><g transform="matrix(.1 0 0 -.1 309.29 472.198)" id="text_3"><defs><path id="CMR17-34" d="M2150 4147c0 134-6 141-121 141L128 1254v-166h1651V460c0-230-13-294-461-294h-121V0c205 12 550 12 768 12 217 0 563 0 768-12v166h-122c-448 0-461 64-461 294v628h653v166h-653v2893zm-352-424V1254H256l1542 2469z" transform="scale(.01563)"/></defs><use xlink:href="#CMR17-34" transform="scale(.99626)"/></g></g><g id="xtick_4"><use xlink:href="#m0a204cb041" x="430.574" y="458.279" style="stroke:#000;stroke-width:.8" id="line2d_4"/><g transform="matrix(.1 0 0 -.1 428.084 472.198)" id="text_4"><defs><path id="CMR17-36" d="M678 2198c0 1514 717 1878 1133 1878 135 0 461-27 589-294-102 0-294 0-294-224 0-173 140-230 230-230 58 0 230 25 230 243 0 416-320 653-761 653-762 0-1562-813-1562-2213C243 257 966-128 1478-128c621 0 1210 559 1210 1423 0 806-518 1393-1171 1393-391 0-679-258-839-709v219zM1478 25c-787 0-787 1187-787 1425 0 464 218 1135 813 1135 109 0 422 0 634-445 115-251 115-516 115-838 0-348 0-606-135-864-140-265-345-413-640-413z" transform="scale(.01563)"/></defs><use xlink:href="#CMR17-36" transform="scale(.99626)"/></g></g><g id="xtick_5"><use xlink:href="#m0a204cb041" x="549.369" y="458.279" style="stroke:#000;stroke-width:.8" id="line2d_5"/><g transform="matrix(.1 0 0 -.1 546.878 472.198)" id="text_5"><defs><path id="CMR17-38" d="M1741 2289c403 205 813 514 813 1009 0 586-564 926-1082 926-582 0-1094-424-1094-1009 0-161 38-438 288-682 64-64 332-257 505-379-288-148-960-502-960-1209 0-663 627-1073 1248-1073 685 0 1261 494 1261 1150 0 585-390 855-646 1029l-333 238zm-839 566c-51 32-307 231-307 533 0 393 403 688 864 688 506 0 877-360 877-778 0-598-666-939-698-939-6 0-12 0-64 39l-672 457zm1178-1319c96-70 403-283 403-675 0-476-473-836-1011-836C890 25 448 443 448 951s390 933 832 1132l800-547z" transform="scale(.01563)"/></defs><use xlink:href="#CMR17-38" transform="scale(.99626)"/></g></g><g id="xtick_6"><use xlink:href="#m0a204cb041" x="668.163" y="458.279" style="stroke:#000;stroke-width:.8" id="line2d_6"/><g transform="matrix(.1 0 0 -.1 663.182 472.198)" id="text_6"><defs><path id="CMR17-31" d="M1702 4083c0 134-6 141-96 141-249-297-627-391-985-404-19 0-51 0-58-12-6-13-6-26-6-160 198 0 531 38 787 191V467c0-224-13-301-563-301H589V0c307 6 627 12 934 12s627-6 935-12v166h-192c-551 0-564 70-564 301v3616z" transform="scale(.01563)"/></defs><use xlink:href="#CMR17-31" transform="scale(.99626)"/><use xlink:href="#CMR17-30" transform="matrix(.99626 0 0 .99626 45.69 0)"/></g></g><g transform="matrix(.1 0 0 -.1 349.49 485.607)" id="text_7"><defs><path id="CMSSBX10-5a" d="M3840 3859c64 83 64 96 64 236 0 173-6 321-307 321H794c-269 0-308-109-308-314 0-314 135-314 391-314 557 0 1113 19 1670 19h224L454 582c-64-83-64-96-64-224v-51C390 76 461 0 698 0h2937c243 0 307 83 307 307v57c0 308-147 308-364 308-564 0-1453-13-2042-26l2304 3213z" transform="scale(.01563)"/><path id="CMSSBX10-65" d="M2758 1388c148 0 308 7 308 295 0 837-384 1389-1338 1389-1024 0-1530-578-1530-1562C198 448 806-64 1811-64c243 0 608 32 1031 243 140 70 185 89 185 166 0 45-19 233-25 285-26 201-32 207-90 207-26 0-38 0-109-65-377-330-761-376-966-376-723 0-800 577-819 992h1740zm-1734 340c19 396 147 883 704 883 512 0 608-377 627-883H1024z" transform="scale(.01563)"/><path id="CMSSBX10-69" d="M653 4480c-205 0-307-39-307-295v-294c0-205 64-288 300-288h333c307 0 307 134 307 435 0 307 0 442-307 442H653zm589-1845c0 206-45 309-308 309H698c-231 0-308-71-308-309V308C390 76 461 0 698 0h236c244 0 308 83 308 308v2327z" transform="scale(.01563)"/><path id="CMSSBX10-74" d="M1395 2483h570c77 0 307 0 307 230 0 231-230 231-307 231h-570v526c0 203-45 306-307 306H890c-231 0-308-71-308-306v-526H435c-70 0-307 0-307-231 0-230 230-230 307-230h128V858c0-647 231-922 672-922 58 0 339 0 672 102 109 32 480 147 480 269 0 19-13 64-51 198-32 129-45 167-102 167-32 0-39-6-77-45-71-51-243-192-512-192-154 0-250 109-250 533v1515z" transform="scale(.01563)"/><path id="CMSSBX10-28" d="M2054 4800c-115 0-128 0-243-103-768-646-1261-1740-1261-3097 0-775 160-2112 1229-3079 135-121 147-121 275-121h116c102 0 172 0 172 83 0 19 0 32-76 115-404 493-845 1280-845 3002 0 1881 531 2624 883 3046 26 32 38 45 38 70 0 84-70 84-172 84h-116z" transform="scale(.01563)"/><path id="CMSSBX10-6d" d="M5158 2059c0 654-281 917-934 917-454 0-806-212-1037-632-102 612-646 632-915 632-122 0-390 0-678-212-199-147-327-351-372-446h-6v318c0 205-45 308-307 308H691c-230 0-307-71-307-308V305C384 76 454 0 691 0h256c243 0 307 83 307 305v1399c0 570 391 811 704 811 308 0 378-133 378-469V305c0-229 70-305 307-305h256c243 0 307 83 307 305v1399c0 570 391 811 704 811 308 0 378-133 378-469V305c0-229 70-305 307-305h256c243 0 307 83 307 305v1754z" transform="scale(.01563)"/><path id="CMSSBX10-73" d="M2534 914c0 363-192 589-307 693-256 233-480 272-749 324-352 64-608 116-608 369 0 265 212 317 461 317 429 0 659-162 826-304 64-65 77-65 102-65 64 0 77 58 83 84 13 52 77 413 77 445 0 102-339 192-409 218-256 70-461 77-628 77-288 0-1145 0-1145-921 0-318 141-512 313-667 224-207 474-253 839-324 185-32 512-91 512-376 0-304-250-349-499-349-282 0-640 84-941 447-32 32-51 51-90 51-64 0-77-58-83-97-13-90-90-459-90-523 0-115 474-262 480-269 352-108 615-108 724-108 326 0 1132 25 1132 978z" transform="scale(.01563)"/><path id="CMSSBX10-29" d="M563 4800c-102 0-173 0-173-84 0-19 0-32 77-115 397-492 845-1280 845-3001 0-1876-531-2618-883-3047-39-45-39-57-39-70 0-83 71-83 173-83h115c116 0 128 0 244 102 768 646 1260 1741 1260 3098 0 774-160 2112-1228 3078-135 122-148 122-276 122H563z" transform="scale(.01563)"/></defs><use xlink:href="#CMSSBX10-5a" transform="scale(.99626)"/><use xlink:href="#CMSSBX10-65" transform="matrix(.99626 0 0 .99626 66.971 0)"/><use xlink:href="#CMSSBX10-69" transform="matrix(.99626 0 0 .99626 117.892 0)"/><use xlink:href="#CMSSBX10-74" transform="matrix(.99626 0 0 .99626 143.352 0)"/><use xlink:href="#CMSSBX10-28" transform="matrix(.99626 0 0 .99626 220.148 0)"/><use xlink:href="#CMSSBX10-6d" transform="matrix(.99626 0 0 .99626 262.766 0)"/><use xlink:href="#CMSSBX10-73" transform="matrix(.99626 0 0 .99626 349.11 0)"/><use xlink:href="#CMSSBX10-29" transform="matrix(.99626 0 0 .99626 391.119 0)"/></g></g><g id="matplotlib.axis_2"><g id="ytick_1"><g id="line2d_7"><defs><path id="mc0e6d901f7" d="M0 0h-3.5" style="stroke:#000;stroke-width:.8"/></defs><use xlink:href="#mc0e6d901f7" x="44.493" y="458.279" style="stroke:#000;stroke-width:.8"/></g><g transform="matrix(.1 0 0 -.1 24.763 461.739)" id="text_8"><defs><path id="CMSY10-0" d="M4218 1472c108 0 224 0 224 128s-116 128-224 128H755c-109 0-224 0-224-128s115-128 224-128h3463z" transform="scale(.01563)"/></defs><use xlink:href="#CMSY10-0" transform="scale(.99626)"/><use xlink:href="#CMR17-32" transform="matrix(.99626 0 0 .99626 77.487 0)"/></g></g><g id="ytick_2"><use xlink:href="#mc0e6d901f7" x="44.493" y="404.132" style="stroke:#000;stroke-width:.8" id="line2d_8"/><g transform="matrix(.1 0 0 -.1 24.763 407.591)" id="text_9"><use xlink:href="#CMSY10-0" transform="scale(.99626)"/><use xlink:href="#CMR17-31" transform="matrix(.99626 0 0 .99626 77.487 0)"/></g></g><g id="ytick_3"><use xlink:href="#mc0e6d901f7" x="44.493" y="349.985" style="stroke:#000;stroke-width:.8" id="line2d_9"/><use xlink:href="#CMR17-30" transform="matrix(.09963 0 0 -.09963 32.511 353.444)" id="text_10"/></g><g id="ytick_4"><use xlink:href="#mc0e6d901f7" x="44.493" y="295.838" style="stroke:#000;stroke-width:.8" id="line2d_10"/><use xlink:href="#CMR17-31" transform="matrix(.09963 0 0 -.09963 32.511 299.297)" id="text_11"/></g><g id="ytick_5"><use xlink:href="#mc0e6d901f7" x="44.493" y="241.691" style="stroke:#000;stroke-width:.8" id="line2d_11"/><use xlink:href="#CMR17-32" transform="matrix(.09963 0 0 -.09963 32.511 245.15)" id="text_12"/></g><g id="ytick_6"><use xlink:href="#mc0e6d901f7" x="44.493" y="187.544" style="stroke:#000;stroke-width:.8" id="line2d_12"/><g transform="matrix(.1 0 0 -.1 32.511 191.003)" id="text_13"><defs><path id="CMR17-33" d="M1414 2176c570 0 820-503 820-1082 0-772-410-1069-781-1069-339 0-890 168-1063 666 32-13 64-13 96-13 154 0 269 102 269 269 0 185-141 269-269 269-108 0-275-52-275-289 0-592 576-1055 1255-1055 710 0 1254 560 1254 1215 0 631-512 1089-1120 1159 486 101 954 530 954 1107 0 503-506 871-1082 871-582 0-1094-362-1094-877 0-224 166-263 249-263 135 0 250 83 250 250 0 166-115 250-250 250-25 0-57 0-83-13 186 428 691 505 915 505s647-110 647-729c0-180-26-496-244-773-192-245-409-258-620-277-32 0-180-13-205-13-45-6-71-12-71-57s7-51 135-51h313z" transform="scale(.01563)"/></defs><use xlink:href="#CMR17-33" transform="scale(.99626)"/></g></g><g id="ytick_7"><use xlink:href="#mc0e6d901f7" x="44.493" y="133.396" style="stroke:#000;stroke-width:.8" id="line2d_13"/><use xlink:href="#CMR17-34" transform="matrix(.09963 0 0 -.09963 32.511 136.856)" id="text_14"/></g><g id="ytick_8"><use xlink:href="#mc0e6d901f7" x="44.493" y="79.249" style="stroke:#000;stroke-width:.8" id="line2d_14"/><g transform="matrix(.1 0 0 -.1 32.511 82.709)" id="text_15"><defs><path id="CMR17-35" d="M730 3750c64-26 326-109 595-109 595 0 921 320 1107 499 0 51 0 84-38 84-7 0-20 0-71-26-224-96-486-166-806-166-192 0-480 23-794 159-70 33-83 33-89 33-32 0-39-7-39-134V2231c0-118 0-151 64-151 32 0 45 13 77 59 205 296 486 421 806 421 224 0 704-145 704-1267 0-206 0-577-192-871-160-263-409-397-684-397-423 0-852 294-967 787 26-6 77-19 103-19 83 0 243 45 243 243 0 173-122 244-243 244-148 0-244-90-244-269 0-557 442-1139 1120-1139 660 0 1287 569 1287 1395 0 787-499 1395-1120 1395-327 0-602-122-819-358v1446z" transform="scale(.01563)"/></defs><use xlink:href="#CMR17-35" transform="scale(.99626)"/></g></g><g id="ytick_9"><use xlink:href="#mc0e6d901f7" x="44.493" y="25.102" style="stroke:#000;stroke-width:.8" id="line2d_15"/><use xlink:href="#CMR17-36" transform="matrix(.09963 0 0 -.09963 32.511 28.561)" id="text_16"/></g><g transform="matrix(0 -.1 -.1 0 18.272 273.807)" id="text_17"><defs><path id="CMSSBX10-53" d="M1728 2843c-141 32-538 180-538 546 0 546 544 559 762 559 358 0 678-83 992-392 102-96 109-103 134-103 39 0 71 20 90 116l96 558c13 52 13 64 13 84 0 51-7 57-167 140-454 224-832 257-1158 257-570 0-1562-135-1562-1334 0-457 237-752 359-880 326-335 627-399 1126-514 359-84 499-116 640-245 64-64 199-199 199-443 0-604-551-623-762-623-538 0-1005 219-1325 508-77 77-89 77-115 77-38 0-70-20-90-116l-96-558c-12-52-12-64-12-84 0-134 665-364 697-377 429-135 775-147 941-147 960 0 1562 428 1562 1423 0 720-532 1259-1172 1407l-614 141z" transform="scale(.01563)"/><path id="CMSSBX10-70" d="M1261 256c288-320 640-320 729-320 1357 0 1357 1228 1357 1548 0 314 0 1524-1158 1524-378 0-717-154-947-372 0 237-90 301-308 301H698c-231 0-308-70-308-307V-912c0-228 71-304 308-304h256c243 0 307 83 307 304V256zm0 2041c70 64 281 211 557 211 652 0 659-755 659-1037 0-256 0-1075-723-1075-148 0-263 52-340 109-153 109-153 141-153 256v1536z" transform="scale(.01563)"/><path id="CMSSBX10-61" d="M2970 2047c0 1018-973 1025-1293 1025-301 0-621-26-1050-205-134-58-166-77-166-148 0-44 38-419 45-471 6-39 38-71 83-71 32 0 51 19 70 38 275 292 595 434 992 434 346 0 448-213 448-595v-227c-224 0-1901-13-1901-965 0-453 359-926 922-926 218 0 698 64 998 506V313c0-205 45-307 308-307h236c244 0 308 83 308 307v1734zM2099 998c0-602-608-602-627-602-269 0-442 233-442 479 0 635 890 680 1069 687V998z" transform="scale(.01563)"/><path id="CMSSBX10-6e" d="M3200 2085c0 660-282 923-934 923-672 0-960-487-1044-660h-6v320c0 205-45 307-307 307H691c-230 0-307-70-307-307V307C384 76 454 0 691 0h256c243 0 307 83 307 307v1418c0 559 372 822 704 822 308 0 372-148 372-475V307c0-205 44-307 307-307h256c243 0 307 83 307 307v1778z" transform="scale(.01563)"/><path id="CMSSBX10-75" d="M3200 2636c0 205-45 308-307 308h-256c-243 0-307-84-307-308V1115c0-423-224-789-679-789-358 0-397 90-397 430v1880c0 205-44 308-307 308H691c-230 0-307-71-307-308V814c0-686 371-878 1037-878 173 0 627 0 928 544V313c0-205 45-307 307-307h237c243 0 307 83 307 307v2323z" transform="scale(.01563)"/><path id="CMSSBX10-67" d="M1280 569c-230 0-320 0-410 82-25 27-134 129-134 302 0 45 6 58 13 96 301-166 678-166 813-166 268 0 1286 0 1286 1059 0 373-141 598-198 669 108 0 332 0 595-71 25-13 70-26 89-26 52 0 84 39 84 84 0 25-32 179-45 243-26 154-26 167-141 167-198 0-518-77-762-225-300 199-633 225-908 225-269 0-1287 0-1287-1060 0-257 71-579 314-790-173-237-173-500-173-534 0-125 38-336 173-509-96-39-429-154-429-566 0-200 96-535 499-721 365-166 794-172 1095-172 377 0 1600 0 1600 912 0 1001-903 1001-1767 1001h-307zm282 775c-448 0-468 244-468 598s20 605 468 605 467-245 467-599-19-604-467-604zm345-1472c519 0 787-91 787-323 0-433-729-433-934-433-256 0-941 0-941 452 0 304 199 304 346 304h742z" transform="scale(.01563)"/><path id="CMSSBX10-56" d="M4480 4128c26 77 32 83 32 115 0 173-160 173-250 173h-249c-135 0-320 0-423-281l-864-2360-332-980c-7 19-77 242-173 503L1184 4141c-102 275-282 275-416 275H422c-89 0-249 0-249-173 0-32 6-38 32-115L1638 267C1734 0 1920 0 2048 0h589c134 0 313 0 416 280l1427 3848z" transform="scale(.01563)"/></defs><use xlink:href="#CMSSBX10-53" transform="scale(.99626)"/><use xlink:href="#CMSSBX10-70" transform="matrix(.99626 0 0 .99626 60.883 0)"/><use xlink:href="#CMSSBX10-61" transform="matrix(.99626 0 0 .99626 116.785 0)"/><use xlink:href="#CMSSBX10-6e" transform="matrix(.99626 0 0 .99626 169.09 0)"/><use xlink:href="#CMSSBX10-6e" transform="matrix(.99626 0 0 .99626 224.99 0)"/><use xlink:href="#CMSSBX10-75" transform="matrix(.99626 0 0 .99626 280.893 0)"/><use xlink:href="#CMSSBX10-6e" transform="matrix(.99626 0 0 .99626 336.794 0)"/><use xlink:href="#CMSSBX10-67" transform="matrix(.99626 0 0 .99626 392.696 0)"/><use xlink:href="#CMSSBX10-28" transform="matrix(.99626 0 0 .99626 484.021 0)"/><use xlink:href="#CMSSBX10-56" transform="matrix(.99626 0 0 .99626 526.64 0)"/><use xlink:href="#CMSSBX10-29" transform="matrix(.99626 0 0 .99626 599.699 0)"/></g></g><path d="M74.191 79.25h207.886l.113 270.735h88.984l.113-270.736h207.78l.112 270.736h88.978l.006-270.736h0" clip-path="url(#pb42215c8c8)" style="fill:none;stroke:#a71916;stroke-width:1.5;stroke-linecap:square" id="line2d_16"/><path d="M44.493 458.28V25.101" style="fill:none;stroke:#000;stroke-width:.8;stroke-linejoin:miter;stroke-linecap:square" id="patch_3"/><path d="M697.861 458.28V25.101" style="fill:none;stroke:#000;stroke-width:.8;stroke-linejoin:miter;stroke-linecap:square" id="patch_4"/><path d="M44.493 458.28H697.86" style="fill:none;stroke:#000;stroke-width:.8;stroke-linejoin:miter;stroke-linecap:square" id="patch_5"/><path d="M44.493 25.102H697.86" style="fill:none;stroke:#000;stroke-width:.8;stroke-linejoin:miter;stroke-linecap:square" id="patch_6"/><g id="patch_7"><path d="M278.962 377.059H77.31M274.962 375.059l4 2-4 2M81.31 379.059l-4-2 4-2" style="fill:none;stroke:#0d468e;stroke-linecap:round"/></g><g style="fill:#0d468e" transform="matrix(.1 0 0 -.1 131.97 387.888)" id="text_18"><defs><path id="CMSS17-74" d="M1069 2380h832v372h-832v768H614v-768H109v-372h493V751c0-367 83-815 505-815 320 0 615 89 896 236l-102 379c-154-135-339-212-538-212-281 0-294 360-294 521v1520z" transform="scale(.01563)"/><path id="CMSS17-45" d="M1958 435c-512 0-742 0-857-7v1677h1984v391H1101v1497h825c77 0 154-6 231-6h1094v416H563V0h2771v441l-1376-6z" transform="scale(.01563)"/><path id="CMSS17-6e" d="M2618 1878c0 405-96 938-820 938-409 0-678-212-857-430v397H474V0h486v1556c0 406 154 869 589 869 563 0 582-380 582-599V0h487v1878z" transform="scale(.01563)"/><path id="CMSS17-73" d="M2061 2623c-378 180-672 193-864 193-455 0-999-161-999-807s704-787 896-826c295-57 621-121 621-441 0-403-461-403-544-403-256 0-608 70-928 300l-77-428C531 0 883-64 1178-64c787 0 985 480 985 844 0 314-179 525-301 621-211 166-288 186-812 294-90 13-404 84-404 372 0 364 404 364 493 364 416 0 672-128 845-224l77 416z" transform="scale(.01563)"/><path id="CMSS17-63" d="M2464 2540c0 45-294 173-371 199-211 77-480 77-551 77-832 0-1331-724-1331-1453C211 595 768-64 1517-64c429 0 736 140 985 307l-38 422c-275-211-595-326-941-326-499 0-825 435-825 1030 0 461 211 1043 851 1043 352 0 550-70 845-269l70 397z" transform="scale(.01563)"/><path id="CMSS17-68" d="M2618 1878c0 405-96 938-820 938-403 0-665-199-851-417v2017H474V0h486v1556c0 406 154 869 589 869 563 0 582-380 582-599V0h487v1878z" transform="scale(.01563)"/><path id="CMSS17-61" d="M2406 1789c0 610-428 1027-1004 1027-282 0-589-52-941-257l38-426c160 117 435 305 896 305 327 0 525-253 525-656v-246C896 1504 256 1209 256 711c0-259 160-775 691-775 96 0 615 12 986 288V-13h473v1802zm-486-965c0-113 0-265-192-378-166-107-378-120-467-120-320 0-538 177-538 397 0 442 999 486 1197 493V824z" transform="scale(.01563)"/><path id="CMSS17-6c" d="M947 4416H474V0h473v4416z" transform="scale(.01563)"/><path id="CMSS17-69" d="M979 4224H442v-538h537v538zm-32-1472H474V0h473v2752z" transform="scale(.01563)"/><path id="CMSS17-7a" d="M2400 2502v250H250v-385h819c77 0 153 7 230 7h448L166 262V0h2253v396h-870c-77 0-154-6-231-6H826l1574 2112z" transform="scale(.01563)"/><path id="CMSS17-65" d="M2502 1375c0 212-12 626-217 972-224 366-589 469-864 469-666 0-1229-632-1229-1453C192 579 774-64 1510-64c288 0 640 83 960 313 0 26-12 165-19 172 0 12-19 208-19 234-307-247-659-329-915-329-410 0-851 341-871 1049h1856zM698 1728c83 358 364 697 723 697 96 0 544-13 659-697H698z" transform="scale(.01563)"/><path id="CMSS17-3a" d="M1088 2752H576v-513h512v513zM576 512V0h512v512H576z" transform="scale(.01563)"/><path id="CMSS17-33" d="M1005 2060h435c602 0 774-528 774-896 0-502-281-896-742-896-358 0-864 181-1152 658-45-226-45-239-70-393 300-444 787-661 1235-661 729 0 1267 609 1267 1286 0 509-352 934-832 1094 384 211 666 608 666 1069 0 538-493 967-1095 967-550 0-979-340-1158-705 45-64 160-249 217-345 141 377 506 659 935 659 358 0 595-237 595-576 0-352-224-736-602-825-25 0-422-39-473-45v-391z" transform="scale(.01563)"/><path id="CMSS17-2e" d="M1088 512H576V0h512v512z" transform="scale(.01563)"/><path id="CMSS17-35" d="M934 3814h1568v410H467V1830h429c115 273 352 474 659 474 288 0 608-260 608-1005 0-797-454-1031-787-1031-410 0-787 253-954 603L218 508C512 51 992-128 1376-128c742 0 1325 636 1325 1414 0 797-519 1408-1139 1408-224 0-442-77-628-230v1350z" transform="scale(.01563)"/><path id="CMSS17-30" d="M2758 2073c0 366-6 1047-268 1574-263 506-685 641-986 641-435 0-806-257-998-667-205-430-263-873-263-1548 0-462 19-1027 250-1522C755 6 1197-128 1498-128c396 0 780 211 998 653 224 463 262 970 262 1548zM1498 262c-487 0-634 559-679 745-77 321-89 629-89 1137 0 398 0 848 121 1201 147 411 403 552 647 552 473 0 627-475 678-642 96-340 96-739 96-1111 0-598 0-1882-774-1882z" transform="scale(.01563)"/><path id="CMSS17-6d" d="M4288 1878c0 431-109 938-826 938-480 0-768-301-896-488-115 340-384 488-768 488-435 0-710-250-857-430v397H474V0h486v1556c0 380 141 869 595 869 583 0 583-412 583-599V0h486v1556c0 380 141 869 595 869 583 0 583-412 583-599V0h486v1878z" transform="scale(.01563)"/></defs><use xlink:href="#CMSS17-45" transform="scale(.99626)"/><use xlink:href="#CMSS17-69" transform="matrix(.99626 0 0 .99626 55.892 0)"/><use xlink:href="#CMSS17-6e" transform="matrix(.99626 0 0 .99626 78.073 0)"/><use xlink:href="#CMSS17-73" transform="matrix(.99626 0 0 .99626 126.278 0)"/><use xlink:href="#CMSS17-63" transform="matrix(.99626 0 0 .99626 162.191 0)"/><use xlink:href="#CMSS17-68" transform="matrix(.99626 0 0 .99626 203.83 0)"/><use xlink:href="#CMSS17-61" transform="matrix(.99626 0 0 .99626 252.035 0)"/><use xlink:href="#CMSS17-6c" transform="matrix(.99626 0 0 .99626 296.957 0)"/><use xlink:href="#CMSS17-74" transform="matrix(.99626 0 0 .99626 319.138 0)"/><use xlink:href="#CMSS17-7a" transform="matrix(.99626 0 0 .99626 352.97 0)"/><use xlink:href="#CMSS17-65" transform="matrix(.99626 0 0 .99626 393.647 0)"/><use xlink:href="#CMSS17-69" transform="matrix(.99626 0 0 .99626 435.286 0)"/><use xlink:href="#CMSS17-74" transform="matrix(.99626 0 0 .99626 457.467 0)"/><use xlink:href="#CMSS17-3a" transform="matrix(.99626 0 0 .99626 491.298 0)"/><use xlink:href="#CMSS17-33" transform="matrix(.99626 0 0 .99626 558.961 0)"/><use xlink:href="#CMSS17-2e" transform="matrix(.99626 0 0 .99626 605.805 0)"/><use xlink:href="#CMSS17-35" transform="matrix(.99626 0 0 .99626 631.829 0)"/><use xlink:href="#CMSS17-30" transform="matrix(.99626 0 0 .99626 678.673 0)"/><use xlink:href="#CMSS17-6d" transform="matrix(.99626 0 0 .99626 756.745 0)"/><use xlink:href="#CMSS17-73" transform="matrix(.99626 0 0 .99626 830.975 0)"/></g><g id="patch_8"><path d="M368.06 377.059H285.2M364.06 375.059l4 2-4 2M289.2 379.059l-4-2 4-2" style="fill:none;stroke:#b2b2b2;stroke-linecap:round"/></g><g style="fill:#b2b2b2" transform="matrix(.1 0 0 -.1 279.397 387.888)" id="text_19"><defs><path id="CMSS17-41" d="M2272 4416h-550L166 0h487l448 1280h1715L3270 0h557L2272 4416zm422-2778H1222c308 892 692 2000 736 2286h7c45-261 173-643 281-968l448-1318z" transform="scale(.01563)"/><path id="CMSS17-75" d="M2618 2752h-487V976c0-476-345-669-710-669-423 0-461 141-461 405v2040H474V680c0-501 172-744 614-744 218 0 710 51 1056 371V-13h474v2765z" transform="scale(.01563)"/><path id="CMSS17-31" d="M1818 4288h-122c-346-339-749-386-1158-397v-371c185 6 486 19 787 153V371H570V0h2003v371h-755v3917z" transform="scale(.01563)"/></defs><use xlink:href="#CMSS17-41" transform="scale(.99626)"/><use xlink:href="#CMSS17-75" transform="matrix(.99626 0 0 .99626 62.218 0)"/><use xlink:href="#CMSS17-73" transform="matrix(.99626 0 0 .99626 110.423 0)"/><use xlink:href="#CMSS17-73" transform="matrix(.99626 0 0 .99626 146.336 0)"/><use xlink:href="#CMSS17-63" transform="matrix(.99626 0 0 .99626 182.25 0)"/><use xlink:href="#CMSS17-68" transform="matrix(.99626 0 0 .99626 223.889 0)"/><use xlink:href="#CMSS17-61" transform="matrix(.99626 0 0 .99626 272.094 0)"/><use xlink:href="#CMSS17-6c" transform="matrix(.99626 0 0 .99626 317.016 0)"/><use xlink:href="#CMSS17-74" transform="matrix(.99626 0 0 .99626 339.196 0)"/><use xlink:href="#CMSS17-7a" transform="matrix(.99626 0 0 .99626 373.028 0)"/><use xlink:href="#CMSS17-65" transform="matrix(.99626 0 0 .99626 413.706 0)"/><use xlink:href="#CMSS17-69" transform="matrix(.99626 0 0 .99626 455.345 0)"/><use xlink:href="#CMSS17-74" transform="matrix(.99626 0 0 .99626 477.525 0)"/><use xlink:href="#CMSS17-3a" transform="matrix(.99626 0 0 .99626 511.357 0)"/><use xlink:href="#CMSS17-31" transform="matrix(.99626 0 0 .99626 579.02 0)"/><use xlink:href="#CMSS17-2e" transform="matrix(.99626 0 0 .99626 625.863 0)"/><use xlink:href="#CMSS17-35" transform="matrix(.99626 0 0 .99626 651.888 0)"/><use xlink:href="#CMSS17-30" transform="matrix(.99626 0 0 .99626 698.731 0)"/><use xlink:href="#CMSS17-6d" transform="matrix(.99626 0 0 .99626 776.804 0)"/><use xlink:href="#CMSS17-73" transform="matrix(.99626 0 0 .99626 851.033 0)"/></g><g id="patch_9"><path d="M368.06 404.132H77.313M364.06 402.132l4 2-4 2M81.312 406.132l-4-2 4-2" style="fill:none;stroke:#000;stroke-linecap:round"/></g><g transform="matrix(.1 0 0 -.1 173.106 414.962)" id="text_20"><defs><path id="CMSS17-50" d="M2106 1856c768 0 1395 591 1395 1283 0 679-602 1277-1434 1277H570V0h537v1856h999zm-180 2201c743 0 1069-459 1069-918 0-428-301-912-1069-912h-832v1830h832z" transform="scale(.01563)"/><path id="CMSS17-72" d="M954 1369c0 605 441 1010 1004 1023v424c-409-7-793-212-1024-546v513H480V0h474v1369z" transform="scale(.01563)"/><path id="CMSS17-6f" d="M2829 1356c0 819-608 1460-1325 1460-736 0-1331-660-1331-1460C173 544 787-64 1498-64c729 0 1331 627 1331 1420zM1504 339c-454 0-845 371-845 1068 0 743 455 1018 839 1018 416 0 844-301 844-1018 0-723-416-1068-838-1068z" transform="scale(.01563)"/><path id="CMSS17-64" d="M2611 4416h-473V2495c-199 167-525 321-884 321-582 0-1043-637-1043-1441C211 572 666-64 1235-64c442 0 736 236 890 371V-13h486v4429zM2125 851c0-91 0-188-199-363-128-110-281-162-428-162-346 0-800 259-800 1043 0 816 512 1056 864 1056 236 0 428-117 563-311V851z" transform="scale(.01563)"/></defs><use xlink:href="#CMSS17-50" transform="scale(.99626)"/><use xlink:href="#CMSS17-65" transform="matrix(.99626 0 0 .99626 57.133 0)"/><use xlink:href="#CMSS17-72" transform="matrix(.99626 0 0 .99626 98.772 0)"/><use xlink:href="#CMSS17-69" transform="matrix(.99626 0 0 .99626 130.682 0)"/><use xlink:href="#CMSS17-6f" transform="matrix(.99626 0 0 .99626 152.862 0)"/><use xlink:href="#CMSS17-64" transform="matrix(.99626 0 0 .99626 202.309 0)"/><use xlink:href="#CMSS17-65" transform="matrix(.99626 0 0 .99626 250.513 0)"/><use xlink:href="#CMSS17-6e" transform="matrix(.99626 0 0 .99626 292.152 0)"/><use xlink:href="#CMSS17-64" transform="matrix(.99626 0 0 .99626 340.357 0)"/><use xlink:href="#CMSS17-61" transform="matrix(.99626 0 0 .99626 388.562 0)"/><use xlink:href="#CMSS17-75" transform="matrix(.99626 0 0 .99626 433.484 0)"/><use xlink:href="#CMSS17-65" transform="matrix(.99626 0 0 .99626 481.689 0)"/><use xlink:href="#CMSS17-72" transform="matrix(.99626 0 0 .99626 523.328 0)"/><use xlink:href="#CMSS17-3a" transform="matrix(.99626 0 0 .99626 555.238 0)"/><use xlink:href="#CMSS17-35" transform="matrix(.99626 0 0 .99626 622.9 0)"/><use xlink:href="#CMSS17-2e" transform="matrix(.99626 0 0 .99626 669.744 0)"/><use xlink:href="#CMSS17-30" transform="matrix(.99626 0 0 .99626 695.768 0)"/><use xlink:href="#CMSS17-30" transform="matrix(.99626 0 0 .99626 742.612 0)"/><use xlink:href="#CMSS17-6d" transform="matrix(.99626 0 0 .99626 820.685 0)"/><use xlink:href="#CMSS17-73" transform="matrix(.99626 0 0 .99626 894.914 0)"/></g><g transform="matrix(.12 0 0 -.12 340.196 19.102)" id="text_21"><defs><path id="CMSS17-57" d="M5581 4416h-487l-537-1980c-83-318-160-636-237-954-115-470-198-801-211-966h-7c-12 171-96 534-198 941-77 337-160 674-250 1005l-531 1954h-537l-506-1852-256-1012c-192-801-198-916-211-1043h-7c0 38-25 248-204 992-90 369-180 745-276 1101L634 4416H83L1299 0h531l506 1838 256 1012c173 712 211 890 224 1049h6c0-25 58-426 308-1355L3808 0h557l1216 4416z" transform="scale(.01563)"/><path id="CMSS17-4d" d="m3194 2373-308-897c-51-165-224-681-262-884h-6c-20 127-58 261-160 585-58 191-122 388-186 566l-947 2673H576V0h499v3899h7c0-6 57-286 448-1399l844-2398h474l762 2131c51 146 211 610 281 833 64 191 224 662 263 846h6V0h506v4416h-743l-729-2043z" transform="scale(.01563)"/><path id="CMSS17-2d" d="M1664 1216v371H64v-371h1600z" transform="scale(.01563)"/><path id="CMSS17-53" d="M2797 4230c-282 166-589 314-1107 314-826 0-1357-610-1357-1235 0-245 70-522 320-805 249-284 531-361 889-451 148-39 397-110 442-129 358-142 531-470 531-780 0-406-313-837-870-837-192 0-755 32-1287 522l-89-509C794-64 1363-128 1651-128c787 0 1351 622 1351 1330 0 258-77 587-346 890-262 289-493 354-1018 496-300 77-492 129-652 328-109 142-167 277-167 451 0 361 307 754 871 754 281 0 646-58 1017-406l90 515z" transform="scale(.01563)"/><path id="CMSS17-67" d="M2848 2816c-365-7-678-77-934-199-212 166-429 199-576 199-557 0-980-460-980-992 0-343 192-602 205-615-115-160-179-333-179-525 0-224 90-384 160-473C211 6 166-308 166-429c0-467 583-851 1332-851 755 0 1337 384 1337 857 0 883-979 890-1248 890h-518c-96 0-352 0-352 326 0 128 57 211 64 218 96-71 294-179 557-179 531 0 972 447 972 992 0 304-140 525-198 601h19c19 0 288 19 384 19 205 0 224-6 403-25l-70 397zM1338 1184c-218 0-525 133-525 640 0 551 352 639 518 639 218 0 525-133 525-639 0-552-352-640-518-640zM1581 0c153 0 800 0 800-436 0-275-397-492-877-492-486 0-883 211-883 499 0 32 0 429 441 429h519z" transform="scale(.01563)"/></defs><use xlink:href="#CMSS17-50" transform="scale(.99626)"/><use xlink:href="#CMSS17-57" transform="matrix(.99626 0 0 .99626 59.736 0)"/><use xlink:href="#CMSS17-4d" transform="matrix(.99626 0 0 .99626 147.978 0)"/><use xlink:href="#CMSS17-2d" transform="matrix(.99626 0 0 .99626 229.654 0)"/><use xlink:href="#CMSS17-53" transform="matrix(.99626 0 0 .99626 260.883 0)"/><use xlink:href="#CMSS17-69" transform="matrix(.99626 0 0 .99626 312.931 0)"/><use xlink:href="#CMSS17-67" transform="matrix(.99626 0 0 .99626 335.112 0)"/><use xlink:href="#CMSS17-6e" transform="matrix(.99626 0 0 .99626 381.956 0)"/><use xlink:href="#CMSS17-61" transform="matrix(.99626 0 0 .99626 430.16 0)"/><use xlink:href="#CMSS17-6c" transform="matrix(.99626 0 0 .99626 475.083 0)"/></g><g id="legend_1"><path d="M606.142 47.04h84.72q2 0 2-2V32.101q0-2-2-2h-84.72q-2 0-2 2V45.04q0 2 2 2z" style="fill:#fff;opacity:.8;stroke:#ccc;stroke-linejoin:miter" id="patch_10"/><path d="M608.142 37.602h20" style="fill:none;stroke:#a71916;stroke-width:1.5;stroke-linecap:square" id="line2d_17"/><g transform="matrix(.1 0 0 -.1 636.142 41.102)" id="text_22"><defs><path id="CMSS17-37" d="M1389 3788c77 0 153 7 230 7h736C1440 2715 915 1350 915-64h512c0 1369 448 2759 1325 3871v417H250v-436h1139z" transform="scale(.01563)"/><path id="CMSS17-25" d="M3923 4582c39 64 39 96 39 102 0 71-58 116-109 116-71 0-103-52-135-116L1101-109c-13-26-39-64-39-103 0-70 58-115 116-115 57 0 70 26 121 115l2624 4794zm755-3629c0 737-396 1280-832 1280-428 0-838-530-838-1280s410-1280 838-1280c442 0 832 543 832 1280zM3846 64c-134 0-352 120-352 889 0 763 218 890 352 890 237 0 365-464 365-890S4083 64 3846 64zM2003 3516c0 740-397 1284-832 1284-429 0-838-531-838-1284 0-752 409-1283 838-1283 442 0 832 544 832 1283zm-832-892c-134 0-352 121-352 892 0 766 218 893 352 893 237 0 365-465 365-893 0-427-128-892-365-892z" transform="scale(.01563)"/></defs><use xlink:href="#CMSS17-50" transform="scale(.99626)"/><use xlink:href="#CMSS17-57" transform="matrix(.99626 0 0 .99626 59.736 0)"/><use xlink:href="#CMSS17-4d" transform="matrix(.99626 0 0 .99626 147.978 0)"/><use xlink:href="#CMSS17-2d" transform="matrix(.99626 0 0 .99626 260.883 0)"/><use xlink:href="#CMSS17-37" transform="matrix(.99626 0 0 .99626 323.341 0)"/><use xlink:href="#CMSS17-30" transform="matrix(.99626 0 0 .99626 370.185 0)"/><use xlink:href="#CMSS17-25" transform="matrix(.99626 0 0 .99626 417.028 0)"/></g></g></g></g><defs><clipPath id="pb42215c8c8"><path d="M44.493 25.102h653.369v433.177H44.493z"/></clipPath></defs></svg>