<?xml version="1.0" encoding="utf-8" standalone="no"?>
<!DOCTYPE svg PUBLIC "-//W3C//DTD SVG 1.1//EN"
  "http://www.w3.org/Graphics/SVG/1.1/DTD/svg11.dtd">
<svg xmlns:xlink="http://www.w3.org/1999/xlink" width="708.661417pt" height="498.897638pt" viewBox="0 0 708.661417 498.897638" xmlns="http://www.w3.org/2000/svg" version="1.1">
 <metadata>
  <rdf:RDF xmlns:dc="http://purl.org/dc/elements/1.1/" xmlns:cc="http://creativecommons.org/ns#" xmlns:rdf="http://www.w3.org/1999/02/22-rdf-syntax-ns#">
   <cc:Work>
    <dc:type rdf:resource="http://purl.org/dc/dcmitype/StillImage"/>
    <dc:date>2023-07-30T20:44:07.974508</dc:date>
    <dc:format>image/svg+xml</dc:format>
    <dc:creator>
     <cc:Agent>
      <dc:title>Matplotlib v3.7.1, https://matplotlib.org/</dc:title>
     </cc:Agent>
    </dc:creator>
   </cc:Work>
  </rdf:RDF>
 </metadata>
 <defs>
  <style type="text/css">*{stroke-linejoin: round; stroke-linecap: butt}</style>
 </defs>
 <g id="figure_1">
  <g id="patch_1">
   <path d="M 0 498.897638 
L 708.661417 498.897638 
L 708.661417 0 
L 0 0 
z
" style="fill: #ffffff"/>
  </g>
  <g id="axes_1">
   <g id="patch_2">
    <path d="M 44.492719 458.279321 
L 697.861417 458.279321 
L 697.861417 25.10218 
L 44.492719 25.10218 
z
" style="fill: #ffffff"/>
   </g>
   <g id="matplotlib.axis_1">
    <g id="xtick_1">
     <g id="line2d_1">
      <defs>
       <path id="m0a204cb041" d="M 0 0 
L 0 3.5 
" style="stroke: #000000; stroke-width: 0.8"/>
      </defs>
      <g>
       <use xlink:href="#m0a204cb041" x="74.191296" y="458.279321" style="stroke: #000000; stroke-width: 0.8"/>
      </g>
     </g>
     <g id="text_1">
      <!-- $\mathdefault{0}$ -->
      <g transform="translate(71.700629 472.197819) scale(0.1 -0.1)">
       <defs>
        <path id="CMR17-30" d="M 2688 2038 
C 2688 2430 2682 3099 2413 3613 
C 2176 4063 1798 4224 1466 4224 
C 1158 4224 768 4082 525 3620 
C 269 3137 243 2539 243 2038 
C 243 1671 250 1112 448 623 
C 723 -39 1216 -128 1466 -128 
C 1760 -128 2208 -7 2470 604 
C 2662 1048 2688 1568 2688 2038 
z
M 1466 -26 
C 1056 -26 813 328 723 816 
C 653 1196 653 1749 653 2109 
C 653 2604 653 3015 736 3407 
C 858 3954 1216 4121 1466 4121 
C 1728 4121 2067 3947 2189 3420 
C 2272 3054 2278 2623 2278 2109 
C 2278 1691 2278 1176 2202 797 
C 2067 96 1690 -26 1466 -26 
z
" transform="scale(0.015625)"/>
       </defs>
       <use xlink:href="#CMR17-30" transform="scale(0.996264)"/>
      </g>
     </g>
    </g>
    <g id="xtick_2">
     <g id="line2d_2">
      <g>
       <use xlink:href="#m0a204cb041" x="192.985605" y="458.279321" style="stroke: #000000; stroke-width: 0.8"/>
      </g>
     </g>
     <g id="text_2">
      <!-- $\mathdefault{2}$ -->
      <g transform="translate(190.494937 472.197819) scale(0.1 -0.1)">
       <defs>
        <path id="CMR17-32" d="M 2669 990 
L 2554 990 
C 2490 537 2438 460 2413 422 
C 2381 371 1920 371 1830 371 
L 602 371 
C 832 620 1280 1073 1824 1596 
C 2214 1966 2669 2400 2669 3033 
C 2669 3788 2067 4224 1395 4224 
C 691 4224 262 3603 262 3027 
C 262 2777 448 2745 525 2745 
C 589 2745 781 2783 781 3007 
C 781 3206 614 3264 525 3264 
C 486 3264 448 3257 422 3244 
C 544 3788 915 4057 1306 4057 
C 1862 4057 2227 3616 2227 3033 
C 2227 2477 1901 1998 1536 1583 
L 262 147 
L 262 0 
L 2515 0 
L 2669 990 
z
" transform="scale(0.015625)"/>
       </defs>
       <use xlink:href="#CMR17-32" transform="scale(0.996264)"/>
      </g>
     </g>
    </g>
    <g id="xtick_3">
     <g id="line2d_3">
      <g>
       <use xlink:href="#m0a204cb041" x="311.779914" y="458.279321" style="stroke: #000000; stroke-width: 0.8"/>
      </g>
     </g>
     <g id="text_3">
      <!-- $\mathdefault{4}$ -->
      <g transform="translate(309.289246 472.197819) scale(0.1 -0.1)">
       <defs>
        <path id="CMR17-34" d="M 2150 4147 
C 2150 4281 2144 4288 2029 4288 
L 128 1254 
L 128 1088 
L 1779 1088 
L 1779 460 
C 1779 230 1766 166 1318 166 
L 1197 166 
L 1197 0 
C 1402 12 1747 12 1965 12 
C 2182 12 2528 12 2733 0 
L 2733 166 
L 2611 166 
C 2163 166 2150 230 2150 460 
L 2150 1088 
L 2803 1088 
L 2803 1254 
L 2150 1254 
L 2150 4147 
z
M 1798 3723 
L 1798 1254 
L 256 1254 
L 1798 3723 
z
" transform="scale(0.015625)"/>
       </defs>
       <use xlink:href="#CMR17-34" transform="scale(0.996264)"/>
      </g>
     </g>
    </g>
    <g id="xtick_4">
     <g id="line2d_4">
      <g>
       <use xlink:href="#m0a204cb041" x="430.574223" y="458.279321" style="stroke: #000000; stroke-width: 0.8"/>
      </g>
     </g>
     <g id="text_4">
      <!-- $\mathdefault{6}$ -->
      <g transform="translate(428.083555 472.197819) scale(0.1 -0.1)">
       <defs>
        <path id="CMR17-36" d="M 678 2198 
C 678 3712 1395 4076 1811 4076 
C 1946 4076 2272 4049 2400 3782 
C 2298 3782 2106 3782 2106 3558 
C 2106 3385 2246 3328 2336 3328 
C 2394 3328 2566 3353 2566 3571 
C 2566 3987 2246 4224 1805 4224 
C 1043 4224 243 3411 243 2011 
C 243 257 966 -128 1478 -128 
C 2099 -128 2688 431 2688 1295 
C 2688 2101 2170 2688 1517 2688 
C 1126 2688 838 2430 678 1979 
L 678 2198 
z
M 1478 25 
C 691 25 691 1212 691 1450 
C 691 1914 909 2585 1504 2585 
C 1613 2585 1926 2585 2138 2140 
C 2253 1889 2253 1624 2253 1302 
C 2253 954 2253 696 2118 438 
C 1978 173 1773 25 1478 25 
z
" transform="scale(0.015625)"/>
       </defs>
       <use xlink:href="#CMR17-36" transform="scale(0.996264)"/>
      </g>
     </g>
    </g>
    <g id="xtick_5">
     <g id="line2d_5">
      <g>
       <use xlink:href="#m0a204cb041" x="549.368531" y="458.279321" style="stroke: #000000; stroke-width: 0.8"/>
      </g>
     </g>
     <g id="text_5">
      <!-- $\mathdefault{8}$ -->
      <g transform="translate(546.877864 472.197819) scale(0.1 -0.1)">
       <defs>
        <path id="CMR17-38" d="M 1741 2289 
C 2144 2494 2554 2803 2554 3298 
C 2554 3884 1990 4224 1472 4224 
C 890 4224 378 3800 378 3215 
C 378 3054 416 2777 666 2533 
C 730 2469 998 2276 1171 2154 
C 883 2006 211 1652 211 945 
C 211 282 838 -128 1459 -128 
C 2144 -128 2720 366 2720 1022 
C 2720 1607 2330 1877 2074 2051 
L 1741 2289 
z
M 902 2855 
C 851 2887 595 3086 595 3388 
C 595 3781 998 4076 1459 4076 
C 1965 4076 2336 3716 2336 3298 
C 2336 2700 1670 2359 1638 2359 
C 1632 2359 1626 2359 1574 2398 
L 902 2855 
z
M 2080 1536 
C 2176 1466 2483 1253 2483 861 
C 2483 385 2010 25 1472 25 
C 890 25 448 443 448 951 
C 448 1459 838 1884 1280 2083 
L 2080 1536 
z
" transform="scale(0.015625)"/>
       </defs>
       <use xlink:href="#CMR17-38" transform="scale(0.996264)"/>
      </g>
     </g>
    </g>
    <g id="xtick_6">
     <g id="line2d_6">
      <g>
       <use xlink:href="#m0a204cb041" x="668.16284" y="458.279321" style="stroke: #000000; stroke-width: 0.8"/>
      </g>
     </g>
     <g id="text_6">
      <!-- $\mathdefault{10}$ -->
      <g transform="translate(663.181505 472.197819) scale(0.1 -0.1)">
       <defs>
        <path id="CMR17-31" d="M 1702 4083 
C 1702 4217 1696 4224 1606 4224 
C 1357 3927 979 3833 621 3820 
C 602 3820 570 3820 563 3808 
C 557 3795 557 3782 557 3648 
C 755 3648 1088 3686 1344 3839 
L 1344 467 
C 1344 243 1331 166 781 166 
L 589 166 
L 589 0 
C 896 6 1216 12 1523 12 
C 1830 12 2150 6 2458 0 
L 2458 166 
L 2266 166 
C 1715 166 1702 236 1702 467 
L 1702 4083 
z
" transform="scale(0.015625)"/>
       </defs>
       <use xlink:href="#CMR17-31" transform="scale(0.996264)"/>
       <use xlink:href="#CMR17-30" transform="translate(45.690477 0) scale(0.996264)"/>
      </g>
     </g>
    </g>
    <g id="text_7">
     <!-- \textbf{Zeit (ms)} -->
     <g transform="translate(349.490236 485.606978) scale(0.1 -0.1)">
      <defs>
       <path id="CMSSBX10-5a" d="M 3840 3859 
C 3904 3942 3904 3955 3904 4095 
C 3904 4268 3898 4416 3597 4416 
L 794 4416 
C 525 4416 486 4307 486 4102 
C 486 3788 621 3788 877 3788 
C 1434 3788 1990 3807 2547 3807 
L 2771 3807 
L 454 582 
C 390 499 390 486 390 358 
L 390 307 
C 390 76 461 0 698 0 
L 3635 0 
C 3878 0 3942 83 3942 307 
L 3942 364 
C 3942 672 3795 672 3578 672 
C 3014 672 2125 659 1536 646 
L 3840 3859 
z
" transform="scale(0.015625)"/>
       <path id="CMSSBX10-65" d="M 2758 1388 
C 2906 1388 3066 1395 3066 1683 
C 3066 2520 2682 3072 1728 3072 
C 704 3072 198 2494 198 1510 
C 198 448 806 -64 1811 -64 
C 2054 -64 2419 -32 2842 179 
C 2982 249 3027 268 3027 345 
C 3027 390 3008 578 3002 630 
C 2976 831 2970 837 2912 837 
C 2886 837 2874 837 2803 772 
C 2426 442 2042 396 1837 396 
C 1114 396 1037 973 1018 1388 
L 2758 1388 
z
M 1024 1728 
C 1043 2124 1171 2611 1728 2611 
C 2240 2611 2336 2234 2355 1728 
L 1024 1728 
z
" transform="scale(0.015625)"/>
       <path id="CMSSBX10-69" d="M 653 4480 
C 448 4480 346 4441 346 4185 
L 346 3891 
C 346 3686 410 3603 646 3603 
L 979 3603 
C 1286 3603 1286 3737 1286 4038 
C 1286 4345 1286 4480 979 4480 
L 653 4480 
z
M 1242 2635 
C 1242 2841 1197 2944 934 2944 
L 698 2944 
C 467 2944 390 2873 390 2635 
L 390 308 
C 390 76 461 0 698 0 
L 934 0 
C 1178 0 1242 83 1242 308 
L 1242 2635 
z
" transform="scale(0.015625)"/>
       <path id="CMSSBX10-74" d="M 1395 2483 
L 1965 2483 
C 2042 2483 2272 2483 2272 2713 
C 2272 2944 2042 2944 1965 2944 
L 1395 2944 
L 1395 3470 
C 1395 3673 1350 3776 1088 3776 
L 890 3776 
C 659 3776 582 3705 582 3470 
L 582 2944 
L 435 2944 
C 365 2944 128 2944 128 2713 
C 128 2483 358 2483 435 2483 
L 563 2483 
L 563 858 
C 563 211 794 -64 1235 -64 
C 1293 -64 1574 -64 1907 38 
C 2016 70 2387 185 2387 307 
C 2387 326 2374 371 2336 505 
C 2304 634 2291 672 2234 672 
C 2202 672 2195 666 2157 627 
C 2086 576 1914 435 1645 435 
C 1491 435 1395 544 1395 968 
L 1395 2483 
z
" transform="scale(0.015625)"/>
       <path id="CMSSBX10-28" d="M 2054 4800 
C 1939 4800 1926 4800 1811 4697 
C 1043 4051 550 2957 550 1600 
C 550 825 710 -512 1779 -1479 
C 1914 -1600 1926 -1600 2054 -1600 
L 2170 -1600 
C 2272 -1600 2342 -1600 2342 -1517 
C 2342 -1498 2342 -1485 2266 -1402 
C 1862 -909 1421 -122 1421 1600 
C 1421 3481 1952 4224 2304 4646 
C 2330 4678 2342 4691 2342 4716 
C 2342 4800 2272 4800 2170 4800 
L 2054 4800 
z
" transform="scale(0.015625)"/>
       <path id="CMSSBX10-6d" d="M 5158 2059 
C 5158 2713 4877 2976 4224 2976 
C 3770 2976 3418 2764 3187 2344 
C 3085 2956 2541 2976 2272 2976 
C 2150 2976 1882 2976 1594 2764 
C 1395 2617 1267 2413 1222 2318 
L 1216 2318 
L 1216 2636 
C 1216 2841 1171 2944 909 2944 
L 691 2944 
C 461 2944 384 2873 384 2636 
L 384 305 
C 384 76 454 0 691 0 
L 947 0 
C 1190 0 1254 83 1254 305 
L 1254 1704 
C 1254 2274 1645 2515 1958 2515 
C 2266 2515 2336 2382 2336 2046 
L 2336 305 
C 2336 76 2406 0 2643 0 
L 2899 0 
C 3142 0 3206 83 3206 305 
L 3206 1704 
C 3206 2274 3597 2515 3910 2515 
C 4218 2515 4288 2382 4288 2046 
L 4288 305 
C 4288 76 4358 0 4595 0 
L 4851 0 
C 5094 0 5158 83 5158 305 
L 5158 2059 
z
" transform="scale(0.015625)"/>
       <path id="CMSSBX10-73" d="M 2534 914 
C 2534 1277 2342 1503 2227 1607 
C 1971 1840 1747 1879 1478 1931 
C 1126 1995 870 2047 870 2300 
C 870 2565 1082 2617 1331 2617 
C 1760 2617 1990 2455 2157 2313 
C 2221 2248 2234 2248 2259 2248 
C 2323 2248 2336 2306 2342 2332 
C 2355 2384 2419 2745 2419 2777 
C 2419 2879 2080 2969 2010 2995 
C 1754 3065 1549 3072 1382 3072 
C 1094 3072 237 3072 237 2151 
C 237 1833 378 1639 550 1484 
C 774 1277 1024 1231 1389 1160 
C 1574 1128 1901 1069 1901 784 
C 1901 480 1651 435 1402 435 
C 1120 435 762 519 461 882 
C 429 914 410 933 371 933 
C 307 933 294 875 288 836 
C 275 746 198 377 198 313 
C 198 198 672 51 678 44 
C 1030 -64 1293 -64 1402 -64 
C 1728 -64 2534 -39 2534 914 
z
" transform="scale(0.015625)"/>
       <path id="CMSSBX10-29" d="M 563 4800 
C 461 4800 390 4800 390 4716 
C 390 4697 390 4684 467 4601 
C 864 4109 1312 3321 1312 1600 
C 1312 -276 781 -1018 429 -1447 
C 390 -1492 390 -1504 390 -1517 
C 390 -1600 461 -1600 563 -1600 
L 678 -1600 
C 794 -1600 806 -1600 922 -1498 
C 1690 -852 2182 243 2182 1600 
C 2182 2374 2022 3712 954 4678 
C 819 4800 806 4800 678 4800 
L 563 4800 
z
" transform="scale(0.015625)"/>
      </defs>
      <use xlink:href="#CMSSBX10-5a" transform="scale(0.996264)"/>
      <use xlink:href="#CMSSBX10-65" transform="translate(66.971452 0) scale(0.996264)"/>
      <use xlink:href="#CMSSBX10-69" transform="translate(117.891905 0) scale(0.996264)"/>
      <use xlink:href="#CMSSBX10-74" transform="translate(143.352124 0) scale(0.996264)"/>
      <use xlink:href="#CMSSBX10-28" transform="translate(220.14791 0) scale(0.996264)"/>
      <use xlink:href="#CMSSBX10-6d" transform="translate(262.766107 0) scale(0.996264)"/>
      <use xlink:href="#CMSSBX10-73" transform="translate(349.109464 0) scale(0.996264)"/>
      <use xlink:href="#CMSSBX10-29" transform="translate(391.11883 0) scale(0.996264)"/>
     </g>
    </g>
   </g>
   <g id="matplotlib.axis_2">
    <g id="ytick_1">
     <g id="line2d_7">
      <defs>
       <path id="mc0e6d901f7" d="M 0 0 
L -3.5 0 
" style="stroke: #000000; stroke-width: 0.8"/>
      </defs>
      <g>
       <use xlink:href="#mc0e6d901f7" x="44.492719" y="458.279321" style="stroke: #000000; stroke-width: 0.8"/>
      </g>
     </g>
     <g id="text_8">
      <!-- $\mathdefault{−2}$ -->
      <g transform="translate(24.76264 461.73857) scale(0.1 -0.1)">
       <defs>
        <path id="CMSY10-0" d="M 4218 1472 
C 4326 1472 4442 1472 4442 1600 
C 4442 1728 4326 1728 4218 1728 
L 755 1728 
C 646 1728 531 1728 531 1600 
C 531 1472 646 1472 755 1472 
L 4218 1472 
z
" transform="scale(0.015625)"/>
       </defs>
       <use xlink:href="#CMSY10-0" transform="scale(0.996264)"/>
       <use xlink:href="#CMR17-32" transform="translate(77.487468 0) scale(0.996264)"/>
      </g>
     </g>
    </g>
    <g id="ytick_2">
     <g id="line2d_8">
      <g>
       <use xlink:href="#mc0e6d901f7" x="44.492719" y="404.132178" style="stroke: #000000; stroke-width: 0.8"/>
      </g>
     </g>
     <g id="text_9">
      <!-- $\mathdefault{−1}$ -->
      <g transform="translate(24.76264 407.591428) scale(0.1 -0.1)">
       <use xlink:href="#CMSY10-0" transform="scale(0.996264)"/>
       <use xlink:href="#CMR17-31" transform="translate(77.487468 0) scale(0.996264)"/>
      </g>
     </g>
    </g>
    <g id="ytick_3">
     <g id="line2d_9">
      <g>
       <use xlink:href="#mc0e6d901f7" x="44.492719" y="349.985036" style="stroke: #000000; stroke-width: 0.8"/>
      </g>
     </g>
     <g id="text_10">
      <!-- $\mathdefault{0}$ -->
      <g transform="translate(32.511384 353.444285) scale(0.1 -0.1)">
       <use xlink:href="#CMR17-30" transform="scale(0.996264)"/>
      </g>
     </g>
    </g>
    <g id="ytick_4">
     <g id="line2d_10">
      <g>
       <use xlink:href="#mc0e6d901f7" x="44.492719" y="295.837893" style="stroke: #000000; stroke-width: 0.8"/>
      </g>
     </g>
     <g id="text_11">
      <!-- $\mathdefault{1}$ -->
      <g transform="translate(32.511384 299.297142) scale(0.1 -0.1)">
       <use xlink:href="#CMR17-31" transform="scale(0.996264)"/>
      </g>
     </g>
    </g>
    <g id="ytick_5">
     <g id="line2d_11">
      <g>
       <use xlink:href="#mc0e6d901f7" x="44.492719" y="241.69075" style="stroke: #000000; stroke-width: 0.8"/>
      </g>
     </g>
     <g id="text_12">
      <!-- $\mathdefault{2}$ -->
      <g transform="translate(32.511384 245.15) scale(0.1 -0.1)">
       <use xlink:href="#CMR17-32" transform="scale(0.996264)"/>
      </g>
     </g>
    </g>
    <g id="ytick_6">
     <g id="line2d_12">
      <g>
       <use xlink:href="#mc0e6d901f7" x="44.492719" y="187.543608" style="stroke: #000000; stroke-width: 0.8"/>
      </g>
     </g>
     <g id="text_13">
      <!-- $\mathdefault{3}$ -->
      <g transform="translate(32.511384 191.002857) scale(0.1 -0.1)">
       <defs>
        <path id="CMR17-33" d="M 1414 2176 
C 1984 2176 2234 1673 2234 1094 
C 2234 322 1824 25 1453 25 
C 1114 25 563 193 390 691 
C 422 678 454 678 486 678 
C 640 678 755 780 755 947 
C 755 1132 614 1216 486 1216 
C 378 1216 211 1164 211 927 
C 211 335 787 -128 1466 -128 
C 2176 -128 2720 432 2720 1087 
C 2720 1718 2208 2176 1600 2246 
C 2086 2347 2554 2776 2554 3353 
C 2554 3856 2048 4224 1472 4224 
C 890 4224 378 3862 378 3347 
C 378 3123 544 3084 627 3084 
C 762 3084 877 3167 877 3334 
C 877 3500 762 3584 627 3584 
C 602 3584 570 3584 544 3571 
C 730 3999 1235 4076 1459 4076 
C 1683 4076 2106 3966 2106 3347 
C 2106 3167 2080 2851 1862 2574 
C 1670 2329 1453 2316 1242 2297 
C 1210 2297 1062 2284 1037 2284 
C 992 2278 966 2272 966 2227 
C 966 2182 973 2176 1101 2176 
L 1414 2176 
z
" transform="scale(0.015625)"/>
       </defs>
       <use xlink:href="#CMR17-33" transform="scale(0.996264)"/>
      </g>
     </g>
    </g>
    <g id="ytick_7">
     <g id="line2d_13">
      <g>
       <use xlink:href="#mc0e6d901f7" x="44.492719" y="133.396465" style="stroke: #000000; stroke-width: 0.8"/>
      </g>
     </g>
     <g id="text_14">
      <!-- $\mathdefault{4}$ -->
      <g transform="translate(32.511384 136.855714) scale(0.1 -0.1)">
       <use xlink:href="#CMR17-34" transform="scale(0.996264)"/>
      </g>
     </g>
    </g>
    <g id="ytick_8">
     <g id="line2d_14">
      <g>
       <use xlink:href="#mc0e6d901f7" x="44.492719" y="79.249322" style="stroke: #000000; stroke-width: 0.8"/>
      </g>
     </g>
     <g id="text_15">
      <!-- $\mathdefault{5}$ -->
      <g transform="translate(32.511384 82.708572) scale(0.1 -0.1)">
       <defs>
        <path id="CMR17-35" d="M 730 3750 
C 794 3724 1056 3641 1325 3641 
C 1920 3641 2246 3961 2432 4140 
C 2432 4191 2432 4224 2394 4224 
C 2387 4224 2374 4224 2323 4198 
C 2099 4102 1837 4032 1517 4032 
C 1325 4032 1037 4055 723 4191 
C 653 4224 640 4224 634 4224 
C 602 4224 595 4217 595 4090 
L 595 2231 
C 595 2113 595 2080 659 2080 
C 691 2080 704 2093 736 2139 
C 941 2435 1222 2560 1542 2560 
C 1766 2560 2246 2415 2246 1293 
C 2246 1087 2246 716 2054 422 
C 1894 159 1645 25 1370 25 
C 947 25 518 319 403 812 
C 429 806 480 793 506 793 
C 589 793 749 838 749 1036 
C 749 1209 627 1280 506 1280 
C 358 1280 262 1190 262 1011 
C 262 454 704 -128 1382 -128 
C 2042 -128 2669 441 2669 1267 
C 2669 2054 2170 2662 1549 2662 
C 1222 2662 947 2540 730 2304 
L 730 3750 
z
" transform="scale(0.015625)"/>
       </defs>
       <use xlink:href="#CMR17-35" transform="scale(0.996264)"/>
      </g>
     </g>
    </g>
    <g id="ytick_9">
     <g id="line2d_15">
      <g>
       <use xlink:href="#mc0e6d901f7" x="44.492719" y="25.10218" style="stroke: #000000; stroke-width: 0.8"/>
      </g>
     </g>
     <g id="text_16">
      <!-- $\mathdefault{6}$ -->
      <g transform="translate(32.511384 28.561429) scale(0.1 -0.1)">
       <use xlink:href="#CMR17-36" transform="scale(0.996264)"/>
      </g>
     </g>
    </g>
    <g id="text_17">
     <!-- \textbf{Spannung (V)} -->
     <g transform="translate(18.27198 273.806576) rotate(-90) scale(0.1 -0.1)">
      <defs>
       <path id="CMSSBX10-53" d="M 1728 2843 
C 1587 2875 1190 3023 1190 3389 
C 1190 3935 1734 3948 1952 3948 
C 2310 3948 2630 3865 2944 3556 
C 3046 3460 3053 3453 3078 3453 
C 3117 3453 3149 3473 3168 3569 
L 3264 4127 
C 3277 4179 3277 4191 3277 4211 
C 3277 4262 3270 4268 3110 4351 
C 2656 4575 2278 4608 1952 4608 
C 1382 4608 390 4473 390 3274 
C 390 2817 627 2522 749 2394 
C 1075 2059 1376 1995 1875 1880 
C 2234 1796 2374 1764 2515 1635 
C 2579 1571 2714 1436 2714 1192 
C 2714 588 2163 569 1952 569 
C 1414 569 947 788 627 1077 
C 550 1154 538 1154 512 1154 
C 474 1154 442 1134 422 1038 
L 326 480 
C 314 428 314 416 314 396 
C 314 262 979 32 1011 19 
C 1440 -116 1786 -128 1952 -128 
C 2912 -128 3514 300 3514 1295 
C 3514 2015 2982 2554 2342 2702 
L 1728 2843 
z
" transform="scale(0.015625)"/>
       <path id="CMSSBX10-70" d="M 1261 256 
C 1549 -64 1901 -64 1990 -64 
C 3347 -64 3347 1164 3347 1484 
C 3347 1798 3347 3008 2189 3008 
C 1811 3008 1472 2854 1242 2636 
C 1242 2873 1152 2937 934 2937 
L 698 2937 
C 467 2937 390 2867 390 2630 
L 390 -912 
C 390 -1140 461 -1216 698 -1216 
L 954 -1216 
C 1197 -1216 1261 -1133 1261 -912 
L 1261 256 
z
M 1261 2297 
C 1331 2361 1542 2508 1818 2508 
C 2470 2508 2477 1753 2477 1471 
C 2477 1215 2477 396 1754 396 
C 1606 396 1491 448 1414 505 
C 1261 614 1261 646 1261 761 
L 1261 2297 
z
" transform="scale(0.015625)"/>
       <path id="CMSSBX10-61" d="M 2970 2047 
C 2970 3065 1997 3072 1677 3072 
C 1376 3072 1056 3046 627 2867 
C 493 2809 461 2790 461 2719 
C 461 2675 499 2300 506 2248 
C 512 2209 544 2177 589 2177 
C 621 2177 640 2196 659 2215 
C 934 2507 1254 2649 1651 2649 
C 1997 2649 2099 2436 2099 2054 
L 2099 1827 
C 1875 1827 198 1814 198 862 
C 198 409 557 -64 1120 -64 
C 1338 -64 1818 0 2118 442 
L 2118 313 
C 2118 108 2163 6 2426 6 
L 2662 6 
C 2906 6 2970 89 2970 313 
L 2970 2047 
z
M 2099 998 
C 2099 396 1491 396 1472 396 
C 1203 396 1030 629 1030 875 
C 1030 1510 1920 1555 2099 1562 
L 2099 998 
z
" transform="scale(0.015625)"/>
       <path id="CMSSBX10-6e" d="M 3200 2085 
C 3200 2745 2918 3008 2266 3008 
C 1594 3008 1306 2521 1222 2348 
L 1216 2348 
L 1216 2668 
C 1216 2873 1171 2975 909 2975 
L 691 2975 
C 461 2975 384 2905 384 2668 
L 384 307 
C 384 76 454 0 691 0 
L 947 0 
C 1190 0 1254 83 1254 307 
L 1254 1725 
C 1254 2284 1626 2547 1958 2547 
C 2266 2547 2330 2399 2330 2072 
L 2330 307 
C 2330 102 2374 0 2637 0 
L 2893 0 
C 3136 0 3200 83 3200 307 
L 3200 2085 
z
" transform="scale(0.015625)"/>
       <path id="CMSSBX10-75" d="M 3200 2636 
C 3200 2841 3155 2944 2893 2944 
L 2637 2944 
C 2394 2944 2330 2860 2330 2636 
L 2330 1115 
C 2330 692 2106 326 1651 326 
C 1293 326 1254 416 1254 756 
L 1254 2636 
C 1254 2841 1210 2944 947 2944 
L 691 2944 
C 461 2944 384 2873 384 2636 
L 384 814 
C 384 128 755 -64 1421 -64 
C 1594 -64 2048 -64 2349 480 
L 2349 313 
C 2349 108 2394 6 2656 6 
L 2893 6 
C 3136 6 3200 89 3200 313 
L 3200 2636 
z
" transform="scale(0.015625)"/>
       <path id="CMSSBX10-67" d="M 1280 569 
C 1050 569 960 569 870 651 
C 845 678 736 780 736 953 
C 736 998 742 1011 749 1049 
C 1050 883 1427 883 1562 883 
C 1830 883 2848 883 2848 1942 
C 2848 2315 2707 2540 2650 2611 
C 2758 2611 2982 2611 3245 2540 
C 3270 2527 3315 2514 3334 2514 
C 3386 2514 3418 2553 3418 2598 
C 3418 2623 3386 2777 3373 2841 
C 3347 2995 3347 3008 3232 3008 
C 3034 3008 2714 2931 2470 2783 
C 2170 2982 1837 3008 1562 3008 
C 1293 3008 275 3008 275 1948 
C 275 1691 346 1369 589 1158 
C 416 921 416 658 416 624 
C 416 499 454 288 589 115 
C 493 76 160 -39 160 -451 
C 160 -651 256 -986 659 -1172 
C 1024 -1338 1453 -1344 1754 -1344 
C 2131 -1344 3354 -1344 3354 -432 
C 3354 569 2451 569 1587 569 
L 1280 569 
z
M 1562 1344 
C 1114 1344 1094 1588 1094 1942 
C 1094 2296 1114 2547 1562 2547 
C 2010 2547 2029 2302 2029 1948 
C 2029 1594 2010 1344 1562 1344 
z
M 1907 -128 
C 2426 -128 2694 -219 2694 -451 
C 2694 -884 1965 -884 1760 -884 
C 1504 -884 819 -884 819 -432 
C 819 -128 1018 -128 1165 -128 
L 1907 -128 
z
" transform="scale(0.015625)"/>
       <path id="CMSSBX10-56" d="M 4480 4128 
C 4506 4205 4512 4211 4512 4243 
C 4512 4416 4352 4416 4262 4416 
L 4013 4416 
C 3878 4416 3693 4416 3590 4135 
L 2726 1775 
L 2394 795 
C 2387 814 2317 1037 2221 1298 
L 1184 4141 
C 1082 4416 902 4416 768 4416 
L 422 4416 
C 333 4416 173 4416 173 4243 
C 173 4211 179 4205 205 4128 
L 1638 267 
C 1734 0 1920 0 2048 0 
L 2637 0 
C 2771 0 2950 0 3053 280 
L 4480 4128 
z
" transform="scale(0.015625)"/>
      </defs>
      <use xlink:href="#CMSSBX10-53" transform="scale(0.996264)"/>
      <use xlink:href="#CMSSBX10-70" transform="translate(60.883138 0) scale(0.996264)"/>
      <use xlink:href="#CMSSBX10-61" transform="translate(116.784926 0) scale(0.996264)"/>
      <use xlink:href="#CMSSBX10-6e" transform="translate(169.089121 0) scale(0.996264)"/>
      <use xlink:href="#CMSSBX10-6e" transform="translate(224.990909 0) scale(0.996264)"/>
      <use xlink:href="#CMSSBX10-75" transform="translate(280.892697 0) scale(0.996264)"/>
      <use xlink:href="#CMSSBX10-6e" transform="translate(336.794485 0) scale(0.996264)"/>
      <use xlink:href="#CMSSBX10-67" transform="translate(392.696273 0) scale(0.996264)"/>
      <use xlink:href="#CMSSBX10-28" transform="translate(484.020981 0) scale(0.996264)"/>
      <use xlink:href="#CMSSBX10-56" transform="translate(526.639178 0) scale(0.996264)"/>
      <use xlink:href="#CMSSBX10-29" transform="translate(599.698944 0) scale(0.996264)"/>
     </g>
    </g>
   </g>
   <g id="line2d_16">
    <path d="M 74.191296 79.249322 
L 282.077476 79.249322 
L 282.190331 349.985036 
L 371.174098 349.985036 
L 371.286954 79.249322 
L 579.066218 79.249322 
L 579.179073 349.985036 
L 668.1569 349.985036 
L 668.16284 79.249322 
L 668.16284 79.249322 
" clip-path="url(#pb42215c8c8)" style="fill: none; stroke: #a71916; stroke-width: 1.5; stroke-linecap: square"/>
   </g>
   <g id="patch_3">
    <path d="M 44.492719 458.279321 
L 44.492719 25.10218 
" style="fill: none; stroke: #000000; stroke-width: 0.8; stroke-linejoin: miter; stroke-linecap: square"/>
   </g>
   <g id="patch_4">
    <path d="M 697.861417 458.279321 
L 697.861417 25.10218 
" style="fill: none; stroke: #000000; stroke-width: 0.8; stroke-linejoin: miter; stroke-linecap: square"/>
   </g>
   <g id="patch_5">
    <path d="M 44.492719 458.279321 
L 697.861417 458.279321 
" style="fill: none; stroke: #000000; stroke-width: 0.8; stroke-linejoin: miter; stroke-linecap: square"/>
   </g>
   <g id="patch_6">
    <path d="M 44.492719 25.10218 
L 697.861417 25.10218 
" style="fill: none; stroke: #000000; stroke-width: 0.8; stroke-linejoin: miter; stroke-linecap: square"/>
   </g>
   <g id="patch_7">
    <path d="M 278.961676 377.058607 
Q 178.136105 377.058607 77.310534 377.058607 
" style="fill: none; stroke: #0d468e; stroke-linecap: round"/>
    <path d="M 274.961676 375.058607 
L 278.961676 377.058607 
L 274.961676 379.058607 
" style="fill: none; stroke: #0d468e; stroke-linecap: round"/>
    <path d="M 81.310534 379.058607 
L 77.310534 377.058607 
L 81.310534 375.058607 
" style="fill: none; stroke: #0d468e; stroke-linecap: round"/>
   </g>
   <g id="text_18">
    <!-- Einschaltzeit: 3.50 ms -->
    <g style="fill: #0d468e" transform="translate(131.969119 387.888036) scale(0.1 -0.1)">
     <defs>
      <path id="CMSS17-45" d="M 1958 435 
C 1446 435 1216 435 1101 428 
L 1101 2105 
L 3085 2105 
L 3085 2496 
L 1101 2496 
L 1101 3993 
L 1926 3993 
C 2003 3993 2080 3987 2157 3987 
L 3251 3987 
L 3251 4403 
L 563 4403 
L 563 0 
L 3334 0 
L 3334 441 
L 1958 435 
z
" transform="scale(0.015625)"/>
      <path id="CMSS17-69" d="M 979 4224 
L 442 4224 
L 442 3686 
L 979 3686 
L 979 4224 
z
M 947 2752 
L 474 2752 
L 474 0 
L 947 0 
L 947 2752 
z
" transform="scale(0.015625)"/>
      <path id="CMSS17-6e" d="M 2618 1878 
C 2618 2283 2522 2816 1798 2816 
C 1389 2816 1120 2604 941 2386 
L 941 2783 
L 474 2783 
L 474 0 
L 960 0 
L 960 1556 
C 960 1962 1114 2425 1549 2425 
C 2112 2425 2131 2045 2131 1826 
L 2131 0 
L 2618 0 
L 2618 1878 
z
" transform="scale(0.015625)"/>
      <path id="CMSS17-73" d="M 2061 2623 
C 1683 2803 1389 2816 1197 2816 
C 742 2816 198 2655 198 2009 
C 198 1363 902 1222 1094 1183 
C 1389 1126 1715 1062 1715 742 
C 1715 339 1254 339 1171 339 
C 915 339 563 409 243 639 
L 166 211 
C 531 0 883 -64 1178 -64 
C 1965 -64 2163 416 2163 780 
C 2163 1094 1984 1305 1862 1401 
C 1651 1567 1574 1587 1050 1695 
C 960 1708 646 1779 646 2067 
C 646 2431 1050 2431 1139 2431 
C 1555 2431 1811 2303 1984 2207 
L 2061 2623 
z
" transform="scale(0.015625)"/>
      <path id="CMSS17-63" d="M 2464 2540 
C 2464 2585 2170 2713 2093 2739 
C 1882 2816 1613 2816 1542 2816 
C 710 2816 211 2092 211 1363 
C 211 595 768 -64 1517 -64 
C 1946 -64 2253 76 2502 243 
L 2464 665 
C 2189 454 1869 339 1523 339 
C 1024 339 698 774 698 1369 
C 698 1830 909 2412 1549 2412 
C 1901 2412 2099 2342 2394 2143 
L 2464 2540 
z
" transform="scale(0.015625)"/>
      <path id="CMSS17-68" d="M 2618 1878 
C 2618 2283 2522 2816 1798 2816 
C 1395 2816 1133 2617 947 2399 
L 947 4416 
L 474 4416 
L 474 0 
L 960 0 
L 960 1556 
C 960 1962 1114 2425 1549 2425 
C 2112 2425 2131 2045 2131 1826 
L 2131 0 
L 2618 0 
L 2618 1878 
z
" transform="scale(0.015625)"/>
      <path id="CMSS17-61" d="M 2406 1789 
C 2406 2399 1978 2816 1402 2816 
C 1120 2816 813 2764 461 2559 
L 499 2133 
C 659 2250 934 2438 1395 2438 
C 1722 2438 1920 2185 1920 1782 
L 1920 1536 
C 896 1504 256 1209 256 711 
C 256 452 416 -64 947 -64 
C 1043 -64 1562 -52 1933 224 
L 1933 -13 
L 2406 -13 
L 2406 1789 
z
M 1920 824 
C 1920 711 1920 559 1728 446 
C 1562 339 1350 326 1261 326 
C 941 326 723 503 723 723 
C 723 1165 1722 1209 1920 1216 
L 1920 824 
z
" transform="scale(0.015625)"/>
      <path id="CMSS17-6c" d="M 947 4416 
L 474 4416 
L 474 0 
L 947 0 
L 947 4416 
z
" transform="scale(0.015625)"/>
      <path id="CMSS17-74" d="M 1069 2380 
L 1901 2380 
L 1901 2752 
L 1069 2752 
L 1069 3520 
L 614 3520 
L 614 2752 
L 109 2752 
L 109 2380 
L 602 2380 
L 602 751 
C 602 384 685 -64 1107 -64 
C 1427 -64 1722 25 2003 172 
L 1901 551 
C 1747 416 1562 339 1363 339 
C 1082 339 1069 699 1069 860 
L 1069 2380 
z
" transform="scale(0.015625)"/>
      <path id="CMSS17-7a" d="M 2400 2502 
L 2400 2752 
L 250 2752 
L 250 2367 
L 1069 2367 
C 1146 2367 1222 2374 1299 2374 
L 1747 2374 
L 166 262 
L 166 0 
L 2419 0 
L 2419 396 
L 1549 396 
C 1472 396 1395 390 1318 390 
L 826 390 
L 2400 2502 
z
" transform="scale(0.015625)"/>
      <path id="CMSS17-65" d="M 2502 1375 
C 2502 1587 2490 2001 2285 2347 
C 2061 2713 1696 2816 1421 2816 
C 755 2816 192 2184 192 1363 
C 192 579 774 -64 1510 -64 
C 1798 -64 2150 19 2470 249 
C 2470 275 2458 414 2451 421 
C 2451 433 2432 629 2432 655 
C 2125 408 1773 326 1517 326 
C 1107 326 666 667 646 1375 
L 2502 1375 
z
M 698 1728 
C 781 2086 1062 2425 1421 2425 
C 1517 2425 1965 2412 2080 1728 
L 698 1728 
z
" transform="scale(0.015625)"/>
      <path id="CMSS17-3a" d="M 1088 2752 
L 576 2752 
L 576 2239 
L 1088 2239 
L 1088 2752 
z
M 576 512 
L 576 0 
L 1088 0 
L 1088 512 
L 576 512 
z
" transform="scale(0.015625)"/>
      <path id="CMSS17-33" d="M 1005 2060 
L 1440 2060 
C 2042 2060 2214 1532 2214 1164 
C 2214 662 1933 268 1472 268 
C 1114 268 608 449 320 926 
C 275 700 275 687 250 533 
C 550 89 1037 -128 1485 -128 
C 2214 -128 2752 481 2752 1158 
C 2752 1667 2400 2092 1920 2252 
C 2304 2463 2586 2860 2586 3321 
C 2586 3859 2093 4288 1491 4288 
C 941 4288 512 3948 333 3583 
C 378 3519 493 3334 550 3238 
C 691 3615 1056 3897 1485 3897 
C 1843 3897 2080 3660 2080 3321 
C 2080 2969 1856 2585 1478 2496 
C 1453 2496 1056 2457 1005 2451 
L 1005 2060 
z
" transform="scale(0.015625)"/>
      <path id="CMSS17-2e" d="M 1088 512 
L 576 512 
L 576 0 
L 1088 0 
L 1088 512 
z
" transform="scale(0.015625)"/>
      <path id="CMSS17-35" d="M 934 3814 
L 2502 3814 
L 2502 4224 
L 467 4224 
L 467 1830 
L 896 1830 
C 1011 2103 1248 2304 1555 2304 
C 1843 2304 2163 2044 2163 1299 
C 2163 502 1709 268 1376 268 
C 966 268 589 521 422 871 
L 218 508 
C 512 51 992 -128 1376 -128 
C 2118 -128 2701 508 2701 1286 
C 2701 2083 2182 2694 1562 2694 
C 1338 2694 1120 2617 934 2464 
L 934 3814 
z
" transform="scale(0.015625)"/>
      <path id="CMSS17-30" d="M 2758 2073 
C 2758 2439 2752 3120 2490 3647 
C 2227 4153 1805 4288 1504 4288 
C 1069 4288 698 4031 506 3621 
C 301 3191 243 2748 243 2073 
C 243 1611 262 1046 493 551 
C 755 6 1197 -128 1498 -128 
C 1894 -128 2278 83 2496 525 
C 2720 988 2758 1495 2758 2073 
z
M 1498 262 
C 1011 262 864 821 819 1007 
C 742 1328 730 1636 730 2144 
C 730 2542 730 2992 851 3345 
C 998 3756 1254 3897 1498 3897 
C 1971 3897 2125 3422 2176 3255 
C 2272 2915 2272 2516 2272 2144 
C 2272 1546 2272 262 1498 262 
z
" transform="scale(0.015625)"/>
      <path id="CMSS17-6d" d="M 4288 1878 
C 4288 2309 4179 2816 3462 2816 
C 2982 2816 2694 2515 2566 2328 
C 2451 2668 2182 2816 1798 2816 
C 1363 2816 1088 2566 941 2386 
L 941 2783 
L 474 2783 
L 474 0 
L 960 0 
L 960 1556 
C 960 1936 1101 2425 1555 2425 
C 2138 2425 2138 2013 2138 1826 
L 2138 0 
L 2624 0 
L 2624 1556 
C 2624 1936 2765 2425 3219 2425 
C 3802 2425 3802 2013 3802 1826 
L 3802 0 
L 4288 0 
L 4288 1878 
z
" transform="scale(0.015625)"/>
     </defs>
     <use xlink:href="#CMSS17-45" transform="scale(0.996264)"/>
     <use xlink:href="#CMSS17-69" transform="translate(55.892013 0) scale(0.996264)"/>
     <use xlink:href="#CMSS17-6e" transform="translate(78.072736 0) scale(0.996264)"/>
     <use xlink:href="#CMSS17-73" transform="translate(126.277679 0) scale(0.996264)"/>
     <use xlink:href="#CMSS17-63" transform="translate(162.191221 0) scale(0.996264)"/>
     <use xlink:href="#CMSS17-68" transform="translate(203.830043 0) scale(0.996264)"/>
     <use xlink:href="#CMSS17-61" transform="translate(252.034987 0) scale(0.996264)"/>
     <use xlink:href="#CMSS17-6c" transform="translate(296.956907 0) scale(0.996264)"/>
     <use xlink:href="#CMSS17-74" transform="translate(319.13763 0) scale(0.996264)"/>
     <use xlink:href="#CMSS17-7a" transform="translate(352.969197 0) scale(0.996264)"/>
     <use xlink:href="#CMSS17-65" transform="translate(393.647069 0) scale(0.996264)"/>
     <use xlink:href="#CMSS17-69" transform="translate(435.285891 0) scale(0.996264)"/>
     <use xlink:href="#CMSS17-74" transform="translate(457.466614 0) scale(0.996264)"/>
     <use xlink:href="#CMSS17-3a" transform="translate(491.298181 0) scale(0.996264)"/>
     <use xlink:href="#CMSS17-33" transform="translate(558.961192 0) scale(0.996264)"/>
     <use xlink:href="#CMSS17-2e" transform="translate(605.804816 0) scale(0.996264)"/>
     <use xlink:href="#CMSS17-35" transform="translate(631.829021 0) scale(0.996264)"/>
     <use xlink:href="#CMSS17-30" transform="translate(678.672644 0) scale(0.996264)"/>
     <use xlink:href="#CMSS17-6d" transform="translate(756.74538 0) scale(0.996264)"/>
     <use xlink:href="#CMSS17-73" transform="translate(830.974635 0) scale(0.996264)"/>
    </g>
   </g>
   <g id="patch_8">
    <path d="M 368.06058 377.058607 
Q 326.630711 377.058607 285.200843 377.058607 
" style="fill: none; stroke: #b2b2b2; stroke-linecap: round"/>
    <path d="M 364.06058 375.058607 
L 368.06058 377.058607 
L 364.06058 379.058607 
" style="fill: none; stroke: #b2b2b2; stroke-linecap: round"/>
    <path d="M 289.200843 379.058607 
L 285.200843 377.058607 
L 289.200843 375.058607 
" style="fill: none; stroke: #b2b2b2; stroke-linecap: round"/>
   </g>
   <g id="text_19">
    <!-- Ausschaltzeit: 1.50 ms -->
    <g style="fill: #b2b2b2" transform="translate(279.39655 387.888036) scale(0.1 -0.1)">
     <defs>
      <path id="CMSS17-41" d="M 2272 4416 
L 1722 4416 
L 166 0 
L 653 0 
L 1101 1280 
L 2816 1280 
L 3270 0 
L 3827 0 
L 2272 4416 
z
M 2694 1638 
L 1222 1638 
C 1530 2530 1914 3638 1958 3924 
L 1965 3924 
C 2010 3663 2138 3281 2246 2956 
L 2694 1638 
z
" transform="scale(0.015625)"/>
      <path id="CMSS17-75" d="M 2618 2752 
L 2131 2752 
L 2131 976 
C 2131 500 1786 307 1421 307 
C 998 307 960 448 960 712 
L 960 2752 
L 474 2752 
L 474 680 
C 474 179 646 -64 1088 -64 
C 1306 -64 1798 -13 2144 307 
L 2144 -13 
L 2618 -13 
L 2618 2752 
z
" transform="scale(0.015625)"/>
      <path id="CMSS17-31" d="M 1818 4288 
L 1696 4288 
C 1350 3949 947 3902 538 3891 
L 538 3520 
C 723 3526 1024 3539 1325 3673 
L 1325 371 
L 570 371 
L 570 0 
L 2573 0 
L 2573 371 
L 1818 371 
L 1818 4288 
z
" transform="scale(0.015625)"/>
     </defs>
     <use xlink:href="#CMSS17-41" transform="scale(0.996264)"/>
     <use xlink:href="#CMSS17-75" transform="translate(62.217855 0) scale(0.996264)"/>
     <use xlink:href="#CMSS17-73" transform="translate(110.422798 0) scale(0.996264)"/>
     <use xlink:href="#CMSS17-73" transform="translate(146.33634 0) scale(0.996264)"/>
     <use xlink:href="#CMSS17-63" transform="translate(182.249882 0) scale(0.996264)"/>
     <use xlink:href="#CMSS17-68" transform="translate(223.888704 0) scale(0.996264)"/>
     <use xlink:href="#CMSS17-61" transform="translate(272.093647 0) scale(0.996264)"/>
     <use xlink:href="#CMSS17-6c" transform="translate(317.015568 0) scale(0.996264)"/>
     <use xlink:href="#CMSS17-74" transform="translate(339.196291 0) scale(0.996264)"/>
     <use xlink:href="#CMSS17-7a" transform="translate(373.027858 0) scale(0.996264)"/>
     <use xlink:href="#CMSS17-65" transform="translate(413.705729 0) scale(0.996264)"/>
     <use xlink:href="#CMSS17-69" transform="translate(455.344551 0) scale(0.996264)"/>
     <use xlink:href="#CMSS17-74" transform="translate(477.525274 0) scale(0.996264)"/>
     <use xlink:href="#CMSS17-3a" transform="translate(511.356841 0) scale(0.996264)"/>
     <use xlink:href="#CMSS17-31" transform="translate(579.019853 0) scale(0.996264)"/>
     <use xlink:href="#CMSS17-2e" transform="translate(625.863476 0) scale(0.996264)"/>
     <use xlink:href="#CMSS17-35" transform="translate(651.887681 0) scale(0.996264)"/>
     <use xlink:href="#CMSS17-30" transform="translate(698.731305 0) scale(0.996264)"/>
     <use xlink:href="#CMSS17-6d" transform="translate(776.804041 0) scale(0.996264)"/>
     <use xlink:href="#CMSS17-73" transform="translate(851.033296 0) scale(0.996264)"/>
    </g>
   </g>
   <g id="patch_9">
    <path d="M 368.06058 404.132178 
Q 222.686461 404.132178 77.312342 404.132178 
" style="fill: none; stroke: #000000; stroke-linecap: round"/>
    <path d="M 364.06058 402.132178 
L 368.06058 404.132178 
L 364.06058 406.132178 
" style="fill: none; stroke: #000000; stroke-linecap: round"/>
    <path d="M 81.312342 406.132178 
L 77.312342 404.132178 
L 81.312342 402.132178 
" style="fill: none; stroke: #000000; stroke-linecap: round"/>
   </g>
   <g id="text_20">
    <!-- Periodendauer: 5.00 ms -->
    <g transform="translate(173.106131 414.961607) scale(0.1 -0.1)">
     <defs>
      <path id="CMSS17-50" d="M 2106 1856 
C 2874 1856 3501 2447 3501 3139 
C 3501 3818 2899 4416 2067 4416 
L 570 4416 
L 570 0 
L 1107 0 
L 1107 1856 
L 2106 1856 
z
M 1926 4057 
C 2669 4057 2995 3598 2995 3139 
C 2995 2711 2694 2227 1926 2227 
L 1094 2227 
L 1094 4057 
L 1926 4057 
z
" transform="scale(0.015625)"/>
      <path id="CMSS17-72" d="M 954 1369 
C 954 1974 1395 2379 1958 2392 
L 1958 2816 
C 1549 2809 1165 2604 934 2270 
L 934 2783 
L 480 2783 
L 480 0 
L 954 0 
L 954 1369 
z
" transform="scale(0.015625)"/>
      <path id="CMSS17-6f" d="M 2829 1356 
C 2829 2175 2221 2816 1504 2816 
C 768 2816 173 2156 173 1356 
C 173 544 787 -64 1498 -64 
C 2227 -64 2829 563 2829 1356 
z
M 1504 339 
C 1050 339 659 710 659 1407 
C 659 2150 1114 2425 1498 2425 
C 1914 2425 2342 2124 2342 1407 
C 2342 684 1926 339 1504 339 
z
" transform="scale(0.015625)"/>
      <path id="CMSS17-64" d="M 2611 4416 
L 2138 4416 
L 2138 2495 
C 1939 2662 1613 2816 1254 2816 
C 672 2816 211 2179 211 1375 
C 211 572 666 -64 1235 -64 
C 1677 -64 1971 172 2125 307 
L 2125 -13 
L 2611 -13 
L 2611 4416 
z
M 2125 851 
C 2125 760 2125 663 1926 488 
C 1798 378 1645 326 1498 326 
C 1152 326 698 585 698 1369 
C 698 2185 1210 2425 1562 2425 
C 1798 2425 1990 2308 2125 2114 
L 2125 851 
z
" transform="scale(0.015625)"/>
     </defs>
     <use xlink:href="#CMSS17-50" transform="scale(0.996264)"/>
     <use xlink:href="#CMSS17-65" transform="translate(57.133132 0) scale(0.996264)"/>
     <use xlink:href="#CMSS17-72" transform="translate(98.771954 0) scale(0.996264)"/>
     <use xlink:href="#CMSS17-69" transform="translate(130.681727 0) scale(0.996264)"/>
     <use xlink:href="#CMSS17-6f" transform="translate(152.86245 0) scale(0.996264)"/>
     <use xlink:href="#CMSS17-64" transform="translate(202.308512 0) scale(0.996264)"/>
     <use xlink:href="#CMSS17-65" transform="translate(250.513455 0) scale(0.996264)"/>
     <use xlink:href="#CMSS17-6e" transform="translate(292.152277 0) scale(0.996264)"/>
     <use xlink:href="#CMSS17-64" transform="translate(340.357221 0) scale(0.996264)"/>
     <use xlink:href="#CMSS17-61" transform="translate(388.562164 0) scale(0.996264)"/>
     <use xlink:href="#CMSS17-75" transform="translate(433.484084 0) scale(0.996264)"/>
     <use xlink:href="#CMSS17-65" transform="translate(481.689027 0) scale(0.996264)"/>
     <use xlink:href="#CMSS17-72" transform="translate(523.32785 0) scale(0.996264)"/>
     <use xlink:href="#CMSS17-3a" transform="translate(555.237622 0) scale(0.996264)"/>
     <use xlink:href="#CMSS17-35" transform="translate(622.900634 0) scale(0.996264)"/>
     <use xlink:href="#CMSS17-2e" transform="translate(669.744257 0) scale(0.996264)"/>
     <use xlink:href="#CMSS17-30" transform="translate(695.768462 0) scale(0.996264)"/>
     <use xlink:href="#CMSS17-30" transform="translate(742.612086 0) scale(0.996264)"/>
     <use xlink:href="#CMSS17-6d" transform="translate(820.684822 0) scale(0.996264)"/>
     <use xlink:href="#CMSS17-73" transform="translate(894.914076 0) scale(0.996264)"/>
    </g>
   </g>
   <g id="text_21">
    <!-- PWM-Signal -->
    <g transform="translate(340.196398 19.10218) scale(0.12 -0.12)">
     <defs>
      <path id="CMSS17-57" d="M 5581 4416 
L 5094 4416 
L 4557 2436 
C 4474 2118 4397 1800 4320 1482 
C 4205 1012 4122 681 4109 516 
L 4102 516 
C 4090 687 4006 1050 3904 1457 
C 3827 1794 3744 2131 3654 2462 
L 3123 4416 
L 2586 4416 
L 2080 2564 
L 1824 1552 
C 1632 751 1626 636 1613 509 
L 1606 509 
C 1606 547 1581 757 1402 1501 
C 1312 1870 1222 2246 1126 2602 
L 634 4416 
L 83 4416 
L 1299 0 
L 1830 0 
L 2336 1838 
L 2592 2850 
C 2765 3562 2803 3740 2816 3899 
L 2822 3899 
C 2822 3874 2880 3473 3130 2544 
L 3808 0 
L 4365 0 
L 5581 4416 
z
" transform="scale(0.015625)"/>
      <path id="CMSS17-4d" d="M 3194 2373 
L 2886 1476 
C 2835 1311 2662 795 2624 592 
L 2618 592 
C 2598 719 2560 853 2458 1177 
C 2400 1368 2336 1565 2272 1743 
L 1325 4416 
L 576 4416 
L 576 0 
L 1075 0 
L 1075 3899 
L 1082 3899 
C 1082 3893 1139 3613 1530 2500 
L 2374 102 
L 2848 102 
L 3610 2233 
C 3661 2379 3821 2843 3891 3066 
C 3955 3257 4115 3728 4154 3912 
L 4160 3912 
L 4160 0 
L 4666 0 
L 4666 4416 
L 3923 4416 
L 3194 2373 
z
" transform="scale(0.015625)"/>
      <path id="CMSS17-2d" d="M 1664 1216 
L 1664 1587 
L 64 1587 
L 64 1216 
L 1664 1216 
z
" transform="scale(0.015625)"/>
      <path id="CMSS17-53" d="M 2797 4230 
C 2515 4396 2208 4544 1690 4544 
C 864 4544 333 3934 333 3309 
C 333 3064 403 2787 653 2504 
C 902 2220 1184 2143 1542 2053 
C 1690 2014 1939 1943 1984 1924 
C 2342 1782 2515 1454 2515 1144 
C 2515 738 2202 307 1645 307 
C 1453 307 890 339 358 829 
L 269 320 
C 794 -64 1363 -128 1651 -128 
C 2438 -128 3002 494 3002 1202 
C 3002 1460 2925 1789 2656 2092 
C 2394 2381 2163 2446 1638 2588 
C 1338 2665 1146 2717 986 2916 
C 877 3058 819 3193 819 3367 
C 819 3728 1126 4121 1690 4121 
C 1971 4121 2336 4063 2707 3715 
L 2797 4230 
z
" transform="scale(0.015625)"/>
      <path id="CMSS17-67" d="M 2848 2816 
C 2483 2809 2170 2739 1914 2617 
C 1702 2783 1485 2816 1338 2816 
C 781 2816 358 2356 358 1824 
C 358 1481 550 1222 563 1209 
C 448 1049 384 876 384 684 
C 384 460 474 300 544 211 
C 211 6 166 -308 166 -429 
C 166 -896 749 -1280 1498 -1280 
C 2253 -1280 2835 -896 2835 -423 
C 2835 460 1856 467 1587 467 
L 1069 467 
C 973 467 717 467 717 793 
C 717 921 774 1004 781 1011 
C 877 940 1075 832 1338 832 
C 1869 832 2310 1279 2310 1824 
C 2310 2128 2170 2349 2112 2425 
L 2131 2425 
C 2150 2425 2419 2444 2515 2444 
C 2720 2444 2739 2438 2918 2419 
L 2848 2816 
z
M 1338 1184 
C 1120 1184 813 1317 813 1824 
C 813 2375 1165 2463 1331 2463 
C 1549 2463 1856 2330 1856 1824 
C 1856 1272 1504 1184 1338 1184 
z
M 1581 0 
C 1734 0 2381 0 2381 -436 
C 2381 -711 1984 -928 1504 -928 
C 1018 -928 621 -717 621 -429 
C 621 -397 621 0 1062 0 
L 1581 0 
z
" transform="scale(0.015625)"/>
     </defs>
     <use xlink:href="#CMSS17-50" transform="scale(0.996264)"/>
     <use xlink:href="#CMSS17-57" transform="translate(59.735586 0) scale(0.996264)"/>
     <use xlink:href="#CMSS17-4d" transform="translate(147.977752 0) scale(0.996264)"/>
     <use xlink:href="#CMSS17-2d" transform="translate(229.653782 0) scale(0.996264)"/>
     <use xlink:href="#CMSS17-53" transform="translate(260.882895 0) scale(0.996264)"/>
     <use xlink:href="#CMSS17-69" transform="translate(312.931411 0) scale(0.996264)"/>
     <use xlink:href="#CMSS17-67" transform="translate(335.112134 0) scale(0.996264)"/>
     <use xlink:href="#CMSS17-6e" transform="translate(381.955758 0) scale(0.996264)"/>
     <use xlink:href="#CMSS17-61" transform="translate(430.160701 0) scale(0.996264)"/>
     <use xlink:href="#CMSS17-6c" transform="translate(475.082622 0) scale(0.996264)"/>
    </g>
   </g>
   <g id="legend_1">
    <g id="patch_10">
     <path d="M 606.14232 47.039358 
L 690.861417 47.039358 
Q 692.861417 47.039358 692.861417 45.039358 
L 692.861417 32.10218 
Q 692.861417 30.10218 690.861417 30.10218 
L 606.14232 30.10218 
Q 604.14232 30.10218 604.14232 32.10218 
L 604.14232 45.039358 
Q 604.14232 47.039358 606.14232 47.039358 
z
" style="fill: #ffffff; opacity: 0.8; stroke: #cccccc; stroke-linejoin: miter"/>
    </g>
    <g id="line2d_17">
     <path d="M 608.14232 37.60218 
L 618.14232 37.60218 
L 628.14232 37.60218 
" style="fill: none; stroke: #a71916; stroke-width: 1.5; stroke-linecap: square"/>
    </g>
    <g id="text_22">
     <!-- PWM - 70\% -->
     <g transform="translate(636.14232 41.10218) scale(0.1 -0.1)">
      <defs>
       <path id="CMSS17-37" d="M 1389 3788 
C 1466 3788 1542 3795 1619 3795 
L 2355 3795 
C 1440 2715 915 1350 915 -64 
L 1427 -64 
C 1427 1305 1875 2695 2752 3807 
L 2752 4224 
L 250 4224 
L 250 3788 
L 1389 3788 
z
" transform="scale(0.015625)"/>
       <path id="CMSS17-25" d="M 3923 4582 
C 3962 4646 3962 4678 3962 4684 
C 3962 4755 3904 4800 3853 4800 
C 3782 4800 3750 4748 3718 4684 
L 1101 -109 
C 1088 -135 1062 -173 1062 -212 
C 1062 -282 1120 -327 1178 -327 
C 1235 -327 1248 -301 1299 -212 
L 3923 4582 
z
M 4678 953 
C 4678 1690 4282 2233 3846 2233 
C 3418 2233 3008 1703 3008 953 
C 3008 203 3418 -327 3846 -327 
C 4288 -327 4678 216 4678 953 
z
M 3846 64 
C 3712 64 3494 184 3494 953 
C 3494 1716 3712 1843 3846 1843 
C 4083 1843 4211 1379 4211 953 
C 4211 527 4083 64 3846 64 
z
M 2003 3516 
C 2003 4256 1606 4800 1171 4800 
C 742 4800 333 4269 333 3516 
C 333 2764 742 2233 1171 2233 
C 1613 2233 2003 2777 2003 3516 
z
M 1171 2624 
C 1037 2624 819 2745 819 3516 
C 819 4282 1037 4409 1171 4409 
C 1408 4409 1536 3944 1536 3516 
C 1536 3089 1408 2624 1171 2624 
z
" transform="scale(0.015625)"/>
      </defs>
      <use xlink:href="#CMSS17-50" transform="scale(0.996264)"/>
      <use xlink:href="#CMSS17-57" transform="translate(59.735586 0) scale(0.996264)"/>
      <use xlink:href="#CMSS17-4d" transform="translate(147.977752 0) scale(0.996264)"/>
      <use xlink:href="#CMSS17-2d" transform="translate(260.882895 0) scale(0.996264)"/>
      <use xlink:href="#CMSS17-37" transform="translate(323.341121 0) scale(0.996264)"/>
      <use xlink:href="#CMSS17-30" transform="translate(370.184744 0) scale(0.996264)"/>
      <use xlink:href="#CMSS17-25" transform="translate(417.028368 0) scale(0.996264)"/>
     </g>
    </g>
   </g>
  </g>
 </g>
 <defs>
  <clipPath id="pb42215c8c8">
   <rect x="44.492719" y="25.10218" width="653.368698" height="433.177141"/>
  </clipPath>
 </defs>
</svg>
