<svg id="logo" xmlns="http://www.w3.org/2000/svg" xmlns:xlink="http://www.w3.org/1999/xlink" viewBox="0 0 841.9 595.3"><defs><linearGradient id="Unbenannter_Verlauf_71" x1="242.41" y1="429.69" x2="329.74" y2="429.69" gradientUnits="userSpaceOnUse"><stop offset="0" stop-color="#006499"/><stop offset=".19" stop-color="#135a92"/><stop offset=".5" stop-color="#304b88"/><stop offset=".54" stop-color="#2f4985"/><stop offset=".75" stop-color="#2b407b"/><stop offset="1" stop-color="#2a3d78"/></linearGradient><linearGradient id="Unbenannter_Verlauf_71-2" x1="763.82" y1="486.57" x2="774.82" y2="486.57" xlink:href="#Unbenannter_Verlauf_71"/><linearGradient id="Unbenannter_Verlauf_71-3" x1="771.19" y1="478.28" x2="774" y2="478.28" xlink:href="#Unbenannter_Verlauf_71"/><linearGradient id="Unbenannter_Verlauf_71-4" x1="768.01" y1="472.26" x2="770.8" y2="472.26" xlink:href="#Unbenannter_Verlauf_71"/><linearGradient id="Unbenannter_Verlauf_71-5" x1="719.51" y1="466.97" x2="783.63" y2="466.97" xlink:href="#Unbenannter_Verlauf_71"/><style>.cls-2{fill:#222221}.cls-3{fill:#9e282b}.cls-4{fill:#2f3b3f}.cls-5{fill:gray}.cls-7,.cls-8,.cls-9{fill:none;stroke:gray;stroke-miterlimit:10;stroke-width:.72px}.cls-8{stroke-dasharray:21.46 21.46}.cls-9{stroke-dasharray:21.4 21.4}.cls-10{fill:#fff}.cls-15{fill:#2e5286}</style></defs><path style="fill:#e6e6e6" d="M551.1 231.2h127.6v127.56H551.1z"/><path class="cls-2" d="M558.6 367.9h1.5l1.4 3.2.6 1.4a16.4 16.4 0 0 1-.2-2.3v-2.3h1.4v6.5h-1.5l-1.4-3.3-.5-1.4h-.1a17.9 17.9 0 0 1 .2 2.4v2.3h-1.4zM564.5 371.9a2.6 2.6 0 0 1 2.6-2.6 2.2 2.2 0 0 1 2.3 2.4v.6H566c.1.8.6 1.1 1.5 1.1a1.9 1.9 0 0 0 1.2-.4l.5.9a3.3 3.3 0 0 1-1.9.6 2.5 2.5 0 0 1-2.8-2.6zm1.5-.5h2.1c-.1-.7-.4-1-1-1a1.1 1.1 0 0 0-1.1 1zM570.5 375.2c0-.4.2-.7.7-1a1.1 1.1 0 0 1-.4-.9 1.4 1.4 0 0 1 .5-.9 1.8 1.8 0 0 1-.6-1.3 1.9 1.9 0 0 1 2.1-1.8h2.8v1.1h-1a1.5 1.5 0 0 1 .3.7c0 1.1-.9 1.6-2.1 1.6h-.7a.5.5 0 0 0-.2.4c0 .2.3.4.8.4h1c1.3 0 2 .3 2 1.2s-1.2 1.8-3 1.8-2.2-.4-2.2-1.3zm3.8-.2c0-.4-.3-.4-.9-.4H572c-.2.2-.3.3-.3.5s.5.6 1.2.6 1.4-.4 1.4-.7zm-.7-3.9a.8.8 0 0 0-.8-.8.8.8 0 0 0 0 1.6.8.8 0 0 0 .8-.8zM576.6 373c0-1.1.9-1.7 3.2-1.8 0-.5-.4-.7-1-.7a4.2 4.2 0 0 0-1.5.4l-.5-.9a4.2 4.2 0 0 1 2.3-.7 2 2 0 0 1 2.2 2.2v2.9h-1.2v-.6a3.1 3.1 0 0 1-1.8.7 1.5 1.5 0 0 1-1.7-1.5zm3.2-.1v-.8c-1.4.1-1.8.4-1.8.8s.2.5.7.5a1.6 1.6 0 0 0 1.1-.5zM583.7 372.3v-1.7h-1.2v-1.1h1.3l.2-1.5h1.2v1.5h2.1v1.2h-2.1v1.7c0 .8.3 1.1 1 1.1l1-.2.3 1a4.3 4.3 0 0 1-1.7.3 1.9 1.9 0 0 1-2.1-2.3zM590.7 370.6h-1.9v-1.2h3.4v5h-1.5zm-.3-2.8a1 1 0 0 1 2 0c0 .5-.4.8-1 .8s-1-.3-1-.8zM594.3 369.4h1.5l.7 2.4c.2.5.3 1 .5 1.5.2-.5.3-1 .5-1.5l.7-2.4h1.4l-1.8 5h-1.7zM600.7 370.6h4.6v1h-4.6zM606.1 367.9h1.6l.7 3 .6 2.1c.2-.7.3-1.4.5-2.1l.8-3h1.5l-2 6.5h-1.7zM612.6 373c0-1.1.9-1.7 3.2-1.8 0-.5-.4-.7-1-.7a4.2 4.2 0 0 0-1.5.4l-.5-.9a4.2 4.2 0 0 1 2.3-.7 2 2 0 0 1 2.2 2.2v2.9h-1.2v-.6a3.1 3.1 0 0 1-1.8.7 1.5 1.5 0 0 1-1.7-1.5zm3.2-.1v-.8c-1.4.1-1.8.4-1.8.8s.2.5.7.5a1.6 1.6 0 0 0 1.1-.5zM619.1 369.4h1.2v1.1h.1a2.3 2.3 0 0 1 2-1.2l.9.2-.3 1.2h-.8a1.7 1.7 0 0 0-1.7 1.2v2.6H619zM626.7 370.6h-1.9v-1.2h3.4v5h-1.5zm-.3-2.8a1 1 0 0 1 2 0c0 .5-.4.8-1 .8s-1-.3-1-.8zM630.6 373c0-1.1.9-1.7 3.2-1.8 0-.5-.4-.7-1-.7a4.2 4.2 0 0 0-1.5.4l-.5-.9a4.2 4.2 0 0 1 2.3-.7 2 2 0 0 1 2.2 2.2v2.9h-1.2v-.6a3.1 3.1 0 0 1-1.8.7 1.5 1.5 0 0 1-1.7-1.5zm3.2-.1v-.8c-1.4.1-1.8.4-1.8.8s.2.5.7.5a1.6 1.6 0 0 0 1.1-.5zM636.7 369.4h1.2v.7a2.7 2.7 0 0 1 1.7-.8c1.2 0 1.7.8 1.7 2v3.1h-1.5v-2.9c0-.6-.2-.9-.7-.9a1.4 1.4 0 0 0-1.1.5v3.3h-1.4zM643.7 372.3v-1.7h-1.2v-1.1h1.3l.2-1.5h1.2v1.5h2.1v1.2h-2.1v1.7c0 .8.3 1.1 1 1.1l1-.2.3 1a4.3 4.3 0 0 1-1.7.3 1.9 1.9 0 0 1-2.1-2.3zM648.5 371.9a2.6 2.6 0 0 1 2.6-2.6 2.2 2.2 0 0 1 2.3 2.4v.6H650c.1.8.6 1.1 1.5 1.1a1.9 1.9 0 0 0 1.2-.4l.5.9a3.3 3.3 0 0 1-1.9.6 2.5 2.5 0 0 1-2.8-2.6zm1.5-.5h2.1c-.1-.7-.4-1-1-1a1.1 1.1 0 0 0-1.1 1z"/><g id="lg"><circle class="cls-3" cx="615.7" cy="297.1" r="56.7"/><path class="cls-4" d="M575.6 257a56.6 56.6 0 0 0 0 80.2l80.2-80.2a56.8 56.8 0 0 0-80.2 0z"/><g id="läufer"><path class="cls-4" d="M642.2 309.2a8.8 8.8 0 0 0-.9-3.8v-.4c.1-.1.2-.2.2-.9a6.3 6.3 0 0 0-.4-2.5 3.7 3.7 0 0 0-2-1.3 18 18 0 0 1-2.7-.7.3.3 0 0 1-.1-.2v-2.1a.9.9 0 0 0 .6-.9 2.4 2.4 0 0 0 0-.9c0-.3.2-3-2.5-3.1a2.6 2.6 0 0 0-2.8 2.8 3.4 3.4 0 0 0 .1 1.4 7.9 7.9 0 0 0 .8 1.1v1.8a.2.2 0 0 1-.2.2h-.7c-1.4.2-3.9.6-4.6 1.8s-.9 4.1-1.1 4.6.3 1.6.4 2.3.4 3.3.4 3.3.5.6.4.9 0 2.4.4 2.8 1.2 2.9 1.6 2.8 0-1.8 0-2v-.2l.2-.2v-1.3a3.1 3.1 0 0 0-.1-1.3c-.2-.4-.9-.5-.9-1.1a20.9 20.9 0 0 0 .4-3.5 9 9 0 0 0-.5-2.2l1.2-1.5s.4 2.1.4 2.7.7 1 .7 2.6a19.7 19.7 0 0 1-.3 2.4v3.1l-.5 2v.2c.2.5.6 2.1 1 3.1s1.9 2.3 1.9 2.5a12.3 12.3 0 0 0-.5 2.2 22.7 22.7 0 0 0 .7 2.8 8 8 0 0 1 .4 2.4c0 .6.6 2.1.8 3.1s-.5 1.7-.4 1.9a3.2 3.2 0 0 1-.2 1.6c-.1.3-.9 2.4-.6 3.1s1.1.6 1.5.6-.3 2.8 1.3 2.9 1.6-2.2 1.5-2.9a8.5 8.5 0 0 1 .3-3.9 25.7 25.7 0 0 0 1.1-2.7c.4-.9.1-3.7.1-4.2a7.4 7.4 0 0 1 .5-1.9 14.9 14.9 0 0 0 .6-2.8c.1-.7.9-3.7.9-4.6a13.7 13.7 0 0 0-.2-4.5 25.2 25.2 0 0 1-.8-5.8c.2 1.1 2 2.1 2.6 1.4s-.1-2.3 0-3zm-6.1 20.8a14 14 0 0 1-.6 2.8h-.1a20.8 20.8 0 0 1 0-2.5c.1-.5.3-2 .4-2.7s0-.1.1 0a9.7 9.7 0 0 1 .2 2.4z"/><path class="cls-4" d="M641.2 309.6a8.2 8.2 0 0 0-.5-1.4 7.1 7.1 0 0 1-1.5-2.1c-.2-.7-.3-2.6-.5-3.2a8.3 8.3 0 0 0-1.6-2.2c-.2 0-.1.3-.1.4s.5 1.5.5 1.9-.4-.6-.5-.5.4 1.3.4 1.4.1 1.3.1 1.4.7 1.2.8 1.5.6 2.7.7 2.9l.5 1.3zM632.3 294.6c0-.1.1-.2.2-.1l1.5.4a4.5 4.5 0 0 0 2-.4c.5-.4.4 2.6.3 2.8s-1.1 1.8-1.8 1.8a3.6 3.6 0 0 1-2-1.4 15.7 15.7 0 0 1-.3-2.4 3.5 3.5 0 0 1 .1-.7z"/></g><g id="text"><path class="cls-4" d="M655.3 287.3c0-2.2 1.1-3.3 2.6-3.3s2.5 1.1 2.5 3.3-1 3.3-2.5 3.3-2.6-1.2-2.6-3.3zm3.7 0c0-1.4-.5-2.1-1.1-2.1s-1.1.7-1.1 2.1.4 2.1 1.1 2.1 1.1-.8 1.1-2.1zM655.5 297.1a3 3 0 0 1 3-3.3 2.8 2.8 0 0 1 1.9.8l-.8.9a1.4 1.4 0 0 0-1.1-.5c-.9 0-1.5.8-1.5 2.1s.6 2 1.6 2a1.6 1.6 0 0 0 1.1-.5l.8.8a2.4 2.4 0 0 1-2.1 1c-1.6 0-2.9-1.2-2.9-3.3zM655.6 303.7h2.3c1.3 0 2.5.4 2.5 1.9a1.9 1.9 0 0 1-1.2 1.9l1.5 2.5H659l-1.2-2.3h-.7v2.3h-1.5zm2.2 2.9c.7 0 1.1-.3 1.1-1s-.4-.8-1.1-.8h-.7v1.8z"/><path class="cls-3" d="m569.6 290.8-.8-1a2.9 2.9 0 0 0 .9-1.5c.2-.6 0-1-.3-1s-.7.2-1 .8l-.5.7a1.8 1.8 0 0 1-2 1 2.1 2.1 0 0 1-1.4-2.7 3.3 3.3 0 0 1 1.2-1.9l.8.9a2.2 2.2 0 0 0-.8 1.4c-.1.4 0 .8.4.9s.6-.4.9-.9l.5-.7a1.8 1.8 0 0 1 2-1c1 .2 1.7 1.2 1.4 2.8a3.6 3.6 0 0 1-1.3 2.2zM569.2 284.7a2.5 2.5 0 0 1-1.6-3.2 2.3 2.3 0 0 1 3.1-1.5 2.4 2.4 0 0 1 1.7 3.1 2.5 2.5 0 0 1-3.2 1.6zm1.1-3.3c-.8-.3-1.4-.1-1.6.5s.2 1.1 1 1.4 1.4.1 1.6-.5-.2-1.2-1-1.4zM571.7 279.1l-2.7-1.3.6-1.3 2.6 1.3c.5.2.9.2 1.1-.3s.2-.6-.1-1.1l-2.9-1.3.7-1.3 4.3 2-.5 1.1-.6-.2h-.1a2.1 2.1 0 0 1 .1 1.9c-.5 1-1.4 1.1-2.5.5zM572.1 271.8l.6-1 1 .4a2.1 2.1 0 0 1 .1-2.3l.6-.7.9.9-.6.7a1.8 1.8 0 0 0 .1 2l2.2 1.4-.8 1.2zM577.2 268.5a2.5 2.5 0 0 1-.2-3.8 2.2 2.2 0 0 1 1.7-.9l.2 1a2.1 2.1 0 0 0-1 .6 1.4 1.4 0 0 0 .2 2 1.3 1.3 0 0 0 1.9-.2 1.7 1.7 0 0 0 .5-1.3l1.1.2a3 3 0 0 1-.8 2 2.5 2.5 0 0 1-3.6.4zM581 264a2.3 2.3 0 0 1 .1-3.5 2 2 0 0 1 3.2.1c.2.2.4.4.4.5l-2.4 2.3a1.3 1.3 0 0 0 1.8-.3 3 3 0 0 0 .7-1.1l.9.3a5.2 5.2 0 0 1-1 1.8 2.5 2.5 0 0 1-3.7-.1zm.7-1.3 1.5-1.5a1 1 0 0 0-1.3 0 1.2 1.2 0 0 0-.2 1.5zM589.9 256c-1-1.9-.4-3.6 1.1-4.4a2.6 2.6 0 0 1 2.1-.2l-.3 1.1a1.3 1.3 0 0 0-1.2.2c-.8.4-1 1.4-.4 2.5s1.6 1.5 2.4 1.1a2.3 2.3 0 0 0 .8-1.1l1.1.4a2.8 2.8 0 0 1-1.4 1.8c-1.4.8-3.1.4-4.2-1.4zM595.5 253.8a2.3 2.3 0 0 1 1.4-3.2 2.4 2.4 0 0 1 3.2 1.4 2.5 2.5 0 0 1-1.4 3.3 2.4 2.4 0 0 1-3.2-1.5zm3.2-1.2c-.3-.8-.8-1.2-1.4-1s-.8.9-.4 1.7.8 1.2 1.4.9.7-.9.4-1.6zM601.1 251.7a2.3 2.3 0 0 1 1.3-3 1.8 1.8 0 0 1 1.3.2h.1l-.3-.7-.4-1.6 1.4-.4 1.7 6.7-1.1.3-.3-.5a2.1 2.1 0 0 1-1.1 1c-1.2.3-2.3-.5-2.6-2zm3.3.1-.4-1.9a1 1 0 0 0-.9-.1c-.5.1-.8.6-.6 1.5s.7 1.3 1.2 1.1.6-.2.7-.6zM607 250.3a2.5 2.5 0 0 1 2.1-2.9 2.2 2.2 0 0 1 2.6 2v.7l-3.3.4a1.3 1.3 0 0 0 1.6.8 2.1 2.1 0 0 0 1.2-.5l.6.8a2.7 2.7 0 0 1-1.9.8 2.3 2.3 0 0 1-2.9-2.1zm1.3-.8 2.1-.2c-.2-.6-.5-.9-1.1-.8a1.2 1.2 0 0 0-1 1zM579.9 294.6c-1.5-1.6-1.6-3.1-.6-4.1s2.6-1 4.1.6 1.7 3.1.6 4.1-2.6.9-4.1-.6zm2.6-2.6c-1.2-1.2-1.9-1.1-2.4-.7s-.4 1.2.7 2.3 2 1.2 2.4.8.5-1.2-.7-2.4zm-1.4 1.4a.8.8 0 1 1 1.1 0 .8.8 0 0 1-1.1 0zM585.8 291.6l1.2-1.2-2.6-2.7-1 1-.6-.7a4.8 4.8 0 0 0 .8-1.6l.8-.8 3.7 3.7 1-1 .9.9-3.3 3.2zM588.5 286c-1.5-1.5-1.6-3-.5-4.1s2.5-.9 4 .6 1.7 3.1.7 4.2-2.6.9-4.2-.7zm2.6-2.5c-1.2-1.2-1.9-1.2-2.3-.8s-.5 1.2.7 2.4 1.9 1.2 2.3.7.5-1.2-.7-2.3zm-1.4 1.3a.8.8 0 1 1 1.1 0 .8.8 0 0 1-1.1 0zM594.5 283l1.1-1.2-2.6-2.6-.9.9-.7-.6a3.3 3.3 0 0 0 .8-1.7l.8-.7 3.7 3.7 1-1.1.9.9-3.3 3.2zM598.8 278.7l1.2-1.2-2.7-2.6-.9.9-.7-.6a5.3 5.3 0 0 0 .9-1.6l.7-.8 3.7 3.7 1-1 .9.8-3.3 3.3zM603.1 274.4l1.2-1.1-2.7-2.7-.9 1-.7-.7a5.3 5.3 0 0 0 .9-1.6l.7-.8 3.7 3.7 1.1-1 .8.8-3.3 3.3zM607.4 270.1l1.2-1.1-2.6-2.7-1 1-.6-.7a7.9 7.9 0 0 0 .8-1.6l.8-.8 3.6 3.7 1.1-1 .8.9-3.2 3.2zM611.7 265.9l1.2-1.2-2.6-2.6-1 .9-.6-.7a7.9 7.9 0 0 0 .8-1.6l.8-.8 3.7 3.7 1-1 .8.9-3.2 3.2zM590.1 304.5l1.2-1.2-2.7-2.6-.9.9-.7-.7a5.3 5.3 0 0 0 .9-1.6l.7-.8 3.7 3.7 1.1-1 .8.9-3.3 3.2zM594.4 300.2l1.2-1.2-2.6-2.6-1 .9-.6-.6a8.5 8.5 0 0 0 .8-1.7l.8-.7 3.6 3.7 1.1-1.1.8.9-3.2 3.2zM597.1 294.6c-1.5-1.5-1.6-3-.6-4.1s2.6-.9 4.1.7 1.7 3 .6 4.1-2.6.9-4.1-.7zm2.6-2.5c-1.2-1.2-1.9-1.2-2.4-.7s-.4 1.1.7 2.3 2 1.2 2.4.8.4-1.2-.7-2.4zm-1.4 1.3a.8.8 0 1 1 1.1 0 .8.8 0 0 1-1.1 0zM601.4 290.4c-1.5-1.6-1.6-3.1-.6-4.1s2.6-1 4.1.6 1.7 3.1.6 4.1-2.6.9-4.1-.6zm2.6-2.6c-1.2-1.2-1.9-1.2-2.4-.7s-.4 1.1.8 2.3 1.9 1.2 2.3.8.5-1.2-.7-2.4zm-1.4 1.3a.7.7 0 0 1 0-1 .7.7 0 0 1 1.1 0 .7.7 0 0 1 0 1 .7.7 0 0 1-1.1 0zM607.3 287.3l1.2-1.1-2.6-2.7-.9 1-.7-.7a4.8 4.8 0 0 0 .8-1.6l.8-.8 3.7 3.7 1-1 .9.8-3.3 3.3zM611.7 283.1l1.1-1.2-2.6-2.7-.9 1-.7-.7a3.4 3.4 0 0 0 .8-1.6l.8-.8 3.7 3.7 1-1 .9.9-3.3 3.2zM614.4 277.5c-1.6-1.5-1.7-3-.6-4.1s2.5-.9 4.1.6 1.6 3.1.6 4.2-2.6.9-4.1-.7zm2.5-2.5c-1.2-1.2-1.9-1.2-2.3-.8s-.5 1.2.7 2.4 1.9 1.2 2.4.7.4-1.2-.8-2.3zm-1.3 1.3a.7.7 0 0 1-.1-1.1.8.8 0 0 1 1.1 0 .7.7 0 0 1 0 1.1.7.7 0 0 1-1 0zM618.7 273.2c-1.6-1.5-1.7-3-.6-4.1s2.5-.9 4.1.6 1.6 3.1.6 4.2-2.6.9-4.1-.7zm2.5-2.5c-1.1-1.2-1.8-1.2-2.3-.7s-.5 1.1.7 2.3 1.9 1.2 2.4.8.4-1.2-.8-2.4zm-1.3 1.3a.7.7 0 0 1 0-1.1.7.7 0 0 1 1 0 .7.7 0 0 1 0 1.1.7.7 0 0 1-1 0z"/></g></g><g id="schrift"><path class="cls-3" d="m534.2 107 1.3-1.6a4.3 4.3 0 0 0 2.8 1.1c1 0 1.5-.4 1.5-.9s-.7-.9-1.7-1.4l-1.3-.5a3.1 3.1 0 0 1-2.2-2.9c0-1.7 1.5-3.1 3.8-3.1a5.2 5.2 0 0 1 3.5 1.4l-1.2 1.5a3.4 3.4 0 0 0-2.4-.9c-.8 0-1.3.4-1.3 1s.7.9 1.7 1.2l1.2.6c1.4.5 2.3 1.3 2.3 2.8s-1.5 3.2-4.1 3.2a5.8 5.8 0 0 1-3.9-1.5zM544 104.4c0-2.7 2.2-4.2 4.6-4.2a4.5 4.5 0 0 1 3 1.1l-1.1 1.4a3.2 3.2 0 0 0-1.8-.6 2.2 2.2 0 0 0-2.3 2.3 2.1 2.1 0 0 0 2.3 2.2 3.8 3.8 0 0 0 2.1-.7l.9 1.5a5.2 5.2 0 0 1-3.3 1.1c-2.5 0-4.4-1.5-4.4-4.1zM553.7 97.1h2.3v4.3a3.8 3.8 0 0 1 2.7-1.2c1.8 0 2.6 1.2 2.6 3.2v4.9h-2.4v-4.6c0-1-.3-1.5-1.2-1.5a2.4 2.4 0 0 0-1.6.8v5.3h-2.3zM564 100.4h1.9l.2 1.7a3.7 3.7 0 0 1 3.2-1.9 3.8 3.8 0 0 1 1.6.3l-.5 2-1.4-.2a3 3 0 0 0-2.7 1.9v4.1H564zM576.1 102.2H573v-1.8h5.5v7.9h-2.4zm-.5-4.5a1.6 1.6 0 0 1 3.2 0 1.6 1.6 0 0 1-3.2 0zM584.7 102.2h-2.1v-1.7h2.1v-.2a3.2 3.2 0 0 1 3.5-3.3 5.4 5.4 0 0 1 2.4.5l-.4 1.7a4.7 4.7 0 0 0-1.7-.3c-1 0-1.5.4-1.5 1.4v.2h2.8v1.8H587v6.1h-2.3zM593.6 105v-2.8h-2v-1.7h2.2l.3-2.4h1.9v2.4h3.4v1.8H596v2.7c0 1.2.5 1.7 1.7 1.7a3.3 3.3 0 0 0 1.5-.3l.5 1.7a9.5 9.5 0 0 1-2.6.4c-2.6 0-3.5-1.4-3.5-3.5zM601.4 106.1c0-1.7 1.5-2.6 5.3-2.9-.1-.7-.7-1.1-1.7-1.1a6.3 6.3 0 0 0-2.5.7l-.8-1.5a8 8 0 0 1 3.7-1.1 3.3 3.3 0 0 1 3.6 3.6v4.5h-1.9l-.2-.9h-.1a4.1 4.1 0 0 1-2.8 1.1 2.4 2.4 0 0 1-2.6-2.4zm5.3-.1v-1.4c-2.4.2-3 .7-3 1.4s.4.7 1.1.7a3.4 3.4 0 0 0 1.9-.7zM611.9 100.4h1.9l.2 1.7a3.8 3.8 0 0 1 3.3-1.9 3.3 3.3 0 0 1 1.5.3l-.5 2-1.4-.2a3 3 0 0 0-2.7 1.9v4.1h-2.3zM622.4 105v-2.8h-2v-1.7h2.1l.3-2.4h1.9v2.4h3.4v1.8h-3.4v2.7a1.5 1.5 0 0 0 1.7 1.7 4.1 4.1 0 0 0 1.6-.3l.4 1.7a8.9 8.9 0 0 1-2.6.4c-2.5 0-3.4-1.4-3.4-3.5zM632.1 101.5a1.9 1.9 0 1 1 3.8 0 1.9 1.9 0 1 1-3.8 0zm0 5.2a1.9 1.9 0 1 1 3.8 0 1.9 1.9 0 0 1-3.8 0zM649.2 107l1.3-1.6a4.3 4.3 0 0 0 2.8 1.1c1 0 1.5-.4 1.5-.9s-.7-.9-1.7-1.4l-1.3-.5a3.1 3.1 0 0 1-2.2-2.9c0-1.7 1.5-3.1 3.8-3.1a5.2 5.2 0 0 1 3.5 1.4l-1.2 1.5a3.4 3.4 0 0 0-2.4-.9c-.8 0-1.3.4-1.3 1s.7.9 1.7 1.2l1.2.6c1.4.5 2.3 1.3 2.3 2.8s-1.5 3.2-4.1 3.2a5.8 5.8 0 0 1-3.9-1.5zM658.7 104.4a4.1 4.1 0 1 1 4 4.1 4 4 0 0 1-4-4.1zm5.7 0c0-1.4-.6-2.3-1.7-2.3s-1.6.9-1.6 2.3.6 2.2 1.6 2.2 1.7-.9 1.7-2.2zM668.5 105.3v-4.9h2.4v4.6c0 1.1.2 1.5 1.1 1.5a1.9 1.9 0 0 0 1.6-.9v-5.2h2.3v7.9H674l-.2-1.1a3.5 3.5 0 0 1-2.7 1.3c-1.8 0-2.6-1.2-2.6-3.2zM679 100.4h1.9l.2 1.7a3.8 3.8 0 0 1 3.3-1.9 3.3 3.3 0 0 1 1.5.3l-.5 2-1.4-.2a3 3 0 0 0-2.7 1.9v4.1H679zM687.8 104.4c0-2.7 2.1-4.2 4.6-4.2a4.3 4.3 0 0 1 2.9 1.1l-1 1.4a3.5 3.5 0 0 0-1.8-.6 2.2 2.2 0 0 0-2.3 2.3 2.1 2.1 0 0 0 2.2 2.2 3.8 3.8 0 0 0 2.1-.7l1 1.5a5.2 5.2 0 0 1-3.3 1.1c-2.5 0-4.4-1.5-4.4-4.1zM697.2 104.4a4.1 4.1 0 0 1 4.1-4.2 3.5 3.5 0 0 1 3.7 3.8 3.1 3.1 0 0 1-.1 1.1h-5.4c.2 1.1 1.1 1.6 2.4 1.6a4.9 4.9 0 0 0 2-.5l.8 1.4a5.9 5.9 0 0 1-3.1.9c-2.5 0-4.4-1.5-4.4-4.1zm2.3-.9h3.4q-.1-1.5-1.5-1.5a1.8 1.8 0 0 0-1.9 1.5zM716.3 103.2c0-3.5 2.2-5.5 5-5.5a4.9 4.9 0 0 1 3.1 1.3l-1.3 1.5a2.3 2.3 0 0 0-1.8-.8c-1.5 0-2.6 1.3-2.6 3.4s1.1 3.4 2.7 3.4a2.8 2.8 0 0 0 1.9-.9l1.3 1.4a4.4 4.4 0 0 1-3.5 1.5c-2.5 0-4.8-1.8-4.8-5.3zM725.8 104.4a3.9 3.9 0 0 1 4-4.2 4.2 4.2 0 0 1 0 8.3 3.9 3.9 0 0 1-4-4.1zm5.7 0c0-1.4-.6-2.3-1.7-2.3s-1.6.9-1.6 2.3.5 2.2 1.6 2.2 1.7-.9 1.7-2.2zM735.4 104.4c0-2.6 1.6-4.2 3.4-4.2a2.7 2.7 0 0 1 2 .9v-4h2.4v11.2h-2v-.8h-.1a3.2 3.2 0 0 1-2.2 1c-2.2 0-3.5-1.5-3.5-4.1zm5.3 1.5v-3.2a1.8 1.8 0 0 0-1.3-.6c-.9 0-1.6.7-1.6 2.2s.5 2.3 1.5 2.3a1.6 1.6 0 0 0 1.4-.7zM745.1 104.4a4.1 4.1 0 0 1 4.1-4.2 3.6 3.6 0 0 1 3.8 3.8 2.7 2.7 0 0 1-.2 1.1h-5.4a2.2 2.2 0 0 0 2.4 1.6 5.4 5.4 0 0 0 2.1-.5l.7 1.4a5.9 5.9 0 0 1-3.1.9c-2.5 0-4.4-1.5-4.4-4.1zm2.4-.9h3.4a1.5 1.5 0 0 0-1.6-1.5 1.7 1.7 0 0 0-1.8 1.5zM764.6 97.9h3.7c2.2 0 4.1.8 4.1 3.4s-1.9 3.5-4.1 3.5h-1.4v3.5h-2.3zm3.5 5c1.3 0 1.9-.5 1.9-1.6s-.6-1.5-1.9-1.5h-1.2v3.1zM774.8 100.4h1.9l.2 1.7h.1a3.6 3.6 0 0 1 3.2-1.9 3.1 3.1 0 0 1 1.5.3l-.5 2-1.4-.2a2.8 2.8 0 0 0-2.6 1.9v4.1h-2.4zM783.3 104.4a3.9 3.9 0 0 1 4-4.2 4.2 4.2 0 0 1 0 8.3 3.9 3.9 0 0 1-4-4.1zm5.7 0c0-1.4-.6-2.3-1.7-2.3s-1.6.9-1.6 2.3.6 2.2 1.6 2.2 1.7-.9 1.7-2.2z"/><path class="cls-4" d="m576.4 78.5 2.9-3.6a8.9 8.9 0 0 0 5.8 2.4c2.1 0 3-.8 3-2s-1.3-2.2-3.3-3.1l-2.9-1.3a6.8 6.8 0 0 1-4.6-6.5c0-4 3.3-7.1 8-7.1a10.1 10.1 0 0 1 7.2 3.1l-2.5 3.4a7.2 7.2 0 0 0-5-1.9c-1.6 0-2.7.8-2.7 2.2s1.5 2 3.6 2.8l2.6 1.2c2.9 1.2 4.7 3.1 4.7 6.5s-3.1 7.4-8.5 7.4a12.1 12.1 0 0 1-8.3-3.5zM596.4 72.5c0-6 4-9.5 8.4-9.5s8.5 3.5 8.5 9.5-4.1 9.5-8.5 9.5-8.4-3.5-8.4-9.5zm11.8 0c0-3.1-1.1-5.2-3.4-5.2s-3.4 2.1-3.4 5.2 1.1 5.1 3.4 5.1 3.4-2 3.4-5.1zM616.9 74.6V63.4h4.9v10.5c0 2.4.6 3.5 2.4 3.5s2.1-.5 3.3-2.1V63.4h4.9v18.1h-4L628 79h-.1a7.2 7.2 0 0 1-5.6 3c-3.8 0-5.4-2.8-5.4-7.4zM638.7 63.4h4l.4 4h.1c1.7-3 4.1-4.4 6.8-4.4a7.6 7.6 0 0 1 3.2.7l-1 4.5a9.4 9.4 0 0 0-3-.5c-2 0-4.2 1.2-5.6 4.4v9.4h-4.9zM657.1 72.5c0-6 4.5-9.5 9.6-9.5a8.8 8.8 0 0 1 6.2 2.4l-2.3 3.4a5.6 5.6 0 0 0-3.6-1.5c-2.9 0-4.8 2.1-4.8 5.2s1.9 5.1 4.6 5.1a7.5 7.5 0 0 0 4.4-1.7l2 3.4a10.8 10.8 0 0 1-6.9 2.7c-5.2 0-9.2-3.5-9.2-9.5zM676.7 72.5c0-6 4.2-9.5 8.7-9.5s7.8 3.8 7.8 8.7a10.9 10.9 0 0 1-.3 2.4h-11.3c.5 2.6 2.3 3.8 5 3.8a8 8 0 0 0 4.3-1.3l1.6 3.3a12.3 12.3 0 0 1-6.6 2.1c-5.2 0-9.2-3.5-9.2-9.5zm5-2h7.1c-.2-2.2-1.4-3.4-3.3-3.4s-3.3 1.1-3.8 3.4zM716.8 69.8c0-7.9 4.5-12.5 10.4-12.5a9.5 9.5 0 0 1 6.5 3l-2.7 3.4a5.1 5.1 0 0 0-3.8-1.8c-3.1 0-5.4 2.9-5.4 7.7s2.3 7.7 5.6 7.7a5.1 5.1 0 0 0 3.9-2.1l2.7 3.3a8.7 8.7 0 0 1-7.2 3.5c-5.4 0-10-4.2-10-12.2zM736.5 72.5c0-6 4.1-9.5 8.5-9.5s8.5 3.5 8.5 9.5-4.1 9.5-8.5 9.5-8.5-3.5-8.5-9.5zm11.9 0c0-3.1-1.1-5.2-3.4-5.2s-3.4 2.1-3.4 5.2 1.1 5.1 3.4 5.1 3.4-2 3.4-5.1zM756.6 72.5c0-5.9 3.4-9.5 7.1-9.5a5.2 5.2 0 0 1 4.1 1.9h.2l-.3-2.8V56h5v25.5h-4.1l-.3-1.8h-.1a7 7 0 0 1-4.6 2.3c-4.3 0-7-3.6-7-9.5zm11.1 3.4v-7.3a3.7 3.7 0 0 0-2.7-1.2c-1.8 0-3.4 1.6-3.4 5s1.2 5.2 3.2 5.2a3.4 3.4 0 0 0 2.9-1.7zM776.9 72.5c0-6 4.1-9.5 8.6-9.5s7.8 3.8 7.8 8.7c0 1-.2 2-.2 2.4h-11.3c.5 2.6 2.2 3.8 4.9 3.8a8 8 0 0 0 4.3-1.3l1.6 3.3a11.9 11.9 0 0 1-6.5 2.1c-5.2 0-9.2-3.5-9.2-9.5zm4.9-2h7.1c-.2-2.2-1.3-3.4-3.2-3.4s-3.3 1.1-3.9 3.4z"/></g><path class="cls-4" d="M242.4 199.1h87.3v35.33h-87.3z"/><path class="cls-2" d="M346.2 192.7h4.3v1.3h-2.9v1.5h2.5v1.2h-2.5v2.5h-1.4zM351.7 197.9c0-1.2 1-1.7 3.3-1.9 0-.4-.4-.7-1.1-.7a3.7 3.7 0 0 0-1.5.5l-.5-1a4.6 4.6 0 0 1 2.3-.6 2 2 0 0 1 2.3 2.2v2.8h-1.2v-.5h-.1a2.8 2.8 0 0 1-1.7.7 1.6 1.6 0 0 1-1.8-1.5zm3.3-.2v-.8c-1.5.1-1.9.4-1.9.8s.3.5.7.5a1.7 1.7 0 0 0 1.2-.5zM358.3 194.3h1.2v1.1a2.2 2.2 0 0 1 2-1.2 1.5 1.5 0 0 1 1 .2l-.3 1.2-.9-.2a1.8 1.8 0 0 0-1.6 1.3v2.5h-1.5zM365.2 198.7h-.1v.5H364v-7h1.4v2.5a2.4 2.4 0 0 1 1.4-.5c1.2 0 2 .9 2 2.5a2.4 2.4 0 0 1-2.2 2.7 1.9 1.9 0 0 1-1.4-.7zm1.9-2c0-.9-.2-1.3-.9-1.3a1.2 1.2 0 0 0-.9.4v2a1.2 1.2 0 0 0 .9.4c.5 0 .9-.5.9-1.5zM369.7 196.8a2.5 2.5 0 0 1 2.6-2.6 2.2 2.2 0 0 1 2.3 2.3 5.6 5.6 0 0 1-.1.7h-3.4a1.4 1.4 0 0 0 1.5 1 2.8 2.8 0 0 0 1.3-.3l.5.9a4.7 4.7 0 0 1-2 .6 2.5 2.5 0 0 1-2.7-2.6zm1.5-.6h2.1a.9.9 0 0 0-1-.9 1 1 0 0 0-1.1.9zM345.7 208a3.1 3.1 0 0 1 3.1-3.4 2.8 2.8 0 0 1 1.9.8l-.8.9a1.8 1.8 0 0 0-1.1-.4c-.9 0-1.6.8-1.6 2.1s.7 2.1 1.6 2.1a1.4 1.4 0 0 0 1.2-.6l.8.9a2.7 2.7 0 0 1-2.1 1c-1.6 0-3-1.2-3-3.4zM351.8 206.3h4.6v1h-4.6zm0 2.3h4.6v1h-4.6zM357.7 209.6c0-.8.6-1.2 1.2-1.5a1.9 1.9 0 0 1-.9-1.5c0-1.1.9-1.7 2.2-1.7a1.8 1.8 0 0 1 2 1.7 1.7 1.7 0 0 1-.9 1.4c.7.4 1.2.8 1.2 1.7s-.8 1.8-2.4 1.8-2.4-.9-2.4-1.9zm3.5-.1c0-.5-.7-.7-1.6-1.1a1.5 1.5 0 0 0-.6 1c0 .6.5.9 1.2.9s1-.2 1-.8zm-.2-2.9c0-.5-.3-.8-.9-.8a.7.7 0 0 0-.8.7c0 .5.5.8 1.3 1a1.2 1.2 0 0 0 .4-.9zM363.7 210.4c1.8-1.5 3-2.6 3-3.5a.9.9 0 0 0-1-1 1.9 1.9 0 0 0-1.3.7l-.8-.8a2.9 2.9 0 0 1 2.3-1 2 2 0 0 1 2.2 2c0 1.1-1.1 2.2-2.3 3.3h2.7v1.2h-4.8zM375.7 204.7h1.5l.7 2.3.2.9.3-.9.6-2.3h1.5v6.5h-1.2v-2c0-.7.1-2.3.2-3l-.5 1.7-.5 1.6h-.8l-.5-1.6-.4-1.7h-.1c.1.7.2 2.3.2 3v2h-1.2zM381.8 206.3h4.6v1h-4.6zm0 2.3h4.6v1h-4.6zM387.6 210.5l.6-1a2.3 2.3 0 0 0 1.5.7c.8 0 1.3-.4 1.3-1s-.5-1-1.2-1a1.9 1.9 0 0 0-1 .3l-.7-.4.2-3.2h3.9v1.2h-2.7v1.2h.9a1.9 1.9 0 0 1 2.1 1.9 2.3 2.3 0 0 1-2.4 2.3 3.3 3.3 0 0 1-2.5-1zM396.9 206.1h-3.1v-1.2h4.7v.9c-1.6 1.8-1.8 3-2 5.4h-1.4a7.9 7.9 0 0 1 1.8-5.1zM407.4 209l-2.1-4.3h1.6l.6 1.6.6 1.5h.1l.6-1.5.6-1.6h1.6l-2.1 4.3v2.2h-1.5zM411.8 206.3h4.6v1h-4.6zm0 2.3h4.6v1h-4.6zM417.6 210.5l.6-1a2.3 2.3 0 0 0 1.5.7c.8 0 1.3-.4 1.3-1s-.5-1-1.2-1a1.9 1.9 0 0 0-1 .3l-.7-.4.2-3.2h3.9v1.2h-2.7v1.2h.9a1.9 1.9 0 0 1 2.1 1.9 2.3 2.3 0 0 1-2.4 2.3 3.3 3.3 0 0 1-2.5-1zM426.5 209.7h-3v-1l2.6-3.8h1.8v3.7h.8v1.1h-.8v1.5h-1.4zm0-1.1v-1.1c0-.4.1-1 .1-1.4h-.1l-.6 1.1-1 1.4zM435.8 204.7h1.5v2.7l2-2.7h1.6l-2 2.6 2.2 3.9h-1.7l-1.4-2.7-.7 1v1.7h-1.5zM441.8 206.3h4.6v1h-4.6zm0 2.3h4.6v1h-4.6zM447.6 210.5l.6-1a2.3 2.3 0 0 0 1.5.7c.8 0 1.3-.4 1.3-1s-.5-1-1.2-1a1.9 1.9 0 0 0-1 .3l-.7-.4.2-3.2h3.9v1.2h-2.7v1.2h.9a1.9 1.9 0 0 1 2.1 1.9 2.3 2.3 0 0 1-2.4 2.3 3.3 3.3 0 0 1-2.5-1zM453.8 210.6l.7-.9a1.6 1.6 0 0 0 1.1.5c.8 0 1.5-.5 1.6-2a2.8 2.8 0 0 1-1.6.7 1.8 1.8 0 0 1-1.9-2 2.1 2.1 0 0 1 2.2-2.1c1.3 0 2.6.9 2.6 3.1s-1.3 3.5-2.7 3.5a2.8 2.8 0 0 1-2-.8zm3.3-3.4c-.1-1-.6-1.3-1.1-1.3a.9.9 0 0 0-1 1 .8.8 0 0 0 .9.9 1.6 1.6 0 0 0 1.2-.6zM345.8 216.7h1.4v2.5h1.8v-2.5h1.5v6.5H349v-2.7h-1.8v2.7h-1.4zM351.7 220.8a2.5 2.5 0 0 1 2.6-2.6 2.2 2.2 0 0 1 2.3 2.3 5.6 5.6 0 0 1-.1.7h-3.4a1.4 1.4 0 0 0 1.5 1 2.8 2.8 0 0 0 1.3-.3l.5.9a4.7 4.7 0 0 1-2 .6 2.5 2.5 0 0 1-2.7-2.6zm1.5-.6h2.1a.9.9 0 0 0-1-.9 1 1 0 0 0-1.1.9zM359.2 220.7l-1.6-2.4h1.6l.5.8a3.5 3.5 0 0 0 .5.8h.1a2 2 0 0 1 .4-.8l.4-.8h1.5l-1.6 2.5 1.7 2.4h-1.5l-.6-.8-.6-.8a5.6 5.6 0 0 0-.5.8l-.5.8h-1.5zM363.7 221.9c0-1.2 1-1.7 3.3-1.9 0-.4-.4-.7-1.1-.7a3.7 3.7 0 0 0-1.5.5l-.5-1a4.6 4.6 0 0 1 2.3-.6 2 2 0 0 1 2.3 2.2v2.8h-1.2v-.5h-.1a2.8 2.8 0 0 1-1.7.7 1.6 1.6 0 0 1-1.8-1.5zm3.3-.2v-.8c-1.5.1-1.9.4-1.9.8s.3.5.7.5a1.7 1.7 0 0 0 1.2-.5zM371 219a1.1 1.1 0 0 1 1.1-1.2 1.2 1.2 0 0 1 1.2 1.2 1.1 1.1 0 0 1-1.2 1.1 1 1 0 0 1-1.1-1.1zm0 3.2a1.1 1.1 0 0 1 1.1-1.2 1.2 1.2 0 0 1 1.2 1.2 1.2 1.2 0 0 1-1.2 1.2 1.1 1.1 0 0 1-1.1-1.2zM384.5 221.4h-1.1l-.2 1.8h-.8l.2-1.8h-.8v-1h.9v-1.1h-.7v-.9h1v-1.7h.9l-.2 1.7h1l.2-1.7h.9l-.2 1.7h.8v.9h-.9l-.2 1.1h.9v1h-1l-.2 1.8h-.9zm.2-2.1h-1l-.2 1.1h1.1zM387.7 222.4c1.8-1.5 3-2.6 3-3.5a.9.9 0 0 0-1-1 1.9 1.9 0 0 0-1.3.7l-.8-.8a2.9 2.9 0 0 1 2.3-1 2 2 0 0 1 2.2 2c0 1.1-1.1 2.2-2.3 3.3h2.7v1.2h-4.8zM393.6 222.5l.6-1a2.3 2.3 0 0 0 1.5.7c.8 0 1.3-.4 1.3-1s-.5-1-1.2-1a1.9 1.9 0 0 0-1 .3l-.7-.4.2-3.2h3.9v1.2h-2.7v1.2h.9a1.9 1.9 0 0 1 2.1 1.9 2.3 2.3 0 0 1-2.4 2.3 3.3 3.3 0 0 1-2.5-1zM399.6 222.5l.6-1a2.6 2.6 0 0 0 1.6.7c.7 0 1.2-.3 1.2-.8s-.5-.9-2-.9v-1c1.3 0 1.8-.4 1.8-.9s-.4-.7-1-.7a1.8 1.8 0 0 0-1.3.6l-.8-.9a3.7 3.7 0 0 1 2.2-.8c1.4 0 2.3.6 2.3 1.7s-.4 1.1-1.2 1.4a1.6 1.6 0 0 1 1.4 1.5c0 1.2-1.1 1.9-2.5 1.9a2.9 2.9 0 0 1-2.3-.8zM405.7 221.6c0-.8.6-1.2 1.2-1.5a1.9 1.9 0 0 1-.9-1.5c0-1.1.9-1.7 2.2-1.7a1.8 1.8 0 0 1 2 1.7 1.7 1.7 0 0 1-.9 1.4c.7.4 1.2.8 1.2 1.7s-.8 1.8-2.4 1.8-2.4-.9-2.4-1.9zm3.5-.1c0-.5-.7-.7-1.6-1.1a1.5 1.5 0 0 0-.6 1c0 .6.5.9 1.2.9s1-.2 1-.8zm-.2-2.9c0-.5-.3-.8-.9-.8a.7.7 0 0 0-.8.7c0 .5.5.8 1.3 1a1.2 1.2 0 0 0 .4-.9zM411.6 222.5l.6-1a2.6 2.6 0 0 0 1.6.7c.7 0 1.2-.3 1.2-.8s-.5-.9-2-.9v-1c1.3 0 1.8-.4 1.8-.9s-.4-.7-1-.7a1.8 1.8 0 0 0-1.3.6l-.8-.9a3.7 3.7 0 0 1 2.2-.8c1.4 0 2.3.6 2.3 1.7s-.4 1.1-1.2 1.4a1.6 1.6 0 0 1 1.4 1.5c0 1.2-1.1 1.9-2.5 1.9a2.9 2.9 0 0 1-2.3-.8zM417.7 220a3.1 3.1 0 0 1 3.1-3.4 2.8 2.8 0 0 1 1.9.8l-.8.9a1.8 1.8 0 0 0-1.1-.4c-.9 0-1.6.8-1.6 2.1s.7 2.1 1.6 2.1a1.4 1.4 0 0 0 1.2-.6l.8.9a2.7 2.7 0 0 1-2.1 1c-1.6 0-3-1.2-3-3.4zM425 224.5c.8-.3 1.3-.8 1.2-1.4h-.1a.9.9 0 0 1-1-1 1 1 0 0 1 1.1-1c.8 0 1.2.6 1.2 1.7a2.6 2.6 0 0 1-2.1 2.6zm0-5.5a1.1 1.1 0 0 1 1.1-1.2 1.2 1.2 0 0 1 1.2 1.2 1.1 1.1 0 0 1-1.2 1.1 1 1 0 0 1-1.1-1.1zM346.3 230.3h1.2v1.1a2.2 2.2 0 0 1 2-1.2 1.5 1.5 0 0 1 1 .2l-.3 1.2-.9-.2a1.8 1.8 0 0 0-1.6 1.3v2.5h-1.5zM351.7 236.1a1 1 0 0 1 .7-1 .8.8 0 0 1-.5-.8 1.3 1.3 0 0 1 .6-.9 1.6 1.6 0 0 1-.6-1.2 1.9 1.9 0 0 1 2.1-1.8h2.8v1.1h-1a1.1 1.1 0 0 1 .2.6 1.8 1.8 0 0 1-2 1.7h-.7c-.2.1-.2.2-.2.3s.2.4.8.4h.9c1.3 0 2 .4 2 1.3s-1.1 1.7-2.9 1.7-2.2-.5-2.2-1.4zm3.7-.3c0-.3-.3-.4-.8-.4h-1.4a.7.7 0 0 0-.4.5c0 .3.5.5 1.3.5s1.3-.2 1.3-.6zm-.7-3.8c0-.6-.3-.9-.7-.9a.8.8 0 0 0-.8.9.8.8 0 0 0 .8.8.7.7 0 0 0 .7-.8zM359.2 234.7h-.1v.5H358v-7h1.4v2.5a2.4 2.4 0 0 1 1.4-.5c1.2 0 2 .9 2 2.5a2.4 2.4 0 0 1-2.2 2.7 1.9 1.9 0 0 1-1.4-.7zm1.9-2c0-.9-.2-1.3-.9-1.3a1.2 1.2 0 0 0-.9.4v2a1.2 1.2 0 0 0 .9.4c.5 0 .9-.5.9-1.5zM363.7 233.9c0-1.2 1-1.7 3.3-1.9 0-.4-.4-.7-1.1-.7a3.7 3.7 0 0 0-1.5.5l-.5-1a4.6 4.6 0 0 1 2.3-.6 2 2 0 0 1 2.3 2.2v2.8h-1.2v-.5h-.1a2.8 2.8 0 0 1-1.7.7 1.6 1.6 0 0 1-1.8-1.5zm3.3-.2v-.8c-1.5.1-1.9.4-1.9.8s.3.5.7.5a1.7 1.7 0 0 0 1.2-.5zM370.9 232.5a5.9 5.9 0 0 1 2.1-4.6l.9.6a5.2 5.2 0 0 0-1.7 4 5.2 5.2 0 0 0 1.7 3.9l-.9.6a5.9 5.9 0 0 1-2.1-4.5zM375.6 234.5l.6-1a2.6 2.6 0 0 0 1.6.7c.7 0 1.2-.3 1.2-.8s-.5-.9-2-.9v-1c1.3 0 1.8-.4 1.8-.9s-.4-.7-1-.7a1.8 1.8 0 0 0-1.3.6l-.8-.9a3.7 3.7 0 0 1 2.2-.8c1.4 0 2.3.6 2.3 1.7s-.4 1.1-1.2 1.4a1.6 1.6 0 0 1 1.4 1.5c0 1.2-1.1 1.9-2.5 1.9a2.9 2.9 0 0 1-2.3-.8zM384.9 230.1h-3.1v-1.2h4.7v.9c-1.6 1.8-1.8 3-2 5.4h-1.4a7.9 7.9 0 0 1 1.8-5.1zM389 236.5c.8-.3 1.3-.8 1.2-1.4h-.1a.9.9 0 0 1-1-1 1 1 0 0 1 1.1-1c.8 0 1.2.6 1.2 1.7a2.6 2.6 0 0 1-2.1 2.6zM399.6 234.5l.6-1a2.3 2.3 0 0 0 1.5.7c.8 0 1.3-.4 1.3-1s-.5-1-1.2-1a1.9 1.9 0 0 0-1 .3l-.7-.4.2-3.2h3.9v1.2h-2.7v1.2h.9a1.9 1.9 0 0 1 2.1 1.9 2.3 2.3 0 0 1-2.4 2.3 3.3 3.3 0 0 1-2.5-1zM405.7 232.2c0-2.4 1.4-3.4 2.8-3.4a2.8 2.8 0 0 1 2 .7l-.8.9a2.1 2.1 0 0 0-1.1-.4c-.8 0-1.5.5-1.5 2a1.9 1.9 0 0 1 1.5-.7 1.8 1.8 0 0 1 2 1.9 2.2 2.2 0 0 1-2.3 2.2c-1.3 0-2.6-1-2.6-3.2zm3.5 1a.8.8 0 0 0-.9-.9 1.7 1.7 0 0 0-1.2.6c.2 1 .7 1.4 1.2 1.4s.9-.4.9-1.1zM413 236.5c.8-.3 1.3-.8 1.2-1.4h-.1a.9.9 0 0 1-1-1 1 1 0 0 1 1.1-1c.8 0 1.2.6 1.2 1.7a2.6 2.6 0 0 1-2.1 2.6zM423.7 232.2c0-2.4 1.4-3.4 2.8-3.4a2.8 2.8 0 0 1 2 .7l-.8.9a2.1 2.1 0 0 0-1.1-.4c-.8 0-1.5.5-1.5 2a1.9 1.9 0 0 1 1.5-.7 1.8 1.8 0 0 1 2 1.9 2.2 2.2 0 0 1-2.3 2.2c-1.3 0-2.6-1-2.6-3.2zm3.5 1a.8.8 0 0 0-.9-.9 1.7 1.7 0 0 0-1.2.6c.2 1 .7 1.4 1.2 1.4s.9-.4.9-1.1zM429.7 232c0-2.1 1-3.2 2.4-3.2s2.5 1.1 2.5 3.2-1 3.4-2.5 3.4-2.4-1.2-2.4-3.4zm3.6 0c0-1.6-.5-2.1-1.2-2.1s-1.1.5-1.1 2.1.5 2.2 1.1 2.2 1.2-.5 1.2-2.2zm-1.9 0a.7.7 0 0 1 .7-.7.8.8 0 0 1 .8.7.8.8 0 0 1-.8.8.7.7 0 0 1-.7-.8zM437 236.5c.8-.3 1.3-.8 1.2-1.4h-.1a.9.9 0 0 1-1-1 1 1 0 0 1 1.1-1c.8 0 1.2.6 1.2 1.7a2.6 2.6 0 0 1-2.1 2.6zM448 234h1.6v-3.6h-1.3v-.9a6.7 6.7 0 0 0 1.7-.6h1v5.1h1.5v1.2H448zM454.4 236.4a5.2 5.2 0 0 0 1.7-3.9 5.2 5.2 0 0 0-1.7-4l.8-.6a6 6 0 0 1 0 9.1zM461 236.5c.8-.3 1.3-.8 1.2-1.4h-.1a.9.9 0 0 1-1-1 1 1 0 0 1 1.1-1c.8 0 1.2.6 1.2 1.7a2.6 2.6 0 0 1-2.1 2.6zm0-5.5a1.1 1.1 0 0 1 1.1-1.2 1.2 1.2 0 0 1 1.2 1.2 1.1 1.1 0 0 1-1.2 1.1 1 1 0 0 1-1.1-1.1z"/><path class="cls-3" d="M242.4 251h87.3v35.33h-87.3zM345.8 244.6h2.3c1.4 0 2.6.5 2.6 2a1.9 1.9 0 0 1-1.2 1.9l1.5 2.6h-1.7l-1.2-2.3h-.8v2.3h-1.5zm2.2 3c.8 0 1.2-.3 1.2-1s-.4-.8-1.2-.8h-.7v1.8zM351.6 248.6a2.5 2.5 0 0 1 2.5-2.6 2.6 2.6 0 0 1 2.6 2.6 2.5 2.5 0 0 1-2.6 2.6 2.4 2.4 0 0 1-2.5-2.6zm3.5 0c0-.8-.3-1.4-1-1.4s-1 .6-1 1.4.3 1.5 1 1.5 1-.6 1-1.5zM358.9 249.1v-1.8h-1.3v-1.1h1.3l.2-1.6h1.2v1.6h2.1v1.1h-2.1v1.8c0 .7.4 1 1.1 1l1-.2.2 1.1-1.6.2c-1.6 0-2.1-.8-2.1-2.1zM345.7 259.9c0-2.2 1.3-3.4 3.1-3.4a2.8 2.8 0 0 1 1.9.8l-.8.9a1.4 1.4 0 0 0-1.1-.4c-.9 0-1.6.7-1.6 2.1s.7 2.1 1.6 2.1a1.7 1.7 0 0 0 1.2-.6l.8.9a2.6 2.6 0 0 1-2.1.9 3 3 0 0 1-3-3.3zM351.8 258.1h4.6v1.1h-4.6zm0 2.4h4.6v1h-4.6zM360.9 258h-3.1v-1.2h4.7v.9c-1.6 1.8-1.8 2.9-2 5.4h-1.4a7.9 7.9 0 0 1 1.8-5.1zM369.7 256.6h1.5l.7 2.3.2.9.3-.9.6-2.3h1.5v6.5h-1.2v-2c0-.7.1-2.3.2-3l-.5 1.7-.5 1.6h-.8l-.5-1.6-.4-1.7h-.1c.1.7.2 2.3.2 3v2h-1.2zM375.8 258.1h4.6v1.1h-4.6zm0 2.4h4.6v1h-4.6zM382 261.9h1.6v-3.6h-1.3v-.9l1.7-.6h1v5.1h1.5v1.2H382zM387.7 259.9c0-2.1 1-3.2 2.4-3.2s2.5 1.1 2.5 3.2-1 3.3-2.5 3.3-2.4-1.1-2.4-3.3zm3.6 0c0-1.6-.5-2.1-1.2-2.1s-1.1.5-1.1 2.1.5 2.2 1.1 2.2 1.2-.5 1.2-2.2zm-1.9 0a.7.7 0 0 1 .7-.8.8.8 0 0 1 0 1.6.7.7 0 0 1-.7-.8zM393.7 259.9c0-2.1 1-3.2 2.4-3.2s2.5 1.1 2.5 3.2-1 3.3-2.5 3.3-2.4-1.1-2.4-3.3zm3.6 0c0-1.6-.5-2.1-1.2-2.1s-1.1.5-1.1 2.1.5 2.2 1.1 2.2 1.2-.5 1.2-2.2zm-1.9 0a.7.7 0 0 1 .7-.8.8.8 0 0 1 0 1.6.7.7 0 0 1-.7-.8zM407.4 260.9l-2.1-4.3h1.6l.6 1.6.6 1.5h.1c.2-.6.4-1 .6-1.5l.6-1.6h1.6l-2.1 4.3v2.2h-1.5zM411.8 258.1h4.6v1.1h-4.6zm0 2.4h4.6v1h-4.6zM418 261.9h1.6v-3.6h-1.3v-.9l1.7-.6h1v5.1h1.5v1.2H418zM423.7 259.9c0-2.1 1-3.2 2.4-3.2s2.5 1.1 2.5 3.2-1 3.3-2.5 3.3-2.4-1.1-2.4-3.3zm3.6 0c0-1.6-.5-2.1-1.2-2.1s-1.1.5-1.1 2.1.5 2.2 1.1 2.2 1.2-.5 1.2-2.2zm-1.9 0a.7.7 0 0 1 .7-.8.8.8 0 0 1 0 1.6.7.7 0 0 1-.7-.8zM429.7 259.9c0-2.1 1-3.2 2.4-3.2s2.5 1.1 2.5 3.2-1 3.3-2.5 3.3-2.4-1.1-2.4-3.3zm3.6 0c0-1.6-.5-2.1-1.2-2.1s-1.1.5-1.1 2.1.5 2.2 1.1 2.2 1.2-.5 1.2-2.2zm-1.9 0a.7.7 0 0 1 .7-.8.8.8 0 0 1 0 1.6.7.7 0 0 1-.7-.8zM441.8 256.6h1.5v2.7l2-2.7h1.6l-2 2.6 2.2 3.9h-1.7l-1.4-2.7-.7.9v1.8h-1.5zM447.8 258.1h4.6v1.1h-4.6zm0 2.4h4.6v1h-4.6zM453.7 262.3c1.8-1.5 3-2.6 3-3.5s-.3-1-1-1a1.9 1.9 0 0 0-1.3.7l-.8-.8a2.9 2.9 0 0 1 2.3-1 2 2 0 0 1 2.2 2c0 1-1.1 2.2-2.3 3.3h2.7v1.2h-4.8zM459.7 259.9c0-2.1 1-3.2 2.4-3.2s2.5 1.1 2.5 3.2-1 3.3-2.5 3.3-2.4-1.1-2.4-3.3zm3.6 0c0-1.6-.5-2.1-1.2-2.1s-1.1.5-1.1 2.1.5 2.2 1.1 2.2 1.2-.5 1.2-2.2zm-1.9 0a.7.7 0 0 1 .7-.8.8.8 0 0 1 0 1.6.7.7 0 0 1-.7-.8zM345.8 268.6h1.4v2.5h1.8v-2.5h1.5v6.5H349v-2.7h-1.8v2.7h-1.4zM351.7 272.6a2.5 2.5 0 0 1 2.6-2.6 2.2 2.2 0 0 1 2.3 2.4 5.6 5.6 0 0 1-.1.7h-3.4a1.4 1.4 0 0 0 1.5 1 2.8 2.8 0 0 0 1.3-.3l.5.9a4.6 4.6 0 0 1-2 .5 2.5 2.5 0 0 1-2.7-2.6zm1.5-.5h2.1a.9.9 0 0 0-1-.9 1 1 0 0 0-1.1.9zM359.2 272.5l-1.6-2.3h1.6l.5.8.5.8h.1a2 2 0 0 1 .4-.8l.4-.8h1.5l-1.6 2.5 1.7 2.4h-1.5l-.6-.8-.6-.9-.5.9-.5.8h-1.5zM363.7 273.7c0-1.1 1-1.6 3.3-1.8 0-.4-.4-.7-1.1-.7a3.7 3.7 0 0 0-1.5.5l-.5-1a4.8 4.8 0 0 1 2.3-.7 2.1 2.1 0 0 1 2.3 2.3v2.8h-1.2v-.5h-.1a3.5 3.5 0 0 1-1.7.6 1.5 1.5 0 0 1-1.8-1.5zm3.3-.1v-.8c-1.5.1-1.9.4-1.9.8s.3.5.7.5a1.7 1.7 0 0 0 1.2-.5zM371 270.8a1 1 0 0 1 1.1-1.1 1.1 1.1 0 0 1 1.2 1.1 1.2 1.2 0 0 1-1.2 1.2 1.1 1.1 0 0 1-1.1-1.2zm0 3.3a1.1 1.1 0 0 1 1.1-1.2 1.2 1.2 0 0 1 1.2 1.2 1.1 1.1 0 0 1-1.2 1.1 1 1 0 0 1-1.1-1.1zM384.5 273.3h-1.1l-.2 1.8h-.8l.2-1.8h-.8v-1h.9v-1.1h-.7v-.9h1v-1.7h.9l-.2 1.7h1l.2-1.7h.9l-.2 1.7h.8v.9h-.9l-.2 1.1h.9v1h-1l-.2 1.8h-.9zm.2-2.1h-1l-.2 1.1h1.1zM387.9 268.6h2.2c1.3 0 2.3.4 2.3 1.6a1.4 1.4 0 0 1-1.1 1.4 1.3 1.3 0 0 1 1.4 1.5c0 1.3-1 1.9-2.5 1.9h-2.3zm2.1 2.6c.7 0 1-.3 1-.8s-.3-.6-1-.6h-.7v1.4zm.1 2.8q1.2 0 1.2-.9c0-.6-.4-.8-1.2-.8h-.8v1.7zM393.7 273.5c0-.8.6-1.2 1.2-1.6a1.9 1.9 0 0 1-.9-1.5c0-1.1.9-1.7 2.2-1.7s2 .6 2 1.7a1.7 1.7 0 0 1-.9 1.4c.7.4 1.2.8 1.2 1.7s-.8 1.7-2.4 1.7-2.4-.7-2.4-1.7zm3.5-.1c0-.5-.7-.7-1.6-1.1a1.5 1.5 0 0 0-.6 1c0 .6.5.9 1.2.9s1-.2 1-.8zm-.2-2.9c0-.5-.3-.8-.9-.8a.7.7 0 0 0-.8.7c0 .5.5.8 1.3 1a1.2 1.2 0 0 0 .4-.9zM399.7 274.3c1.8-1.5 3-2.6 3-3.5s-.3-1-1-1a1.9 1.9 0 0 0-1.3.7l-.8-.8a2.9 2.9 0 0 1 2.3-1 2 2 0 0 1 2.2 2c0 1-1.1 2.2-2.3 3.3h2.7v1.2h-4.8zM405.6 274.3l.6-.9a2.6 2.6 0 0 0 1.6.7c.7 0 1.2-.3 1.2-.8s-.5-.9-2-.9v-1c1.3 0 1.8-.4 1.8-.9s-.4-.7-1-.7a1.8 1.8 0 0 0-1.3.6l-.8-.9a3.7 3.7 0 0 1 2.2-.8c1.4 0 2.3.6 2.3 1.7s-.4 1.1-1.2 1.4c.8.3 1.4.8 1.4 1.6s-1.1 1.8-2.5 1.8a2.6 2.6 0 0 1-2.3-.9zM411.7 274.3c1.8-1.5 3-2.6 3-3.5s-.3-1-1-1a1.9 1.9 0 0 0-1.3.7l-.8-.8a2.9 2.9 0 0 1 2.3-1 2 2 0 0 1 2.2 2c0 1-1.1 2.2-2.3 3.3h2.7v1.2h-4.8zM420.9 270h-3.1v-1.2h4.7v.9c-1.6 1.8-1.8 2.9-2 5.4h-1.4a7.9 7.9 0 0 1 1.8-5.1zM425 276.4c.8-.3 1.3-.8 1.2-1.4h-.1a.9.9 0 0 1-1-1 1 1 0 0 1 1.1-1c.8 0 1.2.6 1.2 1.7a2.6 2.6 0 0 1-2.1 2.6zm0-5.6a1 1 0 0 1 1.1-1.1 1.1 1.1 0 0 1 1.2 1.1 1.2 1.2 0 0 1-1.2 1.2 1.1 1.1 0 0 1-1.1-1.2zM346.3 282.2h1.2v1a2.4 2.4 0 0 1 2-1.2 2.5 2.5 0 0 1 1 .2l-.3 1.3-.9-.2a1.9 1.9 0 0 0-1.6 1.2v2.6h-1.5zM351.7 288a1 1 0 0 1 .7-1 .8.8 0 0 1-.5-.8 1.3 1.3 0 0 1 .6-.9 1.6 1.6 0 0 1-.6-1.3 1.9 1.9 0 0 1 2.1-2l.8.2h2v1h-1a1.4 1.4 0 0 1 .2.7 1.8 1.8 0 0 1-2 1.7h-.7c-.2.1-.2.2-.2.3s.2.4.8.4h.9c1.3 0 2 .4 2 1.2s-1.1 1.8-2.9 1.8-2.2-.4-2.2-1.3zm3.7-.3c0-.3-.3-.4-.8-.4h-1.4c-.2.1-.4.3-.4.4s.5.6 1.3.6 1.3-.3 1.3-.6zm-.7-3.9a.7.7 0 0 0-.7-.8.8.8 0 0 0-.8.8.8.8 0 0 0 .8.9c.4 0 .7-.3.7-.9zM359.2 286.6h-.1v.5H358v-7h1.4v2.5a2.5 2.5 0 0 1 1.4-.6c1.2 0 2 1 2 2.6a2.3 2.3 0 0 1-2.2 2.6 1.8 1.8 0 0 1-1.4-.6zm1.9-2c0-.9-.2-1.4-.9-1.4a1.4 1.4 0 0 0-.9.5v2a1.1 1.1 0 0 0 .9.3c.5 0 .9-.4.9-1.4zM364.9 284.3a5.9 5.9 0 0 1 2.1-4.5l.9.6a5.2 5.2 0 0 0-1.7 3.9 5.2 5.2 0 0 0 1.7 4l-.9.6a5.9 5.9 0 0 1-2.1-4.6zM370 285.9h1.6v-3.6h-1.3v-.9l1.7-.6h1v5.1h1.5v1.2H370zM375.7 285.5c0-.8.6-1.2 1.2-1.6a1.9 1.9 0 0 1-.9-1.5c0-1.1.9-1.7 2.2-1.7s2 .6 2 1.7a1.7 1.7 0 0 1-.9 1.4c.7.4 1.2.8 1.2 1.7s-.8 1.7-2.4 1.7-2.4-.7-2.4-1.7zm3.5-.1c0-.5-.7-.7-1.6-1.1a1.5 1.5 0 0 0-.6 1c0 .6.5.9 1.2.9s1-.2 1-.8zm-.2-2.9c0-.5-.3-.8-.9-.8a.7.7 0 0 0-.8.7c0 .5.5.8 1.3 1a1.2 1.2 0 0 0 .4-.9zM384.5 285.6h-3v-1l2.6-3.8h1.8v3.7h.8v1.1h-.8v1.5h-1.4zm0-1.1v-1.1c0-.4.1-1 .1-1.4h-.1l-.6 1.1-1 1.4zM389 288.4c.8-.3 1.3-.8 1.2-1.4h-.1a.9.9 0 0 1-1-1 1 1 0 0 1 1.1-1c.8 0 1.2.6 1.2 1.7a2.6 2.6 0 0 1-2.1 2.6zM399.6 286.3l.6-.9a2.6 2.6 0 0 0 1.6.7c.7 0 1.2-.3 1.2-.8s-.5-.9-2-.9v-1c1.3 0 1.8-.4 1.8-.9s-.4-.7-1-.7a1.8 1.8 0 0 0-1.3.6l-.8-.9a3.7 3.7 0 0 1 2.2-.8c1.4 0 2.3.6 2.3 1.7s-.4 1.1-1.2 1.4c.8.3 1.4.8 1.4 1.6s-1.1 1.8-2.5 1.8a2.6 2.6 0 0 1-2.3-.9zM405.6 286.4l.6-1a2.3 2.3 0 0 0 1.5.7c.8 0 1.3-.4 1.3-1s-.5-1-1.2-1a1.9 1.9 0 0 0-1 .3l-.7-.4.2-3.2h3.9v1.2h-2.7v1.2h.9a1.9 1.9 0 0 1 2.1 1.9 2.2 2.2 0 0 1-2.4 2.2 3.3 3.3 0 0 1-2.5-.9zM413 288.4c.8-.3 1.3-.8 1.2-1.4h-.1a.9.9 0 0 1-1-1 1 1 0 0 1 1.1-1c.8 0 1.2.6 1.2 1.7a2.6 2.6 0 0 1-2.1 2.6zM423.6 286.3l.6-.9a2.6 2.6 0 0 0 1.6.7c.7 0 1.2-.3 1.2-.8s-.5-.9-2-.9v-1c1.3 0 1.8-.4 1.8-.9s-.4-.7-1-.7a1.8 1.8 0 0 0-1.3.6l-.8-.9a3.7 3.7 0 0 1 2.2-.8c1.4 0 2.3.6 2.3 1.7s-.4 1.1-1.2 1.4c.8.3 1.4.8 1.4 1.6s-1.1 1.8-2.5 1.8a2.6 2.6 0 0 1-2.3-.9zM429.8 286.5l.7-.9a2.2 2.2 0 0 0 1.1.5c.8 0 1.5-.6 1.6-2.1a2.3 2.3 0 0 1-1.6.7 1.7 1.7 0 0 1-1.9-1.9 2.1 2.1 0 0 1 2.2-2.1c1.3 0 2.6.9 2.6 3.1s-1.3 3.4-2.7 3.4a2.8 2.8 0 0 1-2-.7zm3.3-3.4c-.1-1-.6-1.3-1.1-1.3a.9.9 0 0 0-1 1 .8.8 0 0 0 .9.9 1.6 1.6 0 0 0 1.2-.6zM436.4 288.3a5.2 5.2 0 0 0 1.7-4 5.2 5.2 0 0 0-1.7-3.9l.8-.6a6 6 0 0 1 0 9.1zM443 288.4c.8-.3 1.3-.8 1.2-1.4h-.1a.9.9 0 0 1-1-1 1 1 0 0 1 1.1-1c.8 0 1.2.6 1.2 1.7a2.6 2.6 0 0 1-2.1 2.6zm0-5.6a1 1 0 0 1 1.1-1.1 1.1 1.1 0 0 1 1.2 1.1 1.2 1.2 0 0 1-1.2 1.2 1.1 1.1 0 0 1-1.1-1.2z"/><path class="cls-5" d="M242.4 303h87.3v35.33h-87.3zM345.6 306.2c0-2.2 1.3-3.4 3-3.4a2.6 2.6 0 0 1 1.9.8l-.8.9a1.8 1.8 0 0 0-1.1-.4c-.9 0-1.5.8-1.5 2.1s.5 2.1 1.5 2.1l.7-.2V307h-1v-1.2h2.3v3a3.1 3.1 0 0 1-2 .8c-1.7 0-3-1.2-3-3.4zM352.3 304.5h1.2v1.1a2.2 2.2 0 0 1 2-1.2 1.5 1.5 0 0 1 1 .2l-.3 1.2-.9-.2a1.8 1.8 0 0 0-1.6 1.3v2.5h-1.5zM357.7 308.1c0-1.2 1-1.7 3.3-1.9 0-.4-.4-.7-1.1-.7a3.7 3.7 0 0 0-1.5.5l-.5-1a4.6 4.6 0 0 1 2.3-.6 2 2 0 0 1 2.3 2.2v2.8h-1.2v-.5h-.1a2.8 2.8 0 0 1-1.7.7 1.6 1.6 0 0 1-1.8-1.5zm3.3-.2v-.8c-1.5.1-1.9.4-1.9.8s.3.5.7.5a1.7 1.7 0 0 0 1.2-.5zM363.8 307.5v-3h1.4v2.8c0 .7.2 1 .7 1a1 1 0 0 0 1-.6v-3.2h1.5v4.9h-1.2v-.7h-.2a2 2 0 0 1-1.6.9c-1.2 0-1.6-.8-1.6-2.1zM345.8 314.9h1.5v2.7l2-2.7h1.6l-2 2.6 2.2 3.9h-1.7l-1.4-2.7-.7 1v1.7h-1.5zM351.8 316.5h4.6v1h-4.6zm0 2.3h4.6v1h-4.6zM357.6 320.7l.6-1a2.3 2.3 0 0 0 1.5.7c.8 0 1.3-.4 1.3-1s-.5-1-1.2-1a1.9 1.9 0 0 0-1 .3l-.7-.4.2-3.2h3.9v1.2h-2.7v1.2h.9a1.9 1.9 0 0 1 2.1 1.9 2.3 2.3 0 0 1-2.4 2.3 3.3 3.3 0 0 1-2.5-1zM363.7 318.2c0-2.1 1-3.2 2.4-3.2s2.5 1.1 2.5 3.2-1 3.4-2.5 3.4-2.4-1.2-2.4-3.4zm3.6 0c0-1.6-.5-2.1-1.2-2.1s-1.1.5-1.1 2.1.5 2.2 1.1 2.2 1.2-.5 1.2-2.2zm-1.9 0a.7.7 0 0 1 .7-.7.8.8 0 0 1 .8.7.8.8 0 0 1-.8.8.7.7 0 0 1-.7-.8zM345.8 326.9h1.4v2.5h1.8v-2.5h1.5v6.5H349v-2.7h-1.8v2.7h-1.4zM351.7 331a2.5 2.5 0 0 1 2.6-2.6 2.2 2.2 0 0 1 2.3 2.3 5.6 5.6 0 0 1-.1.7h-3.4a1.4 1.4 0 0 0 1.5 1 2.8 2.8 0 0 0 1.3-.3l.5.9a4.7 4.7 0 0 1-2 .6 2.5 2.5 0 0 1-2.7-2.6zm1.5-.6h2.1a.9.9 0 0 0-1-.9 1 1 0 0 0-1.1.9zM359.2 330.9l-1.6-2.4h1.6l.5.8a3.5 3.5 0 0 0 .5.8h.1a2 2 0 0 1 .4-.8l.4-.8h1.5L361 331l1.7 2.4h-1.5l-.6-.8-.6-.8a5.6 5.6 0 0 0-.5.8l-.5.8h-1.5zM363.7 332.1c0-1.2 1-1.7 3.3-1.9 0-.4-.4-.7-1.1-.7a3.7 3.7 0 0 0-1.5.5l-.5-1a4.6 4.6 0 0 1 2.3-.6 2 2 0 0 1 2.3 2.2v2.8h-1.2v-.5h-.1a2.8 2.8 0 0 1-1.7.7 1.6 1.6 0 0 1-1.8-1.5zm3.3-.2v-.8c-1.5.1-1.9.4-1.9.8s.3.5.7.5a1.7 1.7 0 0 0 1.2-.5zM371 329.2a1.1 1.1 0 0 1 1.1-1.2 1.2 1.2 0 0 1 1.2 1.2 1.1 1.1 0 0 1-1.2 1.1 1 1 0 0 1-1.1-1.1zm0 3.2a1.1 1.1 0 0 1 1.1-1.2 1.2 1.2 0 0 1 1.2 1.2 1.2 1.2 0 0 1-1.2 1.2 1.1 1.1 0 0 1-1.1-1.2zM384.5 331.6h-1.1l-.2 1.8h-.8l.2-1.8h-.8v-1h.9v-1.1h-.7v-.9h1v-1.7h.9l-.2 1.7h1l.2-1.7h.9l-.2 1.7h.8v.9h-.9l-.2 1.1h.9v1h-1l-.2 1.8h-.9zm.2-2.1h-1l-.2 1.1h1.1zM387.7 331.8c0-.8.6-1.2 1.2-1.5a1.9 1.9 0 0 1-.9-1.5c0-1.1.9-1.7 2.2-1.7a1.8 1.8 0 0 1 2 1.7 1.7 1.7 0 0 1-.9 1.4c.7.4 1.2.8 1.2 1.7s-.8 1.8-2.4 1.8-2.4-.9-2.4-1.9zm3.5-.1c0-.5-.7-.7-1.6-1.1a1.5 1.5 0 0 0-.6 1c0 .6.5.9 1.2.9s1-.2 1-.8zm-.2-2.9c0-.5-.3-.8-.9-.8a.7.7 0 0 0-.8.7c0 .5.5.8 1.3 1a1.2 1.2 0 0 0 .4-.9zM393.7 330.2c0-2.1 1-3.2 2.4-3.2s2.5 1.1 2.5 3.2-1 3.4-2.5 3.4-2.4-1.2-2.4-3.4zm3.6 0c0-1.6-.5-2.1-1.2-2.1s-1.1.5-1.1 2.1.5 2.2 1.1 2.2 1.2-.5 1.2-2.2zm-1.9 0a.7.7 0 0 1 .7-.7.8.8 0 0 1 .8.7.8.8 0 0 1-.8.8.7.7 0 0 1-.7-.8zM399.7 331.8c0-.8.6-1.2 1.2-1.5a1.9 1.9 0 0 1-.9-1.5c0-1.1.9-1.7 2.2-1.7a1.8 1.8 0 0 1 2 1.7 1.7 1.7 0 0 1-.9 1.4c.7.4 1.2.8 1.2 1.7s-.8 1.8-2.4 1.8-2.4-.9-2.4-1.9zm3.5-.1c0-.5-.7-.7-1.6-1.1a1.5 1.5 0 0 0-.6 1c0 .6.5.9 1.2.9s1-.2 1-.8zm-.2-2.9c0-.5-.3-.8-.9-.8a.7.7 0 0 0-.8.7c0 .5.5.8 1.3 1a1.2 1.2 0 0 0 .4-.9zM405.7 330.2c0-2.1 1-3.2 2.4-3.2s2.5 1.1 2.5 3.2-1 3.4-2.5 3.4-2.4-1.2-2.4-3.4zm3.6 0c0-1.6-.5-2.1-1.2-2.1s-1.1.5-1.1 2.1.5 2.2 1.1 2.2 1.2-.5 1.2-2.2zm-1.9 0a.7.7 0 0 1 .7-.7.8.8 0 0 1 .8.7.8.8 0 0 1-.8.8.7.7 0 0 1-.7-.8zM411.7 331.8c0-.8.6-1.2 1.2-1.5a1.9 1.9 0 0 1-.9-1.5c0-1.1.9-1.7 2.2-1.7a1.8 1.8 0 0 1 2 1.7 1.7 1.7 0 0 1-.9 1.4c.7.4 1.2.8 1.2 1.7s-.8 1.8-2.4 1.8-2.4-.9-2.4-1.9zm3.5-.1c0-.5-.7-.7-1.6-1.1a1.5 1.5 0 0 0-.6 1c0 .6.5.9 1.2.9s1-.2 1-.8zm-.2-2.9c0-.5-.3-.8-.9-.8a.7.7 0 0 0-.8.7c0 .5.5.8 1.3 1a1.2 1.2 0 0 0 .4-.9zM417.7 330.2c0-2.1 1-3.2 2.4-3.2s2.5 1.1 2.5 3.2-1 3.4-2.5 3.4-2.4-1.2-2.4-3.4zm3.6 0c0-1.6-.5-2.1-1.2-2.1s-1.1.5-1.1 2.1.5 2.2 1.1 2.2 1.2-.5 1.2-2.2zm-1.9 0a.7.7 0 0 1 .7-.7.8.8 0 0 1 .8.7.8.8 0 0 1-.8.8.7.7 0 0 1-.7-.8zM425 334.7c.8-.3 1.3-.8 1.2-1.4h-.1a.9.9 0 0 1-1-1 1 1 0 0 1 1.1-1c.8 0 1.2.6 1.2 1.7a2.6 2.6 0 0 1-2.1 2.6zm0-5.5a1.1 1.1 0 0 1 1.1-1.2 1.2 1.2 0 0 1 1.2 1.2 1.1 1.1 0 0 1-1.2 1.1 1 1 0 0 1-1.1-1.1zM346.3 340.5h1.2v1.1a2.2 2.2 0 0 1 2-1.2 1.5 1.5 0 0 1 1 .2l-.3 1.2-.9-.2a1.8 1.8 0 0 0-1.6 1.3v2.5h-1.5zM351.7 346.3a1 1 0 0 1 .7-1 .8.8 0 0 1-.5-.8 1.3 1.3 0 0 1 .6-.9 1.6 1.6 0 0 1-.6-1.2 1.9 1.9 0 0 1 2.1-1.8h2.8v1.1h-1a1.1 1.1 0 0 1 .2.6 1.8 1.8 0 0 1-2 1.7h-.7c-.2.1-.2.2-.2.3s.2.4.8.4h.9c1.3 0 2 .4 2 1.3s-1.1 1.7-2.9 1.7-2.2-.5-2.2-1.4zm3.7-.3c0-.3-.3-.4-.8-.4h-1.4a.7.7 0 0 0-.4.5c0 .3.5.5 1.3.5s1.3-.2 1.3-.6zm-.7-3.8c0-.6-.3-.9-.7-.9a.8.8 0 0 0-.8.9.8.8 0 0 0 .8.8.7.7 0 0 0 .7-.8zM359.2 344.9h-.1v.5H358v-7h1.4v2.5a2.4 2.4 0 0 1 1.4-.5c1.2 0 2 .9 2 2.5a2.4 2.4 0 0 1-2.2 2.7 1.9 1.9 0 0 1-1.4-.7zm1.9-2c0-.9-.2-1.3-.9-1.3a1.2 1.2 0 0 0-.9.4v2a1.2 1.2 0 0 0 .9.4c.5 0 .9-.5.9-1.5zM363.7 344.1c0-1.2 1-1.7 3.3-1.9 0-.4-.4-.7-1.1-.7a3.7 3.7 0 0 0-1.5.5l-.5-1a4.6 4.6 0 0 1 2.3-.6 2 2 0 0 1 2.3 2.2v2.8h-1.2v-.5h-.1a2.8 2.8 0 0 1-1.7.7 1.6 1.6 0 0 1-1.8-1.5zm3.3-.2v-.8c-1.5.1-1.9.4-1.9.8s.3.5.7.5a1.7 1.7 0 0 0 1.2-.5zM370.9 342.7a5.9 5.9 0 0 1 2.1-4.6l.9.6a5.2 5.2 0 0 0-1.7 4 5.2 5.2 0 0 0 1.7 3.9l-.9.6a5.9 5.9 0 0 1-2.1-4.5zM376 344.2h1.6v-3.6h-1.3v-.9a6.7 6.7 0 0 0 1.7-.6h1v5.1h1.5v1.2H376zM381.7 344.6c1.8-1.5 3-2.6 3-3.5a.9.9 0 0 0-1-1 1.9 1.9 0 0 0-1.3.7l-.8-.8a2.9 2.9 0 0 1 2.3-1 2 2 0 0 1 2.2 2c0 1.1-1.1 2.2-2.3 3.3h2.7v1.2h-4.8zM387.7 343.8c0-.8.6-1.2 1.2-1.5a1.9 1.9 0 0 1-.9-1.5c0-1.1.9-1.7 2.2-1.7a1.8 1.8 0 0 1 2 1.7 1.7 1.7 0 0 1-.9 1.4c.7.4 1.2.8 1.2 1.7s-.8 1.8-2.4 1.8-2.4-.9-2.4-1.9zm3.5-.1c0-.5-.7-.7-1.6-1.1a1.5 1.5 0 0 0-.6 1c0 .6.5.9 1.2.9s1-.2 1-.8zm-.2-2.9c0-.5-.3-.8-.9-.8a.7.7 0 0 0-.8.7c0 .5.5.8 1.3 1a1.2 1.2 0 0 0 .4-.9zM395 346.7c.8-.3 1.3-.8 1.2-1.4h-.1a.9.9 0 0 1-1-1 1 1 0 0 1 1.1-1c.8 0 1.2.6 1.2 1.7a2.6 2.6 0 0 1-2.1 2.6zM406 344.2h1.6v-3.6h-1.3v-.9a6.7 6.7 0 0 0 1.7-.6h1v5.1h1.5v1.2H406zM411.7 344.6c1.8-1.5 3-2.6 3-3.5a.9.9 0 0 0-1-1 1.9 1.9 0 0 0-1.3.7l-.8-.8a2.9 2.9 0 0 1 2.3-1 2 2 0 0 1 2.2 2c0 1.1-1.1 2.2-2.3 3.3h2.7v1.2h-4.8zM417.7 343.8c0-.8.6-1.2 1.2-1.5a1.9 1.9 0 0 1-.9-1.5c0-1.1.9-1.7 2.2-1.7a1.8 1.8 0 0 1 2 1.7 1.7 1.7 0 0 1-.9 1.4c.7.4 1.2.8 1.2 1.7s-.8 1.8-2.4 1.8-2.4-.9-2.4-1.9zm3.5-.1c0-.5-.7-.7-1.6-1.1a1.5 1.5 0 0 0-.6 1c0 .6.5.9 1.2.9s1-.2 1-.8zm-.2-2.9c0-.5-.3-.8-.9-.8a.7.7 0 0 0-.8.7c0 .5.5.8 1.3 1a1.2 1.2 0 0 0 .4-.9zM425 346.7c.8-.3 1.3-.8 1.2-1.4h-.1a.9.9 0 0 1-1-1 1 1 0 0 1 1.1-1c.8 0 1.2.6 1.2 1.7a2.6 2.6 0 0 1-2.1 2.6zM436 344.2h1.6v-3.6h-1.3v-.9a6.7 6.7 0 0 0 1.7-.6h1v5.1h1.5v1.2H436zM441.7 344.6c1.8-1.5 3-2.6 3-3.5a.9.9 0 0 0-1-1 1.9 1.9 0 0 0-1.3.7l-.8-.8a2.9 2.9 0 0 1 2.3-1 2 2 0 0 1 2.2 2c0 1.1-1.1 2.2-2.3 3.3h2.7v1.2h-4.8zM447.7 343.8c0-.8.6-1.2 1.2-1.5a1.9 1.9 0 0 1-.9-1.5c0-1.1.9-1.7 2.2-1.7a1.8 1.8 0 0 1 2 1.7 1.7 1.7 0 0 1-.9 1.4c.7.4 1.2.8 1.2 1.7s-.8 1.8-2.4 1.8-2.4-.9-2.4-1.9zm3.5-.1c0-.5-.7-.7-1.6-1.1a1.5 1.5 0 0 0-.6 1c0 .6.5.9 1.2.9s1-.2 1-.8zm-.2-2.9c0-.5-.3-.8-.9-.8a.7.7 0 0 0-.8.7c0 .5.5.8 1.3 1a1.2 1.2 0 0 0 .4-.9zM455 346.7c.8-.3 1.3-.8 1.2-1.4h-.1a.9.9 0 0 1-1-1 1 1 0 0 1 1.1-1c.8 0 1.2.6 1.2 1.7a2.6 2.6 0 0 1-2.1 2.6zM466 344.2h1.6v-3.6h-1.3v-.9a6.7 6.7 0 0 0 1.7-.6h1v5.1h1.5v1.2H466zM472.4 346.6a5.2 5.2 0 0 0 1.7-3.9 5.2 5.2 0 0 0-1.7-4l.8-.6a6 6 0 0 1 0 9.1zM479 346.7c.8-.3 1.3-.8 1.2-1.4h-.1a.9.9 0 0 1-1-1 1 1 0 0 1 1.1-1c.8 0 1.2.6 1.2 1.7a2.6 2.6 0 0 1-2.1 2.6zm0-5.5a1.1 1.1 0 0 1 1.1-1.2 1.2 1.2 0 0 1 1.2 1.2 1.1 1.1 0 0 1-1.2 1.1 1 1 0 0 1-1.1-1.1z"/><path class="cls-2" d="M242.4 357.5h87.3v35.33h-87.3z"/><path style="fill:url(#Unbenannter_Verlauf_71)" d="M242.4 412h87.3v35.33h-87.3z"/><path class="cls-2" d="m345.6 361 .9-1a2.7 2.7 0 0 0 1.7.6c.6 0 .9-.2.9-.5s-.4-.6-1-.9l-.8-.3a1.9 1.9 0 0 1-1.4-1.8 2.2 2.2 0 0 1 2.4-2 2.7 2.7 0 0 1 2.1.9l-.7.9a2.7 2.7 0 0 0-1.5-.5c-.5 0-.8.2-.8.6s.4.5 1 .8l.8.3a1.8 1.8 0 0 1 1.4 1.8c0 1.1-.9 2-2.5 2a3.8 3.8 0 0 1-2.5-.9zM351.8 359.3a2.8 2.8 0 0 1 4.7-1.9l-.7.9a1.5 1.5 0 0 0-1.1-.4 1.4 1.4 0 0 0 0 2.8 2.1 2.1 0 0 0 1.3-.5l.6 1a3.2 3.2 0 0 1-2 .7 2.5 2.5 0 0 1-2.8-2.6zM357.9 354.8h1.4v2.6h.1a2.4 2.4 0 0 1 1.6-.7c1.1 0 1.6.8 1.6 2v3.1h-1.4v-2.9c0-.6-.2-.9-.8-.9a1.2 1.2 0 0 0-1 .5v3.3H358zM363.2 356.8h1.4l.3 2.3c.1.5.1 1 .2 1.5a7.7 7.7 0 0 1 .2-1.5l.3-1.6h1.1l.3 1.6.3 1.5a7.6 7.6 0 0 0 .1-1.5l.3-2.3h1.4l-.8 5h-1.7l-.3-1.6a8.9 8.9 0 0 0-.2-1.5 10.4 10.4 0 0 1-.2 1.5l-.2 1.6H364zM369.7 360.4c0-1.1 1-1.7 3.3-1.8 0-.5-.4-.7-1.1-.7a5.6 5.6 0 0 0-1.5.4l-.5-.9a4.8 4.8 0 0 1 2.3-.7 2 2 0 0 1 2.3 2.2v2.9h-1.2v-.6h-.1a2.8 2.8 0 0 1-1.7.7 1.6 1.6 0 0 1-1.8-1.5zm3.3-.1v-.8c-1.5.1-1.9.4-1.9.8s.3.5.7.5a1.7 1.7 0 0 0 1.2-.5zM376.3 356.8h1.2v1.1a2.4 2.4 0 0 1 2-1.2l1 .2-.3 1.2h-.9a1.7 1.7 0 0 0-1.6 1.2v2.6h-1.5zM381.8 361l2.6-3h-2.3v-1.2h4.4v.8l-2.6 3h2.6v1.2h-4.7zM345.7 370.6c0-2.2 1.3-3.5 3.1-3.5a2.5 2.5 0 0 1 1.9.9l-.8.9a1.4 1.4 0 0 0-1.1-.5c-.9 0-1.6.8-1.6 2.1s.7 2.1 1.6 2.1a1.7 1.7 0 0 0 1.2-.5l.8.8a2.4 2.4 0 0 1-2.1 1 3 3 0 0 1-3-3.3zM351.8 368.8h4.6v1h-4.6zm0 2.3h4.6v1.1h-4.6zM357.7 370.6c0-2.2 1-3.3 2.4-3.3s2.5 1.1 2.5 3.3-1 3.3-2.5 3.3-2.4-1.2-2.4-3.3zm3.6 0c0-1.7-.5-2.1-1.2-2.1s-1.1.4-1.1 2.1.5 2.2 1.1 2.2 1.2-.6 1.2-2.2zm-1.9 0a.7.7 0 0 1 .7-.8.8.8 0 0 1 .8.8.8.8 0 0 1-.8.7.7.7 0 0 1-.7-.7zM369.7 367.3h1.5l.7 2.3.2.9.3-.9.6-2.3h1.5v6.5h-1.2v-2a30.3 30.3 0 0 1 .2-3.1l-.5 1.8-.5 1.6h-.8l-.5-1.6-.4-1.8h-.1a30.3 30.3 0 0 1 .2 3.1v2h-1.2zM375.8 368.8h4.6v1h-4.6zm0 2.3h4.6v1.1h-4.6zM381.7 370.6c0-2.2 1-3.3 2.4-3.3s2.5 1.1 2.5 3.3-1 3.3-2.5 3.3-2.4-1.2-2.4-3.3zm3.6 0c0-1.7-.5-2.1-1.2-2.1s-1.1.4-1.1 2.1.5 2.2 1.1 2.2 1.2-.6 1.2-2.2zm-1.9 0a.7.7 0 0 1 .7-.8.8.8 0 0 1 .8.8.8.8 0 0 1-.8.7.7.7 0 0 1-.7-.7zM395.4 371.6l-2.1-4.3h1.6l.6 1.5.6 1.5h.1l.6-1.5.6-1.5h1.6l-2.1 4.3v2.2h-1.5zM399.8 368.8h4.6v1h-4.6zm0 2.3h4.6v1.1h-4.6zM405.7 370.6c0-2.2 1-3.3 2.4-3.3s2.5 1.1 2.5 3.3-1 3.3-2.5 3.3-2.4-1.2-2.4-3.3zm3.6 0c0-1.7-.5-2.1-1.2-2.1s-1.1.4-1.1 2.1.5 2.2 1.1 2.2 1.2-.6 1.2-2.2zm-1.9 0a.7.7 0 0 1 .7-.8.8.8 0 0 1 .8.8.8.8 0 0 1-.8.7.7.7 0 0 1-.7-.7zM417.8 367.3h1.5v2.6l2-2.6h1.6l-2 2.6 2.2 3.9h-1.7L420 371l-.7 1v1.8h-1.5zM423.8 368.8h4.6v1h-4.6zm0 2.3h4.6v1.1h-4.6zM430 372.6h1.6v-3.7h-1.3v-.9a4.3 4.3 0 0 0 1.7-.6h1v5.2h1.5v1.2H430zM435.7 370.6c0-2.2 1-3.3 2.4-3.3s2.5 1.1 2.5 3.3-1 3.3-2.5 3.3-2.4-1.2-2.4-3.3zm3.6 0c0-1.7-.5-2.1-1.2-2.1s-1.1.4-1.1 2.1.5 2.2 1.1 2.2 1.2-.6 1.2-2.2zm-1.9 0a.7.7 0 0 1 .7-.8.8.8 0 0 1 .8.8.8.8 0 0 1-.8.7.7.7 0 0 1-.7-.7zM441.7 370.6c0-2.2 1-3.3 2.4-3.3s2.5 1.1 2.5 3.3-1 3.3-2.5 3.3-2.4-1.2-2.4-3.3zm3.6 0c0-1.7-.5-2.1-1.2-2.1s-1.1.4-1.1 2.1.5 2.2 1.1 2.2 1.2-.6 1.2-2.2zm-1.9 0a.7.7 0 0 1 .7-.8.8.8 0 0 1 .8.8.8.8 0 0 1-.8.7.7.7 0 0 1-.7-.7zM345.8 379.3h1.4v2.5h1.8v-2.5h1.5v6.5H349v-2.7h-1.8v2.7h-1.4zM351.7 383.3a2.5 2.5 0 0 1 2.6-2.6 2.2 2.2 0 0 1 2.3 2.4 3.5 3.5 0 0 1-.1.6h-3.4a1.3 1.3 0 0 0 1.5 1.1 2 2 0 0 0 1.3-.4l.5.9a3.6 3.6 0 0 1-2 .6 2.5 2.5 0 0 1-2.7-2.6zm1.5-.5h2.1c-.1-.7-.4-1-1-1a1 1 0 0 0-1.1 1zM359.2 383.2l-1.6-2.4h1.6l.5.8a4.1 4.1 0 0 0 .5.9h.1a3.6 3.6 0 0 1 .4-.9l.4-.8h1.5l-1.6 2.6 1.7 2.4h-1.5l-.6-.8-.6-.9-.5.9-.5.8h-1.5zM363.7 384.4c0-1.1 1-1.7 3.3-1.8 0-.5-.4-.7-1.1-.7a5.6 5.6 0 0 0-1.5.4l-.5-.9a4.8 4.8 0 0 1 2.3-.7 2 2 0 0 1 2.3 2.2v2.9h-1.2v-.6h-.1a2.8 2.8 0 0 1-1.7.7 1.6 1.6 0 0 1-1.8-1.5zm3.3-.1v-.8c-1.5.1-1.9.4-1.9.8s.3.5.7.5a1.7 1.7 0 0 0 1.2-.5zM371 381.5a1.1 1.1 0 0 1 1.1-1.2 1.2 1.2 0 0 1 0 2.4 1.1 1.1 0 0 1-1.1-1.2zm0 3.2a1 1 0 0 1 1.1-1.1 1.1 1.1 0 0 1 1.2 1.1 1.2 1.2 0 0 1-1.2 1.2 1.1 1.1 0 0 1-1.1-1.2zM384.5 383.9h-1.1l-.2 1.9h-.8l.2-1.9h-.8v-.9h.9v-1.1h-.7v-1h1v-1.6h.9l-.2 1.6h1l.2-1.6h.9l-.2 1.6h.8v1h-.9l-.2 1.1h.9v.9h-1l-.2 1.9h-.9zm.2-2h-1l-.2 1.1h1.1zM388 384.6h1.6v-3.7h-1.3v-.9a4.3 4.3 0 0 0 1.7-.6h1v5.2h1.5v1.2H388zM393.8 379.3h1.8a2.9 2.9 0 0 1 3.2 3.2 2.9 2.9 0 0 1-3.1 3.3h-1.9zm1.7 5.3c1.1 0 1.8-.5 1.8-2.1s-.7-2-1.8-2h-.2v4.1zM400 384.6h1.6v-3.7h-1.3v-.9a4.3 4.3 0 0 0 1.7-.6h1v5.2h1.5v1.2H400zM405.8 379.3h1.8a2.9 2.9 0 0 1 3.2 3.2 2.9 2.9 0 0 1-3.1 3.3h-1.9zm1.7 5.3c1.1 0 1.8-.5 1.8-2.1s-.7-2-1.8-2h-.2v4.1zM412 384.6h1.6v-3.7h-1.3v-.9a4.3 4.3 0 0 0 1.7-.6h1v5.2h1.5v1.2H412zM417.9 379.3h2.2c1.3 0 2.3.3 2.3 1.6a1.4 1.4 0 0 1-1.1 1.4 1.5 1.5 0 0 1 1.4 1.6c0 1.3-1 1.9-2.5 1.9h-2.3zm2.1 2.6c.7 0 1-.3 1-.8s-.3-.7-1-.7h-.7v1.5zm.1 2.7c.8 0 1.2-.3 1.2-.8s-.4-.9-1.2-.9h-.8v1.7zM425 387.1c.8-.3 1.3-.8 1.2-1.4h-.1a1 1 0 0 1-1-1 1 1 0 0 1 1.1-1.1c.8 0 1.2.7 1.2 1.8a2.7 2.7 0 0 1-2.1 2.6zm0-5.6a1.1 1.1 0 0 1 1.1-1.2 1.2 1.2 0 0 1 0 2.4 1.1 1.1 0 0 1-1.1-1.2zM346.3 392.8h1.2v1.1a2.4 2.4 0 0 1 2-1.2l1 .2-.3 1.2h-.9a1.7 1.7 0 0 0-1.6 1.2v2.6h-1.5zM351.7 398.6c0-.4.2-.7.7-1a.9.9 0 0 1-.5-.9c0-.3.3-.6.6-.9a1.8 1.8 0 0 1-.6-1.3 1.9 1.9 0 0 1 2.1-1.8h2.8v1.1h-1a1.4 1.4 0 0 1 .2.7c0 1.1-.9 1.6-2 1.6h-.7c-.2.1-.2.2-.2.4s.2.4.8.4h.9c1.3 0 2 .3 2 1.2s-1.1 1.8-2.9 1.8-2.2-.4-2.2-1.3zm3.7-.2c0-.4-.3-.4-.8-.4h-1.4c-.2.2-.4.3-.4.5s.5.6 1.3.6 1.3-.4 1.3-.7zm-.7-3.9a.7.7 0 0 0-.7-.8.8.8 0 0 0 0 1.6.7.7 0 0 0 .7-.8zM359.2 397.2h-.1v.6H358v-7h1.4v2.5a2 2 0 0 1 1.4-.6c1.2 0 2 1 2 2.5a2.4 2.4 0 0 1-2.2 2.7 1.6 1.6 0 0 1-1.4-.7zm1.9-2c0-.8-.2-1.3-.9-1.3a1.1 1.1 0 0 0-.9.5v2a1.6 1.6 0 0 0 .9.3c.5 0 .9-.4.9-1.5zM363.7 396.4c0-1.1 1-1.7 3.3-1.8 0-.5-.4-.7-1.1-.7a5.6 5.6 0 0 0-1.5.4l-.5-.9a4.8 4.8 0 0 1 2.3-.7 2 2 0 0 1 2.3 2.2v2.9h-1.2v-.6h-.1a2.8 2.8 0 0 1-1.7.7 1.6 1.6 0 0 1-1.8-1.5zm3.3-.1v-.8c-1.5.1-1.9.4-1.9.8s.3.5.7.5a1.7 1.7 0 0 0 1.2-.5zM370.9 395a6.1 6.1 0 0 1 2.1-4.6l.9.7a5.3 5.3 0 0 0 0 7.8l-.9.7a6.1 6.1 0 0 1-2.1-4.6zM375.7 396.9c1.8-1.5 3-2.6 3-3.5s-.3-.9-1-.9a2.2 2.2 0 0 0-1.3.6l-.8-.8a3.3 3.3 0 0 1 2.3-1 2 2 0 0 1 2.2 2c0 1.1-1.1 2.2-2.3 3.3h2.7v1.3h-4.8zM381.8 397.1l.7-.8a2.1 2.1 0 0 0 1.1.4c.8 0 1.5-.5 1.6-2a2.8 2.8 0 0 1-1.6.7 1.8 1.8 0 0 1-1.9-2 2.1 2.1 0 0 1 2.2-2.1c1.3 0 2.6.9 2.6 3.2s-1.3 3.4-2.7 3.4a2.8 2.8 0 0 1-2-.8zm3.3-3.4c-.1-1-.6-1.3-1.1-1.3a.9.9 0 0 0-1 1 .9.9 0 0 0 .9 1 1.4 1.4 0 0 0 1.2-.7zM389 399.1c.8-.3 1.3-.8 1.2-1.4h-.1a1 1 0 0 1-1-1 1 1 0 0 1 1.1-1.1c.8 0 1.2.7 1.2 1.8a2.7 2.7 0 0 1-2.1 2.6zM399.7 396.9c1.8-1.5 3-2.6 3-3.5s-.3-.9-1-.9a2.2 2.2 0 0 0-1.3.6l-.8-.8a3.3 3.3 0 0 1 2.3-1 2 2 0 0 1 2.2 2c0 1.1-1.1 2.2-2.3 3.3h2.7v1.3h-4.8zM405.8 397.1l.7-.8a2.1 2.1 0 0 0 1.1.4c.8 0 1.5-.5 1.6-2a2.8 2.8 0 0 1-1.6.7 1.8 1.8 0 0 1-1.9-2 2.1 2.1 0 0 1 2.2-2.1c1.3 0 2.6.9 2.6 3.2s-1.3 3.4-2.7 3.4a2.8 2.8 0 0 1-2-.8zm3.3-3.4c-.1-1-.6-1.3-1.1-1.3a.9.9 0 0 0-1 1 .9.9 0 0 0 .9 1 1.4 1.4 0 0 0 1.2-.7zM413 399.1c.8-.3 1.3-.8 1.2-1.4h-.1a1 1 0 0 1-1-1 1 1 0 0 1 1.1-1.1c.8 0 1.2.7 1.2 1.8a2.7 2.7 0 0 1-2.1 2.6zM423.7 396.9c1.8-1.5 3-2.6 3-3.5s-.3-.9-1-.9a2.2 2.2 0 0 0-1.3.6l-.8-.8a3.3 3.3 0 0 1 2.3-1 2 2 0 0 1 2.2 2c0 1.1-1.1 2.2-2.3 3.3h2.7v1.3h-4.8zM432.9 392.7h-3.1v-1.3h4.7v.9c-1.6 1.8-1.8 3-2 5.5h-1.4a7.8 7.8 0 0 1 1.8-5.1zM437 399.1c.8-.3 1.3-.8 1.2-1.4h-.1a1 1 0 0 1-1-1 1 1 0 0 1 1.1-1.1c.8 0 1.2.7 1.2 1.8a2.7 2.7 0 0 1-2.1 2.6zM448 396.6h1.6v-3.7h-1.3v-.9a4.3 4.3 0 0 0 1.7-.6h1v5.2h1.5v1.2H448zM454.4 398.9a5.3 5.3 0 0 0 0-7.8l.8-.7a6.1 6.1 0 0 1 0 9.2zM461 399.1c.8-.3 1.3-.8 1.2-1.4h-.1a1 1 0 0 1-1-1 1 1 0 0 1 1.1-1.1c.8 0 1.2.7 1.2 1.8a2.7 2.7 0 0 1-2.1 2.6zm0-5.6a1.1 1.1 0 0 1 1.1-1.2 1.2 1.2 0 0 1 0 2.4 1.1 1.1 0 0 1-1.1-1.2z"/><path d="M345.9 418.2h2.2c1.3 0 2.3.4 2.3 1.6a1.4 1.4 0 0 1-1.1 1.4 1.3 1.3 0 0 1 1.4 1.5c0 1.3-1 1.9-2.5 1.9h-2.3zm2.1 2.6c.7 0 1-.3 1-.8s-.3-.6-1-.6h-.7v1.4zm.1 2.8q1.2 0 1.2-.9c0-.6-.4-.8-1.2-.8h-.8v1.7zM353.2 422.8v-3.9h-1.5v-1.2h3v5.1c0 .7.3.9.8.9l.7-.2.4 1.1-1.5.2a1.8 1.8 0 0 1-1.9-2zM357.7 423.3c0-1.1 1-1.6 3.3-1.8 0-.4-.4-.7-1.1-.7a3.7 3.7 0 0 0-1.5.5l-.5-1a4.8 4.8 0 0 1 2.3-.7 2.1 2.1 0 0 1 2.3 2.3v2.8h-1.2v-.5h-.1a3.5 3.5 0 0 1-1.7.6 1.5 1.5 0 0 1-1.8-1.5zm3.3-.1v-.8c-1.5.1-1.9.4-1.9.8s.3.5.7.5a1.7 1.7 0 0 0 1.2-.5zM363.8 422.8v-3h1.4v2.8c0 .7.2 1 .7 1a1 1 0 0 0 1-.6v-3.2h1.5v4.9h-1.2v-.7h-.2a1.9 1.9 0 0 1-1.6.8c-1.2 0-1.6-.7-1.6-2zM370 423.5h1.6v-3.6h-1.3v-.9a6.7 6.7 0 0 0 1.7-.6h1v5.1h1.5v1.2H370zM345.7 433.5c0-2.2 1.3-3.4 3.1-3.4a2.8 2.8 0 0 1 1.9.8l-.8.9a1.4 1.4 0 0 0-1.1-.4c-.9 0-1.6.7-1.6 2.1s.7 2.1 1.6 2.1a1.7 1.7 0 0 0 1.2-.6l.8.9a2.6 2.6 0 0 1-2.1.9 3 3 0 0 1-3-3.3zM351.8 431.8h4.6v1h-4.6zm0 2.3h4.6v1h-4.6zM357.8 436.1l.7-.9a2.2 2.2 0 0 0 1.1.5c.8 0 1.5-.6 1.6-2.1a2.3 2.3 0 0 1-1.6.7 1.7 1.7 0 0 1-1.9-1.9 2.1 2.1 0 0 1 2.2-2.1c1.3 0 2.6.9 2.6 3.1s-1.3 3.4-2.7 3.4a2.8 2.8 0 0 1-2-.7zm3.3-3.4c-.1-1-.6-1.3-1.1-1.3a.9.9 0 0 0-1 1 .8.8 0 0 0 .9.9 1.6 1.6 0 0 0 1.2-.6zM363.6 435.9l.6-.9a2.6 2.6 0 0 0 1.6.7c.7 0 1.2-.3 1.2-.8s-.5-.9-2-.9v-1c1.3 0 1.8-.4 1.8-.9s-.4-.7-1-.7a1.8 1.8 0 0 0-1.3.6l-.8-.9a3.7 3.7 0 0 1 2.2-.8c1.4 0 2.3.6 2.3 1.7s-.4 1.1-1.2 1.4c.8.3 1.4.8 1.4 1.6s-1.1 1.8-2.5 1.8a2.6 2.6 0 0 1-2.3-.9zM375.7 430.2h1.5l.7 2.3.2.9.3-.9.6-2.3h1.5v6.5h-1.2v-2c0-.7.1-2.3.2-3l-.5 1.7-.5 1.6h-.8l-.5-1.6-.4-1.7h-.1c.1.7.2 2.3.2 3v2h-1.2zM381.8 431.8h4.6v1h-4.6zm0 2.3h4.6v1h-4.6zM387.7 433.7c0-2.4 1.4-3.4 2.8-3.4a2.8 2.8 0 0 1 2 .7l-.8.9a2.2 2.2 0 0 0-1.1-.5c-.8 0-1.5.6-1.5 2a2.2 2.2 0 0 1 1.5-.6 1.8 1.8 0 0 1 2 1.9 2.2 2.2 0 0 1-2.3 2.1c-1.3 0-2.6-.9-2.6-3.1zm3.5 1a.8.8 0 0 0-.9-.9 1.7 1.7 0 0 0-1.2.6c.2 1 .7 1.3 1.2 1.3a.9.9 0 0 0 .9-1zM393.7 433.7c0-2.4 1.4-3.4 2.8-3.4a2.8 2.8 0 0 1 2 .7l-.8.9a2.2 2.2 0 0 0-1.1-.5c-.8 0-1.5.6-1.5 2a2.2 2.2 0 0 1 1.5-.6 1.8 1.8 0 0 1 2 1.9 2.2 2.2 0 0 1-2.3 2.1c-1.3 0-2.6-.9-2.6-3.1zm3.5 1a.8.8 0 0 0-.9-.9 1.7 1.7 0 0 0-1.2.6c.2 1 .7 1.3 1.2 1.3a.9.9 0 0 0 .9-1zM407.4 434.5l-2.1-4.3h1.6l.6 1.6.6 1.5h.1c.2-.6.4-1 .6-1.5l.6-1.6h1.6l-2.1 4.3v2.2h-1.5zM411.8 431.8h4.6v1h-4.6zm0 2.3h4.6v1h-4.6zM417.7 433.5c0-2.1 1-3.2 2.4-3.2s2.5 1.1 2.5 3.2-1 3.3-2.5 3.3-2.4-1.1-2.4-3.3zm3.6 0c0-1.6-.5-2.1-1.2-2.1s-1.1.5-1.1 2.1.5 2.2 1.1 2.2 1.2-.5 1.2-2.2zm-1.9 0a.7.7 0 0 1 .7-.8.8.8 0 1 1 0 1.6.7.7 0 0 1-.7-.8zM429.8 430.2h1.5v2.7l2-2.7h1.6l-2 2.6 2.2 3.9h-1.7L432 434l-.7.9v1.8h-1.5zM435.8 431.8h4.6v1h-4.6zm0 2.3h4.6v1h-4.6zM441.7 435.9c1.8-1.5 3-2.6 3-3.5a.9.9 0 0 0-1-1 1.9 1.9 0 0 0-1.3.7l-.8-.8a2.9 2.9 0 0 1 2.3-1 2 2 0 0 1 2.2 2c0 1-1.1 2.2-2.3 3.3h2.7v1.2h-4.8zM448 435.5h1.6v-3.6h-1.3v-.9a6.7 6.7 0 0 0 1.7-.6h1v5.1h1.5v1.2H448z"/><g id="weissraum"><path class="cls-5" transform="rotate(180 616.2 467.35)" d="M612.7 460.9h7.1v12.89h-7.1z"/><path class="cls-5" transform="rotate(180 616.2 467.35)" d="M612.6 460.9h7.1v12.89h-7.1z"/><path class="cls-5" transform="rotate(90 616.2 467.3)" d="M612.6 460.9h7.2v12.86h-7.2z"/><path class="cls-5" transform="rotate(90 616.2 467.3)" d="M612.9 460.9h6.6v12.86h-6.6z"/><path class="cls-7" d="M562.7 531.1h-10.1V521"/><path class="cls-8" d="M552.6 499.5v-75.1"/><path class="cls-7" d="M552.6 413.7v-10.1h10.1"/><path class="cls-9" d="M584.1 403.6H659"/><path class="cls-7" d="M669.7 403.6h10.1v10.1"/><path class="cls-8" d="M679.8 435.2v75.1"/><path class="cls-7" d="M679.8 521v10.1h-10.1"/><path class="cls-9" d="M648.3 531.1h-74.9"/><g id="lg-2" data-name="lg"><circle class="cls-4" cx="616.2" cy="467.3" r="56.7"/><path class="cls-3" d="M576.1 427.3a56.7 56.7 0 0 0 0 80.1l80.2-80.1a56.6 56.6 0 0 0-80.2 0z"/><g id="läufer-2" data-name="läufer"><path class="cls-3" d="M642.7 479.5a7.2 7.2 0 0 0-.8-3.8c-.1-.2-.1-.3 0-.4a5.8 5.8 0 0 0 .1-1 3.8 3.8 0 0 0-.4-2.4 3.3 3.3 0 0 0-1.9-1.3l-2.7-.7c-.1-.1-.2-.1-.2-.2v-2.1a1.4 1.4 0 0 0 .7-.9c0-.6 0-.9-.1-1 .1-.3.2-3-2.4-3a2.7 2.7 0 0 0-2.9 2.7c.1.3 0 1.1.1 1.5l.8 1.1v1.8l-.2.2h-.7c-1.4.2-3.8.7-4.6 1.9s-.8 4-1 4.5.2 1.7.3 2.4l.5 3.3a2.9 2.9 0 0 1 .4.8c-.1.2-.1 2.5.4 2.9s1.1 2.8 1.6 2.7-.1-1.8-.1-2 0-.2.1-.2v-1.4a3.4 3.4 0 0 0-.1-1.4c-.2-.4-1-.5-.9-1.1s.4-2.8.4-3.5-.5-2.2-.5-2.2l1.2-1.5a14.5 14.5 0 0 1 .3 2.7c0 .6.7 1.1.7 2.7a9 9 0 0 1-.2 2.3c-.1.9 0 2.8 0 3.1l-.5 2v.3c.1.4.6 2 1 3s1.8 2.3 1.8 2.5a17.1 17.1 0 0 0-.4 2.3 12 12 0 0 0 .7 2.7 12.9 12.9 0 0 1 .3 2.4c0 .7.7 2.1.8 3.1a3.4 3.4 0 0 1-.4 2 2.7 2.7 0 0 1-.1 1.5c-.2.4-1 2.5-.7 3.1s1.1.6 1.6.6-.4 2.9 1.2 3 1.6-2.3 1.5-3a9.5 9.5 0 0 1 .3-3.8c.4-.7 1-2.4 1.2-2.8s0-3.6 0-4.2a8.5 8.5 0 0 1 .6-1.9c.1-.3.5-2 .6-2.7s.8-3.8.9-4.6.1-3.6-.3-4.6a24.6 24.6 0 0 1-.8-5.8c.3 1.1 2 2.1 2.6 1.5s.1-2.4.2-3.1zm-6 20.7c-.1.7-.5 2.2-.7 2.9a10.7 10.7 0 0 1-.1-2.5c.1-.5.3-2.1.4-2.8h.1a19.7 19.7 0 0 1 .3 2.4z"/><path class="cls-3" d="M641.8 479.9a4.8 4.8 0 0 0-.6-1.4 16.4 16.4 0 0 1-1.5-2.2 30.6 30.6 0 0 0-.5-3.2 10.5 10.5 0 0 0-1.5-2.1c-.3-.1-.2.2-.2.4a14.3 14.3 0 0 1 .5 1.8c.1.4-.4-.6-.4-.4s.3 1.2.3 1.3.2 1.4.2 1.5.6 1.1.7 1.4.7 2.7.7 3l.5 1.2zM632.8 464.8c0-.1.1-.1.2-.1a9.8 9.8 0 0 0 1.6.5 3.9 3.9 0 0 0 2-.5c.4-.3.4 2.7.2 2.9s-1.1 1.7-1.7 1.7a4.2 4.2 0 0 1-2.1-1.3c0-.4-.3-2-.3-2.5a2 2 0 0 0 .1-.7z"/></g><g id="text-2" data-name="text"><path class="cls-4" d="m570.1 461-.8-1a2.5 2.5 0 0 0 1-1.5c.1-.6-.1-1-.4-1s-.6.2-1 .8l-.5.7a1.8 1.8 0 0 1-2 1c-1-.2-1.6-1.3-1.4-2.7a3.5 3.5 0 0 1 1.3-1.9l.7.9a2.7 2.7 0 0 0-.8 1.4c0 .4.1.8.5.9s.6-.4.9-.9l.5-.7a1.6 1.6 0 0 1 1.9-1c1.1.2 1.8 1.2 1.5 2.8a4.4 4.4 0 0 1-1.4 2.2zM569.7 454.9a2.5 2.5 0 0 1-1.6-3.2 2.4 2.4 0 0 1 3.2-1.5 2.4 2.4 0 0 1 1.6 3.1 2.5 2.5 0 0 1-3.2 1.6zm1.1-3.3c-.8-.3-1.4-.1-1.6.5s.2 1.1 1 1.4 1.4.1 1.6-.5-.2-1.1-1-1.4zM572.3 449.3l-2.7-1.3.6-1.3 2.5 1.3c.6.2.9.2 1.2-.3a1.5 1.5 0 0 0-.1-1.1l-2.9-1.3.6-1.3 4.4 2-.5 1.1-.7-.2a2.1 2.1 0 0 1 0 1.9c-.5 1-1.3 1.1-2.4.5zM572.6 442l.7-1 .9.5a2.3 2.3 0 0 1 .1-2.3 1.3 1.3 0 0 1 .7-.6l.8.8-.5.7a1.7 1.7 0 0 0 .1 2l2.1 1.4-.8 1.2zM577.7 438.7a2.6 2.6 0 0 1-.1-3.8 2.1 2.1 0 0 1 1.6-.9l.3 1c-.5.2-.8.3-1 .6a1.3 1.3 0 0 0 .2 2 1.3 1.3 0 0 0 1.9-.2 2.9 2.9 0 0 0 .5-1.3l1 .2a3.5 3.5 0 0 1-.7 2 2.5 2.5 0 0 1-3.7.4zM581.5 434.2a2.4 2.4 0 0 1 .1-3.5 2.1 2.1 0 0 1 3.3.1l.4.5-2.4 2.3c.6.4 1.1.3 1.7-.3a3 3 0 0 0 .7-1.1l1 .3a4.2 4.2 0 0 1-1.1 1.8 2.5 2.5 0 0 1-3.7-.1zm.7-1.3 1.5-1.5a1.1 1.1 0 0 0-1.3 0 1.2 1.2 0 0 0-.2 1.5zM590.5 426.2c-1-1.9-.4-3.6 1.1-4.4a2.4 2.4 0 0 1 2-.2l-.3 1.1a1.4 1.4 0 0 0-1.2.2 1.7 1.7 0 0 0-.3 2.5c.6 1.2 1.5 1.5 2.4 1.1a1.6 1.6 0 0 0 .7-1.1l1.1.4a2.3 2.3 0 0 1-1.4 1.8 2.9 2.9 0 0 1-4.1-1.4zM596 424a2.5 2.5 0 1 1 4.6-1.8 2.4 2.4 0 0 1-1.3 3.3 2.5 2.5 0 0 1-3.3-1.5zm3.3-1.2c-.3-.8-.8-1.2-1.5-1s-.7.9-.4 1.7.8 1.2 1.4.9.8-.9.5-1.6zM601.6 421.9a2.4 2.4 0 0 1 1.4-3 1.9 1.9 0 0 1 1.3.2l-.2-.7-.4-1.6 1.4-.4 1.7 6.7-1.2.3-.2-.5a2.3 2.3 0 0 1-1.2 1c-1.2.3-2.2-.5-2.6-2zm3.4.1-.5-1.9a1 1 0 0 0-.9-.1c-.5.1-.8.6-.6 1.5s.7 1.3 1.3 1.1a1 1 0 0 0 .7-.6zM607.5 420.5a2.5 2.5 0 0 1 2.2-2.9 2.2 2.2 0 0 1 2.6 2v.7l-3.3.4a1.2 1.2 0 0 0 1.5.8 1.8 1.8 0 0 0 1.2-.5l.6.8a2.7 2.7 0 0 1-1.8.8 2.4 2.4 0 0 1-3-2.1zm1.4-.8 2-.2c-.1-.6-.5-.9-1-.8a1.1 1.1 0 0 0-1 1z"/><path class="cls-3" d="M655.9 457.5c0-2.1 1-3.3 2.5-3.3s2.6 1.2 2.6 3.3-1.1 3.3-2.6 3.3-2.5-1.1-2.5-3.3zm3.6 0c0-1.3-.4-2-1.1-2s-1.1.7-1.1 2 .5 2.1 1.1 2.1 1.1-.7 1.1-2.1zM656 467.3a3 3 0 0 1 3.1-3.3 3 3 0 0 1 1.9.8l-.8.9a1.6 1.6 0 0 0-1.1-.5c-.9 0-1.6.8-1.6 2.1s.7 2.1 1.6 2.1a1.7 1.7 0 0 0 1.2-.6l.8.9a2.9 2.9 0 0 1-2.1.9 3 3 0 0 1-3-3.3zM656.2 473.9h2.2c1.4 0 2.5.5 2.5 2a1.9 1.9 0 0 1-1.1 1.8l1.4 2.6h-1.6l-1.2-2.3h-.8v2.3h-1.4zm2.1 2.9q1.2 0 1.2-.9t-1.2-.9h-.7v1.8z"/><path class="cls-4" d="M580.4 464.8c-1.5-1.5-1.6-3-.5-4.1s2.5-.9 4.1.6 1.6 3.1.6 4.2-2.6.9-4.2-.7zm2.6-2.5c-1.2-1.2-1.9-1.2-2.3-.8s-.5 1.2.7 2.4 1.9 1.2 2.4.7.4-1.1-.8-2.3zm-1.4 1.3a.8.8 0 0 1 1.1-1.1.7.7 0 0 1 0 1.1.8.8 0 0 1-1.1 0zM586.4 461.8l1.2-1.2-2.7-2.6-.9.9-.7-.6a4.7 4.7 0 0 0 .9-1.7l.7-.7 3.7 3.7 1-1.1.9.9-3.3 3.2zM589.1 456.2c-1.6-1.5-1.7-3-.6-4s2.5-1 4.1.6 1.7 3 .6 4.1-2.6.9-4.1-.7zm2.5-2.5c-1.1-1.2-1.8-1.2-2.3-.7s-.5 1.1.7 2.3 1.9 1.2 2.4.8.4-1.2-.8-2.4zm-1.3 1.3a.7.7 0 0 1 0-1.1c.3-.3.7-.3 1.1.1a.7.7 0 0 1 0 1 .7.7 0 0 1-1.1 0zM595 453.2l1.2-1.1-2.6-2.7-1 1-.6-.7a7.9 7.9 0 0 0 .8-1.6l.8-.8 3.6 3.7 1.1-1 .8.8-3.2 3.3zM599.3 448.9l1.2-1.1-2.6-2.7-1 1-.6-.7a7.9 7.9 0 0 0 .8-1.6l.8-.8 3.7 3.7 1-1 .8.9-3.2 3.2zM603.6 444.7l1.2-1.2-2.6-2.6-1 .9-.6-.7a4.8 4.8 0 0 0 .8-1.6l.8-.8 3.7 3.7 1-1 .9.9-3.3 3.2zM608 440.4l1.1-1.2-2.6-2.6-.9.9-.7-.6a5.1 5.1 0 0 0 .8-1.7l.8-.7 3.7 3.7 1-1.1.9.9-3.3 3.2zM612.3 436.1l1.1-1.2-2.6-2.6-.9.9-.7-.6a3.3 3.3 0 0 0 .8-1.7l.8-.7 3.7 3.7 1-1 .9.8-3.3 3.3zM590.6 474.7l1.2-1.2-2.6-2.6-1 .9-.6-.6a4.4 4.4 0 0 0 .8-1.7l.8-.7 3.7 3.7 1-1 .8.8-3.2 3.3zM594.9 470.4l1.2-1.1-2.6-2.7-1 1-.6-.7a4.8 4.8 0 0 0 .8-1.6l.8-.8 3.7 3.7 1-1 .9.8-3.3 3.3zM597.6 464.9c-1.5-1.6-1.6-3.1-.5-4.1s2.5-1 4 .6 1.7 3.1.7 4.1-2.6.9-4.2-.6zm2.6-2.6c-1.2-1.2-1.9-1.1-2.3-.7s-.5 1.2.7 2.3 1.9 1.3 2.3.8.5-1.2-.7-2.4zm-1.4 1.4a.8.8 0 1 1 1.1 0 .8.8 0 0 1-1.1 0zM602 460.6c-1.6-1.6-1.7-3.1-.6-4.1s2.5-.9 4.1.6 1.6 3.1.6 4.1-2.6.9-4.1-.6zm2.5-2.6c-1.2-1.1-1.9-1.1-2.3-.7s-.5 1.2.7 2.4 1.9 1.2 2.4.7.4-1.2-.8-2.4zm-1.3 1.4c-.4-.4-.4-.8-.1-1.1a.8.8 0 0 1 1.1 0 .7.7 0 0 1 0 1.1.7.7 0 0 1-1 0zM607.9 457.6l1.2-1.2-2.7-2.6-.9.9-.7-.6a7.1 7.1 0 0 0 .9-1.7l.7-.8 3.7 3.8 1.1-1.1.8.9-3.3 3.2zM612.2 453.3l1.2-1.2-2.6-2.6-1 .9-.6-.6a6.5 6.5 0 0 0 .8-1.7l.7-.7 3.7 3.7 1.1-1.1.8.9-3.3 3.2zM614.9 447.7c-1.5-1.5-1.6-3-.6-4s2.6-1 4.1.6 1.7 3 .6 4.1-2.6.9-4.1-.7zm2.6-2.5c-1.2-1.2-1.9-1.2-2.4-.7s-.4 1.1.7 2.3 2 1.2 2.4.8.4-1.2-.7-2.4zm-1.4 1.3a.8.8 0 0 1 0-1.1c.3-.3.7-.3 1.1.1a.7.7 0 0 1 0 1 .7.7 0 0 1-1.1 0zM619.2 443.5c-1.5-1.6-1.6-3.1-.6-4.1s2.6-1 4.1.6 1.7 3.1.6 4.1-2.6.9-4.1-.6zm2.6-2.6c-1.2-1.2-1.9-1.2-2.4-.7s-.4 1.1.7 2.3 2 1.2 2.4.8.5-1.2-.7-2.4zm-1.4 1.3a.7.7 0 0 1 0-1 .7.7 0 0 1 1.1 0 .8.8 0 0 1 0 1.1.7.7 0 0 1-1.1-.1z"/></g></g><path class="cls-2" d="M552.3 542.8h1.5l.2 3.5a9.7 9.7 0 0 0 .1 1.7l.3-1.7.5-1.8h.9l.4 1.8.3 1.7h.1v-1.7l.2-3.5h1.4l-.8 6.6h-1.6l-.3-2.1a5 5 0 0 1-.2-1.2h-.1a4.9 4.9 0 0 1-.1 1.2l-.4 2.1h-1.5zM558.8 546.9a2.6 2.6 0 0 1 2.6-2.6 2.2 2.2 0 0 1 2.3 2.4v.6h-3.4c.1.7.6 1.1 1.5 1.1a2.8 2.8 0 0 0 1.2-.4l.5.9a3.3 3.3 0 0 1-1.9.6 2.6 2.6 0 0 1-2.8-2.6zm1.5-.6h2.1a.9.9 0 0 0-1-.9 1.1 1.1 0 0 0-1.1.9zM567 545.6h-2v-1.2h3.5v5H567zm-.3-2.9a1 1 0 0 1 2 0c0 .6-.4.9-1 .9s-1-.3-1-.9zM572.8 549.1l.5-1a1.6 1.6 0 0 0 .9.3.4.4 0 0 0 .4-.4c0-.8-1.5-.8-1.5-2.1s.6-1.1.6-1.9a.6.6 0 0 0-.6-.6c-.5 0-.8.4-.8 1.1v4.9h-1.4v-5a2 2 0 0 1 2.2-2.2 1.7 1.7 0 0 1 1.9 1.7c0 1-.6 1.3-.6 1.8s1.6.7 1.6 2.1a1.6 1.6 0 0 1-1.8 1.7 2.5 2.5 0 0 1-1.4-.4zM577.4 544.4h1.2v1.1h.1a2.3 2.3 0 0 1 2-1.2l.9.2-.3 1.2h-.8a1.7 1.7 0 0 0-1.7 1.2v2.6h-1.5zM582.9 548c0-1.1.9-1.7 3.2-1.8 0-.5-.4-.7-1-.7a2.8 2.8 0 0 0-1.5.4l-.6-.9a4.8 4.8 0 0 1 2.4-.7 2 2 0 0 1 2.2 2.2v2.9h-1.2v-.6a3.1 3.1 0 0 1-1.8.7 1.5 1.5 0 0 1-1.7-1.5zm3.2-.1v-.8c-1.4 0-1.8.3-1.8.8s.2.4.7.4a2.1 2.1 0 0 0 1.1-.4zM588.9 547.5v-3.1h1.4v2.9c0 .6.2.9.8.9a1.1 1.1 0 0 0 .9-.5v-3.3h1.5v5h-1.2v-.7a2.3 2.3 0 0 1-1.7.8c-1.2 0-1.7-.8-1.7-2zM594.6 544.4h1.1v.6h.1a1 1 0 0 1 1-.7.9.9 0 0 1 .9.8 1.1 1.1 0 0 1 1.1-.8c.7 0 1.1.6 1.1 1.6v3.5h-1.4V546c0-.3-.1-.5-.3-.5s-.3.2-.4.5v3.4h-1.2V546c0-.3-.1-.5-.3-.5s-.3.2-.4.5v3.4h-1.4zM602.1 545.1a1.2 1.2 0 0 1 1.2-1.2 1.1 1.1 0 0 1 1.1 1.2 1.2 1.2 0 0 1-1.1 1.2 1.2 1.2 0 0 1-1.2-1.2zm0 3.2a1.2 1.2 0 0 1 1.2-1.2 1.2 1.2 0 0 1 1.1 1.2 1.1 1.1 0 0 1-1.1 1.2 1.2 1.2 0 0 1-1.2-1.2zM552.8 554.8h1.6l.6 2.4.2.9h.1l.2-.9.6-2.4h1.6v6.6h-1.3v-2.1c0-.7.2-2.3.2-3l-.5 1.8-.5 1.5h-.7l-.5-1.5-.5-1.8c0 .7.2 2.3.2 3v2.1h-1.3zM561 557.6h-2v-1.2h3.5v5H561zm-.3-2.9a1 1 0 0 1 2 0c0 .6-.4.9-1 .9s-1-.3-1-.9zM565 556.4h1.2v.7a2.3 2.3 0 0 1 1.7-.8c1.2 0 1.7.8 1.7 2v3.1h-1.5v-2.9c0-.7-.2-1-.7-1a1.5 1.5 0 0 0-1.1.6v3.3H565zM570.7 558.9a2.4 2.4 0 0 1 2.1-2.6 1.7 1.7 0 0 1 1.3.5v-2.4h1.4v7h-1.2v-.5a2.5 2.5 0 0 1-1.4.6c-1.3 0-2.2-1-2.2-2.6zm3.4.9v-2a1.6 1.6 0 0 0-.9-.3c-.5 0-1 .4-1 1.4s.4 1.4 1 1.4a1.1 1.1 0 0 0 .9-.5zM576.8 558.9a2.6 2.6 0 0 1 2.6-2.6 2.2 2.2 0 0 1 2.3 2.4v.6h-3.4c.1.7.6 1.1 1.5 1.1a2.8 2.8 0 0 0 1.2-.4l.5.9a3.3 3.3 0 0 1-1.9.6 2.6 2.6 0 0 1-2.8-2.6zm1.5-.6h2.1a.9.9 0 0 0-1-.9 1.1 1.1 0 0 0-1.1.9zM582.8 560.7l.6-.9a3.6 3.6 0 0 0 2 .6c.6 0 .8-.2.8-.4s-.2-.4-1.2-.6-1.9-.8-1.9-1.6.9-1.5 2.3-1.5a3.3 3.3 0 0 1 2.1.7l-.6.8a3.3 3.3 0 0 0-1.7-.4c-.4 0-.6.1-.6.4s.3.3 1.1.5 2 .8 2 1.6-.9 1.6-2.5 1.6a4.6 4.6 0 0 1-2.4-.8zM590 559.3v-1.7h-1.3v-1.1h1.4l.2-1.5h1.2v1.5h2.1v1.2h-2.1v1.7c0 .7.3 1 1 1h1l.3 1a7.4 7.4 0 0 1-1.7.3 1.9 1.9 0 0 1-2.1-2.4zM594.9 560c0-1.1.9-1.7 3.2-1.8 0-.5-.4-.7-1-.7a2.8 2.8 0 0 0-1.5.4l-.6-.9a4.8 4.8 0 0 1 2.4-.7 2 2 0 0 1 2.2 2.2v2.9h-1.2v-.6a3.1 3.1 0 0 1-1.8.7 1.5 1.5 0 0 1-1.7-1.5zm3.2-.1v-.8c-1.4 0-1.8.3-1.8.8s.2.4.7.4a2.1 2.1 0 0 0 1.1-.4zM602.3 560.8h-.1v.6H601v-7h1.4v2.5a2 2 0 0 1 1.4-.6c1.2 0 2 1 2 2.5a2.4 2.4 0 0 1-2.2 2.7 2.1 2.1 0 0 1-1.3-.7zm2-2c0-.9-.3-1.3-.9-1.3a1.4 1.4 0 0 0-1 .4v2.1a1.6 1.6 0 0 0 .9.3c.5 0 1-.5 1-1.5zM606.8 560.7l.6-.9a3.6 3.6 0 0 0 2 .6c.6 0 .8-.2.8-.4s-.2-.4-1.2-.6-1.9-.8-1.9-1.6.9-1.5 2.3-1.5a3.3 3.3 0 0 1 2.1.7l-.6.8a3.3 3.3 0 0 0-1.7-.4c-.4 0-.6.1-.6.4s.3.3 1.1.5 2 .8 2 1.6-.9 1.6-2.5 1.6a4.6 4.6 0 0 1-2.4-.8zM614 559.3v-1.7h-1.3v-1.1h1.4l.2-1.5h1.2v1.5h2.1v1.2h-2.1v1.7c0 .7.3 1 1 1h1l.3 1a7.4 7.4 0 0 1-1.7.3 1.9 1.9 0 0 1-2.1-2.4zM618.9 560c0-1.1.9-1.7 3.2-1.8 0-.5-.4-.7-1-.7a2.8 2.8 0 0 0-1.5.4l-.6-.9a4.8 4.8 0 0 1 2.4-.7 2 2 0 0 1 2.2 2.2v2.9h-1.2v-.6a3.1 3.1 0 0 1-1.8.7 1.5 1.5 0 0 1-1.7-1.5zm3.2-.1v-.8c-1.4 0-1.8.3-1.8.8s.2.4.7.4a2.1 2.1 0 0 0 1.1-.4zM625 556.4h1.2v.7a2.3 2.3 0 0 1 1.7-.8c1.2 0 1.7.8 1.7 2v3.1h-1.5v-2.9c0-.7-.2-1-.7-1a1.5 1.5 0 0 0-1.1.6v3.3H625zM630.7 558.9a2.4 2.4 0 0 1 2.1-2.6 1.7 1.7 0 0 1 1.3.5v-2.4h1.4v7h-1.2v-.5a2.5 2.5 0 0 1-1.4.6c-1.3 0-2.2-1-2.2-2.6zm3.4.9v-2a1.6 1.6 0 0 0-.9-.3c-.5 0-1 .4-1 1.4s.4 1.4 1 1.4a1.1 1.1 0 0 0 .9-.5zM642.7 558.9a2.4 2.4 0 0 1 2.1-2.6 1.7 1.7 0 0 1 1.3.5v-2.4h1.4v7h-1.2v-.5a2.5 2.5 0 0 1-1.4.6c-1.3 0-2.2-1-2.2-2.6zm3.4.9v-2a1.6 1.6 0 0 0-.9-.3c-.5 0-1 .4-1 1.4s.4 1.4 1 1.4a1.1 1.1 0 0 0 .9-.5zM648.8 558.9a2.6 2.6 0 0 1 2.6-2.6 2.2 2.2 0 0 1 2.3 2.4v.6h-3.4c.1.7.6 1.1 1.5 1.1a2.8 2.8 0 0 0 1.2-.4l.5.9a3.3 3.3 0 0 1-1.9.6 2.6 2.6 0 0 1-2.8-2.6zm1.5-.6h2.1a.9.9 0 0 0-1-.9 1.1 1.1 0 0 0-1.1.9zM654.8 560.7l.6-.9a3.6 3.6 0 0 0 2 .6c.6 0 .8-.2.8-.4s-.2-.4-1.2-.6-1.9-.8-1.9-1.6.9-1.5 2.3-1.5a3.3 3.3 0 0 1 2.1.7l-.6.8a3.3 3.3 0 0 0-1.7-.4c-.4 0-.6.1-.6.4s.3.3 1.1.5 2 .8 2 1.6-.9 1.6-2.5 1.6a4.6 4.6 0 0 1-2.4-.8zM667.3 554.8h1.5v5.3h2.9v1.3h-4.4zM672.7 558.9a2.6 2.6 0 1 1 5.1 0 2.6 2.6 0 1 1-5.1 0zm3.6 0c0-.9-.4-1.4-1-1.4s-1.1.5-1.1 1.4.4 1.4 1.1 1.4 1-.6 1-1.4zM678.8 562.2c0-.4.2-.7.7-1a1.3 1.3 0 0 1-.5-.9 1.3 1.3 0 0 1 .6-.9 1.8 1.8 0 0 1-.6-1.3 1.9 1.9 0 0 1 2.1-1.8h2.8v1.1h-1a1.1 1.1 0 0 1 .3.6c0 1.2-.9 1.7-2.1 1.7h-.7a.5.5 0 0 0-.2.4c0 .2.3.3.8.3h1c1.3 0 2 .4 2 1.3s-1.2 1.8-3 1.8-2.2-.4-2.2-1.3zm3.8-.3c0-.3-.3-.3-.9-.3h-1.4c-.2.2-.3.3-.3.5s.5.5 1.2.5 1.4-.3 1.4-.7zm-.7-3.8a.8.8 0 0 0-.8-.8.8.8 0 0 0 0 1.6.8.8 0 0 0 .8-.8zM684.7 558.9a2.6 2.6 0 1 1 5.1 0 2.6 2.6 0 1 1-5.1 0zm3.6 0c0-.9-.4-1.4-1-1.4s-1.1.5-1.1 1.4.4 1.4 1.1 1.4 1-.6 1-1.4zM690.8 560.7l.6-.9a3.6 3.6 0 0 0 2 .6c.6 0 .8-.2.8-.4s-.2-.4-1.2-.6-1.9-.8-1.9-1.6.9-1.5 2.3-1.5a3.3 3.3 0 0 1 2.1.7l-.6.8a3.3 3.3 0 0 0-1.7-.4c-.4 0-.6.1-.6.4s.3.3 1.1.5 2 .8 2 1.6-.9 1.6-2.5 1.6a4.6 4.6 0 0 1-2.4-.8zM703 560.6l2.5-3h-2.2v-1.2h4.3v.8l-2.6 3h2.7v1.2H703zM708.9 559.5v-3.1h1.4v2.9c0 .6.2.9.8.9a1.1 1.1 0 0 0 .9-.5v-3.3h1.5v5h-1.2v-.7a2.3 2.3 0 0 1-1.7.8c-1.2 0-1.7-.8-1.7-2zM714.6 556.4h1.1v.6h.1a1 1 0 0 1 1-.7.9.9 0 0 1 .9.8 1.1 1.1 0 0 1 1.1-.8c.7 0 1.1.6 1.1 1.6v3.5h-1.4V558c0-.3-.1-.5-.3-.5s-.3.2-.4.5v3.4h-1.2V558c0-.3-.1-.5-.3-.5s-.3.2-.4.5v3.4h-1.4zM727 556.4h1.2v.7a2.3 2.3 0 0 1 1.7-.8c1.2 0 1.7.8 1.7 2v3.1h-1.5v-2.9c0-.7-.2-1-.7-1a1.5 1.5 0 0 0-1.1.6v3.3H727zM732.9 560c0-1.1.9-1.7 3.2-1.8 0-.5-.4-.7-1-.7a2.8 2.8 0 0 0-1.5.4l-.6-.9a4.8 4.8 0 0 1 2.4-.7 2 2 0 0 1 2.2 2.2v2.9h-1.2v-.6a3.1 3.1 0 0 1-1.8.7 1.5 1.5 0 0 1-1.7-1.5zm.6-5.1a.9.9 0 0 1 .8-.9.8.8 0 0 1 .8.9.8.8 0 0 1-.8.8.9.9 0 0 1-.8-.8zm2.6 5v-.8c-1.4 0-1.8.3-1.8.8s.2.4.7.4a2.1 2.1 0 0 0 1.1-.4zm-.3-5a.8.8 0 0 1 .8-.9.9.9 0 0 1 .8.9.9.9 0 0 1-.8.8.8.8 0 0 1-.8-.8zM738.9 558.9a2.7 2.7 0 0 1 2.9-2.6 2.9 2.9 0 0 1 1.9.7l-.7.9a1.9 1.9 0 0 0-1.1-.4 1.3 1.3 0 0 0-1.5 1.4 1.4 1.4 0 0 0 1.4 1.4 1.9 1.9 0 0 0 1.3-.5l.6 1a3.7 3.7 0 0 1-2 .7 2.6 2.6 0 0 1-2.8-2.6zM745 554.4h1.4v2.6a2.2 2.2 0 0 1 1.6-.7c1.2 0 1.7.8 1.7 2v3.1h-1.5v-2.9c0-.7-.2-1-.7-1a1.5 1.5 0 0 0-1.1.6v3.3H745zM750.8 560.7l.6-.9a3.6 3.6 0 0 0 2 .6c.6 0 .8-.2.8-.4s-.2-.4-1.2-.6-1.9-.8-1.9-1.6.9-1.5 2.3-1.5a3.3 3.3 0 0 1 2.1.7l-.6.8a3.3 3.3 0 0 0-1.7-.4c-.4 0-.6.1-.6.4s.3.3 1.1.5 2 .8 2 1.6-.9 1.6-2.5 1.6a4.6 4.6 0 0 1-2.4-.8zM758 559.3v-1.7h-1.3v-1.1h1.4l.2-1.5h1.2v1.5h2.1v1.2h-2.1v1.7c0 .7.3 1 1 1h1l.3 1a7.4 7.4 0 0 1-1.7.3 1.9 1.9 0 0 1-2.1-2.4zM762.8 558.9a2.6 2.6 0 0 1 2.6-2.6 2.2 2.2 0 0 1 2.3 2.4v.6h-3.4c.1.7.6 1.1 1.5 1.1a2.8 2.8 0 0 0 1.2-.4l.5.9a3.3 3.3 0 0 1-1.9.6 2.6 2.6 0 0 1-2.8-2.6zm1.5-.6h2.1a.9.9 0 0 0-1-.9 1.1 1.1 0 0 0-1.1.9zM769 556.4h1.2v.7a2.3 2.3 0 0 1 1.7-.8c1.2 0 1.7.8 1.7 2v3.1h-1.5v-2.9c0-.7-.2-1-.7-1a1.5 1.5 0 0 0-1.1.6v3.3H769z"/></g><g id="swvar"><path class="cls-4" d="M161.5 377.5a5.6 5.6 0 0 1 5.7 5.6v116.3a5.6 5.6 0 0 1-5.7 5.6H45.3a5.7 5.7 0 0 1-5.7-5.6V383.1a5.7 5.7 0 0 1 5.7-5.6h116.2m0-3H45.3a8.7 8.7 0 0 0-8.7 8.6v116.3a8.6 8.6 0 0 0 8.7 8.6h116.2a8.6 8.6 0 0 0 8.7-8.6V383.1a8.7 8.7 0 0 0-8.7-8.6z"/><g id="lg-3" data-name="lg"><circle class="cls-10" cx="103.4" cy="441.3" r="56.7"/><path class="cls-2" d="M63.3 401.2a56.7 56.7 0 0 0 0 80.1l80.2-80.1a56.6 56.6 0 0 0-80.2 0z"/><g id="läufer-3" data-name="läufer"><path class="cls-2" d="M129.9 453.4a7.4 7.4 0 0 0-.8-3.8c-.1-.2-.1-.3 0-.4s.1-.2.2-.9a6.3 6.3 0 0 0-.4-2.5 3.9 3.9 0 0 0-2-1.3l-2.7-.7a.2.2 0 0 1-.2-.2v-2.1a1.4 1.4 0 0 0 .7-.9v-.9c0-.3.1-3-2.5-3a2.5 2.5 0 0 0-2.8 2.7 3.9 3.9 0 0 0 .1 1.5 3.8 3.8 0 0 0 .8 1.1v1.8c0 .1 0 .2-.1.2h-.8c-1.4.2-3.8.7-4.5 1.9s-.9 4-1.1 4.5.2 1.7.3 2.4l.5 3.3a2.9 2.9 0 0 1 .4.8c-.1.3-.1 2.5.4 2.9s1.1 2.8 1.6 2.8-.1-1.8-.1-2.1v-.2c.1 0 .1-.1.1-.2v-1.2a3.6 3.6 0 0 0-.1-1.4c-.2-.4-1-.5-.9-1.1s.4-2.8.4-3.5-.5-2.1-.5-2.1l1.2-1.6a15.8 15.8 0 0 1 .3 2.8c0 .6.7 1 .7 2.6a9 9 0 0 1-.2 2.3c-.1.9 0 2.8 0 3.1l-.5 2v.3c.1.4.6 2 1 3s1.8 2.3 1.8 2.5a20.7 20.7 0 0 0-.4 2.3 12 12 0 0 0 .7 2.7 8.1 8.1 0 0 1 .3 2.4c.1.7.7 2.1.8 3.2a3.3 3.3 0 0 1-.4 1.9 2.6 2.6 0 0 1-.1 1.5c-.2.4-1 2.5-.6 3.1s1.1.6 1.5.6-.4 2.9 1.3 3 1.6-2.3 1.4-2.9a12.1 12.1 0 0 1 .3-3.9 29.3 29.3 0 0 0 1.2-2.8c.4-.9 0-3.6 0-4.2a8.5 8.5 0 0 1 .6-1.9c.1-.3.5-2 .6-2.7s.8-3.8.9-4.6.1-3.6-.3-4.6a24.6 24.6 0 0 1-.8-5.8c.3 1.1 2 2.2 2.6 1.5s0-2.5.1-3.2zm-6 20.8c-.1.6-.5 2.2-.6 2.8h-.1a10.7 10.7 0 0 1-.1-2.5c.1-.5.3-2.1.4-2.8h.1a19 19 0 0 1 .3 2.5z"/><path class="cls-2" d="M129 453.8a4.8 4.8 0 0 0-.6-1.4 8.4 8.4 0 0 1-1.4-2.2c-.3-.7-.3-2.6-.6-3.2a7.6 7.6 0 0 0-1.5-2.1c-.2-.1-.1.2-.2.4l.6 1.8c0 .4-.5-.6-.5-.4s.3 1.2.3 1.3.2 1.4.2 1.5.6 1.2.7 1.4.7 2.8.8 3l.4 1.2zM120 438.7h.2a4.9 4.9 0 0 0 1.6.5 3.7 3.7 0 0 0 2-.5c.4-.3.4 2.7.2 2.9s-1 1.8-1.7 1.8a3.6 3.6 0 0 1-2-1.4 18.7 18.7 0 0 1-.4-2.5 2 2 0 0 0 .1-.8z"/></g><g id="text-3" data-name="text"><path class="cls-10" d="m57.3 434.9-.8-1a2.5 2.5 0 0 0 1-1.5c.1-.6 0-.9-.4-1s-.6.2-1 .8l-.5.7a1.7 1.7 0 0 1-1.9 1 2 2 0 0 1-1.4-2.6 2.8 2.8 0 0 1 1.2-2l.7.9a2.3 2.3 0 0 0-.7 1.4c-.1.4 0 .8.4.9s.6-.3.9-.9l.5-.7a1.8 1.8 0 0 1 2-1c1 .2 1.7 1.3 1.4 2.8a3.3 3.3 0 0 1-1.4 2.2zM57 428.8a2.5 2.5 0 1 1 1.5-4.7 2.4 2.4 0 0 1 1.6 3.1 2.3 2.3 0 0 1-3.1 1.6zm1-3.3a1.1 1.1 0 0 0-1.6.5c-.2.6.2 1.1 1 1.4s1.4.1 1.6-.5-.2-1.1-1-1.4zM59.5 423.2l-2.7-1.2.6-1.3 2.5 1.2c.6.3.9.2 1.2-.3a1.5 1.5 0 0 0-.1-1.1l-2.9-1.3.6-1.3 4.4 2.1-.5 1-.7-.2a1.9 1.9 0 0 1 0 1.8c-.4 1.1-1.3 1.2-2.4.6zM59.9 415.9l.6-1 .9.5h.1a2 2 0 0 1 0-2.2c.3-.4.4-.6.7-.7l.9.9a1.7 1.7 0 0 0-.6.6 1.8 1.8 0 0 0 .1 2l2.1 1.4-.8 1.2zM64.9 412.6a2.6 2.6 0 0 1-.1-3.8 2.6 2.6 0 0 1 1.6-.9l.3 1.1-1 .5a1.3 1.3 0 0 0 .2 2 1.2 1.2 0 0 0 1.9-.2 3.1 3.1 0 0 0 .5-1.2h1a3.2 3.2 0 0 1-.7 2 2.4 2.4 0 0 1-3.7.5zM68.7 408.2a2.5 2.5 0 0 1 .1-3.6 2.3 2.3 0 0 1 3.3.1l.4.5-2.4 2.3a1.2 1.2 0 0 0 1.7-.2 1.9 1.9 0 0 0 .7-1.2l1 .4a3.9 3.9 0 0 1-1.1 1.7 2.6 2.6 0 0 1-3.7 0zm.7-1.4 1.6-1.4a1.1 1.1 0 0 0-1.4-.1 1.2 1.2 0 0 0-.2 1.5zM77.7 400.1c-1-1.9-.4-3.6 1.1-4.4a2.4 2.4 0 0 1 2-.2l-.2 1.2a1.7 1.7 0 0 0-1.2.1c-.8.4-1 1.4-.4 2.5s1.5 1.5 2.4 1.1a1.4 1.4 0 0 0 .7-1.1l1.1.4a2.3 2.3 0 0 1-1.4 1.8 2.8 2.8 0 0 1-4.1-1.4zM83.2 398a2.5 2.5 0 0 1 1.4-3.3 2.4 2.4 0 0 1 3.3 1.4 2.6 2.6 0 0 1-1.4 3.3 2.4 2.4 0 0 1-3.3-1.4zm3.3-1.3c-.3-.8-.8-1.2-1.5-.9s-.7.8-.4 1.6.8 1.2 1.5.9.7-.8.4-1.6zM88.8 395.8a2.4 2.4 0 0 1 1.4-3 1.9 1.9 0 0 1 1.3.2l-.2-.7-.4-1.6 1.4-.3L94 397l-1.2.3-.2-.5a1.9 1.9 0 0 1-1.2 1c-1.2.3-2.2-.4-2.6-2zm3.4.1-.5-1.9a.8.8 0 0 0-.8-.1c-.6.1-.9.6-.7 1.5s.7 1.3 1.3 1.1.5-.2.7-.6zM94.7 394.4a2.5 2.5 0 0 1 2.2-2.9 2.3 2.3 0 0 1 2.6 2.1v.6l-3.3.4a1.3 1.3 0 0 0 1.6.9l1.2-.5.5.8a4.2 4.2 0 0 1-1.8.8 2.5 2.5 0 0 1-3-2.2zm1.4-.7 2.1-.3a1.1 1.1 0 0 0-1.1-.8 1.1 1.1 0 0 0-1 1.1z"/><path class="cls-2" d="M143.1 431.4c0-2.1 1-3.3 2.5-3.3s2.6 1.2 2.6 3.3-1 3.4-2.6 3.4-2.5-1.2-2.5-3.4zm3.6 0c0-1.3-.4-2-1.1-2s-1.1.7-1.1 2 .5 2.1 1.1 2.1 1.1-.7 1.1-2.1zM143.2 441.3a3.1 3.1 0 0 1 3.1-3.4 3 3 0 0 1 1.9.8l-.8.9a1.5 1.5 0 0 0-1.1-.4c-.9 0-1.6.7-1.6 2s.7 2.1 1.6 2.1a1.4 1.4 0 0 0 1.2-.6l.8.9a2.7 2.7 0 0 1-2.1.9 2.9 2.9 0 0 1-3-3.2zM143.4 447.8h2.2c1.4 0 2.5.5 2.5 2a1.8 1.8 0 0 1-1.1 1.8l1.4 2.6h-1.6l-1.2-2.3h-.8v2.3h-1.4zm2.1 2.9q1.2 0 1.2-.9c0-.6-.4-.8-1.2-.8h-.7v1.7z"/><path class="cls-10" d="M67.7 438.7c-1.6-1.5-1.7-3-.6-4.1s2.5-.9 4.1.6 1.6 3.1.6 4.2-2.6.9-4.1-.7zm2.5-2.5c-1.2-1.2-1.9-1.2-2.3-.7s-.5 1.1.7 2.3 1.9 1.2 2.4.8.4-1.2-.8-2.4zm-1.3 1.3a.7.7 0 0 1 0-1.1.7.7 0 0 1 1 0 .7.7 0 0 1 0 1.1.7.7 0 0 1-1 0zM73.6 435.7l1.2-1.2-2.7-2.6-.9.9-.7-.6a5.3 5.3 0 0 0 .9-1.6l.7-.8 3.7 3.7 1.1-1 .8.8-3.3 3.3zM76.3 430.2c-1.6-1.6-1.7-3.1-.6-4.1s2.6-1 4.1.6 1.7 3.1.6 4.1-2.6.9-4.1-.6zm2.6-2.6c-1.2-1.2-1.9-1.2-2.4-.7s-.4 1.1.7 2.3 1.9 1.2 2.4.8.4-1.2-.7-2.4zm-1.4 1.3a.7.7 0 0 1 0-1 .7.7 0 0 1 1.1 0 .8.8 0 0 1 0 1.1.7.7 0 0 1-1.1-.1zM82.2 427.1l1.2-1.1-2.6-2.7-1 1-.6-.7a7.9 7.9 0 0 0 .8-1.6l.8-.8 3.7 3.7 1-1 .8.9-3.2 3.2zM86.5 422.9l1.2-1.2-2.6-2.6-1 .9-.6-.7a4.8 4.8 0 0 0 .8-1.6l.8-.8 3.7 3.7 1-1 .8.9-3.2 3.2zM90.8 418.6l1.2-1.2-2.6-2.6-.9.9-.7-.6a5.1 5.1 0 0 0 .8-1.7l.8-.7 3.7 3.7 1-1.1.9.9-3.3 3.2zM95.2 414.3l1.1-1.2-2.6-2.6-.9.9-.7-.6a3.3 3.3 0 0 0 .8-1.7l.8-.7 3.7 3.7 1-1 .9.8-3.3 3.3zM99.5 410l1.1-1.1-2.6-2.7-.9 1-.7-.7a3.4 3.4 0 0 0 .8-1.6l.8-.8 3.7 3.7 1-1 .9.8-3.3 3.3zM77.8 448.6l1.2-1.1-2.6-2.7-1 1-.6-.7a4.8 4.8 0 0 0 .8-1.6l.8-.8 3.7 3.7 1-1 .9.8-3.3 3.3zM82.2 444.3l1.1-1.1-2.6-2.7-.9 1-.7-.7a3.4 3.4 0 0 0 .8-1.6l.8-.8 3.7 3.7 1-1 .9.8-3.3 3.3zM84.9 438.8c-1.6-1.6-1.7-3.1-.6-4.1s2.5-.9 4.1.6 1.6 3.1.6 4.1-2.6.9-4.1-.6zm2.5-2.6c-1.2-1.1-1.9-1.1-2.3-.7s-.5 1.2.7 2.4 1.9 1.2 2.4.7.4-1.2-.8-2.4zm-1.3 1.4c-.4-.4-.4-.8-.1-1.1a.8.8 0 0 1 1.1 0 .7.7 0 0 1 0 1.1.7.7 0 0 1-1 0zM89.2 434.5c-1.6-1.5-1.7-3-.6-4.1s2.5-.9 4.1.6 1.6 3.1.6 4.2-2.6.9-4.1-.7zm2.5-2.5c-1.1-1.2-1.8-1.2-2.3-.8s-.5 1.2.7 2.4 1.9 1.2 2.4.7.4-1.2-.8-2.3zm-1.3 1.3a.7.7 0 0 1 0-1.1.7.7 0 0 1 1 0 .7.7 0 0 1 0 1.1.7.7 0 0 1-1 0zM95.1 431.5l1.2-1.2-2.6-2.6-1 .9-.6-.6a6.5 6.5 0 0 0 .8-1.7l.7-.7 3.7 3.7 1.1-1.1.8.9-3.3 3.2zM99.4 427.2l1.2-1.2-2.6-2.6-1 .9-.6-.6a7.9 7.9 0 0 0 .8-1.6l.8-.8 3.6 3.7 1.1-1 .8.8-3.2 3.3zM102.1 421.7c-1.5-1.6-1.6-3.1-.6-4.1s2.6-1 4.1.6 1.7 3.1.6 4.1-2.6.9-4.1-.6zm2.6-2.6c-1.2-1.2-1.9-1.2-2.4-.7s-.4 1.1.7 2.3 2 1.2 2.4.8.5-1.2-.7-2.4zm-1.4 1.3a.7.7 0 0 1 0-1 .7.7 0 0 1 1.1 0 .8.8 0 0 1 0 1.1.7.7 0 0 1-1.1-.1zM106.4 417.4c-1.5-1.6-1.6-3.1-.6-4.1s2.6-1 4.1.6 1.7 3.1.6 4.1-2.5.9-4.1-.6zm2.6-2.6c-1.2-1.2-1.9-1.1-2.3-.7s-.5 1.2.7 2.3 1.9 1.3 2.3.8.5-1.2-.7-2.4zm-1.4 1.4a.8.8 0 1 1 1.1 0 .8.8 0 0 1-1.1 0z"/></g></g></g><g id="normalvar"><path class="cls-4" d="M161.5 73.9a5.6 5.6 0 0 1 5.7 5.7v116.2a5.6 5.6 0 0 1-5.7 5.6H45.3a5.7 5.7 0 0 1-5.7-5.6V79.6a5.7 5.7 0 0 1 5.7-5.7h116.2m0-3H45.3a8.7 8.7 0 0 0-8.7 8.7v116.2a8.6 8.6 0 0 0 8.7 8.6h116.2a8.6 8.6 0 0 0 8.7-8.6V79.6a8.7 8.7 0 0 0-8.7-8.7z"/><g id="lg-4" data-name="lg"><circle class="cls-4" cx="103.4" cy="137.7" r="56.7"/><path class="cls-3" d="M63.3 97.6a56.7 56.7 0 0 0 0 80.1l80.2-80.1a56.6 56.6 0 0 0-80.2 0z"/><g id="läufer-4" data-name="läufer"><path class="cls-3" d="M129.9 149.8a7.4 7.4 0 0 0-.8-3.8.3.3 0 0 1 0-.4c0-.2.1-.2.2-.9a6.3 6.3 0 0 0-.4-2.5 3.9 3.9 0 0 0-2-1.3l-2.7-.7-.2-.2v-2.1a1.4 1.4 0 0 0 .7-.9v-.9c0-.3.1-3-2.5-3a2.5 2.5 0 0 0-2.8 2.7 3.9 3.9 0 0 0 .1 1.5 3.8 3.8 0 0 0 .8 1.1v1.8c0 .1 0 .2-.1.2h-.8c-1.4.2-3.8.7-4.5 1.9s-.9 4-1.1 4.5.2 1.7.3 2.4l.5 3.3a2.9 2.9 0 0 1 .4.8c-.1.3-.1 2.5.4 2.9s1.1 2.8 1.6 2.8-.1-1.8-.1-2.1 0-.1.1-.2.1-.1.1-.2v-1.2a3.6 3.6 0 0 0-.1-1.4c-.2-.4-1-.5-.9-1.1s.4-2.8.4-3.5-.5-2.1-.5-2.1l1.2-1.6a15.8 15.8 0 0 1 .3 2.8c0 .6.7 1 .7 2.6a9 9 0 0 1-.2 2.3c-.1.9 0 2.8 0 3.2l-.5 2v.2c.1.4.6 2 1 3s1.8 2.3 1.8 2.5a20.7 20.7 0 0 0-.4 2.3 12 12 0 0 0 .7 2.7 8.1 8.1 0 0 1 .3 2.4c.1.7.7 2.1.8 3.2a3.3 3.3 0 0 1-.4 1.9 2.6 2.6 0 0 1-.1 1.5c-.2.4-1 2.5-.6 3.1s1.1.6 1.5.7-.4 2.8 1.3 2.9 1.6-2.2 1.4-2.9a12.1 12.1 0 0 1 .3-3.9 29.3 29.3 0 0 0 1.2-2.8c.4-.9 0-3.6 0-4.2a8.5 8.5 0 0 1 .6-1.9c.1-.3.5-2 .6-2.7s.8-3.8.9-4.6.1-3.6-.3-4.6a24.5 24.5 0 0 1-.8-5.7c.3 1.1 2 2.2 2.6 1.5s-.1-2.6 0-3.3zm-6 20.8c-.1.6-.5 2.2-.6 2.8h-.1a10.7 10.7 0 0 1-.1-2.5c.1-.5.3-2.1.4-2.8h.1a19 19 0 0 1 .3 2.5z"/><path class="cls-3" d="M129 150.2a4.8 4.8 0 0 0-.6-1.4 8.4 8.4 0 0 1-1.4-2.2c-.3-.7-.3-2.6-.6-3.2a7.6 7.6 0 0 0-1.5-2.1c-.2-.1-.1.2-.2.4s.5 1.5.6 1.8-.5-.6-.5-.4.3 1.2.3 1.3l.2 1.5.7 1.4c.1.3.7 2.8.8 3s.4 1.3.4 1.3zM120 135.1h.2a4.9 4.9 0 0 0 1.6.5 4.8 4.8 0 0 0 2-.4c.4-.4.4 2.6.2 2.8s-1 1.8-1.7 1.8a3.6 3.6 0 0 1-2-1.4 14.5 14.5 0 0 1-.4-2.5 2 2 0 0 0 .1-.8z"/></g><g id="text-4" data-name="text"><path class="cls-4" d="m57.3 131.3-.8-1a2.5 2.5 0 0 0 1-1.5c.1-.6 0-.9-.4-1s-.6.3-1 .8l-.5.7a1.7 1.7 0 0 1-1.9 1 2 2 0 0 1-1.4-2.6 2.8 2.8 0 0 1 1.2-2l.7.9a2.3 2.3 0 0 0-.7 1.4c-.1.5 0 .8.4.9s.6-.3.9-.9l.5-.7a1.8 1.8 0 0 1 2-1c1 .2 1.7 1.3 1.4 2.8a3.3 3.3 0 0 1-1.4 2.2zM57 125.2a2.4 2.4 0 0 1-1.7-3.1 2.4 2.4 0 0 1 3.2-1.6 2.5 2.5 0 0 1 1.6 3.2 2.3 2.3 0 0 1-3.1 1.5zm1-3.3a1.1 1.1 0 0 0-1.6.5c-.2.6.2 1.1 1 1.4s1.4.1 1.6-.5-.2-1.1-1-1.4zM59.5 119.7l-2.7-1.3.6-1.3 2.5 1.2c.6.3.9.2 1.2-.3a1.5 1.5 0 0 0-.1-1.1l-2.9-1.3.6-1.3 4.4 2.1-.5 1-.7-.2a1.9 1.9 0 0 1 0 1.8c-.4 1.1-1.3 1.2-2.4.7zM59.9 112.3l.6-1 .9.5h.1a2 2 0 0 1 0-2.2c.3-.4.4-.6.7-.7l.9.9-.6.6a1.8 1.8 0 0 0 .1 2l2.1 1.4-.8 1.2zM64.9 109a2.5 2.5 0 0 1-.1-3.7 2.4 2.4 0 0 1 1.6-1l.3 1.1a2.3 2.3 0 0 0-1 .5 1.3 1.3 0 0 0 .2 2 1.2 1.2 0 0 0 1.9-.2 2.6 2.6 0 0 0 .5-1.2h1a3.2 3.2 0 0 1-.7 2 2.4 2.4 0 0 1-3.7.5zM68.7 104.6a2.5 2.5 0 0 1 .1-3.6 2.3 2.3 0 0 1 3.3.1l.4.5-2.4 2.3a1.2 1.2 0 0 0 1.7-.2 1.9 1.9 0 0 0 .7-1.1l1 .3a3.9 3.9 0 0 1-1.1 1.7 2.6 2.6 0 0 1-3.7 0zm.7-1.4 1.6-1.4a1 1 0 0 0-1.4 0 1 1 0 0 0-.2 1.4zM77.7 96.5c-1-1.9-.4-3.6 1.1-4.4a2.4 2.4 0 0 1 2-.2l-.2 1.2a1.7 1.7 0 0 0-1.2.1c-.8.4-1 1.4-.4 2.5s1.5 1.5 2.4 1.1a1.4 1.4 0 0 0 .7-1.1l1.1.4a2.3 2.3 0 0 1-1.4 1.8 2.8 2.8 0 0 1-4.1-1.4zM83.2 94.4a2.6 2.6 0 0 1 1.4-3.3 2.4 2.4 0 0 1 3.3 1.4 2.6 2.6 0 0 1-1.4 3.3 2.4 2.4 0 0 1-3.3-1.4zm3.3-1.3c-.3-.8-.8-1.2-1.5-.9s-.7.8-.4 1.6.8 1.2 1.5.9.7-.8.4-1.6zM88.8 92.2a2.4 2.4 0 0 1 1.4-3 1.9 1.9 0 0 1 1.3.2l-.2-.7-.4-1.6 1.4-.3 1.7 6.6-1.2.3-.2-.5a1.9 1.9 0 0 1-1.2 1c-1.2.3-2.2-.4-2.6-2zm3.4.1-.5-1.9a.8.8 0 0 0-.8-.1c-.6.1-.9.6-.7 1.5s.7 1.3 1.3 1.1.5-.2.7-.6zM94.7 90.8a2.5 2.5 0 0 1 2.2-2.9 2.3 2.3 0 0 1 2.6 2.1v.6l-3.3.4a1.3 1.3 0 0 0 1.6.9l1.2-.5.5.8a4.2 4.2 0 0 1-1.8.8 2.5 2.5 0 0 1-3-2.2zm1.4-.7 2.1-.3a1.1 1.1 0 0 0-1.1-.8 1.1 1.1 0 0 0-1 1.1z"/><path class="cls-3" d="M143.1 127.8c0-2.1 1-3.3 2.5-3.3s2.6 1.2 2.6 3.3-1 3.4-2.6 3.4-2.5-1.2-2.5-3.4zm3.6 0c0-1.3-.4-2-1.1-2s-1.1.7-1.1 2 .5 2.1 1.1 2.1 1.1-.7 1.1-2.1zM143.2 137.7a3.1 3.1 0 0 1 3.1-3.4 3 3 0 0 1 1.9.8l-.8.9a1.5 1.5 0 0 0-1.1-.4c-.9 0-1.6.7-1.6 2s.7 2.1 1.6 2.1a1.4 1.4 0 0 0 1.2-.6l.8.9a2.7 2.7 0 0 1-2.1.9 2.9 2.9 0 0 1-3-3.2zM143.4 144.2h2.2c1.4 0 2.5.5 2.5 2a1.8 1.8 0 0 1-1.1 1.8l1.4 2.6h-1.6l-1.2-2.3h-.8v2.3h-1.4zm2.1 3c.8 0 1.2-.4 1.2-1s-.4-.8-1.2-.8h-.7v1.8z"/><path class="cls-4" d="M67.7 135.1c-1.6-1.5-1.7-3-.6-4.1s2.5-.9 4.1.6 1.6 3.1.6 4.2-2.6.9-4.1-.7zm2.5-2.5c-1.2-1.2-1.9-1.2-2.3-.7s-.5 1.1.7 2.3 1.9 1.2 2.4.8.4-1.2-.8-2.4zm-1.3 1.3a.7.7 0 0 1 0-1.1.7.7 0 0 1 1 0 .7.7 0 0 1 0 1.1.7.7 0 0 1-1 0zM73.6 132.1l1.2-1.2-2.7-2.6-.9.9-.7-.6a5.3 5.3 0 0 0 .9-1.6l.7-.8 3.7 3.7 1.1-1 .8.8-3.3 3.3zM76.3 126.6c-1.6-1.6-1.7-3.1-.6-4.1s2.6-1 4.1.6 1.7 3.1.6 4.1-2.6.9-4.1-.6zm2.6-2.6c-1.2-1.2-1.9-1.2-2.4-.7s-.4 1.1.7 2.3 1.9 1.2 2.4.8.4-1.2-.7-2.4zm-1.4 1.3a.7.7 0 0 1 0-1 .7.7 0 0 1 1.1 0 .8.8 0 0 1 0 1.1.7.7 0 0 1-1.1-.1zM82.2 123.5l1.2-1.1-2.6-2.7-1 1-.6-.7a7.9 7.9 0 0 0 .8-1.6l.8-.8 3.7 3.7 1-1 .8.9-3.2 3.2zM86.5 119.3l1.2-1.2-2.6-2.6-1 .9-.6-.7a4.8 4.8 0 0 0 .8-1.6l.8-.8 3.7 3.7 1-1 .8.9-3.2 3.2zM90.8 115l1.2-1.2-2.6-2.6-.9.9-.7-.6a5.1 5.1 0 0 0 .8-1.7l.8-.7 3.7 3.7 1-1.1.9.9-3.3 3.2zM95.2 110.7l1.1-1.2-2.6-2.6-.9.9-.7-.6a3.3 3.3 0 0 0 .8-1.7l.8-.7 3.7 3.7 1-1 .9.8-3.3 3.3zM99.5 106.4l1.1-1.1-2.6-2.7-.9 1-.7-.7a3.4 3.4 0 0 0 .8-1.6l.8-.8 3.7 3.7 1-1 .9.8-3.3 3.3zM77.8 145l1.2-1.1-2.6-2.7-1 1-.6-.7a4.8 4.8 0 0 0 .8-1.6l.8-.8 3.7 3.7 1-1 .9.8-3.3 3.3zM82.2 140.7l1.1-1.1-2.6-2.7-.9 1-.7-.7a3.4 3.4 0 0 0 .8-1.6l.8-.8 3.7 3.7 1-1 .9.9-3.3 3.2zM84.9 135.2c-1.6-1.6-1.7-3-.6-4.1s2.5-.9 4.1.6 1.6 3.1.6 4.1-2.6.9-4.1-.6zm2.5-2.6c-1.2-1.1-1.9-1.1-2.3-.7s-.5 1.2.7 2.4 1.9 1.2 2.4.7.4-1.2-.8-2.4zm-1.3 1.4c-.4-.4-.4-.8-.1-1.1a.8.8 0 0 1 1.1 0 .7.7 0 0 1 0 1.1.7.7 0 0 1-1 0zM89.2 130.9c-1.6-1.5-1.7-3-.6-4.1s2.5-.9 4.1.6 1.6 3.1.6 4.2-2.6.9-4.1-.7zm2.5-2.5c-1.1-1.2-1.8-1.2-2.3-.8s-.5 1.2.7 2.4 1.9 1.2 2.4.7.4-1.1-.8-2.3zm-1.3 1.3a.7.7 0 0 1 0-1.1.7.7 0 0 1 1 0 .7.7 0 0 1 0 1.1.7.7 0 0 1-1 0zM95.1 127.9l1.2-1.2-2.6-2.6-1 .9-.6-.6a6.5 6.5 0 0 0 .8-1.7l.7-.7 3.7 3.7 1.1-1.1.8.9-3.3 3.2zM99.4 123.6l1.2-1.2-2.6-2.6-1 .9-.6-.6a7.9 7.9 0 0 0 .8-1.6l.8-.8 3.6 3.7 1.1-1 .8.8-3.2 3.3zM102.1 118.1c-1.5-1.6-1.6-3.1-.6-4.1s2.6-1 4.1.6 1.7 3.1.6 4.1-2.6.9-4.1-.6zm2.6-2.6c-1.2-1.2-1.9-1.2-2.4-.7s-.4 1.1.7 2.3 2 1.2 2.4.8.5-1.2-.7-2.4zm-1.4 1.3a.7.7 0 0 1 0-1 .7.7 0 0 1 1.1 0 .8.8 0 0 1 0 1.1.7.7 0 0 1-1.1-.1zM106.4 113.8c-1.5-1.6-1.6-3.1-.6-4.1s2.6-1 4.1.6 1.7 3.1.6 4.1-2.5.9-4.1-.6zm2.6-2.6c-1.2-1.2-1.9-1.1-2.3-.7s-.5 1.2.7 2.3 1.9 1.3 2.3.8.5-1.2-.7-2.4zm-1.4 1.4a.8.8 0 1 1 1.1 0 .8.8 0 0 1-1.1 0z"/></g></g></g><g id="grauvar"><path class="cls-4" d="M161.5 221.4a5.6 5.6 0 0 1 5.7 5.6v116.3a5.6 5.6 0 0 1-5.7 5.6H45.3a5.7 5.7 0 0 1-5.7-5.6V227a5.7 5.7 0 0 1 5.7-5.6h116.2m0-3H45.3a8.6 8.6 0 0 0-8.7 8.6v116.3a8.7 8.7 0 0 0 8.7 8.6h116.2a8.7 8.7 0 0 0 8.7-8.6V227a8.6 8.6 0 0 0-8.7-8.6z"/><g id="lg-5" data-name="lg"><circle class="cls-10" cx="103.4" cy="285.1" r="56.7"/><path class="cls-5" d="M63.3 245.1a56.7 56.7 0 0 0 0 80.1l80.2-80.1a56.6 56.6 0 0 0-80.2 0z"/><g id="läufer-5" data-name="läufer"><path class="cls-5" d="M129.9 297.3a7.2 7.2 0 0 0-.8-3.8c-.1-.2-.1-.3 0-.4s.1-.2.2-1a6.1 6.1 0 0 0-.4-2.4 3.9 3.9 0 0 0-2-1.3l-2.7-.7a.2.2 0 0 1-.2-.2v-2.1a1.4 1.4 0 0 0 .7-.9v-1c0-.3.1-3-2.5-3a2.5 2.5 0 0 0-2.8 2.7 3.9 3.9 0 0 0 .1 1.5 6.3 6.3 0 0 0 .8 1.1v2h-.8c-1.4.2-3.8.7-4.5 1.9s-.9 4-1.1 4.5.2 1.7.3 2.4l.5 3.3a2.9 2.9 0 0 1 .4.8c-.1.2-.1 2.5.4 2.9s1.1 2.8 1.6 2.7-.1-1.7-.1-2 0-.2.1-.2.1-.1.1-.2v-1.2a3.4 3.4 0 0 0-.1-1.4c-.2-.4-1-.5-.9-1.1s.4-2.8.4-3.5-.5-2.2-.5-2.2l1.2-1.5a14.5 14.5 0 0 1 .3 2.7c0 .6.7 1.1.7 2.7a9 9 0 0 1-.2 2.3c-.1.9 0 2.8 0 3.1l-.5 2v.3c.1.4.6 2 1 3s1.8 2.3 1.8 2.5a17.1 17.1 0 0 0-.4 2.3 12 12 0 0 0 .7 2.7 7.8 7.8 0 0 1 .3 2.4c.1.7.7 2.1.8 3.1a3.4 3.4 0 0 1-.4 2 2.7 2.7 0 0 1-.1 1.5c-.2.4-1 2.5-.6 3.1s1.1.6 1.5.6-.4 2.9 1.3 3 1.6-2.3 1.4-3a11.7 11.7 0 0 1 .3-3.8c.4-.7 1-2.4 1.2-2.8s0-3.6 0-4.2a8.5 8.5 0 0 1 .6-1.9c.1-.3.5-2 .6-2.7s.8-3.8.9-4.6.1-3.6-.3-4.6a24.6 24.6 0 0 1-.8-5.8c.3 1.1 2 2.1 2.6 1.5s-.2-2.4-.1-3.1zm-6 20.7c-.1.7-.5 2.2-.6 2.9h-.1a10.7 10.7 0 0 1-.1-2.5c.1-.5.3-2.1.4-2.8h.1a19.7 19.7 0 0 1 .3 2.4z"/><path class="cls-5" d="M129 297.7a4.8 4.8 0 0 0-.6-1.4 10.5 10.5 0 0 1-1.4-2.2c-.3-.7-.3-2.6-.6-3.2a7.6 7.6 0 0 0-1.5-2.1c-.2-.1-.1.2-.2.4s.5 1.4.6 1.8-.5-.6-.5-.4.3 1.2.3 1.3.2 1.4.2 1.5.6 1.1.7 1.4.7 2.8.8 3 .4 1.2.4 1.2zM120 282.6h.2a9.8 9.8 0 0 0 1.6.5 3.7 3.7 0 0 0 2-.5c.4-.3.4 2.7.2 2.9s-1 1.7-1.7 1.7a3.5 3.5 0 0 1-2-1.3 18.7 18.7 0 0 1-.4-2.5 2 2 0 0 0 .1-.8z"/></g><path class="cls-10" d="m57.3 278.8-.8-1a2.5 2.5 0 0 0 1-1.5c.1-.6 0-1-.4-1s-.6.2-1 .8l-.5.7a1.7 1.7 0 0 1-1.9 1c-1.1-.2-1.7-1.3-1.4-2.7a2.8 2.8 0 0 1 1.2-1.9l.7.9a2.3 2.3 0 0 0-.7 1.4c-.1.4 0 .8.4.9s.6-.4.9-.9l.5-.7a1.8 1.8 0 0 1 2-1c1 .2 1.7 1.2 1.4 2.8a3.8 3.8 0 0 1-1.4 2.2zM57 272.7a2.5 2.5 0 0 1-1.7-3.2 2.4 2.4 0 0 1 3.2-1.5 2.4 2.4 0 0 1 1.6 3.1 2.3 2.3 0 0 1-3.1 1.6zm1-3.3a1.1 1.1 0 0 0-1.6.5c-.2.6.2 1.1 1 1.4s1.4.1 1.6-.5-.2-1.1-1-1.4zM59.5 267.1l-2.7-1.3.6-1.3 2.5 1.3c.6.2.9.2 1.2-.3a1.5 1.5 0 0 0-.1-1.1l-2.9-1.3.6-1.3 4.4 2-.5 1.1-.7-.2a2.1 2.1 0 0 1 0 1.9c-.4 1-1.3 1.1-2.4.5zM59.9 259.8l.6-1 .9.5h.1a2.1 2.1 0 0 1 0-2.3c.3-.3.4-.5.7-.6l.9.8-.6.7a1.8 1.8 0 0 0 .1 2l2.1 1.4-.8 1.2zM64.9 256.5a2.6 2.6 0 0 1-.1-3.8 2.2 2.2 0 0 1 1.6-.9l.3 1c-.4.2-.8.3-1 .6a1.3 1.3 0 0 0 .2 2 1.3 1.3 0 0 0 1.9-.2 2.9 2.9 0 0 0 .5-1.3l1 .2a3.5 3.5 0 0 1-.7 2 2.5 2.5 0 0 1-3.7.4zM68.7 252.1a2.5 2.5 0 0 1 .1-3.6 2.1 2.1 0 0 1 3.3.1l.4.5-2.4 2.3a1.2 1.2 0 0 0 1.7-.3 1.6 1.6 0 0 0 .7-1.1l1 .3a4.2 4.2 0 0 1-1.1 1.8 2.6 2.6 0 0 1-3.7 0zm.7-1.4 1.6-1.5a1.1 1.1 0 0 0-1.6 1.5zM77.7 244c-1-1.9-.4-3.6 1.1-4.4a2.4 2.4 0 0 1 2-.2l-.2 1.1a1.3 1.3 0 0 0-1.2.2c-.8.4-1 1.4-.4 2.5s1.5 1.5 2.4 1.1a1.6 1.6 0 0 0 .7-1.1l1.1.4a2.3 2.3 0 0 1-1.4 1.8 2.8 2.8 0 0 1-4.1-1.4zM83.2 241.8a2.4 2.4 0 0 1 1.4-3.2 2.4 2.4 0 0 1 3.3 1.4 2.6 2.6 0 0 1-1.4 3.3 2.5 2.5 0 0 1-3.3-1.5zm3.3-1.2c-.3-.8-.8-1.2-1.5-1s-.7.9-.4 1.7.8 1.2 1.5.9.7-.9.4-1.6zM88.8 239.7a2.4 2.4 0 0 1 1.4-3 1.9 1.9 0 0 1 1.3.2l-.2-.7-.4-1.6 1.4-.4 1.7 6.7-1.2.3-.2-.5a2.3 2.3 0 0 1-1.2 1c-1.2.3-2.2-.5-2.6-2zm3.4.1-.5-1.9a.8.8 0 0 0-.8-.1c-.6.1-.9.6-.7 1.5s.7 1.3 1.3 1.1.5-.2.7-.6zM94.7 238.3a2.5 2.5 0 0 1 2.2-2.9 2.2 2.2 0 0 1 2.6 2v.7l-3.3.4c.2.7.8.9 1.6.8a2.1 2.1 0 0 0 1.2-.5l.5.8a3.4 3.4 0 0 1-1.8.9 2.6 2.6 0 0 1-3-2.2zm1.4-.8 2.1-.2c-.2-.6-.6-.9-1.1-.8a1.1 1.1 0 0 0-1 1z"/><path class="cls-5" d="M143.1 275.3c0-2.1 1-3.3 2.5-3.3s2.6 1.2 2.6 3.3-1 3.3-2.6 3.3-2.5-1.1-2.5-3.3zm3.6 0c0-1.3-.4-2-1.1-2s-1.1.7-1.1 2 .5 2.1 1.1 2.1 1.1-.7 1.1-2.1zM143.2 285.1a3 3 0 0 1 3.1-3.3 3 3 0 0 1 1.9.8l-.8.9a1.6 1.6 0 0 0-1.1-.5c-.9 0-1.6.8-1.6 2.1s.7 2.1 1.6 2.1a1.7 1.7 0 0 0 1.2-.6l.8.9a2.7 2.7 0 0 1-2.1.9 3 3 0 0 1-3-3.3zM143.4 291.7h2.2c1.4 0 2.5.5 2.5 2a1.8 1.8 0 0 1-1.1 1.8l1.4 2.6h-1.6l-1.2-2.3h-.8v2.3h-1.4zm2.1 2.9q1.2 0 1.2-.9t-1.2-.9h-.7v1.8z"/><path class="cls-10" d="M67.7 282.6c-1.6-1.5-1.7-3-.6-4.1s2.5-.9 4.1.6 1.6 3.1.6 4.2-2.6.9-4.1-.7zm2.5-2.5c-1.2-1.2-1.9-1.2-2.3-.8s-.5 1.2.7 2.4 1.9 1.2 2.4.7.4-1.1-.8-2.3zm-1.3 1.3a.7.7 0 0 1 0-1.1.7.7 0 0 1 1 0 .7.7 0 0 1 0 1.1.7.7 0 0 1-1 0zM73.6 279.6l1.2-1.2-2.7-2.6-.9.9-.7-.6a4.7 4.7 0 0 0 .9-1.7l.7-.7 3.7 3.7 1.1-1 .8.8-3.3 3.2zM76.3 274c-1.6-1.5-1.7-3-.6-4s2.6-1 4.1.6 1.7 3 .6 4.1-2.6.9-4.1-.7zm2.6-2.5c-1.2-1.2-1.9-1.2-2.4-.7s-.4 1.1.7 2.3 1.9 1.2 2.4.8.4-1.2-.7-2.4zm-1.4 1.3a.8.8 0 0 1 0-1.1c.3-.3.7-.3 1.1.1a.7.7 0 0 1 0 1 .7.7 0 0 1-1.1 0zM82.2 271l1.2-1.1-2.6-2.7-1 1-.6-.7a7.9 7.9 0 0 0 .8-1.6l.8-.8 3.7 3.7 1-1 .8.8-3.2 3.3zM86.5 266.7l1.2-1.1-2.6-2.7-1 1-.6-.7a4.8 4.8 0 0 0 .8-1.6l.8-.8 3.7 3.7 1-1 .8.9-3.2 3.2zM90.8 262.5l1.2-1.2-2.6-2.6-.9.9-.7-.6a6.3 6.3 0 0 0 .8-1.7l.8-.8 3.7 3.7 1-1 .9.9-3.3 3.2zM95.2 258.2l1.1-1.2-2.6-2.6-.9.9-.7-.6a3.7 3.7 0 0 0 .8-1.7l.8-.7 3.7 3.7 1-1.1.9.9L96 259zM99.5 253.9l1.1-1.2-2.6-2.6-.9.9-.7-.6a3.3 3.3 0 0 0 .8-1.7l.8-.7 3.7 3.7 1-1 .9.8-3.3 3.3zM77.8 292.5l1.2-1.2-2.6-2.6-1 .9-.6-.6a4.4 4.4 0 0 0 .8-1.7l.8-.7 3.7 3.7 1-1 .9.8-3.3 3.3zM82.2 288.2l1.1-1.1-2.6-2.7-.9 1-.7-.7a3.4 3.4 0 0 0 .8-1.6l.8-.8 3.7 3.7 1-1 .9.8-3.3 3.3zM84.9 282.7c-1.6-1.6-1.7-3.1-.6-4.1s2.5-1 4.1.6 1.6 3.1.6 4.1-2.6.9-4.1-.6zm2.5-2.6c-1.2-1.2-1.9-1.1-2.3-.7s-.5 1.2.7 2.3 1.9 1.3 2.4.8.4-1.2-.8-2.4zm-1.3 1.4c-.4-.4-.4-.8-.1-1.1a.8.8 0 0 1 1.1 0 .7.7 0 0 1 0 1.1.7.7 0 0 1-1 0zM89.2 278.4c-1.6-1.6-1.7-3-.6-4.1s2.5-.9 4.1.6 1.6 3.1.6 4.1-2.6.9-4.1-.6zm2.5-2.6c-1.1-1.1-1.8-1.1-2.3-.7s-.5 1.2.7 2.4 1.9 1.2 2.4.7.4-1.2-.8-2.4zm-1.3 1.4a.7.7 0 0 1 0-1.1.7.7 0 0 1 1 0 .7.7 0 0 1 0 1.1.7.7 0 0 1-1 0zM95.1 275.4l1.2-1.2-2.6-2.6-1 .9-.6-.6a8.5 8.5 0 0 0 .8-1.7l.7-.7 3.7 3.7 1.1-1.1.8.9-3.3 3.2zM99.4 271.1l1.2-1.2-2.6-2.6-1 .9-.6-.6a6.5 6.5 0 0 0 .8-1.7l.8-.7 3.6 3.7 1.1-1 .8.8-3.2 3.2zM102.1 265.5c-1.5-1.5-1.6-3-.6-4s2.6-1 4.1.6 1.7 3 .6 4.1-2.6.9-4.1-.7zm2.6-2.5c-1.2-1.2-1.9-1.2-2.4-.7s-.4 1.1.7 2.3 2 1.2 2.4.8.5-1.2-.7-2.4zm-1.4 1.3a.8.8 0 0 1 0-1.1.7.7 0 0 1 1.1.1.7.7 0 0 1 0 1 .7.7 0 0 1-1.1 0zM106.4 261.3c-1.5-1.6-1.6-3.1-.6-4.1s2.6-1 4.1.6 1.7 3.1.6 4.1-2.5.9-4.1-.6zm2.6-2.6c-1.2-1.2-1.9-1.2-2.3-.7s-.5 1.1.7 2.3 1.9 1.2 2.3.8.5-1.2-.7-2.4zm-1.4 1.3a.7.7 0 0 1 0-1 .7.7 0 0 1 1.1 0 .8.8 0 0 1 0 1.1.7.7 0 0 1-1.1-.1z"/></g></g><g id="lg1"><path class="cls-4" d="M730.5 331.4a37.5 37.5 0 0 0 0 53.1l53.1-53.1a37.5 37.5 0 0 0-53.1 0z"/><g id="läufer-6" data-name="läufer"><path class="cls-4" d="M774.6 366a5.7 5.7 0 0 0-.5-2.6c-.1-.1-.1-.2 0-.2a2.4 2.4 0 0 0 .1-.7 3 3 0 0 0-.3-1.6 2.5 2.5 0 0 0-1.3-.9l-1.8-.4a.3.3 0 0 1-.1-.2v-1.3a1 1 0 0 0 .5-.6c0-.4 0-.6-.1-.7a1.6 1.6 0 0 0-1.6-2 1.8 1.8 0 0 0-1.9 1.8 3.4 3.4 0 0 0 .1 1l.5.7v1.2c0 .1 0 .1-.1.1h-.5c-.9.1-2.5.4-3 1.2a17.4 17.4 0 0 0-.7 3c-.2.4.1 1.1.2 1.6s.3 2.2.3 2.2l.3.5a3.2 3.2 0 0 0 .2 1.9c.4.3.8 1.9 1.1 1.9s0-1.2 0-1.4c0-.1.1-.1.1-.2v-.8a3.4 3.4 0 0 0-.1-.9c-.1-.2-.6-.3-.6-.7s.3-1.9.3-2.3-.4-1.5-.4-1.5l.8-1a16.4 16.4 0 0 1 .3 1.8c-.1.4.4.7.4 1.8s-.1.9-.1 1.5a14.6 14.6 0 0 0 0 2.1l-.4 1.3c.1.3.4 1.4.7 2.1a6.9 6.9 0 0 0 1.2 1.6 9.6 9.6 0 0 0-.3 1.5 7 7 0 0 0 .5 1.8 5.3 5.3 0 0 1 .2 1.6c0 .5.4 1.4.5 2.1s-.3 1.1-.2 1.3a4.1 4.1 0 0 1-.1 1c-.1.2-.6 1.6-.4 2s.7.4 1 .5-.3 1.8.8 1.9 1.1-1.5 1-1.9a5.5 5.5 0 0 1 .2-2.6 15.9 15.9 0 0 1 .8-1.8 13 13 0 0 0 0-2.8 4 4 0 0 1 .4-1.3c0-.2.3-1.3.4-1.8l.6-3a16.7 16.7 0 0 0-.2-3.1 16.2 16.2 0 0 1-.6-3.8h.1c.1.7 1.3 1.4 1.7 1s0-1.5 0-1.9zm-4 13.7a12.9 12.9 0 0 1-.4 1.9 10.3 10.3 0 0 1-.1-1.7c.1-.3.2-1.4.3-1.8h.1a8.6 8.6 0 0 1 .1 1.6z"/><path class="cls-4" d="m774 366.2-.3-.9a5 5 0 0 1-1-1.4c-.2-.5-.2-1.8-.4-2.2a10.4 10.4 0 0 0-1-1.4c-.2 0-.1.2-.1.3s.3 1 .3 1.2-.3-.4-.3-.3.3.8.3.9v1l.5.9c0 .2.4 1.8.4 2a4.1 4.1 0 0 1 .3.8zM768.1 356.2h.1l1 .3a3.5 3.5 0 0 0 1.4-.3c.3-.3.2 1.7.1 1.9s-.7 1.1-1.1 1.1a2.1 2.1 0 0 1-1.4-.9c0-.2-.2-1.3-.2-1.6a4.3 4.3 0 0 1 .1-.5z"/></g><g id="text-5" data-name="text"><path class="cls-10" d="m726.5 353.7-.5-.7a1.3 1.3 0 0 0 .6-1c.1-.4 0-.6-.2-.6s-.4.2-.7.5l-.3.5a1.4 1.4 0 0 1-1.3.7 1.4 1.4 0 0 1-.9-1.8 1.8 1.8 0 0 1 .8-1.3l.5.6c-.3.3-.5.5-.5.9s0 .6.2.6.4-.2.7-.6l.3-.4a1.2 1.2 0 0 1 1.3-.7c.7.1 1.1.8.9 1.9a2.4 2.4 0 0 1-.9 1.4zM726.3 349.6a1.5 1.5 0 0 1-1.1-2 1.6 1.6 0 0 1 2.1-1.1 1.6 1.6 0 0 1 1.1 2.1 1.6 1.6 0 0 1-2.1 1zm.7-2.1c-.5-.2-.9-.1-1.1.3s.2.7.7.9.9.1 1.1-.3a.8.8 0 0 0-.7-.9zM728 346l-1.8-.9.4-.8 1.7.8c.3.1.6.1.7-.2a.8.8 0 0 0 0-.7l-1.9-.9.4-.9 2.9 1.4-.4.7h-.4a1.7 1.7 0 0 1 0 1.2c-.3.5-.9.6-1.6.3zM728.2 341.1l.4-.7.7.3a1.4 1.4 0 0 1 0-1.5l.5-.4.5.5-.3.5a1 1 0 0 0 0 1.3l1.4.9-.5.8zM731.6 338.9a1.8 1.8 0 0 1-.1-2.5 1.4 1.4 0 0 1 1.1-.6l.2.7-.7.4a.9.9 0 0 0 1.4 1.2 1.6 1.6 0 0 0 .3-.9h.7a1.9 1.9 0 0 1-.5 1.3 1.6 1.6 0 0 1-2.4.4zM734.1 336a1.6 1.6 0 0 1 .1-2.4 1.4 1.4 0 0 1 2.1.1l.3.3-1.6 1.5a.9.9 0 0 0 1.2-.1 2 2 0 0 0 .4-.8l.6.2a2.3 2.3 0 0 1-.6 1.2 1.7 1.7 0 0 1-2.5 0zm.5-.9 1-1a.8.8 0 0 0-.9 0 .8.8 0 0 0-.1 1zM740.1 330.6a2 2 0 0 1 .7-2.9 2 2 0 0 1 1.3-.1v.7h-.8c-.6.3-.7 1-.3 1.7s1 1 1.6.7.4-.4.5-.7l.7.3a1.8 1.8 0 0 1-.9 1.2 1.9 1.9 0 0 1-2.8-.9zM743.8 329.2a1.6 1.6 0 0 1 .9-2.2 1.6 1.6 0 0 1 2.1 1 1.6 1.6 0 0 1-.9 2.2 1.6 1.6 0 0 1-2.1-1zm2.1-.8q-.3-.9-.9-.6c-.4.1-.5.5-.3 1s.5.8.9.6.5-.5.3-1zM747.5 327.8a1.5 1.5 0 0 1 .9-2 1.4 1.4 0 0 1 .9.1l-.2-.4-.2-1.1.9-.2 1.1 4.4-.8.2v-.3a1.6 1.6 0 0 1-.8.6c-.9.2-1.6-.3-1.8-1.3zm2.2 0-.3-1.2h-.6c-.3.1-.5.4-.4 1s.5.9.9.8a.7.7 0 0 0 .4-.6zM751.4 326.8a1.5 1.5 0 0 1 1.4-1.8 1.3 1.3 0 0 1 1.7 1.3v.4l-2.2.3c.2.5.6.6 1.1.6l.8-.4.4.6-1.3.5a1.6 1.6 0 0 1-1.9-1.5zm.9-.4 1.3-.2c-.1-.4-.3-.6-.7-.5a.7.7 0 0 0-.6.7z"/><path class="cls-4" d="M783.3 351.4c0-1.4.7-2.2 1.7-2.2s1.7.8 1.7 2.2-.7 2.2-1.7 2.2-1.7-.8-1.7-2.2zm2.5 0c0-.9-.3-1.4-.8-1.4s-.7.5-.7 1.4.3 1.4.7 1.4.8-.5.8-1.4zM783.4 357.9a2 2 0 0 1 2.1-2.2 1.7 1.7 0 0 1 1.2.5l-.5.6a.9.9 0 0 0-.7-.3c-.6 0-1.1.5-1.1 1.4a1.2 1.2 0 0 0 1.1 1.3 1.1 1.1 0 0 0 .8-.3l.5.5a1.5 1.5 0 0 1-1.4.7 2.1 2.1 0 0 1-2-2.2zM783.6 362.2h1.5a1.4 1.4 0 0 1 1.6 1.4 1.2 1.2 0 0 1-.8 1.2l1 1.7h-1.1l-.8-1.6h-.5v1.6h-.9zm1.4 2c.5 0 .7-.2.7-.6s-.2-.6-.7-.6h-.5v1.2z"/><path class="cls-10" d="M733.6 356.4c-1.1-1-1.1-2-.4-2.7s1.7-.6 2.7.4 1.1 2 .4 2.7-1.7.6-2.7-.4zm1.7-1.7c-.8-.8-1.3-.8-1.6-.5s-.3.8.5 1.6 1.2.8 1.5.5.3-.8-.4-1.6zm-1 .9a.5.5 0 0 1 0-.7.6.6 0 0 1 .8 0 .5.5 0 0 1 0 .7.6.6 0 0 1-.8 0zM737.5 354.4l.8-.8-1.8-1.7-.6.6-.4-.4a3.4 3.4 0 0 0 .5-1.1l.5-.5 2.5 2.4.6-.7.6.6-2.2 2.2zM739.3 350.7c-1.1-1-1.1-2-.4-2.7s1.7-.6 2.7.4 1.1 2.1.4 2.8-1.7.5-2.7-.5zm1.7-1.7c-.8-.8-1.3-.7-1.6-.4s-.3.7.5 1.5 1.3.8 1.6.5.2-.8-.5-1.6zm-.9.9c-.3-.2-.2-.5 0-.7a.5.5 0 1 1 0 .7zM743.2 348.7l.8-.7-1.8-1.8-.6.6-.4-.4a2.7 2.7 0 0 0 .5-1.1l.5-.5 2.5 2.5.7-.7.5.5-2.1 2.2zM746.1 345.9l.7-.8-1.7-1.7-.6.6-.5-.4a6.4 6.4 0 0 0 .6-1.1l.5-.5 2.4 2.4.7-.7.6.6-2.2 2.2zM748.9 343l.8-.7-1.7-1.8-.7.7-.4-.5a2.7 2.7 0 0 0 .5-1.1l.6-.5 2.4 2.5.7-.7.5.6-2.1 2.1zM751.8 340.2l.7-.8-1.7-1.7-.6.6-.4-.4.5-1.1.5-.5 2.4 2.4.7-.6.6.5-2.2 2.2zM754.6 337.4l.8-.8-1.7-1.7-.7.6-.4-.5a3.7 3.7 0 0 0 .6-1l.5-.6 2.4 2.5.7-.7.6.6-2.2 2.1zM740.3 362.9l.8-.7-1.8-1.8-.6.7-.4-.5a2.7 2.7 0 0 0 .5-1.1l.5-.5 2.5 2.5.7-.7.5.6-2.1 2.1zM743.2 360.1l.7-.8-1.7-1.7-.6.6-.5-.4a4.1 4.1 0 0 0 .6-1.1l.5-.5 2.4 2.4.7-.6.6.5-2.2 2.2zM744.9 356.4c-1-1-1-2-.3-2.7s1.6-.6 2.7.4 1.1 2.1.4 2.8-1.7.6-2.8-.5zm1.7-1.6c-.7-.8-1.2-.8-1.5-.5s-.3.7.5 1.5 1.2.8 1.5.5.3-.8-.5-1.5zm-.9.8a.5.5 0 0 1 0-.7.6.6 0 0 1 .8 0 .5.5 0 0 1 0 .7.5.5 0 0 1-.8 0zM747.8 353.6c-1-1-1.1-2-.4-2.7s1.7-.6 2.7.4 1.1 2 .4 2.7-1.7.6-2.7-.4zm1.7-1.7c-.8-.8-1.2-.8-1.5-.5s-.4.8.4 1.6 1.3.8 1.6.5.3-.8-.5-1.6zm-.9.9a.5.5 0 1 1 .7 0 .5.5 0 0 1-.7 0zM751.7 351.6l.8-.8-1.7-1.7-.7.6-.4-.4a4.1 4.1 0 0 0 .6-1.1l.5-.5 2.4 2.4.7-.6.6.5-2.2 2.2zM754.6 348.8l.8-.8-1.8-1.8-.6.7-.4-.5a3.1 3.1 0 0 0 .5-1l.5-.6 2.5 2.5.7-.7.5.6-2.1 2.1zM756.4 345.1c-1.1-1-1.1-2-.4-2.7s1.7-.6 2.7.4 1.1 2 .4 2.7-1.7.6-2.7-.4zm1.7-1.7c-.8-.8-1.3-.8-1.6-.5s-.3.8.5 1.6 1.3.8 1.6.5.3-.8-.5-1.6zm-.9.9c-.3-.2-.2-.5 0-.7a.5.5 0 1 1 0 .7zM759.2 342.3c-1-1.1-1.1-2.1-.4-2.8s1.7-.6 2.8.4 1.1 2.1.4 2.8-1.8.6-2.8-.4zm1.7-1.7c-.8-.8-1.2-.8-1.5-.5s-.3.8.5 1.5 1.2.8 1.5.5.3-.7-.5-1.5zm-.9.8a.5.5 0 1 1 .7-.7.5.5 0 0 1 0 .8.4.4 0 0 1-.7-.1z"/></g></g><g id="lg2"><g id="läufer-7" data-name="läufer"><path d="M774.6 480.5a5.2 5.2 0 0 0-.5-2.5.2.2 0 0 1 0-.3 1.5 1.5 0 0 0 .1-.6 3 3 0 0 0-.3-1.6 2.5 2.5 0 0 0-1.3-.9l-1.8-.4c0-.1-.1-.1-.1-.2v-1.4a.7.7 0 0 0 .5-.6c0-.3 0-.5-.1-.6a1.6 1.6 0 0 0-1.6-2 1.8 1.8 0 0 0-1.9 1.8 3.8 3.8 0 0 0 .1 1l.5.7v1.2h-.6c-.9.1-2.5.4-3 1.2a14.1 14.1 0 0 0-.7 3c-.2.3.1 1.1.2 1.5s.3 2.2.3 2.2a1.6 1.6 0 0 1 .3.6 3.3 3.3 0 0 0 .2 1.9c.4.3.8 1.9 1.1 1.8s0-1.2 0-1.3a.1.1 0 0 0 .1-.1v-.8a3.1 3.1 0 0 0-.1-.9c-.1-.3-.6-.3-.6-.7s.3-1.9.3-2.4-.4-1.4-.4-1.4l.8-1a16.4 16.4 0 0 1 .3 1.8c-.1.4.4.7.4 1.7s-.1 1-.1 1.6a14.6 14.6 0 0 0 0 2.1l-.4 1.3v.2c.1.3.4 1.3.7 2s1.2 1.5 1.2 1.7a9.6 9.6 0 0 0-.3 1.5 10.2 10.2 0 0 0 .5 1.8 5 5 0 0 1 .2 1.6c0 .4.4 1.4.5 2.1s-.3 1.1-.2 1.2a4.9 4.9 0 0 1-.1 1.1c-.1.2-.6 1.6-.4 2s.7.4 1 .4-.3 1.9.8 2 1.1-1.5 1-2a5.1 5.1 0 0 1 .2-2.5 18.2 18.2 0 0 1 .8-1.9 12.1 12.1 0 0 0 0-2.7 4 4 0 0 1 .4-1.3c0-.2.3-1.4.4-1.8s.5-2.5.6-3.1a15.6 15.6 0 0 0-.2-3 16.9 16.9 0 0 1-.6-3.8h.1c.1.7 1.3 1.4 1.7.9s0-1.6 0-2.1zm-4 13.8a11.6 11.6 0 0 1-.4 1.8 9.2 9.2 0 0 1-.1-1.6c.1-.3.2-1.4.3-1.8h.1a8.1 8.1 0 0 1 .1 1.6z" style="fill:url(#Unbenannter_Verlauf_71-2)"/><path d="M774 480.8a9.3 9.3 0 0 0-.3-1 3.9 3.9 0 0 1-1-1.4c-.2-.5-.2-1.7-.4-2.1a6.4 6.4 0 0 0-1-1.4c-.2-.1-.1.1-.1.2a13 13 0 0 1 .3 1.3c.1.2-.3-.4-.3-.3s.3.8.3.9v.9a9.3 9.3 0 0 0 .5 1c0 .2.4 1.8.4 1.9a9.2 9.2 0 0 1 .3.9z" style="fill:url(#Unbenannter_Verlauf_71-3)"/><path d="M768.1 470.8a.1.1 0 0 1 .1-.1l1 .3c.3 0 1.1 0 1.4-.3s.2 1.8.1 1.9-.7 1.2-1.1 1.2a2.6 2.6 0 0 1-1.4-.9c0-.2-.2-1.3-.2-1.7s.1-.3.1-.4z" style="fill:url(#Unbenannter_Verlauf_71-4)"/></g><path d="M730.5 445.9a37.5 37.5 0 0 0 0 53.1l53.1-53.1a37.5 37.5 0 0 0-53.1 0z" style="fill:url(#Unbenannter_Verlauf_71-5)"/><path class="cls-15" d="M783.3 465.9c0-1.4.7-2.1 1.7-2.1s1.7.7 1.7 2.1-.7 2.3-1.7 2.3-1.7-.8-1.7-2.3zm2.5 0c0-.8-.3-1.3-.8-1.3s-.7.5-.7 1.3.3 1.4.7 1.4.8-.4.8-1.4zM783.4 472.5a2 2 0 0 1 2.1-2.2 1.7 1.7 0 0 1 1.2.5l-.5.6a.9.9 0 0 0-.7-.3 1.2 1.2 0 0 0-1.1 1.3c0 .9.5 1.4 1.1 1.4a.9.9 0 0 0 .8-.4l.5.6a1.7 1.7 0 0 1-1.4.6 2 2 0 0 1-2-2.1zM783.6 476.8h1.5c.8 0 1.6.3 1.6 1.3a1.2 1.2 0 0 1-.8 1.2l1 1.7h-1.1l-.8-1.5h-.5v1.5h-.9zm1.4 2a.6.6 0 0 0 .7-.7c0-.4-.2-.5-.7-.5h-.5v1.2z"/><g id="text-6" data-name="text"><path class="cls-10" d="m726.5 468.3-.5-.7a1.3 1.3 0 0 0 .6-1c.1-.4 0-.6-.2-.7s-.4.2-.7.6l-.3.5a1.3 1.3 0 0 1-1.3.6c-.7-.1-1.1-.8-.9-1.7a1.8 1.8 0 0 1 .8-1.3l.5.6a1.1 1.1 0 0 0-.5.9.4.4 0 0 0 .2.6c.3 0 .4-.2.7-.6l.3-.5a1 1 0 0 1 1.3-.6c.7.1 1.1.8.9 1.8a2.4 2.4 0 0 1-.9 1.5zM726.3 464.2a1.6 1.6 0 0 1-1.1-2.1 1.6 1.6 0 0 1 2.1-1 1.6 1.6 0 0 1 1.1 2.1 1.6 1.6 0 0 1-2.1 1zm.7-2.2a.7.7 0 0 0-1.1.4c-.1.4.2.7.7.9a.7.7 0 0 0 1.1-.4c.1-.4-.2-.7-.7-.9zM728 460.5l-1.8-.8.4-.9 1.7.8c.3.2.6.2.7-.1a1.1 1.1 0 0 0 0-.8l-1.9-.9.4-.8 2.9 1.4-.4.7-.4-.2a1.9 1.9 0 0 1 0 1.3c-.3.6-.9.7-1.6.3zM728.2 455.6l.4-.6.7.3a1.4 1.4 0 0 1 0-1.5l.5-.5.5.6-.3.4a1.2 1.2 0 0 0 0 1.4l1.4.9-.5.8zM731.6 453.5a1.8 1.8 0 0 1-.1-2.5 1.9 1.9 0 0 1 1.1-.7l.2.7-.7.4a.9.9 0 0 0 .1 1.3.9.9 0 0 0 1.3-.1 1.1 1.1 0 0 0 .3-.8h.7a1.9 1.9 0 0 1-.5 1.3 1.6 1.6 0 0 1-2.4.4zM734.1 450.5a1.5 1.5 0 0 1 .1-2.3 1.3 1.3 0 0 1 2.1.1q.3.1.3.3l-1.6 1.5c.4.3.8.2 1.2-.2a1.6 1.6 0 0 0 .4-.7l.6.2a2.7 2.7 0 0 1-.6 1.2 1.8 1.8 0 0 1-2.5-.1zm.5-.9 1-.9a.6.6 0 0 0-.9 0 .6.6 0 0 0-.1.9zM740.1 445.2a1.9 1.9 0 0 1 .7-2.9 1.8 1.8 0 0 1 1.4-.2l-.2.8a.8.8 0 0 0-.8.1c-.5.3-.7.9-.3 1.7s1.1 1 1.6.7a1.2 1.2 0 0 0 .5-.7l.8.2a2 2 0 0 1-1 1.2 1.9 1.9 0 0 1-2.7-.9zM743.8 443.8a1.6 1.6 0 0 1 .9-2.2 1.6 1.6 0 0 1 2.1 1 1.5 1.5 0 0 1-.9 2.1 1.5 1.5 0 0 1-2.1-.9zm2.1-.9q-.3-.7-.9-.6c-.4.2-.5.6-.3 1.1s.5.8.9.6.5-.6.3-1.1zM747.5 442.4a1.5 1.5 0 0 1 .9-2 1.4 1.4 0 0 1 .9.1l-.2-.5-.2-1 .9-.3 1.1 4.4-.8.2v-.3c-.2.3-.5.6-.8.6s-1.6-.2-1.8-1.2zm2.2 0-.3-1.3a.6.6 0 0 0-.6 0c-.3.1-.5.4-.4 1s.5.8.9.7.3-.1.4-.4zM751.4 441.4a1.6 1.6 0 0 1 1.4-1.9 1.5 1.5 0 0 1 1.7 1.4v.4l-2.2.3a.9.9 0 0 0 1.1.5 1.3 1.3 0 0 0 .8-.3l.4.5a3.1 3.1 0 0 1-1.3.6 1.6 1.6 0 0 1-1.9-1.5zm.9-.5h1.3c-.1-.4-.3-.6-.7-.5a.6.6 0 0 0-.6.5zM733.6 471c-1.1-1.1-1.1-2.1-.4-2.7s1.7-.7 2.7.4 1.1 2 .4 2.7-1.7.6-2.7-.4zm1.7-1.7c-.8-.8-1.3-.8-1.6-.5s-.3.8.5 1.5 1.2.8 1.5.5.3-.7-.4-1.5zm-1 .9a.6.6 0 1 1 .8 0 .6.6 0 0 1-.8 0zM737.5 469l.8-.8-1.8-1.8-.6.7-.4-.5a2.7 2.7 0 0 0 .5-1.1l.5-.5 2.5 2.5.6-.7.6.6-2.2 2.1zM739.3 465.3c-1.1-1-1.1-2-.4-2.7s1.7-.6 2.7.4 1.1 2 .4 2.7-1.7.6-2.7-.4zm1.7-1.7c-.8-.8-1.3-.8-1.6-.5s-.3.8.5 1.6 1.3.8 1.6.5.2-.8-.5-1.6zm-.9.9c-.3-.2-.2-.5 0-.7a.5.5 0 1 1 0 .7zM743.2 463.3l.8-.8-1.8-1.7-.6.6-.4-.4a4.8 4.8 0 0 0 .5-1.1l.5-.5 2.5 2.4.7-.7.5.6-2.1 2.2zM746.1 460.5l.7-.8-1.7-1.8-.6.7-.5-.5a3 3 0 0 0 .6-1.1l.5-.5 2.4 2.5.7-.7.6.6-2.2 2.1zM748.9 457.6l.8-.8-1.7-1.7-.7.6-.4-.4a3.4 3.4 0 0 0 .5-1.1l.6-.5 2.4 2.4.7-.6.5.5-2.1 2.2zM751.8 454.8l.7-.8-1.7-1.7-.6.6-.4-.5a9.3 9.3 0 0 0 .5-1l.5-.5 2.4 2.4.7-.7.6.6-2.2 2.1zM754.6 451.9l.8-.7-1.7-1.8-.7.6-.4-.4a3 3 0 0 0 .6-1.1l.5-.5 2.4 2.5.7-.7.6.6-2.2 2.1zM740.3 477.5l.8-.8-1.8-1.7-.6.6-.4-.4a2.7 2.7 0 0 0 .5-1.1l.5-.5 2.5 2.4.7-.6.5.5-2.1 2.2zM743.2 474.7l.7-.8-1.7-1.7-.6.6-.5-.5a3.7 3.7 0 0 0 .6-1l.5-.5 2.4 2.4.7-.7.6.6-2.2 2.1zM744.9 471c-1-1-1-2-.3-2.7s1.6-.6 2.7.4 1.1 2 .4 2.7-1.7.6-2.8-.4zm1.7-1.7c-.7-.8-1.2-.8-1.5-.5s-.3.8.5 1.6 1.2.8 1.5.5.3-.8-.5-1.6zm-.9.9a.5.5 0 0 1 0-.7.6.6 0 0 1 .8 0 .5.5 0 0 1 0 .7.6.6 0 0 1-.8 0zM747.8 468.2c-1-1.1-1.1-2-.4-2.7s1.7-.7 2.7.4 1.1 2 .4 2.7-1.7.6-2.7-.4zm1.7-1.7c-.8-.8-1.2-.8-1.5-.5s-.4.8.4 1.5 1.3.9 1.6.6.3-.8-.5-1.6zm-.9.9a.6.6 0 0 1 0-.8.5.5 0 0 1 .7 0 .6.6 0 0 1 0 .8.5.5 0 0 1-.7 0zM751.7 466.2l.8-.8-1.7-1.8-.7.7-.4-.5a3.7 3.7 0 0 0 .6-1l.5-.6 2.4 2.5.7-.7.6.6-2.2 2.1zM754.6 463.3l.8-.7-1.8-1.8-.6.6-.4-.4a2.7 2.7 0 0 0 .5-1.1l.5-.5 2.5 2.5.7-.7.5.5-2.1 2.2zM756.4 459.7c-1.1-1.1-1.1-2.1-.4-2.8s1.7-.6 2.7.4 1.1 2.1.4 2.8-1.7.6-2.7-.4zm1.7-1.7c-.8-.8-1.3-.8-1.6-.5s-.3.8.5 1.5 1.3.8 1.6.5.3-.7-.5-1.5zm-.9.8c-.3-.2-.2-.5 0-.7a.5.5 0 0 1 .7 0 .6.6 0 0 1 0 .8.4.4 0 0 1-.7-.1zM759.2 456.8c-1-1-1.1-2-.4-2.7s1.7-.6 2.8.4 1.1 2.1.4 2.7-1.8.6-2.8-.4zm1.7-1.7c-.8-.8-1.2-.7-1.5-.4s-.3.7.5 1.5 1.2.8 1.5.5.3-.8-.5-1.6zm-.9.9a.5.5 0 1 1 .7-.7c.3.2.2.5 0 .7a.5.5 0 0 1-.7 0z"/></g></g></svg>