<svg xmlns:xlink="http://www.w3.org/1999/xlink" width="944.882" height="665.197" viewBox="0 0 708.661 498.898" xmlns="http://www.w3.org/2000/svg"><defs><style>*{stroke-linejoin:round;stroke-linecap:butt}</style></defs><g id="figure_1"><path d="M0 498.898h708.661V0H0z" style="fill:#fff" id="patch_1"/><g id="axes_1"><path d="M44.493 459.386h305.821V25.102H44.493z" style="fill:#fff" id="patch_2"/><path d="M58.394 459.386h79.434V45.782H58.394z" clip-path="url(#p764904731b)" style="fill:#0d468e" id="patch_3"/><path d="M157.686 459.386h79.435V252.584h-79.435z" clip-path="url(#p764904731b)" style="fill:#0d468e" id="patch_4"/><path d="M256.98 459.386h79.433V321.518H256.98z" clip-path="url(#p764904731b)" style="fill:#0d468e" id="patch_5"/><g id="matplotlib.axis_1"><g id="xtick_1"><g id="line2d_1"><defs><path id="m270ebd2d76" d="M0 0v3.5" style="stroke:#000;stroke-width:.8"/></defs><use xlink:href="#m270ebd2d76" x="98.111" y="459.386" style="stroke:#000;stroke-width:.8"/></g><g transform="matrix(.1 0 0 -.1 92.403 473.305)" id="text_1"><defs><path id="CMSS17-52" d="m2522 2099 12 6c999 345 1005 1020 1005 1139 0 594-614 1172-1536 1172H570V0h524v2041h941L3168 0h538L2522 2099zm-1428 333v1625h839c813 0 1101-450 1101-813 0-337-256-812-1101-812h-839z" transform="scale(.01563)"/><path id="CMSS17-31" d="M1818 4288h-122c-346-339-749-386-1158-397v-371c185 6 486 19 787 153V371H570V0h2003v371h-755v3917z" transform="scale(.01563)"/></defs><use xlink:href="#CMSS17-52" transform="scale(.99626)"/><use xlink:href="#CMSS17-31" transform="matrix(.99626 0 0 .99626 60.416 0)"/></g></g><g id="xtick_2"><use xlink:href="#m270ebd2d76" x="197.404" y="459.386" style="stroke:#000;stroke-width:.8" id="line2d_2"/><g transform="matrix(.1 0 0 -.1 191.696 473.305)" id="text_2"><defs><path id="CMSS17-32" d="M1651 1353c179 185 448 408 634 631 179 217 416 523 416 969 0 702-474 1335-1280 1335-634 0-999-397-1171-1016l249-344c141 580 339 950 839 950 550 0 857-447 857-938 0-586-448-1039-787-1377-378-376-749-758-1107-1154V0h2400v435H1613c-77 0-154-7-231-7H742v7l909 918z" transform="scale(.01563)"/></defs><use xlink:href="#CMSS17-52" transform="scale(.99626)"/><use xlink:href="#CMSS17-32" transform="matrix(.99626 0 0 .99626 60.416 0)"/></g></g><g id="xtick_3"><use xlink:href="#m270ebd2d76" x="296.696" y="459.386" style="stroke:#000;stroke-width:.8" id="line2d_3"/><g transform="matrix(.1 0 0 -.1 290.989 473.305)" id="text_3"><defs><path id="CMSS17-33" d="M1005 2060h435c602 0 774-528 774-896 0-502-281-896-742-896-358 0-864 181-1152 658-45-226-45-239-70-393 300-444 787-661 1235-661 729 0 1267 609 1267 1286 0 509-352 934-832 1094 384 211 666 608 666 1069 0 538-493 967-1095 967-550 0-979-340-1158-705 45-64 160-249 217-345 141 377 506 659 935 659 358 0 595-237 595-576 0-352-224-736-602-825-25 0-422-39-473-45v-391z" transform="scale(.01563)"/></defs><use xlink:href="#CMSS17-52" transform="scale(.99626)"/><use xlink:href="#CMSS17-33" transform="matrix(.99626 0 0 .99626 60.416 0)"/></g></g><g transform="matrix(.1 0 0 -.1 171.441 486.16)" id="text_4"><defs><path id="CMSSBX10-57" d="M6464 4109c26 89 26 115 26 121 0 186-173 186-263 186h-134c-128 0-307 0-384-281l-679-2506c-89-325-147-535-204-815h-7c-32 172-32 185-185 745l-692 2576c-70 248-198 281-384 281h-422c-134 0-314 0-390-281l-564-2087-160-629c-70-299-121-503-134-605h-6c-52 331-205 891-314 1292l-550 2035c-77 275-263 275-384 275H416c-90 0-262 0-262-186 0-6 0-32 25-121L1229 267C1299 0 1478 0 1613 0h422c135 0 314 0 391 293l672 2487c96 343 140 521 204 827h7c77-369 115-528 230-942l653-2398C4262 0 4442 0 4570 0h460c135 0 314 0 384 267l1050 3842z" transform="scale(.01563)"/><path id="CMSSBX10-69" d="M653 4480c-205 0-307-39-307-295v-294c0-205 64-288 300-288h333c307 0 307 134 307 435 0 307 0 442-307 442H653zm589-1845c0 206-45 309-308 309H698c-231 0-308-71-308-309V308C390 76 461 0 698 0h236c244 0 308 83 308 308v2327z" transform="scale(.01563)"/><path id="CMSSBX10-64" d="M3194 4113c0 200-45 303-308 303h-236c-244 0-308-84-308-303V2687c-288 276-608 321-806 321-1299 0-1299-1229-1299-1543 0-294 0-1529 1267-1529 269 0 544 76 819 371 0-237 90-301 307-301h256c244 0 308 83 308 307v3800zM2323 806c0-109 0-166-185-294-160-103-308-116-384-116-647 0-647 589-647 1069s0 1082 717 1082c186 0 358-64 499-199V806z" transform="scale(.01563)"/><path id="CMSSBX10-65" d="M2758 1388c148 0 308 7 308 295 0 837-384 1389-1338 1389-1024 0-1530-578-1530-1562C198 448 806-64 1811-64c243 0 608 32 1031 243 140 70 185 89 185 166 0 45-19 233-25 285-26 201-32 207-90 207-26 0-38 0-109-65-377-330-761-376-966-376-723 0-800 577-819 992h1740zm-1734 340c19 396 147 883 704 883 512 0 608-377 627-883H1024z" transform="scale(.01563)"/><path id="CMSSBX10-72" d="M1242 1456c0 601 505 848 908 873 116 6 128 6 128 173v301c0 128 0 173-115 173-179 0-646-65-947-754h-6v414c0 205-45 308-308 308H698c-231 0-308-71-308-308V305C390 76 461 0 698 0h236c244 0 308 83 308 305v1151z" transform="scale(.01563)"/><path id="CMSSBX10-73" d="M2534 914c0 363-192 589-307 693-256 233-480 272-749 324-352 64-608 116-608 369 0 265 212 317 461 317 429 0 659-162 826-304 64-65 77-65 102-65 64 0 77 58 83 84 13 52 77 413 77 445 0 102-339 192-409 218-256 70-461 77-628 77-288 0-1145 0-1145-921 0-318 141-512 313-667 224-207 474-253 839-324 185-32 512-91 512-376 0-304-250-349-499-349-282 0-640 84-941 447-32 32-51 51-90 51-64 0-77-58-83-97-13-90-90-459-90-523 0-115 474-262 480-269 352-108 615-108 724-108 326 0 1132 25 1132 978z" transform="scale(.01563)"/><path id="CMSSBX10-74" d="M1395 2483h570c77 0 307 0 307 230 0 231-230 231-307 231h-570v526c0 203-45 306-307 306H890c-231 0-308-71-308-306v-526H435c-70 0-307 0-307-231 0-230 230-230 307-230h128V858c0-647 231-922 672-922 58 0 339 0 672 102 109 32 480 147 480 269 0 19-13 64-51 198-32 129-45 167-102 167-32 0-39-6-77-45-71-51-243-192-512-192-154 0-250 109-250 533v1515z" transform="scale(.01563)"/><path id="CMSSBX10-61" d="M2970 2047c0 1018-973 1025-1293 1025-301 0-621-26-1050-205-134-58-166-77-166-148 0-44 38-419 45-471 6-39 38-71 83-71 32 0 51 19 70 38 275 292 595 434 992 434 346 0 448-213 448-595v-227c-224 0-1901-13-1901-965 0-453 359-926 922-926 218 0 698 64 998 506V313c0-205 45-307 308-307h236c244 0 308 83 308 307v1734zM2099 998c0-602-608-602-627-602-269 0-442 233-442 479 0 635 890 680 1069 687V998z" transform="scale(.01563)"/><path id="CMSSBX10-6e" d="M3200 2085c0 660-282 923-934 923-672 0-960-487-1044-660h-6v320c0 205-45 307-307 307H691c-230 0-307-70-307-307V307C384 76 454 0 691 0h256c243 0 307 83 307 307v1418c0 559 372 822 704 822 308 0 372-148 372-475V307c0-205 44-307 307-307h256c243 0 307 83 307 307v1778z" transform="scale(.01563)"/></defs><use xlink:href="#CMSSBX10-57" transform="scale(.99626)"/><use xlink:href="#CMSSBX10-69" transform="matrix(.99626 0 0 .99626 103.501 0)"/><use xlink:href="#CMSSBX10-64" transform="matrix(.99626 0 0 .99626 128.962 0)"/><use xlink:href="#CMSSBX10-65" transform="matrix(.99626 0 0 .99626 184.863 0)"/><use xlink:href="#CMSSBX10-72" transform="matrix(.99626 0 0 .99626 235.784 0)"/><use xlink:href="#CMSSBX10-73" transform="matrix(.99626 0 0 .99626 272.867 0)"/><use xlink:href="#CMSSBX10-74" transform="matrix(.99626 0 0 .99626 314.877 0)"/><use xlink:href="#CMSSBX10-61" transform="matrix(.99626 0 0 .99626 355.142 0)"/><use xlink:href="#CMSSBX10-6e" transform="matrix(.99626 0 0 .99626 407.447 0)"/><use xlink:href="#CMSSBX10-64" transform="matrix(.99626 0 0 .99626 463.348 0)"/></g></g><g id="matplotlib.axis_2"><g id="ytick_1"><g id="line2d_4"><defs><path id="mdd073e9534" d="M0 0h-3.5" style="stroke:#000;stroke-width:.8"/></defs><use xlink:href="#mdd073e9534" x="44.493" y="459.386" style="stroke:#000;stroke-width:.8"/></g><g transform="matrix(.1 0 0 -.1 24.763 462.846)" id="text_5"><defs><path id="CMR17-30" d="M2688 2038c0 392-6 1061-275 1575-237 450-615 611-947 611-308 0-698-142-941-604-256-483-282-1081-282-1582 0-367 7-926 205-1415 275-662 768-751 1018-751 294 0 742 121 1004 732 192 444 218 964 218 1434zM1466-26c-410 0-653 354-743 842-70 380-70 933-70 1293 0 495 0 906 83 1298 122 547 480 714 730 714 262 0 601-174 723-701 83-366 89-797 89-1311 0-418 0-933-76-1312-135-701-512-823-736-823z" transform="scale(.01563)"/><path id="CMMI12-3a" d="M1178 307c0 185-154 313-308 313-185 0-313-153-313-307C557 128 710 0 864 0c186 0 314 153 314 307z" transform="scale(.01563)"/></defs><use xlink:href="#CMR17-30" transform="scale(.99626)"/><use xlink:href="#CMMI12-3a" transform="matrix(.99626 0 0 .99626 45.69 0)"/><use xlink:href="#CMR17-30" transform="matrix(.99626 0 0 .99626 72.788 0)"/></g></g><g id="ytick_2"><use xlink:href="#mdd073e9534" x="44.493" y="390.452" style="stroke:#000;stroke-width:.8" id="line2d_5"/><g transform="matrix(.1 0 0 -.1 24.763 393.912)" id="text_6"><defs><path id="CMR17-32" d="M2669 990h-115c-64-453-116-530-141-568-32-51-493-51-583-51H602c230 249 678 702 1222 1225 390 370 845 804 845 1437 0 755-602 1191-1274 1191-704 0-1133-621-1133-1197 0-250 186-282 263-282 64 0 256 38 256 262 0 199-167 257-256 257-39 0-77-7-103-20 122 544 493 813 884 813 556 0 921-441 921-1024 0-556-326-1035-691-1450L262 147V0h2253l154 990z" transform="scale(.01563)"/></defs><use xlink:href="#CMR17-30" transform="scale(.99626)"/><use xlink:href="#CMMI12-3a" transform="matrix(.99626 0 0 .99626 45.69 0)"/><use xlink:href="#CMR17-32" transform="matrix(.99626 0 0 .99626 72.788 0)"/></g></g><g id="ytick_3"><use xlink:href="#mdd073e9534" x="44.493" y="321.518" style="stroke:#000;stroke-width:.8" id="line2d_6"/><g transform="matrix(.1 0 0 -.1 24.763 324.978)" id="text_7"><defs><path id="CMR17-34" d="M2150 4147c0 134-6 141-121 141L128 1254v-166h1651V460c0-230-13-294-461-294h-121V0c205 12 550 12 768 12 217 0 563 0 768-12v166h-122c-448 0-461 64-461 294v628h653v166h-653v2893zm-352-424V1254H256l1542 2469z" transform="scale(.01563)"/></defs><use xlink:href="#CMR17-30" transform="scale(.99626)"/><use xlink:href="#CMMI12-3a" transform="matrix(.99626 0 0 .99626 45.69 0)"/><use xlink:href="#CMR17-34" transform="matrix(.99626 0 0 .99626 72.788 0)"/></g></g><g id="ytick_4"><use xlink:href="#mdd073e9534" x="44.493" y="252.584" style="stroke:#000;stroke-width:.8" id="line2d_7"/><g transform="matrix(.1 0 0 -.1 24.763 256.044)" id="text_8"><defs><path id="CMR17-36" d="M678 2198c0 1514 717 1878 1133 1878 135 0 461-27 589-294-102 0-294 0-294-224 0-173 140-230 230-230 58 0 230 25 230 243 0 416-320 653-761 653-762 0-1562-813-1562-2213C243 257 966-128 1478-128c621 0 1210 559 1210 1423 0 806-518 1393-1171 1393-391 0-679-258-839-709v219zM1478 25c-787 0-787 1187-787 1425 0 464 218 1135 813 1135 109 0 422 0 634-445 115-251 115-516 115-838 0-348 0-606-135-864-140-265-345-413-640-413z" transform="scale(.01563)"/></defs><use xlink:href="#CMR17-30" transform="scale(.99626)"/><use xlink:href="#CMMI12-3a" transform="matrix(.99626 0 0 .99626 45.69 0)"/><use xlink:href="#CMR17-36" transform="matrix(.99626 0 0 .99626 72.788 0)"/></g></g><g id="ytick_5"><use xlink:href="#mdd073e9534" x="44.493" y="183.65" style="stroke:#000;stroke-width:.8" id="line2d_8"/><g transform="matrix(.1 0 0 -.1 24.763 187.11)" id="text_9"><defs><path id="CMR17-38" d="M1741 2289c403 205 813 514 813 1009 0 586-564 926-1082 926-582 0-1094-424-1094-1009 0-161 38-438 288-682 64-64 332-257 505-379-288-148-960-502-960-1209 0-663 627-1073 1248-1073 685 0 1261 494 1261 1150 0 585-390 855-646 1029l-333 238zm-839 566c-51 32-307 231-307 533 0 393 403 688 864 688 506 0 877-360 877-778 0-598-666-939-698-939-6 0-12 0-64 39l-672 457zm1178-1319c96-70 403-283 403-675 0-476-473-836-1011-836C890 25 448 443 448 951s390 933 832 1132l800-547z" transform="scale(.01563)"/></defs><use xlink:href="#CMR17-30" transform="scale(.99626)"/><use xlink:href="#CMMI12-3a" transform="matrix(.99626 0 0 .99626 45.69 0)"/><use xlink:href="#CMR17-38" transform="matrix(.99626 0 0 .99626 72.788 0)"/></g></g><g id="ytick_6"><use xlink:href="#mdd073e9534" x="44.493" y="114.716" style="stroke:#000;stroke-width:.8" id="line2d_9"/><g transform="matrix(.1 0 0 -.1 24.763 118.176)" id="text_10"><defs><path id="CMR17-31" d="M1702 4083c0 134-6 141-96 141-249-297-627-391-985-404-19 0-51 0-58-12-6-13-6-26-6-160 198 0 531 38 787 191V467c0-224-13-301-563-301H589V0c307 6 627 12 934 12s627-6 935-12v166h-192c-551 0-564 70-564 301v3616z" transform="scale(.01563)"/></defs><use xlink:href="#CMR17-31" transform="scale(.99626)"/><use xlink:href="#CMMI12-3a" transform="matrix(.99626 0 0 .99626 45.69 0)"/><use xlink:href="#CMR17-30" transform="matrix(.99626 0 0 .99626 72.788 0)"/></g></g><g id="ytick_7"><use xlink:href="#mdd073e9534" x="44.493" y="45.782" style="stroke:#000;stroke-width:.8" id="line2d_10"/><g transform="matrix(.1 0 0 -.1 24.763 49.242)" id="text_11"><use xlink:href="#CMR17-31" transform="scale(.99626)"/><use xlink:href="#CMMI12-3a" transform="matrix(.99626 0 0 .99626 45.69 0)"/><use xlink:href="#CMR17-32" transform="matrix(.99626 0 0 .99626 72.788 0)"/></g></g><g transform="matrix(0 -.1 -.1 0 18.272 265.954)" id="text_12"><defs><path id="CMSSBX10-53" d="M1728 2843c-141 32-538 180-538 546 0 546 544 559 762 559 358 0 678-83 992-392 102-96 109-103 134-103 39 0 71 20 90 116l96 558c13 52 13 64 13 84 0 51-7 57-167 140-454 224-832 257-1158 257-570 0-1562-135-1562-1334 0-457 237-752 359-880 326-335 627-399 1126-514 359-84 499-116 640-245 64-64 199-199 199-443 0-604-551-623-762-623-538 0-1005 219-1325 508-77 77-89 77-115 77-38 0-70-20-90-116l-96-558c-12-52-12-64-12-84 0-134 665-364 697-377 429-135 775-147 941-147 960 0 1562 428 1562 1423 0 720-532 1259-1172 1407l-614 141z" transform="scale(.01563)"/><path id="CMSSBX10-6f" d="M3315 1458c0 1062-512 1614-1555 1614-1069 0-1562-572-1562-1614C198 403 749-64 1754-64c1004 0 1561 460 1561 1522zM1760 435c-691 0-691 583-691 1101 0 498 0 1075 685 1075 691 0 691-570 691-1075 0-512 0-1101-685-1101z" transform="scale(.01563)"/><path id="CMSSBX10-6d" d="M5158 2059c0 654-281 917-934 917-454 0-806-212-1037-632-102 612-646 632-915 632-122 0-390 0-678-212-199-147-327-351-372-446h-6v318c0 205-45 308-307 308H691c-230 0-307-71-307-308V305C384 76 454 0 691 0h256c243 0 307 83 307 305v1399c0 570 391 811 704 811 308 0 378-133 378-469V305c0-229 70-305 307-305h256c243 0 307 83 307 305v1399c0 570 391 811 704 811 308 0 378-133 378-469V305c0-229 70-305 307-305h256c243 0 307 83 307 305v1754z" transform="scale(.01563)"/><path id="CMSSBX10-28" d="M2054 4800c-115 0-128 0-243-103-768-646-1261-1740-1261-3097 0-775 160-2112 1229-3079 135-121 147-121 275-121h116c102 0 172 0 172 83 0 19 0 32-76 115-404 493-845 1280-845 3002 0 1881 531 2624 883 3046 26 32 38 45 38 70 0 84-70 84-172 84h-116z" transform="scale(.01563)"/><path id="CMSSBX10-41" d="M3034 4142c-96 274-282 274-410 274h-563c-128 0-314 0-410-274L301 299c-32-83-32-95-32-127C269 0 429 0 518 0h231c115 0 313 0 403 255l250 705h1772l218-610c77-222 122-350 429-350h345c90 0 250 0 250 172 0 32 0 44-32 127L3034 4142zm-980-1284c96 279 180 521 231 750h6c32-153 32-166 83-312l608-1786H1594l460 1348z" transform="scale(.01563)"/><path id="CMSSBX10-29" d="M563 4800c-102 0-173 0-173-84 0-19 0-32 77-115 397-492 845-1280 845-3001 0-1876-531-2618-883-3047-39-45-39-57-39-70 0-83 71-83 173-83h115c116 0 128 0 244 102 768 646 1260 1741 1260 3098 0 774-160 2112-1228 3078-135 122-148 122-276 122H563z" transform="scale(.01563)"/></defs><use xlink:href="#CMSSBX10-53" transform="scale(.99626)"/><use xlink:href="#CMSSBX10-74" transform="matrix(.99626 0 0 .99626 60.883 0)"/><use xlink:href="#CMSSBX10-72" transform="matrix(.99626 0 0 .99626 101.149 0)"/><use xlink:href="#CMSSBX10-6f" transform="matrix(.99626 0 0 .99626 138.232 0)"/><use xlink:href="#CMSSBX10-6d" transform="matrix(.99626 0 0 .99626 193.027 0)"/><use xlink:href="#CMSSBX10-28" transform="matrix(.99626 0 0 .99626 315.9 0)"/><use xlink:href="#CMSSBX10-41" transform="matrix(.99626 0 0 .99626 358.519 0)"/><use xlink:href="#CMSSBX10-29" transform="matrix(.99626 0 0 .99626 431.578 0)"/></g></g><path d="M44.493 459.386V25.102" style="fill:none;stroke:#000;stroke-width:.8;stroke-linejoin:miter;stroke-linecap:square" id="patch_6"/><path d="M350.314 459.386V25.102" style="fill:none;stroke:#000;stroke-width:.8;stroke-linejoin:miter;stroke-linecap:square" id="patch_7"/><path d="M44.493 459.386h305.821" style="fill:none;stroke:#000;stroke-width:.8;stroke-linejoin:miter;stroke-linecap:square" id="patch_8"/><path d="M44.493 25.102h305.821" style="fill:none;stroke:#000;stroke-width:.8;stroke-linejoin:miter;stroke-linecap:square" id="patch_9"/><g transform="matrix(.12 0 0 -.12 172.042 19.102)" id="text_13"><defs><path id="CMSS17-54" d="M2317 3987h531c77 0 154-7 230-7h800v416H218v-416h800c76 0 153 7 230 7h531V0h538v3987z" transform="scale(.01563)"/><path id="CMSS17-65" d="M2502 1375c0 212-12 626-217 972-224 366-589 469-864 469-666 0-1229-632-1229-1453C192 579 774-64 1510-64c288 0 640 83 960 313 0 26-12 165-19 172 0 12-19 208-19 234-307-247-659-329-915-329-410 0-851 341-871 1049h1856zM698 1728c83 358 364 697 723 697 96 0 544-13 659-697H698z" transform="scale(.01563)"/><path id="CMSS17-69" d="M979 4224H442v-538h537v538zm-32-1472H474V0h473v2752z" transform="scale(.01563)"/><path id="CMSS17-6c" d="M947 4416H474V0h473v4416z" transform="scale(.01563)"/><path id="CMSS17-73" d="M2061 2623c-378 180-672 193-864 193-455 0-999-161-999-807s704-787 896-826c295-57 621-121 621-441 0-403-461-403-544-403-256 0-608 70-928 300l-77-428C531 0 883-64 1178-64c787 0 985 480 985 844 0 314-179 525-301 621-211 166-288 186-812 294-90 13-404 84-404 372 0 364 404 364 493 364 416 0 672-128 845-224l77 416z" transform="scale(.01563)"/><path id="CMSS17-74" d="M1069 2380h832v372h-832v768H614v-768H109v-372h493V751c0-367 83-815 505-815 320 0 615 89 896 236l-102 379c-154-135-339-212-538-212-281 0-294 360-294 521v1520z" transform="scale(.01563)"/><path id="CMSS17-72" d="M954 1369c0 605 441 1010 1004 1023v424c-409-7-793-212-1024-546v513H480V0h474v1369z" transform="scale(.01563)"/><path id="CMSS17-7f" d="M1178 4224H659v-519h519v519zm1164 0h-518v-519h518v519z" transform="scale(.01563)"/><path id="CMSS17-6f" d="M2829 1356c0 819-608 1460-1325 1460-736 0-1331-660-1331-1460C173 544 787-64 1498-64c729 0 1331 627 1331 1420zM1504 339c-454 0-845 371-845 1068 0 743 455 1018 839 1018 416 0 844-301 844-1018 0-723-416-1068-838-1068z" transform="scale(.01563)"/><path id="CMSS17-6d" d="M4288 1878c0 431-109 938-826 938-480 0-768-301-896-488-115 340-384 488-768 488-435 0-710-250-857-430v397H474V0h486v1556c0 380 141 869 595 869 583 0 583-412 583-599V0h486v1556c0 380 141 869 595 869 583 0 583-412 583-599V0h486v1878z" transform="scale(.01563)"/></defs><use xlink:href="#CMSS17-54" transform="scale(.99626)"/><use xlink:href="#CMSS17-65" transform="matrix(.99626 0 0 .99626 56.012 0)"/><use xlink:href="#CMSS17-69" transform="matrix(.99626 0 0 .99626 97.651 0)"/><use xlink:href="#CMSS17-6c" transform="matrix(.99626 0 0 .99626 119.832 0)"/><use xlink:href="#CMSS17-73" transform="matrix(.99626 0 0 .99626 142.012 0)"/><use xlink:href="#CMSS17-74" transform="matrix(.99626 0 0 .99626 177.926 0)"/><use xlink:href="#CMSS17-72" transform="matrix(.99626 0 0 .99626 211.758 0)"/><use xlink:href="#CMSS17-7f" transform="matrix(.99626 0 0 .99626 243.667 0)"/><use xlink:href="#CMSS17-6f" transform="matrix(.99626 0 0 .99626 243.667 0)"/><use xlink:href="#CMSS17-6d" transform="matrix(.99626 0 0 .99626 290.511 0)"/><use xlink:href="#CMSS17-65" transform="matrix(.99626 0 0 .99626 364.74 0)"/></g></g><g id="axes_2"><path d="M392.04 459.386H697.86V25.102H392.04z" style="fill:#fff" id="patch_10"/><path d="M405.94 459.386h79.435V45.782H405.94z" clip-path="url(#pfc4143af8a)" style="fill:#a71916" id="patch_11"/><path d="M505.233 459.386h79.435V252.584h-79.435z" clip-path="url(#pfc4143af8a)" style="fill:#a71916" id="patch_12"/><path d="M604.526 459.386h79.434V321.518h-79.434z" clip-path="url(#pfc4143af8a)" style="fill:#a71916" id="patch_13"/><g id="matplotlib.axis_3"><g id="xtick_4"><use xlink:href="#m270ebd2d76" x="445.658" y="459.386" style="stroke:#000;stroke-width:.8" id="line2d_11"/><g transform="matrix(.1 0 0 -.1 439.95 473.305)" id="text_14"><use xlink:href="#CMSS17-52" transform="scale(.99626)"/><use xlink:href="#CMSS17-31" transform="matrix(.99626 0 0 .99626 60.416 0)"/></g></g><g id="xtick_5"><use xlink:href="#m270ebd2d76" x="544.951" y="459.386" style="stroke:#000;stroke-width:.8" id="line2d_12"/><g transform="matrix(.1 0 0 -.1 539.243 473.305)" id="text_15"><use xlink:href="#CMSS17-52" transform="scale(.99626)"/><use xlink:href="#CMSS17-32" transform="matrix(.99626 0 0 .99626 60.416 0)"/></g></g><g id="xtick_6"><use xlink:href="#m270ebd2d76" x="644.243" y="459.386" style="stroke:#000;stroke-width:.8" id="line2d_13"/><g transform="matrix(.1 0 0 -.1 638.536 473.305)" id="text_16"><use xlink:href="#CMSS17-52" transform="scale(.99626)"/><use xlink:href="#CMSS17-33" transform="matrix(.99626 0 0 .99626 60.416 0)"/></g></g><g transform="matrix(.1 0 0 -.1 518.988 486.16)" id="text_17"><use xlink:href="#CMSSBX10-57" transform="scale(.99626)"/><use xlink:href="#CMSSBX10-69" transform="matrix(.99626 0 0 .99626 103.501 0)"/><use xlink:href="#CMSSBX10-64" transform="matrix(.99626 0 0 .99626 128.962 0)"/><use xlink:href="#CMSSBX10-65" transform="matrix(.99626 0 0 .99626 184.863 0)"/><use xlink:href="#CMSSBX10-72" transform="matrix(.99626 0 0 .99626 235.784 0)"/><use xlink:href="#CMSSBX10-73" transform="matrix(.99626 0 0 .99626 272.867 0)"/><use xlink:href="#CMSSBX10-74" transform="matrix(.99626 0 0 .99626 314.877 0)"/><use xlink:href="#CMSSBX10-61" transform="matrix(.99626 0 0 .99626 355.142 0)"/><use xlink:href="#CMSSBX10-6e" transform="matrix(.99626 0 0 .99626 407.447 0)"/><use xlink:href="#CMSSBX10-64" transform="matrix(.99626 0 0 .99626 463.348 0)"/></g></g><g id="matplotlib.axis_4"><g id="ytick_8"><use xlink:href="#mdd073e9534" x="392.04" y="459.386" style="stroke:#000;stroke-width:.8" id="line2d_14"/><use xlink:href="#CMR17-30" transform="matrix(.09963 0 0 -.09963 380.058 462.846)" id="text_18"/></g><g id="ytick_9"><use xlink:href="#mdd073e9534" x="392.04" y="401.941" style="stroke:#000;stroke-width:.8" id="line2d_15"/><use xlink:href="#CMR17-32" transform="matrix(.09963 0 0 -.09963 380.058 405.4)" id="text_19"/></g><g id="ytick_10"><use xlink:href="#mdd073e9534" x="392.04" y="344.496" style="stroke:#000;stroke-width:.8" id="line2d_16"/><use xlink:href="#CMR17-34" transform="matrix(.09963 0 0 -.09963 380.058 347.956)" id="text_20"/></g><g id="ytick_11"><use xlink:href="#mdd073e9534" x="392.04" y="287.051" style="stroke:#000;stroke-width:.8" id="line2d_17"/><use xlink:href="#CMR17-36" transform="matrix(.09963 0 0 -.09963 380.058 290.51)" id="text_21"/></g><g id="ytick_12"><use xlink:href="#mdd073e9534" x="392.04" y="229.606" style="stroke:#000;stroke-width:.8" id="line2d_18"/><use xlink:href="#CMR17-38" transform="matrix(.09963 0 0 -.09963 380.058 233.066)" id="text_22"/></g><g id="ytick_13"><use xlink:href="#mdd073e9534" x="392.04" y="172.161" style="stroke:#000;stroke-width:.8" id="line2d_19"/><g transform="matrix(.1 0 0 -.1 375.077 175.62)" id="text_23"><use xlink:href="#CMR17-31" transform="scale(.99626)"/><use xlink:href="#CMR17-30" transform="matrix(.99626 0 0 .99626 45.69 0)"/></g></g><g id="ytick_14"><use xlink:href="#mdd073e9534" x="392.04" y="114.716" style="stroke:#000;stroke-width:.8" id="line2d_20"/><g transform="matrix(.1 0 0 -.1 375.077 118.176)" id="text_24"><use xlink:href="#CMR17-31" transform="scale(.99626)"/><use xlink:href="#CMR17-32" transform="matrix(.99626 0 0 .99626 45.69 0)"/></g></g><g id="ytick_15"><use xlink:href="#mdd073e9534" x="392.04" y="57.271" style="stroke:#000;stroke-width:.8" id="line2d_21"/><g transform="matrix(.1 0 0 -.1 375.077 60.73)" id="text_25"><use xlink:href="#CMR17-31" transform="scale(.99626)"/><use xlink:href="#CMR17-34" transform="matrix(.99626 0 0 .99626 45.69 0)"/></g></g><g transform="matrix(0 -.1 -.1 0 368.586 272.662)" id="text_26"><defs><path id="CMSSBX10-4c" d="M1523 646v3464c0 203-45 306-307 306H890c-231 0-308-71-308-306V307C582 76 653 0 890 0h2220c244 0 308 83 308 307v57c0 148-7 307-301 307l-1594-25z" transform="scale(.01563)"/><path id="CMSSBX10-75" d="M3200 2636c0 205-45 308-307 308h-256c-243 0-307-84-307-308V1115c0-423-224-789-679-789-358 0-397 90-397 430v1880c0 205-44 308-307 308H691c-230 0-307-71-307-308V814c0-686 371-878 1037-878 173 0 627 0 928 544V313c0-205 45-307 307-307h237c243 0 307 83 307 307v2323z" transform="scale(.01563)"/><path id="CMSSBX10-67" d="M1280 569c-230 0-320 0-410 82-25 27-134 129-134 302 0 45 6 58 13 96 301-166 678-166 813-166 268 0 1286 0 1286 1059 0 373-141 598-198 669 108 0 332 0 595-71 25-13 70-26 89-26 52 0 84 39 84 84 0 25-32 179-45 243-26 154-26 167-141 167-198 0-518-77-762-225-300 199-633 225-908 225-269 0-1287 0-1287-1060 0-257 71-579 314-790-173-237-173-500-173-534 0-125 38-336 173-509-96-39-429-154-429-566 0-200 96-535 499-721 365-166 794-172 1095-172 377 0 1600 0 1600 912 0 1001-903 1001-1767 1001h-307zm282 775c-448 0-468 244-468 598s20 605 468 605 467-245 467-599-19-604-467-604zm345-1472c519 0 787-91 787-323 0-433-729-433-934-433-256 0-941 0-941 452 0 304 199 304 346 304h742z" transform="scale(.01563)"/></defs><use xlink:href="#CMSSBX10-4c" transform="scale(.99626)"/><use xlink:href="#CMSSBX10-65" transform="matrix(.99626 0 0 .99626 57.839 0)"/><use xlink:href="#CMSSBX10-69" transform="matrix(.99626 0 0 .99626 108.76 0)"/><use xlink:href="#CMSSBX10-73" transform="matrix(.99626 0 0 .99626 134.22 0)"/><use xlink:href="#CMSSBX10-74" transform="matrix(.99626 0 0 .99626 176.229 0)"/><use xlink:href="#CMSSBX10-75" transform="matrix(.99626 0 0 .99626 216.495 0)"/><use xlink:href="#CMSSBX10-6e" transform="matrix(.99626 0 0 .99626 272.397 0)"/><use xlink:href="#CMSSBX10-67" transform="matrix(.99626 0 0 .99626 328.298 0)"/><use xlink:href="#CMSSBX10-28" transform="matrix(.99626 0 0 .99626 419.623 0)"/><use xlink:href="#CMSSBX10-57" transform="matrix(.99626 0 0 .99626 462.241 0)"/><use xlink:href="#CMSSBX10-29" transform="matrix(.99626 0 0 .99626 565.743 0)"/></g></g><path d="M392.04 459.386V25.102" style="fill:none;stroke:#000;stroke-width:.8;stroke-linejoin:miter;stroke-linecap:square" id="patch_14"/><path d="M697.861 459.386V25.102" style="fill:none;stroke:#000;stroke-width:.8;stroke-linejoin:miter;stroke-linecap:square" id="patch_15"/><path d="M392.04 459.386H697.86" style="fill:none;stroke:#000;stroke-width:.8;stroke-linejoin:miter;stroke-linecap:square" id="patch_16"/><path d="M392.04 25.102H697.86" style="fill:none;stroke:#000;stroke-width:.8;stroke-linejoin:miter;stroke-linecap:square" id="patch_17"/><g transform="matrix(.12 0 0 -.12 518.918 19.102)" id="text_27"><defs><path id="CMSS17-4c" d="M1670 416c-76 0-153-7-230-7h-339v4007H563V0h2439v416H1670z" transform="scale(.01563)"/><path id="CMSS17-75" d="M2618 2752h-487V976c0-476-345-669-710-669-423 0-461 141-461 405v2040H474V680c0-501 172-744 614-744 218 0 710 51 1056 371V-13h474v2765z" transform="scale(.01563)"/><path id="CMSS17-6e" d="M2618 1878c0 405-96 938-820 938-409 0-678-212-857-430v397H474V0h486v1556c0 406 154 869 589 869 563 0 582-380 582-599V0h487v1878z" transform="scale(.01563)"/><path id="CMSS17-67" d="M2848 2816c-365-7-678-77-934-199-212 166-429 199-576 199-557 0-980-460-980-992 0-343 192-602 205-615-115-160-179-333-179-525 0-224 90-384 160-473C211 6 166-308 166-429c0-467 583-851 1332-851 755 0 1337 384 1337 857 0 883-979 890-1248 890h-518c-96 0-352 0-352 326 0 128 57 211 64 218 96-71 294-179 557-179 531 0 972 447 972 992 0 304-140 525-198 601h19c19 0 288 19 384 19 205 0 224-6 403-25l-70 397zM1338 1184c-218 0-525 133-525 640 0 551 352 639 518 639 218 0 525-133 525-639 0-552-352-640-518-640zM1581 0c153 0 800 0 800-436 0-275-397-492-877-492-486 0-883 211-883 499 0 32 0 429 441 429h519z" transform="scale(.01563)"/></defs><use xlink:href="#CMSS17-4c" transform="scale(.99626)"/><use xlink:href="#CMSS17-65" transform="matrix(.99626 0 0 .99626 50.687 0)"/><use xlink:href="#CMSS17-69" transform="matrix(.99626 0 0 .99626 92.326 0)"/><use xlink:href="#CMSS17-73" transform="matrix(.99626 0 0 .99626 114.507 0)"/><use xlink:href="#CMSS17-74" transform="matrix(.99626 0 0 .99626 150.42 0)"/><use xlink:href="#CMSS17-75" transform="matrix(.99626 0 0 .99626 184.252 0)"/><use xlink:href="#CMSS17-6e" transform="matrix(.99626 0 0 .99626 232.457 0)"/><use xlink:href="#CMSS17-67" transform="matrix(.99626 0 0 .99626 280.662 0)"/><use xlink:href="#CMSS17-65" transform="matrix(.99626 0 0 .99626 327.505 0)"/><use xlink:href="#CMSS17-6e" transform="matrix(.99626 0 0 .99626 369.144 0)"/></g></g></g><defs><clipPath id="p764904731b"><path d="M44.493 25.102h305.822v434.284H44.493z"/></clipPath><clipPath id="pfc4143af8a"><path d="M392.04 25.102h305.822v434.284H392.04z"/></clipPath></defs></svg>