<svg xmlns:xlink="http://www.w3.org/1999/xlink" width="614.4" height="460.8" viewBox="0 0 460.8 345.6" xmlns="http://www.w3.org/2000/svg"><defs><style>*{stroke-linejoin:round;stroke-linecap:butt}</style></defs><g id="figure_1"><path d="M0 345.6h460.8V0H0z" style="fill:#fff" id="patch_1"/><g id="axes_1"><path d="M57.6 307.584h357.12V41.472H57.6z" style="fill:#fff" id="patch_2"/><g id="matplotlib.axis_1"><g id="xtick_1"><g id="line2d_1"><defs><path id="m29619a99ea" d="M0 0v3.5" style="stroke:#000;stroke-width:.8"/></defs><use xlink:href="#m29619a99ea" x="57.6" y="307.584" style="stroke:#000;stroke-width:.8"/></g><g transform="matrix(.1 0 0 -.1 55.11 321.502)" id="text_1"><defs><path id="CMR17-30" d="M2688 2038c0 392-6 1061-275 1575-237 450-615 611-947 611-308 0-698-142-941-604-256-483-282-1081-282-1582 0-367 7-926 205-1415 275-662 768-751 1018-751 294 0 742 121 1004 732 192 444 218 964 218 1434zM1466-26c-410 0-653 354-743 842-70 380-70 933-70 1293 0 495 0 906 83 1298 122 547 480 714 730 714 262 0 601-174 723-701 83-366 89-797 89-1311 0-418 0-933-76-1312-135-701-512-823-736-823z" transform="scale(.01563)"/></defs><use xlink:href="#CMR17-30" transform="scale(.99626)"/></g></g><g id="xtick_2"><use xlink:href="#m29619a99ea" x="129.024" y="307.584" style="stroke:#000;stroke-width:.8" id="line2d_2"/><g transform="matrix(.1 0 0 -.1 126.533 321.502)" id="text_2"><defs><path id="CMR17-32" d="M2669 990h-115c-64-453-116-530-141-568-32-51-493-51-583-51H602c230 249 678 702 1222 1225 390 370 845 804 845 1437 0 755-602 1191-1274 1191-704 0-1133-621-1133-1197 0-250 186-282 263-282 64 0 256 38 256 262 0 199-167 257-256 257-39 0-77-7-103-20 122 544 493 813 884 813 556 0 921-441 921-1024 0-556-326-1035-691-1450L262 147V0h2253l154 990z" transform="scale(.01563)"/></defs><use xlink:href="#CMR17-32" transform="scale(.99626)"/></g></g><g id="xtick_3"><use xlink:href="#m29619a99ea" x="200.448" y="307.584" style="stroke:#000;stroke-width:.8" id="line2d_3"/><g transform="matrix(.1 0 0 -.1 197.957 321.502)" id="text_3"><defs><path id="CMR17-34" d="M2150 4147c0 134-6 141-121 141L128 1254v-166h1651V460c0-230-13-294-461-294h-121V0c205 12 550 12 768 12 217 0 563 0 768-12v166h-122c-448 0-461 64-461 294v628h653v166h-653v2893zm-352-424V1254H256l1542 2469z" transform="scale(.01563)"/></defs><use xlink:href="#CMR17-34" transform="scale(.99626)"/></g></g><g id="xtick_4"><use xlink:href="#m29619a99ea" x="271.872" y="307.584" style="stroke:#000;stroke-width:.8" id="line2d_4"/><g transform="matrix(.1 0 0 -.1 269.381 321.502)" id="text_4"><defs><path id="CMR17-36" d="M678 2198c0 1514 717 1878 1133 1878 135 0 461-27 589-294-102 0-294 0-294-224 0-173 140-230 230-230 58 0 230 25 230 243 0 416-320 653-761 653-762 0-1562-813-1562-2213C243 257 966-128 1478-128c621 0 1210 559 1210 1423 0 806-518 1393-1171 1393-391 0-679-258-839-709v219zM1478 25c-787 0-787 1187-787 1425 0 464 218 1135 813 1135 109 0 422 0 634-445 115-251 115-516 115-838 0-348 0-606-135-864-140-265-345-413-640-413z" transform="scale(.01563)"/></defs><use xlink:href="#CMR17-36" transform="scale(.99626)"/></g></g><g id="xtick_5"><use xlink:href="#m29619a99ea" x="343.296" y="307.584" style="stroke:#000;stroke-width:.8" id="line2d_5"/><g transform="matrix(.1 0 0 -.1 340.805 321.502)" id="text_5"><defs><path id="CMR17-38" d="M1741 2289c403 205 813 514 813 1009 0 586-564 926-1082 926-582 0-1094-424-1094-1009 0-161 38-438 288-682 64-64 332-257 505-379-288-148-960-502-960-1209 0-663 627-1073 1248-1073 685 0 1261 494 1261 1150 0 585-390 855-646 1029l-333 238zm-839 566c-51 32-307 231-307 533 0 393 403 688 864 688 506 0 877-360 877-778 0-598-666-939-698-939-6 0-12 0-64 39l-672 457zm1178-1319c96-70 403-283 403-675 0-476-473-836-1011-836C890 25 448 443 448 951s390 933 832 1132l800-547z" transform="scale(.01563)"/></defs><use xlink:href="#CMR17-38" transform="scale(.99626)"/></g></g><g id="xtick_6"><use xlink:href="#m29619a99ea" x="414.72" y="307.584" style="stroke:#000;stroke-width:.8" id="line2d_6"/><g transform="matrix(.1 0 0 -.1 409.739 321.502)" id="text_6"><defs><path id="CMR17-31" d="M1702 4083c0 134-6 141-96 141-249-297-627-391-985-404-19 0-51 0-58-12-6-13-6-26-6-160 198 0 531 38 787 191V467c0-224-13-301-563-301H589V0c307 6 627 12 934 12s627-6 935-12v166h-192c-551 0-564 70-564 301v3616z" transform="scale(.01563)"/></defs><use xlink:href="#CMR17-31" transform="scale(.99626)"/><use xlink:href="#CMR17-30" transform="matrix(.99626 0 0 .99626 45.69 0)"/></g></g><g transform="matrix(.1 0 0 -.1 212.45 334.912)" id="text_7"><defs><path id="CMSSBX10-53" d="M1728 2843c-141 32-538 180-538 546 0 546 544 559 762 559 358 0 678-83 992-392 102-96 109-103 134-103 39 0 71 20 90 116l96 558c13 52 13 64 13 84 0 51-7 57-167 140-454 224-832 257-1158 257-570 0-1562-135-1562-1334 0-457 237-752 359-880 326-335 627-399 1126-514 359-84 499-116 640-245 64-64 199-199 199-443 0-604-551-623-762-623-538 0-1005 219-1325 508-77 77-89 77-115 77-38 0-70-20-90-116l-96-558c-12-52-12-64-12-84 0-134 665-364 697-377 429-135 775-147 941-147 960 0 1562 428 1562 1423 0 720-532 1259-1172 1407l-614 141z" transform="scale(.01563)"/><path id="CMSSBX10-74" d="M1395 2483h570c77 0 307 0 307 230 0 231-230 231-307 231h-570v526c0 203-45 306-307 306H890c-231 0-308-71-308-306v-526H435c-70 0-307 0-307-231 0-230 230-230 307-230h128V858c0-647 231-922 672-922 58 0 339 0 672 102 109 32 480 147 480 269 0 19-13 64-51 198-32 129-45 167-102 167-32 0-39-6-77-45-71-51-243-192-512-192-154 0-250 109-250 533v1515z" transform="scale(.01563)"/><path id="CMSSBX10-72" d="M1242 1456c0 601 505 848 908 873 116 6 128 6 128 173v301c0 128 0 173-115 173-179 0-646-65-947-754h-6v414c0 205-45 308-308 308H698c-231 0-308-71-308-308V305C390 76 461 0 698 0h236c244 0 308 83 308 305v1151z" transform="scale(.01563)"/><path id="CMSSBX10-6f" d="M3315 1458c0 1062-512 1614-1555 1614-1069 0-1562-572-1562-1614C198 403 749-64 1754-64c1004 0 1561 460 1561 1522zM1760 435c-691 0-691 583-691 1101 0 498 0 1075 685 1075 691 0 691-570 691-1075 0-512 0-1101-685-1101z" transform="scale(.01563)"/><path id="CMSSBX10-6d" d="M5158 2059c0 654-281 917-934 917-454 0-806-212-1037-632-102 612-646 632-915 632-122 0-390 0-678-212-199-147-327-351-372-446h-6v318c0 205-45 308-307 308H691c-230 0-307-71-307-308V305C384 76 454 0 691 0h256c243 0 307 83 307 305v1399c0 570 391 811 704 811 308 0 378-133 378-469V305c0-229 70-305 307-305h256c243 0 307 83 307 305v1399c0 570 391 811 704 811 308 0 378-133 378-469V305c0-229 70-305 307-305h256c243 0 307 83 307 305v1754z" transform="scale(.01563)"/><path id="CMSSBX10-28" d="M2054 4800c-115 0-128 0-243-103-768-646-1261-1740-1261-3097 0-775 160-2112 1229-3079 135-121 147-121 275-121h116c102 0 172 0 172 83 0 19 0 32-76 115-404 493-845 1280-845 3002 0 1881 531 2624 883 3046 26 32 38 45 38 70 0 84-70 84-172 84h-116z" transform="scale(.01563)"/><path id="CMSSBX10-41" d="M3034 4142c-96 274-282 274-410 274h-563c-128 0-314 0-410-274L301 299c-32-83-32-95-32-127C269 0 429 0 518 0h231c115 0 313 0 403 255l250 705h1772l218-610c77-222 122-350 429-350h345c90 0 250 0 250 172 0 32 0 44-32 127L3034 4142zm-980-1284c96 279 180 521 231 750h6c32-153 32-166 83-312l608-1786H1594l460 1348z" transform="scale(.01563)"/><path id="CMSSBX10-29" d="M563 4800c-102 0-173 0-173-84 0-19 0-32 77-115 397-492 845-1280 845-3001 0-1876-531-2618-883-3047-39-45-39-57-39-70 0-83 71-83 173-83h115c116 0 128 0 244 102 768 646 1260 1741 1260 3098 0 774-160 2112-1228 3078-135 122-148 122-276 122H563z" transform="scale(.01563)"/></defs><use xlink:href="#CMSSBX10-53" transform="scale(.99626)"/><use xlink:href="#CMSSBX10-74" transform="matrix(.99626 0 0 .99626 60.883 0)"/><use xlink:href="#CMSSBX10-72" transform="matrix(.99626 0 0 .99626 101.149 0)"/><use xlink:href="#CMSSBX10-6f" transform="matrix(.99626 0 0 .99626 138.232 0)"/><use xlink:href="#CMSSBX10-6d" transform="matrix(.99626 0 0 .99626 193.027 0)"/><use xlink:href="#CMSSBX10-28" transform="matrix(.99626 0 0 .99626 315.9 0)"/><use xlink:href="#CMSSBX10-41" transform="matrix(.99626 0 0 .99626 358.519 0)"/><use xlink:href="#CMSSBX10-29" transform="matrix(.99626 0 0 .99626 431.578 0)"/></g></g><g id="matplotlib.axis_2"><g id="ytick_1"><g id="line2d_7"><defs><path id="m2f0698ca7b" d="M0 0h-3.5" style="stroke:#000;stroke-width:.8"/></defs><use xlink:href="#m2f0698ca7b" x="57.6" y="307.584" style="stroke:#000;stroke-width:.8"/></g><use xlink:href="#CMR17-30" transform="matrix(.09963 0 0 -.09963 45.619 311.043)" id="text_8"/></g><g id="ytick_2"><use xlink:href="#m2f0698ca7b" x="57.6" y="254.362" style="stroke:#000;stroke-width:.8" id="line2d_8"/><use xlink:href="#CMR17-32" transform="matrix(.09963 0 0 -.09963 45.619 257.82)" id="text_9"/></g><g id="ytick_3"><use xlink:href="#m2f0698ca7b" x="57.6" y="201.139" style="stroke:#000;stroke-width:.8" id="line2d_9"/><use xlink:href="#CMR17-34" transform="matrix(.09963 0 0 -.09963 45.619 204.598)" id="text_10"/></g><g id="ytick_4"><use xlink:href="#m2f0698ca7b" x="57.6" y="147.917" style="stroke:#000;stroke-width:.8" id="line2d_10"/><use xlink:href="#CMR17-36" transform="matrix(.09963 0 0 -.09963 45.619 151.376)" id="text_11"/></g><g id="ytick_5"><use xlink:href="#m2f0698ca7b" x="57.6" y="94.694" style="stroke:#000;stroke-width:.8" id="line2d_11"/><use xlink:href="#CMR17-38" transform="matrix(.09963 0 0 -.09963 45.619 98.154)" id="text_12"/></g><g id="ytick_6"><use xlink:href="#m2f0698ca7b" x="57.6" y="41.472" style="stroke:#000;stroke-width:.8" id="line2d_12"/><g transform="matrix(.1 0 0 -.1 40.637 44.931)" id="text_13"><use xlink:href="#CMR17-31" transform="scale(.99626)"/><use xlink:href="#CMR17-30" transform="matrix(.99626 0 0 .99626 45.69 0)"/></g></g><g transform="matrix(0 -.1 -.1 0 34.147 206.644)" id="text_14"><defs><path id="CMSSBX10-70" d="M1261 256c288-320 640-320 729-320 1357 0 1357 1228 1357 1548 0 314 0 1524-1158 1524-378 0-717-154-947-372 0 237-90 301-308 301H698c-231 0-308-70-308-307V-912c0-228 71-304 308-304h256c243 0 307 83 307 304V256zm0 2041c70 64 281 211 557 211 652 0 659-755 659-1037 0-256 0-1075-723-1075-148 0-263 52-340 109-153 109-153 141-153 256v1536z" transform="scale(.01563)"/><path id="CMSSBX10-61" d="M2970 2047c0 1018-973 1025-1293 1025-301 0-621-26-1050-205-134-58-166-77-166-148 0-44 38-419 45-471 6-39 38-71 83-71 32 0 51 19 70 38 275 292 595 434 992 434 346 0 448-213 448-595v-227c-224 0-1901-13-1901-965 0-453 359-926 922-926 218 0 698 64 998 506V313c0-205 45-307 308-307h236c244 0 308 83 308 307v1734zM2099 998c0-602-608-602-627-602-269 0-442 233-442 479 0 635 890 680 1069 687V998z" transform="scale(.01563)"/><path id="CMSSBX10-6e" d="M3200 2085c0 660-282 923-934 923-672 0-960-487-1044-660h-6v320c0 205-45 307-307 307H691c-230 0-307-70-307-307V307C384 76 454 0 691 0h256c243 0 307 83 307 307v1418c0 559 372 822 704 822 308 0 372-148 372-475V307c0-205 44-307 307-307h256c243 0 307 83 307 307v1778z" transform="scale(.01563)"/><path id="CMSSBX10-75" d="M3200 2636c0 205-45 308-307 308h-256c-243 0-307-84-307-308V1115c0-423-224-789-679-789-358 0-397 90-397 430v1880c0 205-44 308-307 308H691c-230 0-307-71-307-308V814c0-686 371-878 1037-878 173 0 627 0 928 544V313c0-205 45-307 307-307h237c243 0 307 83 307 307v2323z" transform="scale(.01563)"/><path id="CMSSBX10-67" d="M1280 569c-230 0-320 0-410 82-25 27-134 129-134 302 0 45 6 58 13 96 301-166 678-166 813-166 268 0 1286 0 1286 1059 0 373-141 598-198 669 108 0 332 0 595-71 25-13 70-26 89-26 52 0 84 39 84 84 0 25-32 179-45 243-26 154-26 167-141 167-198 0-518-77-762-225-300 199-633 225-908 225-269 0-1287 0-1287-1060 0-257 71-579 314-790-173-237-173-500-173-534 0-125 38-336 173-509-96-39-429-154-429-566 0-200 96-535 499-721 365-166 794-172 1095-172 377 0 1600 0 1600 912 0 1001-903 1001-1767 1001h-307zm282 775c-448 0-468 244-468 598s20 605 468 605 467-245 467-599-19-604-467-604zm345-1472c519 0 787-91 787-323 0-433-729-433-934-433-256 0-941 0-941 452 0 304 199 304 346 304h742z" transform="scale(.01563)"/><path id="CMSSBX10-56" d="M4480 4128c26 77 32 83 32 115 0 173-160 173-250 173h-249c-135 0-320 0-423-281l-864-2360-332-980c-7 19-77 242-173 503L1184 4141c-102 275-282 275-416 275H422c-89 0-249 0-249-173 0-32 6-38 32-115L1638 267C1734 0 1920 0 2048 0h589c134 0 313 0 416 280l1427 3848z" transform="scale(.01563)"/></defs><use xlink:href="#CMSSBX10-53" transform="scale(.99626)"/><use xlink:href="#CMSSBX10-70" transform="matrix(.99626 0 0 .99626 60.883 0)"/><use xlink:href="#CMSSBX10-61" transform="matrix(.99626 0 0 .99626 116.785 0)"/><use xlink:href="#CMSSBX10-6e" transform="matrix(.99626 0 0 .99626 169.09 0)"/><use xlink:href="#CMSSBX10-6e" transform="matrix(.99626 0 0 .99626 224.99 0)"/><use xlink:href="#CMSSBX10-75" transform="matrix(.99626 0 0 .99626 280.893 0)"/><use xlink:href="#CMSSBX10-6e" transform="matrix(.99626 0 0 .99626 336.794 0)"/><use xlink:href="#CMSSBX10-67" transform="matrix(.99626 0 0 .99626 392.696 0)"/><use xlink:href="#CMSSBX10-28" transform="matrix(.99626 0 0 .99626 484.021 0)"/><use xlink:href="#CMSSBX10-56" transform="matrix(.99626 0 0 .99626 526.64 0)"/><use xlink:href="#CMSSBX10-29" transform="matrix(.99626 0 0 .99626 599.699 0)"/></g></g><path d="M57.6 307.584 461.8 6.39h0" clip-path="url(#pb9e0d80f01)" style="fill:none;stroke:#000;stroke-width:1.5;stroke-linecap:square" id="line2d_13"/><path d="M57.6 307.584 264.659-1h0" clip-path="url(#pb9e0d80f01)" style="fill:none;stroke:#a71916;stroke-width:1.5;stroke-linecap:square" id="line2d_14"/><path d="M57.6 307.584 195.639-1h0" clip-path="url(#pb9e0d80f01)" style="fill:none;stroke:#0d468e;stroke-width:1.5;stroke-linecap:square" id="line2d_15"/><path d="M57.6 307.584V41.472" style="fill:none;stroke:#000;stroke-width:.8;stroke-linejoin:miter;stroke-linecap:square" id="patch_3"/><path d="M414.72 307.584V41.472" style="fill:none;stroke:#000;stroke-width:.8;stroke-linejoin:miter;stroke-linecap:square" id="patch_4"/><path d="M57.6 307.584h357.12" style="fill:none;stroke:#000;stroke-width:.8;stroke-linejoin:miter;stroke-linecap:square" id="patch_5"/><path d="M57.6 41.472h357.12" style="fill:none;stroke:#000;stroke-width:.8;stroke-linejoin:miter;stroke-linecap:square" id="patch_6"/><g transform="matrix(.12 0 0 -.12 165.37 35.472)" id="text_15"><defs><path id="CMSS17-47" d="M3610 1868H2336v-396h787V473c-249-70-505-121-761-121-896 0-1428 959-1428 1868 0 903 557 1850 1428 1850 492 0 768-154 1107-410l83 512c-422 218-685 308-1165 308-1241 0-1990-1127-1990-2279C397 1100 1152-64 2349-64c448 0 864 115 1261 313v1619z" transform="scale(.01563)"/><path id="CMSS17-4f" d="M4096 2201c0 1340-877 2343-1882 2343-1004 0-1881-1009-1881-2343 0-1346 889-2329 1881-2329s1882 983 1882 2329zM2214 275c-704 0-1344 792-1344 2010 0 1185 679 1855 1344 1855 666 0 1344-670 1344-1855 0-1224-646-2010-1344-2010z" transform="scale(.01563)"/><path id="CMSS17-6d" d="M4288 1878c0 431-109 938-826 938-480 0-768-301-896-488-115 340-384 488-768 488-435 0-710-250-857-430v397H474V0h486v1556c0 380 141 869 595 869 583 0 583-412 583-599V0h486v1556c0 380 141 869 595 869 583 0 583-412 583-599V0h486v1878z" transform="scale(.01563)"/><path id="CMSS17-60" d="M1094 4416H838l-262-775v-506h512v513H928l166 768z" transform="scale(.01563)"/><path id="CMSS17-73" d="M2061 2623c-378 180-672 193-864 193-455 0-999-161-999-807s704-787 896-826c295-57 621-121 621-441 0-403-461-403-544-403-256 0-608 70-928 300l-77-428C531 0 883-64 1178-64c787 0 985 480 985 844 0 314-179 525-301 621-211 166-288 186-812 294-90 13-404 84-404 372 0 364 404 364 493 364 416 0 672-128 845-224l77 416z" transform="scale(.01563)"/><path id="CMSS17-63" d="M2464 2540c0 45-294 173-371 199-211 77-480 77-551 77-832 0-1331-724-1331-1453C211 595 768-64 1517-64c429 0 736 140 985 307l-38 422c-275-211-595-326-941-326-499 0-825 435-825 1030 0 461 211 1043 851 1043 352 0 550-70 845-269l70 397z" transform="scale(.01563)"/><path id="CMSS17-65" d="M2502 1375c0 212-12 626-217 972-224 366-589 469-864 469-666 0-1229-632-1229-1453C192 579 774-64 1510-64c288 0 640 83 960 313 0 26-12 165-19 172 0 12-19 208-19 234-307-247-659-329-915-329-410 0-851 341-871 1049h1856zM698 1728c83 358 364 697 723 697 96 0 544-13 659-697H698z" transform="scale(.01563)"/><path id="CMSS17-68" d="M2618 1878c0 405-96 938-820 938-403 0-665-199-851-417v2017H474V0h486v1556c0 406 154 869 589 869 563 0 582-380 582-599V0h487v1878z" transform="scale(.01563)"/><path id="CMSS17-74" d="M1069 2380h832v372h-832v768H614v-768H109v-372h493V751c0-367 83-815 505-815 320 0 615 89 896 236l-102 379c-154-135-339-212-538-212-281 0-294 360-294 521v1520z" transform="scale(.01563)"/><path id="CMSS17-7a" d="M2400 2502v250H250v-385h819c77 0 153 7 230 7h448L166 262V0h2253v396h-870c-77 0-154-6-231-6H826l1574 2112z" transform="scale(.01563)"/><path id="CMMI12-55" d="M3238 1469C3014 579 2272 57 1670 57c-460 0-774 305-774 833 0 26 0 217 70 496l628 2500c57 216 70 280 524 280 116 0 180 0 180 115 0 71-58 71-96 71-116 0-250-13-372-13h-755c-121 0-256 13-377 13-45 0-122 0-122-122 0-64 45-64 166-64 384 0 384-51 384-121 0-38-44-223-76-331L493 1488c-19-70-58-242-58-413 0-700 506-1203 1203-1203 647 0 1364 509 1690 1317 45 108 102 331 141 503 64 229 198 788 243 954l243 954c83 331 135 540 698 566 51 6 77 57 77 115 0 71-58 71-84 71-89 0-204-13-294-13h-301c-397 0-601 13-608 13-38 0-115 0-115-122 0-64 51-64 96-64 384-13 410-159 410-274 0-57 0-76-26-165l-570-2258z" transform="scale(.01563)"/><path id="CMR17-3d" d="M4115 2048c96 0 192 0 192 108 0 116-109 116-217 116H512c-109 0-218 0-218-116 0-108 96-108 192-108h3629zm-25-1121c108 0 217 0 217 116 0 109-96 109-192 109H486c-96 0-192 0-192-109 0-116 109-116 218-116h3578z" transform="scale(.01563)"/><path id="CMMI12-52" d="M2355 3917c58 236 83 249 333 249h461c550 0 960-166 960-663 0-326-167-1263-1453-1263h-723l422 1677zm890-1754c793 172 1414 683 1414 1231 0 498-505 958-1395 958H1530c-128 0-186 0-186-122 0-64 45-64 166-64 384 0 384-51 384-121 0-13 0-51-25-147L1005 475c-58-222-71-285-512-285-147 0-192 0-192-121 0-63 70-63 89-63 116 0 250 13 372 13h755c115 0 249-13 365-13 51 0 121 0 121 120 0 64-57 64-153 64-391 0-391 51-391 114 0 6 0 51 13 101l429 1707h768c608 0 723-381 723-590 0-96-64-343-109-508-70-291-89-361-89-482 0-450 371-660 800-660 518 0 742 629 742 717 0 45-32 64-70 64-52 0-64-38-77-89C4435 114 4173 0 4013 0s-263 69-263 355c0 152 77 729 84 761 32 234 32 260 32 310 0 463-378 660-621 737z" transform="scale(.01563)"/><path id="CMSY10-2" d="M2490 1775 1210 3046c-77 77-90 90-141 90-64 0-128-58-128-128 0-45 13-58 83-128l1280-1284L1024 313c-70-70-83-83-83-128 0-70 64-128 128-128 51 0 64 13 141 90l1273 1271L3808 95c13-6 58-38 96-38 77 0 128 58 128 128 0 13 0 38-19 70-7 13-1024 1016-1344 1341l1171 1169c32 38 128 121 160 160 6 12 32 38 32 83 0 70-51 128-128 128-51 0-77-26-147-96L2490 1775z" transform="scale(.01563)"/><path id="CMMI12-49" d="M2355 3879c58 223 71 287 538 287 141 0 192 0 192 121 0 65-71 65-90 65-115 0-256-13-371-13h-787c-128 0-275 13-403 13-52 0-122 0-122-122 0-64 51-64 179-64 397 0 397-51 397-121 0-45-13-83-26-140L998 472c-57-223-70-287-537-287-141 0-199 0-199-121 0-64 64-64 96-64 116 0 256 12 372 12h787c128 0 269-12 397-12 51 0 128 0 128 115 0 70-39 70-180 70-396 0-396 51-396 127 0 13 0 45 25 147l864 3420z" transform="scale(.01563)"/></defs><use xlink:href="#CMSS17-4f" transform="scale(.99626)"/><use xlink:href="#CMSS17-68" transform="matrix(.99626 0 0 .99626 69.024 0)"/><use xlink:href="#CMSS17-6d" transform="matrix(.99626 0 0 .99626 117.23 0)"/><use xlink:href="#CMSS17-60" transform="matrix(.99626 0 0 .99626 191.458 0)"/><use xlink:href="#CMSS17-73" transform="matrix(.99626 0 0 .99626 217.483 0)"/><use xlink:href="#CMSS17-63" transform="matrix(.99626 0 0 .99626 253.396 0)"/><use xlink:href="#CMSS17-68" transform="matrix(.99626 0 0 .99626 295.035 0)"/><use xlink:href="#CMSS17-65" transform="matrix(.99626 0 0 .99626 343.24 0)"/><use xlink:href="#CMSS17-47" transform="matrix(.99626 0 0 .99626 416.108 0)"/><use xlink:href="#CMSS17-65" transform="matrix(.99626 0 0 .99626 478.566 0)"/><use xlink:href="#CMSS17-73" transform="matrix(.99626 0 0 .99626 520.205 0)"/><use xlink:href="#CMSS17-65" transform="matrix(.99626 0 0 .99626 556.118 0)"/><use xlink:href="#CMSS17-74" transform="matrix(.99626 0 0 .99626 597.757 0)"/><use xlink:href="#CMSS17-7a" transform="matrix(.99626 0 0 .99626 631.589 0)"/><use xlink:href="#CMMI12-55" transform="matrix(.99626 0 0 .99626 703.496 0)"/><use xlink:href="#CMR17-3d" transform="matrix(.99626 0 0 .99626 807.829 0)"/><use xlink:href="#CMMI12-52" transform="matrix(.99626 0 0 .99626 907.217 0)"/><use xlink:href="#CMSY10-2" transform="matrix(.99626 0 0 .99626 1004.428 0)"/><use xlink:href="#CMMI12-49" transform="matrix(.99626 0 0 .99626 1104.054 0)"/></g><g id="legend_1"><path d="M64.6 91.284h72.815q2 0 2-2V48.472q0-2-2-2H64.6q-2 0-2 2v40.812q0 2 2 2z" style="fill:#fff;opacity:.8;stroke:#ccc;stroke-linejoin:miter" id="patch_7"/><path d="M66.6 53.972h20" style="fill:none;stroke:#000;stroke-width:1.5;stroke-linecap:square" id="line2d_16"/><g transform="matrix(.1 0 0 -.1 94.6 57.472)" id="text_16"><defs><path id="CMR17-a" d="M4038 935h-115c-57-295-77-372-109-474-32-97-51-148-422-148h-518c70 372 224 648 492 1077 333 545 608 987 608 1519 0 866-819 1571-1836 1571-1044 0-1844-712-1844-1571 0-532 282-987 596-1493 281-455 435-731 505-1103H877c-365 0-384 51-416 141-39 103-51 186-115 481H230L416 0h966c135 0 141 6 141 102 0 455-237 1051-345 1326-205 500-397 988-397 1488 0 955 685 1461 1350 1461 698 0 1357-525 1357-1461 0-494-173-936-410-1520-102-262-332-846-332-1294 0-102 6-102 140-102h967l185 935z" transform="scale(.01563)"/></defs><use xlink:href="#CMMI12-52" transform="scale(.99626)"/><use xlink:href="#CMR17-31" transform="translate(74.25 -14.944) scale(.69738)"/><use xlink:href="#CMR17-3d" transform="matrix(.99626 0 0 .99626 134.406 0)"/><use xlink:href="#CMR17-31" transform="matrix(.99626 0 0 .99626 233.795 0)"/><use xlink:href="#CMR17-a" transform="matrix(.99626 0 0 .99626 310.715 0)"/></g><path d="M66.6 67.91h20" style="fill:none;stroke:#a71916;stroke-width:1.5;stroke-linecap:square" id="line2d_17"/><g transform="matrix(.1 0 0 -.1 94.6 71.41)" id="text_17"><use xlink:href="#CMMI12-52" transform="scale(.99626)"/><use xlink:href="#CMR17-32" transform="translate(74.25 -14.944) scale(.69738)"/><use xlink:href="#CMR17-3d" transform="matrix(.99626 0 0 .99626 134.406 0)"/><use xlink:href="#CMR17-32" transform="matrix(.99626 0 0 .99626 233.795 0)"/><use xlink:href="#CMR17-a" transform="matrix(.99626 0 0 .99626 310.715 0)"/></g><path d="M66.6 81.846h20" style="fill:none;stroke:#0d468e;stroke-width:1.5;stroke-linecap:square" id="line2d_18"/><g transform="matrix(.1 0 0 -.1 94.6 85.346)" id="text_18"><defs><path id="CMR17-33" d="M1414 2176c570 0 820-503 820-1082 0-772-410-1069-781-1069-339 0-890 168-1063 666 32-13 64-13 96-13 154 0 269 102 269 269 0 185-141 269-269 269-108 0-275-52-275-289 0-592 576-1055 1255-1055 710 0 1254 560 1254 1215 0 631-512 1089-1120 1159 486 101 954 530 954 1107 0 503-506 871-1082 871-582 0-1094-362-1094-877 0-224 166-263 249-263 135 0 250 83 250 250 0 166-115 250-250 250-25 0-57 0-83-13 186 428 691 505 915 505s647-110 647-729c0-180-26-496-244-773-192-245-409-258-620-277-32 0-180-13-205-13-45-6-71-12-71-57s7-51 135-51h313z" transform="scale(.01563)"/></defs><use xlink:href="#CMMI12-52" transform="scale(.99626)"/><use xlink:href="#CMR17-33" transform="translate(74.25 -14.944) scale(.69738)"/><use xlink:href="#CMR17-3d" transform="matrix(.99626 0 0 .99626 134.406 0)"/><use xlink:href="#CMR17-33" transform="matrix(.99626 0 0 .99626 233.795 0)"/><use xlink:href="#CMR17-a" transform="matrix(.99626 0 0 .99626 310.715 0)"/></g></g></g></g><defs><clipPath id="pb9e0d80f01"><path d="M57.6 41.472h357.12v266.112H57.6z"/></clipPath></defs></svg>