<?xml version="1.0" encoding="utf-8" standalone="no"?>
<!DOCTYPE svg PUBLIC "-//W3C//DTD SVG 1.1//EN"
  "http://www.w3.org/Graphics/SVG/1.1/DTD/svg11.dtd">
<svg xmlns:xlink="http://www.w3.org/1999/xlink" width="708.661417pt" height="498.897638pt" viewBox="0 0 708.661417 498.897638" xmlns="http://www.w3.org/2000/svg" version="1.1">
 <metadata>
  <rdf:RDF xmlns:dc="http://purl.org/dc/elements/1.1/" xmlns:cc="http://creativecommons.org/ns#" xmlns:rdf="http://www.w3.org/1999/02/22-rdf-syntax-ns#">
   <cc:Work>
    <dc:type rdf:resource="http://purl.org/dc/dcmitype/StillImage"/>
    <dc:date>2023-07-31T14:56:36.795461</dc:date>
    <dc:format>image/svg+xml</dc:format>
    <dc:creator>
     <cc:Agent>
      <dc:title>Matplotlib v3.7.1, https://matplotlib.org/</dc:title>
     </cc:Agent>
    </dc:creator>
   </cc:Work>
  </rdf:RDF>
 </metadata>
 <defs>
  <style type="text/css">*{stroke-linejoin: round; stroke-linecap: butt}</style>
 </defs>
 <g id="figure_1">
  <g id="patch_1">
   <path d="M 0 498.897638 
L 708.661417 498.897638 
L 708.661417 0 
L 0 0 
z
" style="fill: #ffffff"/>
  </g>
  <g id="axes_1">
   <g id="patch_2">
    <path d="M 36.743975 459.386284 
L 345.056337 459.386284 
L 345.056337 25.10218 
L 36.743975 25.10218 
z
" style="fill: #ffffff"/>
   </g>
   <g id="patch_3">
    <path d="M 50.758174 459.386284 
L 130.839306 459.386284 
L 130.839306 321.518315 
L 50.758174 321.518315 
z
" clip-path="url(#p46f921790e)" style="fill: #0d468e"/>
   </g>
   <g id="patch_4">
    <path d="M 150.85959 459.386284 
L 230.940722 459.386284 
L 230.940722 183.650345 
L 150.85959 183.650345 
z
" clip-path="url(#p46f921790e)" style="fill: #0d468e"/>
   </g>
   <g id="patch_5">
    <path d="M 250.961006 459.386284 
L 331.042139 459.386284 
L 331.042139 45.782375 
L 250.961006 45.782375 
z
" clip-path="url(#p46f921790e)" style="fill: #0d468e"/>
   </g>
   <g id="matplotlib.axis_1">
    <g id="xtick_1">
     <g id="line2d_1">
      <defs>
       <path id="m4db7579d99" d="M 0 0 
L 0 3.5 
" style="stroke: #000000; stroke-width: 0.8"/>
      </defs>
      <g>
       <use xlink:href="#m4db7579d99" x="90.79874" y="459.386284" style="stroke: #000000; stroke-width: 0.8"/>
      </g>
     </g>
     <g id="text_1">
      <!-- R1 -->
      <g transform="translate(85.090957 473.304783) scale(0.1 -0.1)">
       <defs>
        <path id="CMSS17-52" d="M 2522 2099 
L 2534 2105 
C 3533 2450 3539 3125 3539 3244 
C 3539 3838 2925 4416 2003 4416 
L 570 4416 
L 570 0 
L 1094 0 
L 1094 2041 
L 2035 2041 
L 3168 0 
L 3706 0 
L 2522 2099 
z
M 1094 2432 
L 1094 4057 
L 1933 4057 
C 2746 4057 3034 3607 3034 3244 
C 3034 2907 2778 2432 1933 2432 
L 1094 2432 
z
" transform="scale(0.015625)"/>
        <path id="CMSS17-31" d="M 1818 4288 
L 1696 4288 
C 1350 3949 947 3902 538 3891 
L 538 3520 
C 723 3526 1024 3539 1325 3673 
L 1325 371 
L 570 371 
L 570 0 
L 2573 0 
L 2573 371 
L 1818 371 
L 1818 4288 
z
" transform="scale(0.015625)"/>
       </defs>
       <use xlink:href="#CMSS17-52" transform="scale(0.996264)"/>
       <use xlink:href="#CMSS17-31" transform="translate(60.416155 0) scale(0.996264)"/>
      </g>
     </g>
    </g>
    <g id="xtick_2">
     <g id="line2d_2">
      <g>
       <use xlink:href="#m4db7579d99" x="190.900156" y="459.386284" style="stroke: #000000; stroke-width: 0.8"/>
      </g>
     </g>
     <g id="text_2">
      <!-- R2 -->
      <g transform="translate(185.192373 473.304783) scale(0.1 -0.1)">
       <defs>
        <path id="CMSS17-32" d="M 1651 1353 
C 1830 1538 2099 1761 2285 1984 
C 2464 2201 2701 2507 2701 2953 
C 2701 3655 2227 4288 1421 4288 
C 787 4288 422 3891 250 3272 
L 499 2928 
C 640 3508 838 3878 1338 3878 
C 1888 3878 2195 3431 2195 2940 
C 2195 2354 1747 1901 1408 1563 
C 1030 1187 659 805 301 409 
L 301 0 
L 2701 0 
L 2701 435 
L 1613 435 
C 1536 435 1459 428 1382 428 
L 742 428 
L 742 435 
L 1651 1353 
z
" transform="scale(0.015625)"/>
       </defs>
       <use xlink:href="#CMSS17-52" transform="scale(0.996264)"/>
       <use xlink:href="#CMSS17-32" transform="translate(60.416155 0) scale(0.996264)"/>
      </g>
     </g>
    </g>
    <g id="xtick_3">
     <g id="line2d_3">
      <g>
       <use xlink:href="#m4db7579d99" x="291.001572" y="459.386284" style="stroke: #000000; stroke-width: 0.8"/>
      </g>
     </g>
     <g id="text_3">
      <!-- R3 -->
      <g transform="translate(285.293789 473.304783) scale(0.1 -0.1)">
       <defs>
        <path id="CMSS17-33" d="M 1005 2060 
L 1440 2060 
C 2042 2060 2214 1532 2214 1164 
C 2214 662 1933 268 1472 268 
C 1114 268 608 449 320 926 
C 275 700 275 687 250 533 
C 550 89 1037 -128 1485 -128 
C 2214 -128 2752 481 2752 1158 
C 2752 1667 2400 2092 1920 2252 
C 2304 2463 2586 2860 2586 3321 
C 2586 3859 2093 4288 1491 4288 
C 941 4288 512 3948 333 3583 
C 378 3519 493 3334 550 3238 
C 691 3615 1056 3897 1485 3897 
C 1843 3897 2080 3660 2080 3321 
C 2080 2969 1856 2585 1478 2496 
C 1453 2496 1056 2457 1005 2451 
L 1005 2060 
z
" transform="scale(0.015625)"/>
       </defs>
       <use xlink:href="#CMSS17-52" transform="scale(0.996264)"/>
       <use xlink:href="#CMSS17-33" transform="translate(60.416155 0) scale(0.996264)"/>
      </g>
     </g>
    </g>
    <g id="text_4">
     <!-- \textbf{Widerstand} -->
     <g transform="translate(164.937678 486.160459) scale(0.1 -0.1)">
      <defs>
       <path id="CMSSBX10-57" d="M 6464 4109 
C 6490 4198 6490 4224 6490 4230 
C 6490 4416 6317 4416 6227 4416 
L 6093 4416 
C 5965 4416 5786 4416 5709 4135 
L 5030 1629 
C 4941 1304 4883 1094 4826 814 
L 4819 814 
C 4787 986 4787 999 4634 1559 
L 3942 4135 
C 3872 4383 3744 4416 3558 4416 
L 3136 4416 
C 3002 4416 2822 4416 2746 4135 
L 2182 2048 
L 2022 1419 
C 1952 1120 1901 916 1888 814 
L 1882 814 
C 1830 1145 1677 1705 1568 2106 
L 1018 4141 
C 941 4416 755 4416 634 4416 
L 416 4416 
C 326 4416 154 4416 154 4230 
C 154 4224 154 4198 179 4109 
L 1229 267 
C 1299 0 1478 0 1613 0 
L 2035 0 
C 2170 0 2349 0 2426 293 
L 3098 2780 
C 3194 3123 3238 3301 3302 3607 
L 3309 3607 
C 3386 3238 3424 3079 3539 2665 
L 4192 267 
C 4262 0 4442 0 4570 0 
L 5030 0 
C 5165 0 5344 0 5414 267 
L 6464 4109 
z
" transform="scale(0.015625)"/>
       <path id="CMSSBX10-69" d="M 653 4480 
C 448 4480 346 4441 346 4185 
L 346 3891 
C 346 3686 410 3603 646 3603 
L 979 3603 
C 1286 3603 1286 3737 1286 4038 
C 1286 4345 1286 4480 979 4480 
L 653 4480 
z
M 1242 2635 
C 1242 2841 1197 2944 934 2944 
L 698 2944 
C 467 2944 390 2873 390 2635 
L 390 308 
C 390 76 461 0 698 0 
L 934 0 
C 1178 0 1242 83 1242 308 
L 1242 2635 
z
" transform="scale(0.015625)"/>
       <path id="CMSSBX10-64" d="M 3194 4113 
C 3194 4313 3149 4416 2886 4416 
L 2650 4416 
C 2406 4416 2342 4332 2342 4113 
L 2342 2687 
C 2054 2963 1734 3008 1536 3008 
C 237 3008 237 1779 237 1465 
C 237 1171 237 -64 1504 -64 
C 1773 -64 2048 12 2323 307 
C 2323 70 2413 6 2630 6 
L 2886 6 
C 3130 6 3194 89 3194 313 
L 3194 4113 
z
M 2323 806 
C 2323 697 2323 640 2138 512 
C 1978 409 1830 396 1754 396 
C 1107 396 1107 985 1107 1465 
C 1107 1945 1107 2547 1824 2547 
C 2010 2547 2182 2483 2323 2348 
L 2323 806 
z
" transform="scale(0.015625)"/>
       <path id="CMSSBX10-65" d="M 2758 1388 
C 2906 1388 3066 1395 3066 1683 
C 3066 2520 2682 3072 1728 3072 
C 704 3072 198 2494 198 1510 
C 198 448 806 -64 1811 -64 
C 2054 -64 2419 -32 2842 179 
C 2982 249 3027 268 3027 345 
C 3027 390 3008 578 3002 630 
C 2976 831 2970 837 2912 837 
C 2886 837 2874 837 2803 772 
C 2426 442 2042 396 1837 396 
C 1114 396 1037 973 1018 1388 
L 2758 1388 
z
M 1024 1728 
C 1043 2124 1171 2611 1728 2611 
C 2240 2611 2336 2234 2355 1728 
L 1024 1728 
z
" transform="scale(0.015625)"/>
       <path id="CMSSBX10-72" d="M 1242 1456 
C 1242 2057 1747 2304 2150 2329 
C 2266 2335 2278 2335 2278 2502 
L 2278 2803 
C 2278 2931 2278 2976 2163 2976 
C 1984 2976 1517 2911 1216 2222 
L 1210 2222 
L 1210 2636 
C 1210 2841 1165 2944 902 2944 
L 698 2944 
C 467 2944 390 2873 390 2636 
L 390 305 
C 390 76 461 0 698 0 
L 934 0 
C 1178 0 1242 83 1242 305 
L 1242 1456 
z
" transform="scale(0.015625)"/>
       <path id="CMSSBX10-73" d="M 2534 914 
C 2534 1277 2342 1503 2227 1607 
C 1971 1840 1747 1879 1478 1931 
C 1126 1995 870 2047 870 2300 
C 870 2565 1082 2617 1331 2617 
C 1760 2617 1990 2455 2157 2313 
C 2221 2248 2234 2248 2259 2248 
C 2323 2248 2336 2306 2342 2332 
C 2355 2384 2419 2745 2419 2777 
C 2419 2879 2080 2969 2010 2995 
C 1754 3065 1549 3072 1382 3072 
C 1094 3072 237 3072 237 2151 
C 237 1833 378 1639 550 1484 
C 774 1277 1024 1231 1389 1160 
C 1574 1128 1901 1069 1901 784 
C 1901 480 1651 435 1402 435 
C 1120 435 762 519 461 882 
C 429 914 410 933 371 933 
C 307 933 294 875 288 836 
C 275 746 198 377 198 313 
C 198 198 672 51 678 44 
C 1030 -64 1293 -64 1402 -64 
C 1728 -64 2534 -39 2534 914 
z
" transform="scale(0.015625)"/>
       <path id="CMSSBX10-74" d="M 1395 2483 
L 1965 2483 
C 2042 2483 2272 2483 2272 2713 
C 2272 2944 2042 2944 1965 2944 
L 1395 2944 
L 1395 3470 
C 1395 3673 1350 3776 1088 3776 
L 890 3776 
C 659 3776 582 3705 582 3470 
L 582 2944 
L 435 2944 
C 365 2944 128 2944 128 2713 
C 128 2483 358 2483 435 2483 
L 563 2483 
L 563 858 
C 563 211 794 -64 1235 -64 
C 1293 -64 1574 -64 1907 38 
C 2016 70 2387 185 2387 307 
C 2387 326 2374 371 2336 505 
C 2304 634 2291 672 2234 672 
C 2202 672 2195 666 2157 627 
C 2086 576 1914 435 1645 435 
C 1491 435 1395 544 1395 968 
L 1395 2483 
z
" transform="scale(0.015625)"/>
       <path id="CMSSBX10-61" d="M 2970 2047 
C 2970 3065 1997 3072 1677 3072 
C 1376 3072 1056 3046 627 2867 
C 493 2809 461 2790 461 2719 
C 461 2675 499 2300 506 2248 
C 512 2209 544 2177 589 2177 
C 621 2177 640 2196 659 2215 
C 934 2507 1254 2649 1651 2649 
C 1997 2649 2099 2436 2099 2054 
L 2099 1827 
C 1875 1827 198 1814 198 862 
C 198 409 557 -64 1120 -64 
C 1338 -64 1818 0 2118 442 
L 2118 313 
C 2118 108 2163 6 2426 6 
L 2662 6 
C 2906 6 2970 89 2970 313 
L 2970 2047 
z
M 2099 998 
C 2099 396 1491 396 1472 396 
C 1203 396 1030 629 1030 875 
C 1030 1510 1920 1555 2099 1562 
L 2099 998 
z
" transform="scale(0.015625)"/>
       <path id="CMSSBX10-6e" d="M 3200 2085 
C 3200 2745 2918 3008 2266 3008 
C 1594 3008 1306 2521 1222 2348 
L 1216 2348 
L 1216 2668 
C 1216 2873 1171 2975 909 2975 
L 691 2975 
C 461 2975 384 2905 384 2668 
L 384 307 
C 384 76 454 0 691 0 
L 947 0 
C 1190 0 1254 83 1254 307 
L 1254 1725 
C 1254 2284 1626 2547 1958 2547 
C 2266 2547 2330 2399 2330 2072 
L 2330 307 
C 2330 102 2374 0 2637 0 
L 2893 0 
C 3136 0 3200 83 3200 307 
L 3200 2085 
z
" transform="scale(0.015625)"/>
      </defs>
      <use xlink:href="#CMSSBX10-57" transform="scale(0.996264)"/>
      <use xlink:href="#CMSSBX10-69" transform="translate(103.501335 0) scale(0.996264)"/>
      <use xlink:href="#CMSSBX10-64" transform="translate(128.961554 0) scale(0.996264)"/>
      <use xlink:href="#CMSSBX10-65" transform="translate(184.863342 0) scale(0.996264)"/>
      <use xlink:href="#CMSSBX10-72" transform="translate(235.783795 0) scale(0.996264)"/>
      <use xlink:href="#CMSSBX10-73" transform="translate(272.867205 0) scale(0.996264)"/>
      <use xlink:href="#CMSSBX10-74" transform="translate(314.876571 0) scale(0.996264)"/>
      <use xlink:href="#CMSSBX10-61" transform="translate(355.142474 0) scale(0.996264)"/>
      <use xlink:href="#CMSSBX10-6e" transform="translate(407.446669 0) scale(0.996264)"/>
      <use xlink:href="#CMSSBX10-64" transform="translate(463.348457 0) scale(0.996264)"/>
     </g>
    </g>
   </g>
   <g id="matplotlib.axis_2">
    <g id="ytick_1">
     <g id="line2d_4">
      <defs>
       <path id="ma4909492ab" d="M 0 0 
L -3.5 0 
" style="stroke: #000000; stroke-width: 0.8"/>
      </defs>
      <g>
       <use xlink:href="#ma4909492ab" x="36.743975" y="459.386284" style="stroke: #000000; stroke-width: 0.8"/>
      </g>
     </g>
     <g id="text_5">
      <!-- $\mathdefault{0}$ -->
      <g transform="translate(24.76264 462.845534) scale(0.1 -0.1)">
       <defs>
        <path id="CMR17-30" d="M 2688 2038 
C 2688 2430 2682 3099 2413 3613 
C 2176 4063 1798 4224 1466 4224 
C 1158 4224 768 4082 525 3620 
C 269 3137 243 2539 243 2038 
C 243 1671 250 1112 448 623 
C 723 -39 1216 -128 1466 -128 
C 1760 -128 2208 -7 2470 604 
C 2662 1048 2688 1568 2688 2038 
z
M 1466 -26 
C 1056 -26 813 328 723 816 
C 653 1196 653 1749 653 2109 
C 653 2604 653 3015 736 3407 
C 858 3954 1216 4121 1466 4121 
C 1728 4121 2067 3947 2189 3420 
C 2272 3054 2278 2623 2278 2109 
C 2278 1691 2278 1176 2202 797 
C 2067 96 1690 -26 1466 -26 
z
" transform="scale(0.015625)"/>
       </defs>
       <use xlink:href="#CMR17-30" transform="scale(0.996264)"/>
      </g>
     </g>
    </g>
    <g id="ytick_2">
     <g id="line2d_5">
      <g>
       <use xlink:href="#ma4909492ab" x="36.743975" y="390.4523" style="stroke: #000000; stroke-width: 0.8"/>
      </g>
     </g>
     <g id="text_6">
      <!-- $\mathdefault{1}$ -->
      <g transform="translate(24.76264 393.911549) scale(0.1 -0.1)">
       <defs>
        <path id="CMR17-31" d="M 1702 4083 
C 1702 4217 1696 4224 1606 4224 
C 1357 3927 979 3833 621 3820 
C 602 3820 570 3820 563 3808 
C 557 3795 557 3782 557 3648 
C 755 3648 1088 3686 1344 3839 
L 1344 467 
C 1344 243 1331 166 781 166 
L 589 166 
L 589 0 
C 896 6 1216 12 1523 12 
C 1830 12 2150 6 2458 0 
L 2458 166 
L 2266 166 
C 1715 166 1702 236 1702 467 
L 1702 4083 
z
" transform="scale(0.015625)"/>
       </defs>
       <use xlink:href="#CMR17-31" transform="scale(0.996264)"/>
      </g>
     </g>
    </g>
    <g id="ytick_3">
     <g id="line2d_6">
      <g>
       <use xlink:href="#ma4909492ab" x="36.743975" y="321.518315" style="stroke: #000000; stroke-width: 0.8"/>
      </g>
     </g>
     <g id="text_7">
      <!-- $\mathdefault{2}$ -->
      <g transform="translate(24.76264 324.977564) scale(0.1 -0.1)">
       <defs>
        <path id="CMR17-32" d="M 2669 990 
L 2554 990 
C 2490 537 2438 460 2413 422 
C 2381 371 1920 371 1830 371 
L 602 371 
C 832 620 1280 1073 1824 1596 
C 2214 1966 2669 2400 2669 3033 
C 2669 3788 2067 4224 1395 4224 
C 691 4224 262 3603 262 3027 
C 262 2777 448 2745 525 2745 
C 589 2745 781 2783 781 3007 
C 781 3206 614 3264 525 3264 
C 486 3264 448 3257 422 3244 
C 544 3788 915 4057 1306 4057 
C 1862 4057 2227 3616 2227 3033 
C 2227 2477 1901 1998 1536 1583 
L 262 147 
L 262 0 
L 2515 0 
L 2669 990 
z
" transform="scale(0.015625)"/>
       </defs>
       <use xlink:href="#CMR17-32" transform="scale(0.996264)"/>
      </g>
     </g>
    </g>
    <g id="ytick_4">
     <g id="line2d_7">
      <g>
       <use xlink:href="#ma4909492ab" x="36.743975" y="252.58433" style="stroke: #000000; stroke-width: 0.8"/>
      </g>
     </g>
     <g id="text_8">
      <!-- $\mathdefault{3}$ -->
      <g transform="translate(24.76264 256.043579) scale(0.1 -0.1)">
       <defs>
        <path id="CMR17-33" d="M 1414 2176 
C 1984 2176 2234 1673 2234 1094 
C 2234 322 1824 25 1453 25 
C 1114 25 563 193 390 691 
C 422 678 454 678 486 678 
C 640 678 755 780 755 947 
C 755 1132 614 1216 486 1216 
C 378 1216 211 1164 211 927 
C 211 335 787 -128 1466 -128 
C 2176 -128 2720 432 2720 1087 
C 2720 1718 2208 2176 1600 2246 
C 2086 2347 2554 2776 2554 3353 
C 2554 3856 2048 4224 1472 4224 
C 890 4224 378 3862 378 3347 
C 378 3123 544 3084 627 3084 
C 762 3084 877 3167 877 3334 
C 877 3500 762 3584 627 3584 
C 602 3584 570 3584 544 3571 
C 730 3999 1235 4076 1459 4076 
C 1683 4076 2106 3966 2106 3347 
C 2106 3167 2080 2851 1862 2574 
C 1670 2329 1453 2316 1242 2297 
C 1210 2297 1062 2284 1037 2284 
C 992 2278 966 2272 966 2227 
C 966 2182 973 2176 1101 2176 
L 1414 2176 
z
" transform="scale(0.015625)"/>
       </defs>
       <use xlink:href="#CMR17-33" transform="scale(0.996264)"/>
      </g>
     </g>
    </g>
    <g id="ytick_5">
     <g id="line2d_8">
      <g>
       <use xlink:href="#ma4909492ab" x="36.743975" y="183.650345" style="stroke: #000000; stroke-width: 0.8"/>
      </g>
     </g>
     <g id="text_9">
      <!-- $\mathdefault{4}$ -->
      <g transform="translate(24.76264 187.109594) scale(0.1 -0.1)">
       <defs>
        <path id="CMR17-34" d="M 2150 4147 
C 2150 4281 2144 4288 2029 4288 
L 128 1254 
L 128 1088 
L 1779 1088 
L 1779 460 
C 1779 230 1766 166 1318 166 
L 1197 166 
L 1197 0 
C 1402 12 1747 12 1965 12 
C 2182 12 2528 12 2733 0 
L 2733 166 
L 2611 166 
C 2163 166 2150 230 2150 460 
L 2150 1088 
L 2803 1088 
L 2803 1254 
L 2150 1254 
L 2150 4147 
z
M 1798 3723 
L 1798 1254 
L 256 1254 
L 1798 3723 
z
" transform="scale(0.015625)"/>
       </defs>
       <use xlink:href="#CMR17-34" transform="scale(0.996264)"/>
      </g>
     </g>
    </g>
    <g id="ytick_6">
     <g id="line2d_9">
      <g>
       <use xlink:href="#ma4909492ab" x="36.743975" y="114.71636" style="stroke: #000000; stroke-width: 0.8"/>
      </g>
     </g>
     <g id="text_10">
      <!-- $\mathdefault{5}$ -->
      <g transform="translate(24.76264 118.175609) scale(0.1 -0.1)">
       <defs>
        <path id="CMR17-35" d="M 730 3750 
C 794 3724 1056 3641 1325 3641 
C 1920 3641 2246 3961 2432 4140 
C 2432 4191 2432 4224 2394 4224 
C 2387 4224 2374 4224 2323 4198 
C 2099 4102 1837 4032 1517 4032 
C 1325 4032 1037 4055 723 4191 
C 653 4224 640 4224 634 4224 
C 602 4224 595 4217 595 4090 
L 595 2231 
C 595 2113 595 2080 659 2080 
C 691 2080 704 2093 736 2139 
C 941 2435 1222 2560 1542 2560 
C 1766 2560 2246 2415 2246 1293 
C 2246 1087 2246 716 2054 422 
C 1894 159 1645 25 1370 25 
C 947 25 518 319 403 812 
C 429 806 480 793 506 793 
C 589 793 749 838 749 1036 
C 749 1209 627 1280 506 1280 
C 358 1280 262 1190 262 1011 
C 262 454 704 -128 1382 -128 
C 2042 -128 2669 441 2669 1267 
C 2669 2054 2170 2662 1549 2662 
C 1222 2662 947 2540 730 2304 
L 730 3750 
z
" transform="scale(0.015625)"/>
       </defs>
       <use xlink:href="#CMR17-35" transform="scale(0.996264)"/>
      </g>
     </g>
    </g>
    <g id="ytick_7">
     <g id="line2d_10">
      <g>
       <use xlink:href="#ma4909492ab" x="36.743975" y="45.782375" style="stroke: #000000; stroke-width: 0.8"/>
      </g>
     </g>
     <g id="text_11">
      <!-- $\mathdefault{6}$ -->
      <g transform="translate(24.76264 49.241624) scale(0.1 -0.1)">
       <defs>
        <path id="CMR17-36" d="M 678 2198 
C 678 3712 1395 4076 1811 4076 
C 1946 4076 2272 4049 2400 3782 
C 2298 3782 2106 3782 2106 3558 
C 2106 3385 2246 3328 2336 3328 
C 2394 3328 2566 3353 2566 3571 
C 2566 3987 2246 4224 1805 4224 
C 1043 4224 243 3411 243 2011 
C 243 257 966 -128 1478 -128 
C 2099 -128 2688 431 2688 1295 
C 2688 2101 2170 2688 1517 2688 
C 1126 2688 838 2430 678 1979 
L 678 2198 
z
M 1478 25 
C 691 25 691 1212 691 1450 
C 691 1914 909 2585 1504 2585 
C 1613 2585 1926 2585 2138 2140 
C 2253 1889 2253 1624 2253 1302 
C 2253 954 2253 696 2118 438 
C 1978 173 1773 25 1478 25 
z
" transform="scale(0.015625)"/>
       </defs>
       <use xlink:href="#CMR17-36" transform="scale(0.996264)"/>
      </g>
     </g>
    </g>
    <g id="text_12">
     <!-- \textbf{Spannung (V)} -->
     <g transform="translate(18.27198 274.360057) rotate(-90) scale(0.1 -0.1)">
      <defs>
       <path id="CMSSBX10-53" d="M 1728 2843 
C 1587 2875 1190 3023 1190 3389 
C 1190 3935 1734 3948 1952 3948 
C 2310 3948 2630 3865 2944 3556 
C 3046 3460 3053 3453 3078 3453 
C 3117 3453 3149 3473 3168 3569 
L 3264 4127 
C 3277 4179 3277 4191 3277 4211 
C 3277 4262 3270 4268 3110 4351 
C 2656 4575 2278 4608 1952 4608 
C 1382 4608 390 4473 390 3274 
C 390 2817 627 2522 749 2394 
C 1075 2059 1376 1995 1875 1880 
C 2234 1796 2374 1764 2515 1635 
C 2579 1571 2714 1436 2714 1192 
C 2714 588 2163 569 1952 569 
C 1414 569 947 788 627 1077 
C 550 1154 538 1154 512 1154 
C 474 1154 442 1134 422 1038 
L 326 480 
C 314 428 314 416 314 396 
C 314 262 979 32 1011 19 
C 1440 -116 1786 -128 1952 -128 
C 2912 -128 3514 300 3514 1295 
C 3514 2015 2982 2554 2342 2702 
L 1728 2843 
z
" transform="scale(0.015625)"/>
       <path id="CMSSBX10-70" d="M 1261 256 
C 1549 -64 1901 -64 1990 -64 
C 3347 -64 3347 1164 3347 1484 
C 3347 1798 3347 3008 2189 3008 
C 1811 3008 1472 2854 1242 2636 
C 1242 2873 1152 2937 934 2937 
L 698 2937 
C 467 2937 390 2867 390 2630 
L 390 -912 
C 390 -1140 461 -1216 698 -1216 
L 954 -1216 
C 1197 -1216 1261 -1133 1261 -912 
L 1261 256 
z
M 1261 2297 
C 1331 2361 1542 2508 1818 2508 
C 2470 2508 2477 1753 2477 1471 
C 2477 1215 2477 396 1754 396 
C 1606 396 1491 448 1414 505 
C 1261 614 1261 646 1261 761 
L 1261 2297 
z
" transform="scale(0.015625)"/>
       <path id="CMSSBX10-75" d="M 3200 2636 
C 3200 2841 3155 2944 2893 2944 
L 2637 2944 
C 2394 2944 2330 2860 2330 2636 
L 2330 1115 
C 2330 692 2106 326 1651 326 
C 1293 326 1254 416 1254 756 
L 1254 2636 
C 1254 2841 1210 2944 947 2944 
L 691 2944 
C 461 2944 384 2873 384 2636 
L 384 814 
C 384 128 755 -64 1421 -64 
C 1594 -64 2048 -64 2349 480 
L 2349 313 
C 2349 108 2394 6 2656 6 
L 2893 6 
C 3136 6 3200 89 3200 313 
L 3200 2636 
z
" transform="scale(0.015625)"/>
       <path id="CMSSBX10-67" d="M 1280 569 
C 1050 569 960 569 870 651 
C 845 678 736 780 736 953 
C 736 998 742 1011 749 1049 
C 1050 883 1427 883 1562 883 
C 1830 883 2848 883 2848 1942 
C 2848 2315 2707 2540 2650 2611 
C 2758 2611 2982 2611 3245 2540 
C 3270 2527 3315 2514 3334 2514 
C 3386 2514 3418 2553 3418 2598 
C 3418 2623 3386 2777 3373 2841 
C 3347 2995 3347 3008 3232 3008 
C 3034 3008 2714 2931 2470 2783 
C 2170 2982 1837 3008 1562 3008 
C 1293 3008 275 3008 275 1948 
C 275 1691 346 1369 589 1158 
C 416 921 416 658 416 624 
C 416 499 454 288 589 115 
C 493 76 160 -39 160 -451 
C 160 -651 256 -986 659 -1172 
C 1024 -1338 1453 -1344 1754 -1344 
C 2131 -1344 3354 -1344 3354 -432 
C 3354 569 2451 569 1587 569 
L 1280 569 
z
M 1562 1344 
C 1114 1344 1094 1588 1094 1942 
C 1094 2296 1114 2547 1562 2547 
C 2010 2547 2029 2302 2029 1948 
C 2029 1594 2010 1344 1562 1344 
z
M 1907 -128 
C 2426 -128 2694 -219 2694 -451 
C 2694 -884 1965 -884 1760 -884 
C 1504 -884 819 -884 819 -432 
C 819 -128 1018 -128 1165 -128 
L 1907 -128 
z
" transform="scale(0.015625)"/>
       <path id="CMSSBX10-28" d="M 2054 4800 
C 1939 4800 1926 4800 1811 4697 
C 1043 4051 550 2957 550 1600 
C 550 825 710 -512 1779 -1479 
C 1914 -1600 1926 -1600 2054 -1600 
L 2170 -1600 
C 2272 -1600 2342 -1600 2342 -1517 
C 2342 -1498 2342 -1485 2266 -1402 
C 1862 -909 1421 -122 1421 1600 
C 1421 3481 1952 4224 2304 4646 
C 2330 4678 2342 4691 2342 4716 
C 2342 4800 2272 4800 2170 4800 
L 2054 4800 
z
" transform="scale(0.015625)"/>
       <path id="CMSSBX10-56" d="M 4480 4128 
C 4506 4205 4512 4211 4512 4243 
C 4512 4416 4352 4416 4262 4416 
L 4013 4416 
C 3878 4416 3693 4416 3590 4135 
L 2726 1775 
L 2394 795 
C 2387 814 2317 1037 2221 1298 
L 1184 4141 
C 1082 4416 902 4416 768 4416 
L 422 4416 
C 333 4416 173 4416 173 4243 
C 173 4211 179 4205 205 4128 
L 1638 267 
C 1734 0 1920 0 2048 0 
L 2637 0 
C 2771 0 2950 0 3053 280 
L 4480 4128 
z
" transform="scale(0.015625)"/>
       <path id="CMSSBX10-29" d="M 563 4800 
C 461 4800 390 4800 390 4716 
C 390 4697 390 4684 467 4601 
C 864 4109 1312 3321 1312 1600 
C 1312 -276 781 -1018 429 -1447 
C 390 -1492 390 -1504 390 -1517 
C 390 -1600 461 -1600 563 -1600 
L 678 -1600 
C 794 -1600 806 -1600 922 -1498 
C 1690 -852 2182 243 2182 1600 
C 2182 2374 2022 3712 954 4678 
C 819 4800 806 4800 678 4800 
L 563 4800 
z
" transform="scale(0.015625)"/>
      </defs>
      <use xlink:href="#CMSSBX10-53" transform="scale(0.996264)"/>
      <use xlink:href="#CMSSBX10-70" transform="translate(60.883138 0) scale(0.996264)"/>
      <use xlink:href="#CMSSBX10-61" transform="translate(116.784926 0) scale(0.996264)"/>
      <use xlink:href="#CMSSBX10-6e" transform="translate(169.089121 0) scale(0.996264)"/>
      <use xlink:href="#CMSSBX10-6e" transform="translate(224.990909 0) scale(0.996264)"/>
      <use xlink:href="#CMSSBX10-75" transform="translate(280.892697 0) scale(0.996264)"/>
      <use xlink:href="#CMSSBX10-6e" transform="translate(336.794485 0) scale(0.996264)"/>
      <use xlink:href="#CMSSBX10-67" transform="translate(392.696273 0) scale(0.996264)"/>
      <use xlink:href="#CMSSBX10-28" transform="translate(484.020981 0) scale(0.996264)"/>
      <use xlink:href="#CMSSBX10-56" transform="translate(526.639178 0) scale(0.996264)"/>
      <use xlink:href="#CMSSBX10-29" transform="translate(599.698944 0) scale(0.996264)"/>
     </g>
    </g>
   </g>
   <g id="patch_6">
    <path d="M 36.743975 459.386284 
L 36.743975 25.10218 
" style="fill: none; stroke: #000000; stroke-width: 0.8; stroke-linejoin: miter; stroke-linecap: square"/>
   </g>
   <g id="patch_7">
    <path d="M 345.056337 459.386284 
L 345.056337 25.10218 
" style="fill: none; stroke: #000000; stroke-width: 0.8; stroke-linejoin: miter; stroke-linecap: square"/>
   </g>
   <g id="patch_8">
    <path d="M 36.743975 459.386284 
L 345.056337 459.386284 
" style="fill: none; stroke: #000000; stroke-width: 0.8; stroke-linejoin: miter; stroke-linecap: square"/>
   </g>
   <g id="patch_9">
    <path d="M 36.743975 25.10218 
L 345.056337 25.10218 
" style="fill: none; stroke: #000000; stroke-width: 0.8; stroke-linejoin: miter; stroke-linecap: square"/>
   </g>
   <g id="text_13">
    <!-- Teilspannungen -->
    <g transform="translate(153.452177 19.10218) scale(0.12 -0.12)">
     <defs>
      <path id="CMSS17-54" d="M 2317 3987 
L 2848 3987 
C 2925 3987 3002 3980 3078 3980 
L 3878 3980 
L 3878 4396 
L 218 4396 
L 218 3980 
L 1018 3980 
C 1094 3980 1171 3987 1248 3987 
L 1779 3987 
L 1779 0 
L 2317 0 
L 2317 3987 
z
" transform="scale(0.015625)"/>
      <path id="CMSS17-65" d="M 2502 1375 
C 2502 1587 2490 2001 2285 2347 
C 2061 2713 1696 2816 1421 2816 
C 755 2816 192 2184 192 1363 
C 192 579 774 -64 1510 -64 
C 1798 -64 2150 19 2470 249 
C 2470 275 2458 414 2451 421 
C 2451 433 2432 629 2432 655 
C 2125 408 1773 326 1517 326 
C 1107 326 666 667 646 1375 
L 2502 1375 
z
M 698 1728 
C 781 2086 1062 2425 1421 2425 
C 1517 2425 1965 2412 2080 1728 
L 698 1728 
z
" transform="scale(0.015625)"/>
      <path id="CMSS17-69" d="M 979 4224 
L 442 4224 
L 442 3686 
L 979 3686 
L 979 4224 
z
M 947 2752 
L 474 2752 
L 474 0 
L 947 0 
L 947 2752 
z
" transform="scale(0.015625)"/>
      <path id="CMSS17-6c" d="M 947 4416 
L 474 4416 
L 474 0 
L 947 0 
L 947 4416 
z
" transform="scale(0.015625)"/>
      <path id="CMSS17-73" d="M 2061 2623 
C 1683 2803 1389 2816 1197 2816 
C 742 2816 198 2655 198 2009 
C 198 1363 902 1222 1094 1183 
C 1389 1126 1715 1062 1715 742 
C 1715 339 1254 339 1171 339 
C 915 339 563 409 243 639 
L 166 211 
C 531 0 883 -64 1178 -64 
C 1965 -64 2163 416 2163 780 
C 2163 1094 1984 1305 1862 1401 
C 1651 1567 1574 1587 1050 1695 
C 960 1708 646 1779 646 2067 
C 646 2431 1050 2431 1139 2431 
C 1555 2431 1811 2303 1984 2207 
L 2061 2623 
z
" transform="scale(0.015625)"/>
      <path id="CMSS17-70" d="M 966 275 
C 1178 70 1466 -64 1773 -64 
C 2368 -64 2880 553 2880 1382 
C 2880 2147 2496 2816 1946 2816 
C 1626 2816 1242 2700 954 2470 
L 954 2764 
L 480 2764 
L 480 -1280 
L 966 -1280 
L 966 275 
z
M 966 2088 
C 1018 2166 1235 2412 1587 2412 
C 2035 2412 2394 1946 2394 1382 
C 2394 741 1958 326 1530 326 
C 1402 326 1267 358 1139 468 
C 966 624 966 721 966 812 
L 966 2088 
z
" transform="scale(0.015625)"/>
      <path id="CMSS17-61" d="M 2406 1789 
C 2406 2399 1978 2816 1402 2816 
C 1120 2816 813 2764 461 2559 
L 499 2133 
C 659 2250 934 2438 1395 2438 
C 1722 2438 1920 2185 1920 1782 
L 1920 1536 
C 896 1504 256 1209 256 711 
C 256 452 416 -64 947 -64 
C 1043 -64 1562 -52 1933 224 
L 1933 -13 
L 2406 -13 
L 2406 1789 
z
M 1920 824 
C 1920 711 1920 559 1728 446 
C 1562 339 1350 326 1261 326 
C 941 326 723 503 723 723 
C 723 1165 1722 1209 1920 1216 
L 1920 824 
z
" transform="scale(0.015625)"/>
      <path id="CMSS17-6e" d="M 2618 1878 
C 2618 2283 2522 2816 1798 2816 
C 1389 2816 1120 2604 941 2386 
L 941 2783 
L 474 2783 
L 474 0 
L 960 0 
L 960 1556 
C 960 1962 1114 2425 1549 2425 
C 2112 2425 2131 2045 2131 1826 
L 2131 0 
L 2618 0 
L 2618 1878 
z
" transform="scale(0.015625)"/>
      <path id="CMSS17-75" d="M 2618 2752 
L 2131 2752 
L 2131 976 
C 2131 500 1786 307 1421 307 
C 998 307 960 448 960 712 
L 960 2752 
L 474 2752 
L 474 680 
C 474 179 646 -64 1088 -64 
C 1306 -64 1798 -13 2144 307 
L 2144 -13 
L 2618 -13 
L 2618 2752 
z
" transform="scale(0.015625)"/>
      <path id="CMSS17-67" d="M 2848 2816 
C 2483 2809 2170 2739 1914 2617 
C 1702 2783 1485 2816 1338 2816 
C 781 2816 358 2356 358 1824 
C 358 1481 550 1222 563 1209 
C 448 1049 384 876 384 684 
C 384 460 474 300 544 211 
C 211 6 166 -308 166 -429 
C 166 -896 749 -1280 1498 -1280 
C 2253 -1280 2835 -896 2835 -423 
C 2835 460 1856 467 1587 467 
L 1069 467 
C 973 467 717 467 717 793 
C 717 921 774 1004 781 1011 
C 877 940 1075 832 1338 832 
C 1869 832 2310 1279 2310 1824 
C 2310 2128 2170 2349 2112 2425 
L 2131 2425 
C 2150 2425 2419 2444 2515 2444 
C 2720 2444 2739 2438 2918 2419 
L 2848 2816 
z
M 1338 1184 
C 1120 1184 813 1317 813 1824 
C 813 2375 1165 2463 1331 2463 
C 1549 2463 1856 2330 1856 1824 
C 1856 1272 1504 1184 1338 1184 
z
M 1581 0 
C 1734 0 2381 0 2381 -436 
C 2381 -711 1984 -928 1504 -928 
C 1018 -928 621 -717 621 -429 
C 621 -397 621 0 1062 0 
L 1581 0 
z
" transform="scale(0.015625)"/>
     </defs>
     <use xlink:href="#CMSS17-54" transform="scale(0.996264)"/>
     <use xlink:href="#CMSS17-65" transform="translate(56.012199 0) scale(0.996264)"/>
     <use xlink:href="#CMSS17-69" transform="translate(97.651021 0) scale(0.996264)"/>
     <use xlink:href="#CMSS17-6c" transform="translate(119.831744 0) scale(0.996264)"/>
     <use xlink:href="#CMSS17-73" transform="translate(142.012467 0) scale(0.996264)"/>
     <use xlink:href="#CMSS17-70" transform="translate(177.926009 0) scale(0.996264)"/>
     <use xlink:href="#CMSS17-61" transform="translate(226.130952 0) scale(0.996264)"/>
     <use xlink:href="#CMSS17-6e" transform="translate(271.052872 0) scale(0.996264)"/>
     <use xlink:href="#CMSS17-6e" transform="translate(319.257816 0) scale(0.996264)"/>
     <use xlink:href="#CMSS17-75" transform="translate(367.462759 0) scale(0.996264)"/>
     <use xlink:href="#CMSS17-6e" transform="translate(415.667702 0) scale(0.996264)"/>
     <use xlink:href="#CMSS17-67" transform="translate(463.872645 0) scale(0.996264)"/>
     <use xlink:href="#CMSS17-65" transform="translate(510.716268 0) scale(0.996264)"/>
     <use xlink:href="#CMSS17-6e" transform="translate(552.355091 0) scale(0.996264)"/>
    </g>
   </g>
  </g>
  <g id="axes_2">
   <g id="patch_10">
    <path d="M 389.549056 459.386284 
L 697.861417 459.386284 
L 697.861417 25.10218 
L 389.549056 25.10218 
z
" style="fill: #ffffff"/>
   </g>
   <g id="patch_11">
    <path d="M 403.563254 459.386284 
L 483.644387 459.386284 
L 483.644387 321.518315 
L 403.563254 321.518315 
z
" clip-path="url(#p68f9ace144)" style="fill: #a71916"/>
   </g>
   <g id="patch_12">
    <path d="M 503.66467 459.386284 
L 583.745803 459.386284 
L 583.745803 183.650345 
L 503.66467 183.650345 
z
" clip-path="url(#p68f9ace144)" style="fill: #a71916"/>
   </g>
   <g id="patch_13">
    <path d="M 603.766086 459.386284 
L 683.847219 459.386284 
L 683.847219 45.782375 
L 603.766086 45.782375 
z
" clip-path="url(#p68f9ace144)" style="fill: #a71916"/>
   </g>
   <g id="matplotlib.axis_3">
    <g id="xtick_4">
     <g id="line2d_11">
      <g>
       <use xlink:href="#m4db7579d99" x="443.603821" y="459.386284" style="stroke: #000000; stroke-width: 0.8"/>
      </g>
     </g>
     <g id="text_14">
      <!-- R1 -->
      <g transform="translate(437.896038 473.304783) scale(0.1 -0.1)">
       <use xlink:href="#CMSS17-52" transform="scale(0.996264)"/>
       <use xlink:href="#CMSS17-31" transform="translate(60.416155 0) scale(0.996264)"/>
      </g>
     </g>
    </g>
    <g id="xtick_5">
     <g id="line2d_12">
      <g>
       <use xlink:href="#m4db7579d99" x="543.705237" y="459.386284" style="stroke: #000000; stroke-width: 0.8"/>
      </g>
     </g>
     <g id="text_15">
      <!-- R2 -->
      <g transform="translate(537.997454 473.304783) scale(0.1 -0.1)">
       <use xlink:href="#CMSS17-52" transform="scale(0.996264)"/>
       <use xlink:href="#CMSS17-32" transform="translate(60.416155 0) scale(0.996264)"/>
      </g>
     </g>
    </g>
    <g id="xtick_6">
     <g id="line2d_13">
      <g>
       <use xlink:href="#m4db7579d99" x="643.806653" y="459.386284" style="stroke: #000000; stroke-width: 0.8"/>
      </g>
     </g>
     <g id="text_16">
      <!-- R3 -->
      <g transform="translate(638.09887 473.304783) scale(0.1 -0.1)">
       <use xlink:href="#CMSS17-52" transform="scale(0.996264)"/>
       <use xlink:href="#CMSS17-33" transform="translate(60.416155 0) scale(0.996264)"/>
      </g>
     </g>
    </g>
    <g id="text_17">
     <!-- \textbf{Widerstand} -->
     <g transform="translate(517.742759 486.160459) scale(0.1 -0.1)">
      <use xlink:href="#CMSSBX10-57" transform="scale(0.996264)"/>
      <use xlink:href="#CMSSBX10-69" transform="translate(103.501335 0) scale(0.996264)"/>
      <use xlink:href="#CMSSBX10-64" transform="translate(128.961554 0) scale(0.996264)"/>
      <use xlink:href="#CMSSBX10-65" transform="translate(184.863342 0) scale(0.996264)"/>
      <use xlink:href="#CMSSBX10-72" transform="translate(235.783795 0) scale(0.996264)"/>
      <use xlink:href="#CMSSBX10-73" transform="translate(272.867205 0) scale(0.996264)"/>
      <use xlink:href="#CMSSBX10-74" transform="translate(314.876571 0) scale(0.996264)"/>
      <use xlink:href="#CMSSBX10-61" transform="translate(355.142474 0) scale(0.996264)"/>
      <use xlink:href="#CMSSBX10-6e" transform="translate(407.446669 0) scale(0.996264)"/>
      <use xlink:href="#CMSSBX10-64" transform="translate(463.348457 0) scale(0.996264)"/>
     </g>
    </g>
   </g>
   <g id="matplotlib.axis_4">
    <g id="ytick_8">
     <g id="line2d_14">
      <g>
       <use xlink:href="#ma4909492ab" x="389.549056" y="459.386284" style="stroke: #000000; stroke-width: 0.8"/>
      </g>
     </g>
     <g id="text_18">
      <!-- $\mathdefault{0.0}$ -->
      <g transform="translate(369.818977 462.845534) scale(0.1 -0.1)">
       <defs>
        <path id="CMMI12-3a" d="M 1178 307 
C 1178 492 1024 620 870 620 
C 685 620 557 467 557 313 
C 557 128 710 0 864 0 
C 1050 0 1178 153 1178 307 
z
" transform="scale(0.015625)"/>
       </defs>
       <use xlink:href="#CMR17-30" transform="scale(0.996264)"/>
       <use xlink:href="#CMMI12-3a" transform="translate(45.690477 0) scale(0.996264)"/>
       <use xlink:href="#CMR17-30" transform="translate(72.787654 0) scale(0.996264)"/>
      </g>
     </g>
    </g>
    <g id="ytick_9">
     <g id="line2d_15">
      <g>
       <use xlink:href="#ma4909492ab" x="389.549056" y="390.4523" style="stroke: #000000; stroke-width: 0.8"/>
      </g>
     </g>
     <g id="text_19">
      <!-- $\mathdefault{0.2}$ -->
      <g transform="translate(369.818977 393.911549) scale(0.1 -0.1)">
       <use xlink:href="#CMR17-30" transform="scale(0.996264)"/>
       <use xlink:href="#CMMI12-3a" transform="translate(45.690477 0) scale(0.996264)"/>
       <use xlink:href="#CMR17-32" transform="translate(72.787654 0) scale(0.996264)"/>
      </g>
     </g>
    </g>
    <g id="ytick_10">
     <g id="line2d_16">
      <g>
       <use xlink:href="#ma4909492ab" x="389.549056" y="321.518315" style="stroke: #000000; stroke-width: 0.8"/>
      </g>
     </g>
     <g id="text_20">
      <!-- $\mathdefault{0.4}$ -->
      <g transform="translate(369.818977 324.977564) scale(0.1 -0.1)">
       <use xlink:href="#CMR17-30" transform="scale(0.996264)"/>
       <use xlink:href="#CMMI12-3a" transform="translate(45.690477 0) scale(0.996264)"/>
       <use xlink:href="#CMR17-34" transform="translate(72.787654 0) scale(0.996264)"/>
      </g>
     </g>
    </g>
    <g id="ytick_11">
     <g id="line2d_17">
      <g>
       <use xlink:href="#ma4909492ab" x="389.549056" y="252.58433" style="stroke: #000000; stroke-width: 0.8"/>
      </g>
     </g>
     <g id="text_21">
      <!-- $\mathdefault{0.6}$ -->
      <g transform="translate(369.818977 256.043579) scale(0.1 -0.1)">
       <use xlink:href="#CMR17-30" transform="scale(0.996264)"/>
       <use xlink:href="#CMMI12-3a" transform="translate(45.690477 0) scale(0.996264)"/>
       <use xlink:href="#CMR17-36" transform="translate(72.787654 0) scale(0.996264)"/>
      </g>
     </g>
    </g>
    <g id="ytick_12">
     <g id="line2d_18">
      <g>
       <use xlink:href="#ma4909492ab" x="389.549056" y="183.650345" style="stroke: #000000; stroke-width: 0.8"/>
      </g>
     </g>
     <g id="text_22">
      <!-- $\mathdefault{0.8}$ -->
      <g transform="translate(369.818977 187.109594) scale(0.1 -0.1)">
       <defs>
        <path id="CMR17-38" d="M 1741 2289 
C 2144 2494 2554 2803 2554 3298 
C 2554 3884 1990 4224 1472 4224 
C 890 4224 378 3800 378 3215 
C 378 3054 416 2777 666 2533 
C 730 2469 998 2276 1171 2154 
C 883 2006 211 1652 211 945 
C 211 282 838 -128 1459 -128 
C 2144 -128 2720 366 2720 1022 
C 2720 1607 2330 1877 2074 2051 
L 1741 2289 
z
M 902 2855 
C 851 2887 595 3086 595 3388 
C 595 3781 998 4076 1459 4076 
C 1965 4076 2336 3716 2336 3298 
C 2336 2700 1670 2359 1638 2359 
C 1632 2359 1626 2359 1574 2398 
L 902 2855 
z
M 2080 1536 
C 2176 1466 2483 1253 2483 861 
C 2483 385 2010 25 1472 25 
C 890 25 448 443 448 951 
C 448 1459 838 1884 1280 2083 
L 2080 1536 
z
" transform="scale(0.015625)"/>
       </defs>
       <use xlink:href="#CMR17-30" transform="scale(0.996264)"/>
       <use xlink:href="#CMMI12-3a" transform="translate(45.690477 0) scale(0.996264)"/>
       <use xlink:href="#CMR17-38" transform="translate(72.787654 0) scale(0.996264)"/>
      </g>
     </g>
    </g>
    <g id="ytick_13">
     <g id="line2d_19">
      <g>
       <use xlink:href="#ma4909492ab" x="389.549056" y="114.71636" style="stroke: #000000; stroke-width: 0.8"/>
      </g>
     </g>
     <g id="text_23">
      <!-- $\mathdefault{1.0}$ -->
      <g transform="translate(369.818977 118.175609) scale(0.1 -0.1)">
       <use xlink:href="#CMR17-31" transform="scale(0.996264)"/>
       <use xlink:href="#CMMI12-3a" transform="translate(45.690477 0) scale(0.996264)"/>
       <use xlink:href="#CMR17-30" transform="translate(72.787654 0) scale(0.996264)"/>
      </g>
     </g>
    </g>
    <g id="ytick_14">
     <g id="line2d_20">
      <g>
       <use xlink:href="#ma4909492ab" x="389.549056" y="45.782375" style="stroke: #000000; stroke-width: 0.8"/>
      </g>
     </g>
     <g id="text_24">
      <!-- $\mathdefault{1.2}$ -->
      <g transform="translate(369.818977 49.241624) scale(0.1 -0.1)">
       <use xlink:href="#CMR17-31" transform="scale(0.996264)"/>
       <use xlink:href="#CMMI12-3a" transform="translate(45.690477 0) scale(0.996264)"/>
       <use xlink:href="#CMR17-32" transform="translate(72.787654 0) scale(0.996264)"/>
      </g>
     </g>
    </g>
    <g id="text_25">
     <!-- \textbf{Leistung (W)} -->
     <g transform="translate(363.328317 272.662254) rotate(-90) scale(0.1 -0.1)">
      <defs>
       <path id="CMSSBX10-4c" d="M 1523 646 
L 1523 4110 
C 1523 4313 1478 4416 1216 4416 
L 890 4416 
C 659 4416 582 4345 582 4110 
L 582 307 
C 582 76 653 0 890 0 
L 3110 0 
C 3354 0 3418 83 3418 307 
L 3418 364 
C 3418 512 3411 671 3117 671 
L 1523 646 
z
" transform="scale(0.015625)"/>
      </defs>
      <use xlink:href="#CMSSBX10-4c" transform="scale(0.996264)"/>
      <use xlink:href="#CMSSBX10-65" transform="translate(57.838982 0) scale(0.996264)"/>
      <use xlink:href="#CMSSBX10-69" transform="translate(108.759434 0) scale(0.996264)"/>
      <use xlink:href="#CMSSBX10-73" transform="translate(134.219653 0) scale(0.996264)"/>
      <use xlink:href="#CMSSBX10-74" transform="translate(176.229018 0) scale(0.996264)"/>
      <use xlink:href="#CMSSBX10-75" transform="translate(216.494922 0) scale(0.996264)"/>
      <use xlink:href="#CMSSBX10-6e" transform="translate(272.39671 0) scale(0.996264)"/>
      <use xlink:href="#CMSSBX10-67" transform="translate(328.298498 0) scale(0.996264)"/>
      <use xlink:href="#CMSSBX10-28" transform="translate(419.623206 0) scale(0.996264)"/>
      <use xlink:href="#CMSSBX10-57" transform="translate(462.241402 0) scale(0.996264)"/>
      <use xlink:href="#CMSSBX10-29" transform="translate(565.742738 0) scale(0.996264)"/>
     </g>
    </g>
   </g>
   <g id="patch_14">
    <path d="M 389.549056 459.386284 
L 389.549056 25.10218 
" style="fill: none; stroke: #000000; stroke-width: 0.8; stroke-linejoin: miter; stroke-linecap: square"/>
   </g>
   <g id="patch_15">
    <path d="M 697.861417 459.386284 
L 697.861417 25.10218 
" style="fill: none; stroke: #000000; stroke-width: 0.8; stroke-linejoin: miter; stroke-linecap: square"/>
   </g>
   <g id="patch_16">
    <path d="M 389.549056 459.386284 
L 697.861417 459.386284 
" style="fill: none; stroke: #000000; stroke-width: 0.8; stroke-linejoin: miter; stroke-linecap: square"/>
   </g>
   <g id="patch_17">
    <path d="M 389.549056 25.10218 
L 697.861417 25.10218 
" style="fill: none; stroke: #000000; stroke-width: 0.8; stroke-linejoin: miter; stroke-linecap: square"/>
   </g>
   <g id="text_26">
    <!-- Leistungen -->
    <g transform="translate(517.672633 19.10218) scale(0.12 -0.12)">
     <defs>
      <path id="CMSS17-4c" d="M 1670 416 
C 1594 416 1517 409 1440 409 
L 1101 409 
L 1101 4416 
L 563 4416 
L 563 0 
L 3002 0 
L 3002 416 
L 1670 416 
z
" transform="scale(0.015625)"/>
      <path id="CMSS17-74" d="M 1069 2380 
L 1901 2380 
L 1901 2752 
L 1069 2752 
L 1069 3520 
L 614 3520 
L 614 2752 
L 109 2752 
L 109 2380 
L 602 2380 
L 602 751 
C 602 384 685 -64 1107 -64 
C 1427 -64 1722 25 2003 172 
L 1901 551 
C 1747 416 1562 339 1363 339 
C 1082 339 1069 699 1069 860 
L 1069 2380 
z
" transform="scale(0.015625)"/>
     </defs>
     <use xlink:href="#CMSS17-4c" transform="scale(0.996264)"/>
     <use xlink:href="#CMSS17-65" transform="translate(50.687105 0) scale(0.996264)"/>
     <use xlink:href="#CMSS17-69" transform="translate(92.325927 0) scale(0.996264)"/>
     <use xlink:href="#CMSS17-73" transform="translate(114.50665 0) scale(0.996264)"/>
     <use xlink:href="#CMSS17-74" transform="translate(150.420192 0) scale(0.996264)"/>
     <use xlink:href="#CMSS17-75" transform="translate(184.251759 0) scale(0.996264)"/>
     <use xlink:href="#CMSS17-6e" transform="translate(232.456702 0) scale(0.996264)"/>
     <use xlink:href="#CMSS17-67" transform="translate(280.661645 0) scale(0.996264)"/>
     <use xlink:href="#CMSS17-65" transform="translate(327.505269 0) scale(0.996264)"/>
     <use xlink:href="#CMSS17-6e" transform="translate(369.144091 0) scale(0.996264)"/>
    </g>
   </g>
  </g>
 </g>
 <defs>
  <clipPath id="p46f921790e">
   <rect x="36.743975" y="25.10218" width="308.312361" height="434.284105"/>
  </clipPath>
  <clipPath id="p68f9ace144">
   <rect x="389.549056" y="25.10218" width="308.312361" height="434.284105"/>
  </clipPath>
 </defs>
</svg>
