<svg xmlns="http://www.w3.org/2000/svg" viewBox="0 0 75.1 75.1"><defs><style>.cls-1{fill:#2f3b3f;}.cls-2{fill:#fff;}</style></defs><g id="lg1"><path class="cls-1" d="M11,11a37.5,37.5,0,0,0,0,53.1L64.1,11A37.5,37.5,0,0,0,11,11Z"/><g id="läufer"><path class="cls-1" d="M55.1,45.6a6.8,6.8,0,0,0-.5-2.5.2.2,0,0,1,0-.3,1.5,1.5,0,0,0,.1-.6,3,3,0,0,0-.3-1.6,2.4,2.4,0,0,0-1.3-.9l-1.8-.5a.1.1,0,0,1-.1-.1V37.7a.7.7,0,0,0,.4-.6,1.1,1.1,0,0,0,0-.6h0c0-.2.1-2-1.6-2a1.7,1.7,0,0,0-1.9,1.8,3.8,3.8,0,0,0,.1,1l.5.7v1.2h-.6c-.9.1-2.6.5-3,1.3s-.6,2.6-.8,3a4.4,4.4,0,0,0,.3,1.5c0,.4.3,2.2.3,2.2s.3.4.2.6,0,1.6.3,1.9.8,1.9,1.1,1.8a5.6,5.6,0,0,0,0-1.3.1.1,0,0,1,0-.2h.1v-.8a2.7,2.7,0,0,0,0-.9c-.1-.3-.6-.3-.6-.7s.3-1.9.3-2.4-.4-1.4-.4-1.4l.8-1a7.4,7.4,0,0,1,.2,1.8c0,.4.5.7.5,1.7s-.1.9-.1,1.6a6.6,6.6,0,0,0,0,2c0,.1,0,.1-.1.1l-.3,1.3v.2c.1.3.4,1.3.7,2a6.9,6.9,0,0,0,1.2,1.6,15.7,15.7,0,0,0-.3,1.6,10.2,10.2,0,0,0,.5,1.8,11.5,11.5,0,0,1,.2,1.6c0,.4.4,1.4.5,2s-.3,1.2-.2,1.3a3.8,3.8,0,0,1-.1,1c-.1.3-.7,1.7-.5,2.1a1.3,1.3,0,0,0,1.1.4s-.3,1.9.8,1.9,1.1-1.4,1-1.9a5.1,5.1,0,0,1,.2-2.5,18.2,18.2,0,0,1,.8-1.9,13.1,13.1,0,0,0,0-2.8c0-.3.3-1,.3-1.2a7.8,7.8,0,0,0,.4-1.9,22.7,22.7,0,0,0,.6-3,10.2,10.2,0,0,0-.1-3,16.9,16.9,0,0,1-.6-3.8h0c.2.7,1.3,1.4,1.8.9S55.1,46.1,55.1,45.6Zm-4,13.7a10.6,10.6,0,0,1-.4,1.9h-.1V59.6c.1-.4.2-1.4.3-1.8h0A6.8,6.8,0,0,1,51.1,59.3Z"/><path class="cls-1" d="M54.5,45.9a3.4,3.4,0,0,0-.4-1c-.1-.2-.8-.9-.9-1.4s-.2-1.7-.4-2.1a6.4,6.4,0,0,0-1-1.4c-.2-.1-.1.1-.1.2s.3,1,.3,1.2-.3-.4-.3-.3a6.4,6.4,0,0,0,.2.9c0,.1.1.9.1,1a3.1,3.1,0,0,1,.5,1,18,18,0,0,1,.5,1.9,9.2,9.2,0,0,1,.3.9Z"/><path class="cls-1" d="M48.6,35.9c0-.1,0-.1.1-.1l1,.3c.3,0,1.1,0,1.4-.3s.2,1.8.1,1.9-.7,1.2-1.2,1.2a2.7,2.7,0,0,1-1.3-.9c0-.2-.2-1.3-.2-1.7S48.5,36,48.6,35.9Z"/></g><g id="text"><path class="cls-2" d="M7,33.4l-.5-.7a2.1,2.1,0,0,0,.6-1c.1-.4,0-.6-.2-.7s-.4.2-.7.6l-.3.4a1.2,1.2,0,0,1-1.3.7c-.7-.1-1.1-.9-1-1.8a1.8,1.8,0,0,1,.9-1.2l.5.6a1.2,1.2,0,0,0-.6.9c0,.3.1.5.3.5s.4-.2.6-.5l.3-.5c.4-.5.8-.8,1.3-.7a1.5,1.5,0,0,1,1,1.9A2.4,2.4,0,0,1,7,33.4Z"/><path class="cls-2" d="M6.8,29.3a1.6,1.6,0,0,1-1.1-2.1,1.5,1.5,0,0,1,2.1-1,1.6,1.6,0,1,1-1,3.1Zm.7-2.2c-.5-.2-1-.1-1.1.3s.1.8.7,1,.9,0,1-.4S8,27.3,7.5,27.1Z"/><path class="cls-2" d="M8.4,25.6l-1.8-.8.5-.9,1.6.8c.4.2.6.2.8-.2a.6.6,0,0,0-.1-.7l-1.9-.9.4-.9,2.9,1.4-.3.7H10a1.3,1.3,0,0,1,.1,1.2C9.7,25.9,9.2,26,8.4,25.6Z"/><path class="cls-2" d="M8.7,20.7l.4-.6.6.3h.1a1.5,1.5,0,0,1,0-1.6l.4-.4.6.6-.4.4a1.4,1.4,0,0,0,.1,1.4l1.4.9-.5.8Z"/><path class="cls-2" d="M12.1,18.6a1.6,1.6,0,0,1-.1-2.5,1.9,1.9,0,0,1,1.1-.7v.7a.9.9,0,0,0-.6.4A.9.9,0,1,0,14,17.7a1.6,1.6,0,0,0,.3-.8H15a2.2,2.2,0,0,1-.5,1.4A1.7,1.7,0,0,1,12.1,18.6Z"/><path class="cls-2" d="M14.6,15.6a1.6,1.6,0,0,1,.1-2.4,1.4,1.4,0,0,1,2.1.1l.3.4-1.6,1.5c.4.3.7.2,1.1-.2a1.8,1.8,0,0,0,.5-.7l.6.2a2.6,2.6,0,0,1-.7,1.1A1.6,1.6,0,0,1,14.6,15.6Zm.4-.9,1-.9c-.3-.3-.6-.3-.8,0A.6.6,0,0,0,15,14.7Z"/><path class="cls-2" d="M20.5,10.3a2.2,2.2,0,0,1,.7-3,2.3,2.3,0,0,1,1.4-.1l-.2.8a.8.8,0,0,0-.8.1c-.5.3-.6.9-.2,1.7s1,1,1.6.7a1.8,1.8,0,0,0,.5-.7l.7.2a1.8,1.8,0,0,1-.9,1.2A2,2,0,0,1,20.5,10.3Z"/><path class="cls-2" d="M24.2,8.8a1.6,1.6,0,0,1,1-2.1,1.6,1.6,0,0,1,2.1.9,1.6,1.6,0,0,1-.9,2.2A1.7,1.7,0,0,1,24.2,8.8ZM26.4,8c-.2-.5-.6-.8-1-.6s-.5.6-.2,1.1.5.7.9.6S26.6,8.5,26.4,8Z"/><path class="cls-2" d="M28,7.4a1.4,1.4,0,0,1,.9-1.9.8.8,0,0,1,.8.1h.1l-.2-.5L29.3,4l1-.2,1.1,4.4-.8.2V8.1h-.1a1.1,1.1,0,0,1-.7.6C28.9,8.9,28.2,8.4,28,7.4Zm2.2.1-.3-1.3h-.6c-.3.1-.5.5-.4,1.1s.4.8.8.7A.7.7,0,0,0,30.2,7.5Z"/><path class="cls-2" d="M31.8,6.5a1.7,1.7,0,0,1,1.5-1.9A1.4,1.4,0,0,1,35,5.9v.5l-2.2.3a.9.9,0,0,0,1.1.5,1.1,1.1,0,0,0,.7-.3l.4.5a1.8,1.8,0,0,1-1.2.5A1.6,1.6,0,0,1,31.8,6.5Zm1-.5,1.3-.2a.7.7,0,0,0-1.3.2Z"/><path class="cls-1" d="M63.8,31c0-1.4.7-2.1,1.7-2.1s1.7.7,1.7,2.1-.7,2.2-1.7,2.2S63.8,32.5,63.8,31Zm2.4,0c0-.8-.2-1.3-.7-1.3s-.7.5-.7,1.3.3,1.4.7,1.4S66.2,31.9,66.2,31Z"/><path class="cls-1" d="M63.9,37.6A2.1,2.1,0,0,1,66,35.3a1.7,1.7,0,0,1,1.2.6l-.5.6a.9.9,0,0,0-.7-.3,1.2,1.2,0,0,0-1.1,1.3c0,.9.5,1.4,1.1,1.4a1,1,0,0,0,.8-.4l.5.6a1.8,1.8,0,0,1-1.4.6A1.9,1.9,0,0,1,63.9,37.6Z"/><path class="cls-1" d="M64,41.9h1.5c.9,0,1.7.3,1.7,1.3a1.2,1.2,0,0,1-.8,1.2l1,1.7H66.3l-.8-1.5H65v1.5H64Zm1.5,1.9c.5,0,.7-.2.7-.6s-.2-.5-.7-.5H65v1.1Z"/><path class="cls-2" d="M14,36c-1-1-1-2-.3-2.7s1.6-.6,2.7.4,1.1,2.1.4,2.8S15.1,37.1,14,36Zm1.7-1.6c-.7-.8-1.2-.8-1.5-.5s-.3.7.5,1.5,1.2.8,1.5.5S16.5,35.1,15.7,34.4Zm-.9.8a.5.5,0,0,1,.7-.7c.3.2.2.5,0,.7S15,35.5,14.8,35.2Z"/><path class="cls-2" d="M18,34l.7-.7L17,31.5l-.6.7-.5-.5a3,3,0,0,0,.6-1.1l.5-.5,2.4,2.5.7-.7.6.6-2.2,2.1Z"/><path class="cls-2" d="M19.8,30.4c-1.1-1.1-1.1-2-.4-2.7s1.7-.7,2.7.4,1.1,2,.4,2.7S20.8,31.4,19.8,30.4Zm1.7-1.7c-.8-.8-1.3-.8-1.6-.5s-.3.8.5,1.6,1.2.8,1.5.5S22.2,29.5,21.5,28.7Zm-1,.9a.6.6,0,0,1,0-.8c.2-.2.5-.2.8.1a.5.5,0,0,1,0,.7A.6.6,0,0,1,20.5,29.6Z"/><path class="cls-2" d="M23.7,28.4l.8-.8-1.8-1.7-.6.6-.4-.5a3.1,3.1,0,0,0,.5-1l.5-.6,2.5,2.5.6-.7.6.6-2.2,2.1Z"/><path class="cls-2" d="M26.5,25.5l.8-.7L25.6,23l-.6.6-.5-.4a3,3,0,0,0,.6-1.1l.5-.5L28,24.1l.7-.7.6.6-2.2,2.1Z"/><path class="cls-2" d="M29.4,22.7l.8-.8-1.8-1.7-.6.6-.4-.4a3.4,3.4,0,0,0,.5-1.1l.5-.5,2.5,2.4.7-.6.5.5L30,23.3Z"/><path class="cls-2" d="M32.3,19.9l.7-.8-1.7-1.8-.6.7-.5-.5a3,3,0,0,0,.6-1.1l.5-.5,2.4,2.5.7-.7.6.6-2.2,2.1Z"/><path class="cls-2" d="M35.1,17l.8-.7-1.7-1.8-.7.6-.4-.4a2.7,2.7,0,0,0,.5-1.1l.6-.5,2.4,2.5.7-.7.5.5-2.1,2.2Z"/><path class="cls-2" d="M20.8,42.6l.8-.8-1.8-1.7-.6.6-.4-.4a3.4,3.4,0,0,0,.5-1.1l.5-.5,2.5,2.4.6-.6.6.5-2.2,2.2Z"/><path class="cls-2" d="M23.6,39.8l.8-.8-1.7-1.8-.6.7-.5-.5a3,3,0,0,0,.6-1.1l.5-.5,2.4,2.5.7-.7.6.6-2.2,2.1Z"/><path class="cls-2" d="M25.4,36.1c-1-1-1.1-2-.4-2.7s1.7-.6,2.8.4,1.1,2,.4,2.7S26.4,37.1,25.4,36.1Zm1.7-1.7c-.8-.8-1.2-.8-1.5-.5s-.3.8.4,1.6,1.3.8,1.6.5S27.9,35.2,27.1,34.4Zm-.9.9a.5.5,0,0,1,.7-.7c.3.2.2.5,0,.7A.5.5,0,0,1,26.2,35.3Z"/><path class="cls-2" d="M28.3,33.3c-1-1.1-1.1-2.1-.4-2.8s1.7-.6,2.7.4,1.1,2.1.4,2.8S29.3,34.3,28.3,33.3ZM30,31.6c-.8-.8-1.3-.8-1.6-.5s-.3.7.5,1.5,1.3.8,1.6.5S30.8,32.4,30,31.6Zm-.9.8a.5.5,0,0,1,.7-.7.6.6,0,0,1,0,.8C29.6,32.6,29.3,32.7,29.1,32.4Z"/><path class="cls-2" d="M32.2,31.3l.8-.8-1.7-1.8-.7.7-.4-.5a2.7,2.7,0,0,0,.5-1.1l.6-.5,2.4,2.5.7-.7.5.6-2.1,2.1Z"/><path class="cls-2" d="M35.1,28.4l.8-.8-1.8-1.7-.6.6-.4-.4a5.4,5.4,0,0,0,.5-1.1l.5-.5,2.5,2.4.6-.6.6.5L35.6,29Z"/><path class="cls-2" d="M36.9,24.7c-1.1-1-1.1-2-.4-2.7s1.7-.6,2.7.4,1.1,2.1.4,2.8S37.9,25.8,36.9,24.7Zm1.7-1.6c-.8-.8-1.3-.8-1.6-.5s-.3.7.5,1.5,1.3.8,1.5.5S39.3,23.8,38.6,23.1Zm-.9.8a.4.4,0,0,1-.1-.7.6.6,0,0,1,.8,0,.5.5,0,0,1,0,.7C38.2,24.1,37.9,24.2,37.7,23.9Z"/><path class="cls-2" d="M39.7,21.9c-1-1-1.1-2-.4-2.7s1.7-.6,2.7.4,1.1,2,.4,2.7S40.7,22.9,39.7,21.9Zm1.7-1.7c-.8-.8-1.2-.8-1.5-.5s-.3.8.4,1.6,1.3.8,1.6.5S42.2,21,41.4,20.2Zm-.9.9a.5.5,0,1,1,.7,0A.5.5,0,0,1,40.5,21.1Z"/></g></g></svg>