<svg xmlns="http://www.w3.org/2000/svg" viewBox="0 0 127.56 127.56"><circle cx="63.78" cy="63.78" r="56.69" style="fill:#25383c"/><path d="M23.69,23.69a56.7,56.7,0,0,0,0,80.18l80.18-80.18A56.7,56.7,0,0,0,23.69,23.69Z" style="fill:#b82327"/><path d="M90.28,75.92a8,8,0,0,0-.82-3.82.51.51,0,0,1,0-.4,1.88,1.88,0,0,0,.18-.93,5,5,0,0,0-.4-2.45,3.65,3.65,0,0,0-2-1.32c-.44-.06-2.16-.54-2.68-.69a.21.21,0,0,1-.16-.21V64a1.11,1.11,0,0,0,.62-.89,3.31,3.31,0,0,0,0-.93v0c0-.3.15-3-2.48-3a2.6,2.6,0,0,0-2.82,2.72,4.49,4.49,0,0,0,.1,1.48,9.29,9.29,0,0,0,.8,1.08l0,1.79a.2.2,0,0,1-.18.2l-.75.07c-1.37.17-3.84.63-4.55,1.86s-.87,4-1.09,4.54.27,1.65.35,2.34.48,3.3.48,3.3.43.6.37.84-.06,2.45.42,2.88,1.16,2.84,1.6,2.76c.24,0,0-1.79,0-2s0-.18,0-.2a.25.25,0,0,0,.13-.22l0-1.22a3.61,3.61,0,0,0-.1-1.34c-.19-.42-.94-.5-.9-1.1s.46-2.86.4-3.53a13.47,13.47,0,0,0-.52-2.16l1.22-1.55a19.94,19.94,0,0,1,.35,2.75c0,.6.67,1,.71,2.64a16.06,16.06,0,0,1-.25,2.34c-.09.87,0,2.74,0,3.11a.34.34,0,0,1,0,.1l-.5,2a.36.36,0,0,0,0,.23c.12.43.6,2,1,3.06.44,1.2,1.83,2.29,1.83,2.47a16,16,0,0,0-.42,2.27,16.07,16.07,0,0,0,.71,2.76,10.45,10.45,0,0,1,.35,2.4c0,.66.63,2.1.79,3.12s-.45,1.73-.39,1.91a3.84,3.84,0,0,1-.14,1.56c-.18.36-1,2.45-.65,3.11s1.1.61,1.52.61c0,0-.35,2.83,1.28,2.94s1.6-2.24,1.49-2.92a9.29,9.29,0,0,1,.28-3.87c.34-.64,1-2.36,1.17-2.77.4-.9,0-3.66,0-4.19a7.32,7.32,0,0,1,.55-1.92,16.69,16.69,0,0,0,.59-2.75c.05-.72.87-3.74.92-4.58a16.39,16.39,0,0,0-.28-4.58,25.73,25.73,0,0,1-.81-5.76s0,0,0,0c.25,1.07,2,2.11,2.61,1.44C91,78.26,90.19,76.62,90.28,75.92Zm-6,20.75a21.45,21.45,0,0,1-.61,2.84s-.1,0-.1,0a17.65,17.65,0,0,1,0-2.5c.08-.49.29-2.07.38-2.74a.05.05,0,0,1,.1,0A12.7,12.7,0,0,1,84.24,96.67Z" style="fill:#b82327"/><path d="M89.33,76.31a5.46,5.46,0,0,0-.52-1.41,8.36,8.36,0,0,1-1.49-2.15c-.22-.72-.28-2.6-.54-3.21a8.06,8.06,0,0,0-1.54-2.12c-.22-.09-.12.22-.14.38s.49,1.48.52,1.84-.44-.6-.49-.44a9.66,9.66,0,0,0,.36,1.34c0,.09.16,1.35.16,1.46s.63,1.17.75,1.47.63,2.72.73,2.94.44,1.26.44,1.26Z" style="fill:#b82327"/><path d="M80.4,61.24a.14.14,0,0,1,.2-.1,6.66,6.66,0,0,0,1.54.47,4,4,0,0,0,2-.44c.44-.36.39,2.65.26,2.83s-1.09,1.78-1.78,1.78a3.63,3.63,0,0,1-2-1.38,16.36,16.36,0,0,1-.32-2.47C80.33,61.63,80.37,61.39,80.4,61.24Z" style="fill:#b82327"/><text transform="matrix(0.19, -0.98, 0.98, 0.19, 18.4, 58.07)" style="font-size:9.779060363769531px;fill:#25383c;font-family:Consolas-Bold, Consolas;font-weight:700">S</text><text transform="translate(19.37 52.98) rotate(-72.54)" style="font-size:9.779060363769531px;fill:#25383c;font-family:Consolas-Bold, Consolas;font-weight:700">o</text><text transform="translate(20.93 48.01) rotate(-66)" style="font-size:9.779060363769531px;fill:#25383c;font-family:Consolas-Bold, Consolas;font-weight:700">u</text><text transform="translate(23.04 43.24) rotate(-59.46)" style="font-size:9.779060363769531px;fill:#25383c;font-family:Consolas-Bold, Consolas;font-weight:700">r</text><text transform="matrix(0.6, -0.8, 0.8, 0.6, 25.67, 38.76)" style="font-size:9.779060363769531px;fill:#25383c;font-family:Consolas-Bold, Consolas;font-weight:700">c</text><text transform="matrix(0.69, -0.72, 0.72, 0.69, 28.79, 34.62)" style="font-size:9.779060363769531px;fill:#25383c;font-family:Consolas-Bold, Consolas;font-weight:700">e</text><text transform="translate(32.37 30.85) rotate(-39.73)" style="font-size:9.779060363769531px;fill:#25383c;font-family:Consolas-Bold, Consolas;font-weight:700"> </text><text transform="translate(36.37 27.51) rotate(-33.11)" style="font-size:9.779060363769531px;fill:#25383c;font-family:Consolas-Bold, Consolas;font-weight:700">C</text><text transform="matrix(0.89, -0.45, 0.45, 0.89, 40.72, 24.66)" style="font-size:9.779060363769531px;fill:#25383c;font-family:Consolas-Bold, Consolas;font-weight:700">o</text><text transform="matrix(0.94, -0.34, 0.34, 0.94, 45.37, 22.33)" style="font-size:9.779060363769531px;fill:#25383c;font-family:Consolas-Bold, Consolas;font-weight:700">d</text><text transform="translate(50.26 20.53) rotate(-13.53)" style="font-size:9.779060363769531px;fill:#25383c;font-family:Consolas-Bold, Consolas;font-weight:700">e</text><text transform="translate(106 49.04)" style="writing-mode:tb;text-orientation:upright;glyph-orientation-vertical:0deg;font-size:9.779029846191406px;fill:#b82327;font-family:MyriadPro-Regular, Myriad Pro">OCR</text><text transform="translate(29.91 63.95) rotate(-44.79)" style="font-size:10.130029678344727px;fill:#25383c;font-family:Consolas">01011111<tspan x="0" y="12.16">11001100</tspan></text></svg>