<svg xmlns="http://www.w3.org/2000/svg" xmlns:xlink="http://www.w3.org/1999/xlink" viewBox="0 0 75.1 75.1"><defs><linearGradient id="Unbenannter_Verlauf_71" x1="44.31" y1="51.7" x2="55.3" y2="51.7" gradientUnits="userSpaceOnUse"><stop offset="0" stop-color="#006499"/><stop offset=".19" stop-color="#135a92"/><stop offset=".5" stop-color="#304b88"/><stop offset=".54" stop-color="#2f4985"/><stop offset=".75" stop-color="#2b407b"/><stop offset="1" stop-color="#2a3d78"/></linearGradient><linearGradient id="Unbenannter_Verlauf_71-2" x1="51.68" y1="43.4" x2="54.48" y2="43.4" xlink:href="#Unbenannter_Verlauf_71"/><linearGradient id="Unbenannter_Verlauf_71-3" x1="48.5" y1="37.39" x2="51.29" y2="37.39" xlink:href="#Unbenannter_Verlauf_71"/><linearGradient id="Unbenannter_Verlauf_71-4" x1="0" y1="32.1" x2="64.12" y2="32.1" xlink:href="#Unbenannter_Verlauf_71"/><style>.cls-5{fill:#2e5286}.cls-6{fill:#fff}</style></defs><g id="lg2"><g id="läufer"><path d="M55.1 45.6a7.3 7.3 0 0 0-.5-2.5.2.2 0 0 1 0-.3s.1-.1.1-.6a3 3 0 0 0-.3-1.6 3 3 0 0 0-1.3-.9l-1.8-.4a.3.3 0 0 1-.1-.2v-1.4a.5.5 0 0 0 .4-.5 1.5 1.5 0 0 0 0-.7c0-.2.1-2-1.6-2a1.8 1.8 0 0 0-1.9 1.8 3.4 3.4 0 0 0 .1 1l.5.7v1.2h-.6c-.9.1-2.6.4-3 1.2s-.6 2.7-.8 3a5 5 0 0 0 .3 1.6c0 .4.3 2.2.3 2.2s.3.4.2.5 0 1.6.3 1.9.8 1.9 1.1 1.8a5.6 5.6 0 0 0 0-1.3c-.1-.1 0-.1 0-.1s.1-.1.1-.2V49a2.6 2.6 0 0 0 0-.9c-.1-.3-.6-.3-.6-.7s.3-1.9.3-2.3-.4-1.5-.4-1.5l.8-1a7.4 7.4 0 0 1 .2 1.8c0 .4.5.7.5 1.8s-.1.9-.1 1.5a7.3 7.3 0 0 0 0 2.1h-.1l-.3 1.3c.1.3.4 1.4.7 2.1a6.9 6.9 0 0 0 1.2 1.6 9.6 9.6 0 0 0-.3 1.5 7 7 0 0 0 .5 1.8 13.7 13.7 0 0 1 .2 1.6c0 .5.4 1.4.5 2.1s-.3 1.1-.2 1.2a4.5 4.5 0 0 1-.1 1.1c-.1.2-.7 1.6-.5 2s.8.4 1.1.4-.3 1.9.8 2 1.1-1.5 1-1.9A5.5 5.5 0 0 1 52 64a15.9 15.9 0 0 1 .8-1.8 13 13 0 0 0 0-2.8 13 13 0 0 1 .3-1.3 6.9 6.9 0 0 0 .4-1.8c.1-.5.6-2.5.6-3a10.9 10.9 0 0 0-.1-3.1 16.9 16.9 0 0 1-.6-3.8c.2.7 1.3 1.4 1.8 1s-.1-1.3-.1-1.8zm-4 13.8a12.9 12.9 0 0 1-.4 1.9h-.1v-1.7c.1-.3.2-1.4.3-1.8a8.8 8.8 0 0 1 .2 1.6z" style="fill:url(#Unbenannter_Verlauf_71)"/><path d="M54.5 45.9a3.1 3.1 0 0 0-.4-.9 6.6 6.6 0 0 1-.9-1.5c-.2-.4-.2-1.7-.4-2.1a10.4 10.4 0 0 0-1-1.4c-.2 0-.1.2-.1.3s.3 1 .3 1.2-.3-.4-.3-.3.2.8.2.9.1.9.1 1a1.9 1.9 0 0 1 .5.9 14.6 14.6 0 0 1 .5 2 4.1 4.1 0 0 1 .3.8z" style="fill:url(#Unbenannter_Verlauf_71-2)"/><path d="M48.6 35.9s0-.1.1 0l1 .3a3.5 3.5 0 0 0 1.4-.3c.2-.3.2 1.7.1 1.8s-.7 1.2-1.2 1.2a2.2 2.2 0 0 1-1.3-.9c0-.2-.2-1.3-.2-1.6a.7.7 0 0 1 .1-.5z" style="fill:url(#Unbenannter_Verlauf_71-3)"/></g><path d="M11 11a37.6 37.6 0 0 0 0 53.2L64.1 11A37.7 37.7 0 0 0 11 11z" style="fill:url(#Unbenannter_Verlauf_71-4)"/><path class="cls-5" d="M63.8 31.1c0-1.4.7-2.2 1.7-2.2s1.7.8 1.7 2.2-.7 2.2-1.7 2.2-1.7-.8-1.7-2.2zm2.4 0c0-.9-.2-1.4-.7-1.4s-.7.5-.7 1.4.3 1.4.7 1.4.7-.5.7-1.4zM63.9 37.6a2 2 0 0 1 2.1-2.2 1.7 1.7 0 0 1 1.2.5l-.5.6a.9.9 0 0 0-.7-.3c-.6 0-1.1.5-1.1 1.4a1.2 1.2 0 0 0 1.1 1.3 1.3 1.3 0 0 0 .8-.3l.5.5a1.6 1.6 0 0 1-1.4.7 2 2 0 0 1-2-2.2zM64 41.9h1.5c.9 0 1.7.4 1.7 1.4a1.2 1.2 0 0 1-.8 1.2l1 1.7h-1.1l-.8-1.6H65v1.6h-1zm1.5 2c.5 0 .7-.2.7-.6s-.2-.6-.7-.6H65v1.2z"/><g id="text"><path class="cls-6" d="m7 33.4-.5-.7a1.7 1.7 0 0 0 .6-1c.1-.4 0-.6-.2-.6s-.4.1-.7.5l-.3.5c-.3.4-.7.8-1.3.6s-1.1-.8-1-1.7a2 2 0 0 1 .9-1.3l.5.6a1.8 1.8 0 0 0-.6.9.6.6 0 0 0 .3.6c.3 0 .4-.2.6-.6l.3-.5a1.3 1.3 0 0 1 1.3-.6 1.4 1.4 0 0 1 1 1.8 2.4 2.4 0 0 1-.9 1.5zM6.8 29.3a1.5 1.5 0 0 1-1.1-2.1 1.6 1.6 0 0 1 2.1-1 1.7 1.7 0 0 1 1.1 2.1 1.6 1.6 0 0 1-2.1 1zm.7-2.2c-.5-.1-1 0-1.1.4s.1.7.7.9.9.1 1-.3-.1-.8-.6-1zM8.4 25.6l-1.8-.8.5-.9 1.6.8c.4.2.6.2.8-.1a.6.6 0 0 0-.1-.7l-1.9-1 .4-.8 2.9 1.4-.3.7-.4-.2H10a1.3 1.3 0 0 1 .1 1.2c-.4.7-.9.8-1.7.4zM8.7 20.8l.4-.7.6.3h.1a1.4 1.4 0 0 1 0-1.5l.4-.5.6.6-.4.5a1.2 1.2 0 0 0 .1 1.3l1.4.9-.5.8zM12.1 18.6a1.6 1.6 0 0 1-.1-2.5 1.4 1.4 0 0 1 1.1-.6v.7a.7.7 0 0 0-.6.4.9.9 0 0 0 .1 1.3.9.9 0 0 0 1.3-.2 1.1 1.1 0 0 0 .3-.8h.8a1.9 1.9 0 0 1-.5 1.3 1.6 1.6 0 0 1-2.4.4zM14.6 15.7a1.6 1.6 0 0 1 .1-2.4 1.3 1.3 0 0 1 2.1.1c.1.1.2.3.3.3l-1.6 1.5c.4.3.7.2 1.1-.1a2.2 2.2 0 0 0 .5-.8l.6.2a2.4 2.4 0 0 1-.7 1.2 1.6 1.6 0 0 1-2.4 0zm.4-1 1-.9c-.3-.3-.6-.3-.8 0s-.4.6-.2.9zM20.5 10.3a2.1 2.1 0 0 1 .7-2.9 1.7 1.7 0 0 1 1.4-.1l-.2.7h-.8a1.2 1.2 0 0 0-.2 1.7c.4.8 1 1 1.6.7a1.8 1.8 0 0 0 .5-.7l.7.3a1.8 1.8 0 0 1-.9 1.2 2.1 2.1 0 0 1-2.8-.9zM24.2 8.9a1.7 1.7 0 0 1 1-2.2 1.6 1.6 0 0 1 2.1 1 1.5 1.5 0 0 1-.9 2.1 1.6 1.6 0 0 1-2.2-.9zm2.2-.9a.8.8 0 0 0-1-.6c-.4.2-.5.6-.2 1.1s.5.8.9.6.5-.5.3-1.1zM28 7.5a1.5 1.5 0 0 1 .9-2 1.1 1.1 0 0 1 .8.1h.1l-.2-.4-.3-1.1 1-.2 1.1 4.4h-.8v-.2h-.1a1.2 1.2 0 0 1-.7.7c-.9.2-1.6-.3-1.8-1.3zm2.2 0-.3-1.2a.7.7 0 0 0-.6-.1c-.3.1-.5.4-.4 1s.4.8.8.8a.8.8 0 0 0 .5-.5zM31.8 6.5a1.6 1.6 0 0 1 1.5-1.8A1.3 1.3 0 0 1 35 6v.4l-2.2.3a.9.9 0 0 0 1.1.5 1.1 1.1 0 0 0 .7-.3l.4.5a2.7 2.7 0 0 1-1.2.6 1.7 1.7 0 0 1-2-1.5zm1-.4 1.3-.2c-.1-.4-.3-.6-.7-.5s-.6.2-.6.7zM14 36.1c-1-1-1-2-.3-2.7s1.6-.6 2.7.4 1.1 2 .4 2.7-1.7.6-2.8-.4zm1.7-1.7c-.7-.8-1.2-.8-1.5-.5s-.3.8.5 1.6 1.2.8 1.5.5.3-.8-.5-1.6zm-.9.9a.5.5 0 0 1 .7-.7c.3.2.2.5 0 .7a.5.5 0 0 1-.7 0zM18 34.1l.7-.8-1.7-1.7-.6.6-.5-.4a6.4 6.4 0 0 0 .6-1.1l.5-.5 2.4 2.4.7-.7.6.6-2.2 2.2zM19.8 30.4c-1.1-1-1.1-2-.4-2.7s1.7-.6 2.7.4 1.1 2.1.4 2.7-1.7.6-2.7-.4zm1.7-1.7c-.8-.8-1.3-.7-1.6-.5s-.3.8.5 1.6 1.2.8 1.5.5.3-.8-.4-1.6zm-1 .9a.5.5 0 0 1 0-.7.6.6 0 0 1 .8 0 .5.5 0 0 1 0 .7.6.6 0 0 1-.8 0zM23.7 28.4l.8-.8-1.8-1.7-.6.6-.4-.4a2.7 2.7 0 0 0 .5-1.1l.5-.5 2.5 2.4.6-.6.6.5-2.2 2.2zM26.5 25.6l.8-.8-1.7-1.7-.6.6-.5-.4a6.4 6.4 0 0 0 .6-1.1l.5-.5 2.4 2.4.7-.7.6.6-2.2 2.1zM29.4 22.7l.8-.7-1.8-1.8-.6.6-.4-.4a2.7 2.7 0 0 0 .5-1.1l.5-.5 2.5 2.5.7-.7.5.6-2.1 2.1zM32.3 19.9l.7-.8-1.7-1.7-.6.6-.5-.4a4.1 4.1 0 0 0 .6-1.1l.5-.5 2.4 2.4.7-.6.6.5-2.2 2.2zM35.1 17.1l.8-.8-1.7-1.8-.7.7-.4-.5a3.1 3.1 0 0 0 .5-1l.6-.6 2.4 2.5.7-.7.5.6-2.1 2.1zM20.8 42.6l.8-.7-1.8-1.8-.6.6-.4-.4a2.7 2.7 0 0 0 .5-1.1l.5-.5 2.5 2.5.6-.7.6.6-2.2 2.1zM23.6 39.8l.8-.8-1.7-1.7-.6.6-.5-.4a4.1 4.1 0 0 0 .6-1.1l.5-.5 2.4 2.4.7-.6.6.5-2.2 2.2zM25.4 36.1c-1-1-1.1-2-.4-2.7s1.7-.6 2.8.4 1.1 2.1.4 2.8-1.8.6-2.8-.5zm1.7-1.7c-.8-.7-1.2-.7-1.5-.4s-.3.7.4 1.5 1.3.8 1.6.5.3-.8-.5-1.6zm-.9.9a.5.5 0 0 1 .7-.7c.3.2.2.5 0 .7a.5.5 0 0 1-.7 0zM28.3 33.3c-1-1-1.1-2-.4-2.7s1.7-.6 2.7.4 1.1 2 .4 2.7-1.7.6-2.7-.4zm1.7-1.7c-.8-.8-1.3-.8-1.6-.5s-.3.8.5 1.6 1.3.8 1.6.5.3-.8-.5-1.6zm-.9.9a.5.5 0 1 1 .7 0 .5.5 0 0 1-.7 0zM32.2 31.3l.8-.8-1.7-1.7-.7.6-.4-.4a3.4 3.4 0 0 0 .5-1.1l.6-.5 2.4 2.4.7-.7.5.6-2.1 2.2zM35.1 28.5l.8-.8-1.8-1.8-.6.7-.4-.5a5.4 5.4 0 0 0 .5-1.1l.5-.5 2.5 2.5.6-.7.6.6-2.2 2.1zM36.9 24.8c-1.1-1-1.1-2-.4-2.7s1.7-.7 2.7.4 1.1 2 .4 2.7-1.7.6-2.7-.4zm1.7-1.7c-.8-.8-1.3-.8-1.6-.5s-.3.8.5 1.6 1.3.8 1.5.5.3-.8-.4-1.6zm-.9.9a.4.4 0 0 1-.1-.7.5.5 0 0 1 .8 0 .5.5 0 0 1-.7.7zM39.7 21.9c-1-1-1.1-2-.4-2.7s1.7-.6 2.7.4 1.1 2.1.4 2.8-1.7.6-2.7-.5zm1.7-1.6c-.8-.8-1.2-.8-1.5-.5s-.3.7.4 1.5 1.3.8 1.6.5.3-.8-.5-1.5zm-.9.8a.5.5 0 0 1 .7-.7c.2.3.2.5 0 .7s-.5.3-.7 0z"/></g></g></svg>